<svg width="391" height="348" viewBox="0 0 391 348" fill="none" xmlns="http://www.w3.org/2000/svg">
<g filter="url(#filter0_d_905_60462)">
<path d="M2 17C2 8.16345 9.16344 1 18 1H373C381.837 1 389 8.16344 389 17V329C389 337.837 381.837 345 373 345H18C9.16345 345 2 337.837 2 329V17Z" fill="white"/>
<path d="M18 1.5H373C381.56 1.5 388.5 8.43959 388.5 17V329C388.5 337.56 381.56 344.5 373 344.5H18C9.43959 344.5 2.5 337.56 2.5 329V17C2.5 8.43959 9.43959 1.5 18 1.5Z" stroke="#E2E4E9"/>
<path d="M25.904 36.728H21.248L20.448 39H18.544L22.528 27.864H24.64L28.624 39H26.704L25.904 36.728ZM25.392 35.24L23.584 30.072L21.76 35.24H25.392ZM29.5723 34.584C29.5723 33.6773 29.7536 32.8827 30.1163 32.2C30.4896 31.5067 31.0016 30.9733 31.6523 30.6C32.3029 30.2267 33.0496 30.04 33.8923 30.04C34.9589 30.04 35.8389 30.296 36.5323 30.808C37.2363 31.3093 37.7109 32.0293 37.9563 32.968H35.9883C35.8283 32.5307 35.5723 32.1893 35.2203 31.944C34.8683 31.6987 34.4256 31.576 33.8923 31.576C33.1456 31.576 32.5483 31.8427 32.1003 32.376C31.6629 32.8987 31.4443 33.6347 31.4443 34.584C31.4443 35.5333 31.6629 36.2747 32.1003 36.808C32.5483 37.3413 33.1456 37.608 33.8923 37.608C34.9483 37.608 35.6469 37.144 35.9883 36.216H37.9563C37.7003 37.112 37.2203 37.8267 36.5163 38.36C35.8123 38.8827 34.9376 39.144 33.8923 39.144C33.0496 39.144 32.3029 38.9573 31.6523 38.584C31.0016 38.2 30.4896 37.6667 30.1163 36.984C29.7536 36.2907 29.5723 35.4907 29.5723 34.584ZM41.726 31.672V36.552C41.726 36.8827 41.8007 37.1227 41.95 37.272C42.11 37.4107 42.3767 37.48 42.75 37.48H43.87V39H42.43C41.6087 39 40.9793 38.808 40.542 38.424C40.1047 38.04 39.886 37.416 39.886 36.552V31.672H38.846V30.184H39.886V27.992H41.726V30.184H43.87V31.672H41.726ZM46.3031 29.016C45.9725 29.016 45.6951 28.904 45.4711 28.68C45.2471 28.456 45.1351 28.1787 45.1351 27.848C45.1351 27.5173 45.2471 27.24 45.4711 27.016C45.6951 26.792 45.9725 26.68 46.3031 26.68C46.6231 26.68 46.8951 26.792 47.1191 27.016C47.3431 27.24 47.4551 27.5173 47.4551 27.848C47.4551 28.1787 47.3431 28.456 47.1191 28.68C46.8951 28.904 46.6231 29.016 46.3031 29.016ZM47.1991 30.184V39H45.3751V30.184H47.1991ZM52.8259 37.368L55.3219 30.184H57.2579L53.8979 39H51.7219L48.3779 30.184H50.3299L52.8259 37.368ZM59.3886 29.016C59.058 29.016 58.7806 28.904 58.5566 28.68C58.3326 28.456 58.2206 28.1787 58.2206 27.848C58.2206 27.5173 58.3326 27.24 58.5566 27.016C58.7806 26.792 59.058 26.68 59.3886 26.68C59.7086 26.68 59.9806 26.792 60.2046 27.016C60.4286 27.24 60.5406 27.5173 60.5406 27.848C60.5406 28.1787 60.4286 28.456 60.2046 28.68C59.9806 28.904 59.7086 29.016 59.3886 29.016ZM60.2846 30.184V39H58.4606V30.184H60.2846ZM64.6314 31.672V36.552C64.6314 36.8827 64.706 37.1227 64.8554 37.272C65.0154 37.4107 65.282 37.48 65.6554 37.48H66.7754V39H65.3354C64.514 39 63.8847 38.808 63.4474 38.424C63.01 38.04 62.7914 37.416 62.7914 36.552V31.672H61.7514V30.184H62.7914V27.992H64.6314V30.184H66.7754V31.672H64.6314ZM69.2085 29.016C68.8778 29.016 68.6005 28.904 68.3765 28.68C68.1525 28.456 68.0405 28.1787 68.0405 27.848C68.0405 27.5173 68.1525 27.24 68.3765 27.016C68.6005 26.792 68.8778 26.68 69.2085 26.68C69.5285 26.68 69.8005 26.792 70.0245 27.016C70.2485 27.24 70.3605 27.5173 70.3605 27.848C70.3605 28.1787 70.2485 28.456 70.0245 28.68C69.8005 28.904 69.5285 29.016 69.2085 29.016ZM70.1045 30.184V39H68.2805V30.184H70.1045ZM80.4032 34.376C80.4032 34.7067 80.3819 35.0053 80.3392 35.272H73.6032C73.6566 35.976 73.9179 36.5413 74.3872 36.968C74.8566 37.3947 75.4326 37.608 76.1152 37.608C77.0966 37.608 77.7899 37.1973 78.1952 36.376H80.1632C79.8966 37.1867 79.4112 37.8533 78.7072 38.376C78.0139 38.888 77.1499 39.144 76.1152 39.144C75.2726 39.144 74.5152 38.9573 73.8432 38.584C73.1819 38.2 72.6592 37.6667 72.2752 36.984C71.9019 36.2907 71.7152 35.4907 71.7152 34.584C71.7152 33.6773 71.8966 32.8827 72.2592 32.2C72.6326 31.5067 73.1499 30.9733 73.8112 30.6C74.4832 30.2267 75.2512 30.04 76.1152 30.04C76.9472 30.04 77.6886 30.2213 78.3392 30.584C78.9899 30.9467 79.4966 31.4587 79.8592 32.12C80.2219 32.7707 80.4032 33.5227 80.4032 34.376ZM78.4992 33.8C78.4886 33.128 78.2486 32.5893 77.7792 32.184C77.3099 31.7787 76.7286 31.576 76.0352 31.576C75.4059 31.576 74.8672 31.7787 74.4192 32.184C73.9712 32.5787 73.7046 33.1173 73.6192 33.8H78.4992ZM85.2223 39.144C84.5289 39.144 83.9049 39.0213 83.3503 38.776C82.8063 38.52 82.3743 38.1787 82.0543 37.752C81.7343 37.3147 81.5636 36.8293 81.5423 36.296H83.4303C83.4623 36.6693 83.6383 36.984 83.9583 37.24C84.2889 37.4853 84.6996 37.608 85.1903 37.608C85.7023 37.608 86.0969 37.512 86.3743 37.32C86.6623 37.1173 86.8063 36.8613 86.8063 36.552C86.8063 36.2213 86.6463 35.976 86.3263 35.816C86.0169 35.656 85.5209 35.48 84.8383 35.288C84.1769 35.1067 83.6383 34.9307 83.2223 34.76C82.8063 34.5893 82.4436 34.328 82.1343 33.976C81.8356 33.624 81.6863 33.16 81.6863 32.584C81.6863 32.1147 81.8249 31.688 82.1023 31.304C82.3796 30.9093 82.7743 30.6 83.2863 30.376C83.8089 30.152 84.4063 30.04 85.0783 30.04C86.0809 30.04 86.8863 30.296 87.4943 30.808C88.1129 31.3093 88.4436 31.9973 88.4863 32.872H86.6623C86.6303 32.4773 86.4703 32.1627 86.1823 31.928C85.8943 31.6933 85.5049 31.576 85.0143 31.576C84.5343 31.576 84.1663 31.6667 83.9103 31.848C83.6543 32.0293 83.5263 32.2693 83.5263 32.568C83.5263 32.8027 83.6116 33 83.7823 33.16C83.9529 33.32 84.1609 33.448 84.4063 33.544C84.6516 33.6293 85.0143 33.7413 85.4943 33.88C86.1343 34.0507 86.6569 34.2267 87.0623 34.408C87.4783 34.5787 87.8356 34.8347 88.1343 35.176C88.4329 35.5173 88.5876 35.9707 88.5983 36.536C88.5983 37.0373 88.4596 37.4853 88.1823 37.88C87.9049 38.2747 87.5103 38.584 86.9983 38.808C86.4969 39.032 85.9049 39.144 85.2223 39.144Z" fill="#0A0D14"/>
<line x1="18" y1="64.5" x2="373" y2="64.5" stroke="#E2E4E9"/>
<rect x="18" y="85" width="40" height="40" rx="20" fill="#EBF1FF"/>
<path d="M38 112.5C33.8578 112.5 30.5 109.142 30.5 105C30.5 100.858 33.8578 97.5 38 97.5C42.1423 97.5 45.5 100.858 45.5 105C45.5 109.142 42.1423 112.5 38 112.5ZM38.75 105V101.25H37.25V106.5H41.75V105H38.75Z" fill="#375DFB"/>
<path d="M73.764 87.355V88.378H71.729V95H70.475V88.378H68.429V87.355H73.764ZM78.741 95.077C78.0297 95.077 77.3733 94.912 76.772 94.582C76.178 94.2447 75.705 93.779 75.353 93.185C75.0083 92.5837 74.836 91.909 74.836 91.161C74.836 90.413 75.0083 89.742 75.353 89.148C75.705 88.554 76.178 88.092 76.772 87.762C77.3733 87.4247 78.0297 87.256 78.741 87.256C79.4597 87.256 80.116 87.4247 80.71 87.762C81.3113 88.092 81.7843 88.554 82.129 89.148C82.4737 89.742 82.646 90.413 82.646 91.161C82.646 91.909 82.4737 92.5837 82.129 93.185C81.7843 93.779 81.3113 94.2447 80.71 94.582C80.116 94.912 79.4597 95.077 78.741 95.077ZM78.741 93.988C79.247 93.988 79.698 93.8743 80.094 93.647C80.49 93.4123 80.798 93.0823 81.018 92.657C81.2453 92.2243 81.359 91.7257 81.359 91.161C81.359 90.5963 81.2453 90.1013 81.018 89.676C80.798 89.2507 80.49 88.9243 80.094 88.697C79.698 88.4697 79.247 88.356 78.741 88.356C78.235 88.356 77.784 88.4697 77.388 88.697C76.992 88.9243 76.6803 89.2507 76.453 89.676C76.233 90.1013 76.123 90.5963 76.123 91.161C76.123 91.7257 76.233 92.2243 76.453 92.657C76.6803 93.0823 76.992 93.4123 77.388 93.647C77.784 93.8743 78.235 93.988 78.741 93.988ZM89.039 87.355V88.378H87.004V95H85.75V88.378H83.704V87.355H89.039ZM95.1379 93.438H91.9369L91.3869 95H90.0779L92.8169 87.344H94.2689L97.0079 95H95.6879L95.1379 93.438ZM94.7859 92.415L93.5429 88.862L92.2889 92.415H94.7859ZM99.6729 93.988H102.258V95H98.4189V87.355H99.6729V93.988ZM116.559 87.355L114.293 95H112.874L111.268 89.214L109.563 95L108.155 95.011L105.988 87.355H107.319L108.903 93.581L110.619 87.355H112.027L113.622 93.548L115.217 87.355H116.559ZM121.3 95.077C120.589 95.077 119.933 94.912 119.331 94.582C118.737 94.2447 118.264 93.779 117.912 93.185C117.568 92.5837 117.395 91.909 117.395 91.161C117.395 90.413 117.568 89.742 117.912 89.148C118.264 88.554 118.737 88.092 119.331 87.762C119.933 87.4247 120.589 87.256 121.3 87.256C122.019 87.256 122.675 87.4247 123.269 87.762C123.871 88.092 124.344 88.554 124.688 89.148C125.033 89.742 125.205 90.413 125.205 91.161C125.205 91.909 125.033 92.5837 124.688 93.185C124.344 93.779 123.871 94.2447 123.269 94.582C122.675 94.912 122.019 95.077 121.3 95.077ZM121.3 93.988C121.806 93.988 122.257 93.8743 122.653 93.647C123.049 93.4123 123.357 93.0823 123.577 92.657C123.805 92.2243 123.918 91.7257 123.918 91.161C123.918 90.5963 123.805 90.1013 123.577 89.676C123.357 89.2507 123.049 88.9243 122.653 88.697C122.257 88.4697 121.806 88.356 121.3 88.356C120.794 88.356 120.343 88.4697 119.947 88.697C119.551 88.9243 119.24 89.2507 119.012 89.676C118.792 90.1013 118.682 90.5963 118.682 91.161C118.682 91.7257 118.792 92.2243 119.012 92.657C119.24 93.0823 119.551 93.4123 119.947 93.647C120.343 93.8743 120.794 93.988 121.3 93.988ZM130.63 95L128.87 91.942H127.913V95H126.659V87.355H129.299C129.886 87.355 130.381 87.4577 130.784 87.663C131.195 87.8683 131.499 88.1433 131.697 88.488C131.903 88.8327 132.005 89.2177 132.005 89.643C132.005 90.1417 131.859 90.5963 131.565 91.007C131.279 91.4103 130.836 91.6853 130.234 91.832L132.126 95H130.63ZM127.913 90.941H129.299C129.769 90.941 130.121 90.8237 130.355 90.589C130.597 90.3543 130.718 90.039 130.718 89.643C130.718 89.247 130.601 88.939 130.366 88.719C130.132 88.4917 129.776 88.378 129.299 88.378H127.913V90.941ZM138.042 95L135.083 91.579V95H133.829V87.355H135.083V90.842L138.053 87.355H139.626L136.304 91.183L139.681 95H138.042Z" fill="#868C98"/>
<path d="M68.81 107.75V105.878H72.554V119H70.484V107.75H68.81ZM83.419 107.462L78.415 119H76.345L81.403 107.678H74.743V105.932H83.419V107.462ZM94.711 108.92C95.467 108.92 96.139 109.082 96.727 109.406C97.327 109.73 97.795 110.21 98.131 110.846C98.479 111.482 98.653 112.25 98.653 113.15V119H96.619V113.456C96.619 112.568 96.397 111.89 95.953 111.422C95.509 110.942 94.903 110.702 94.135 110.702C93.367 110.702 92.755 110.942 92.299 111.422C91.855 111.89 91.633 112.568 91.633 113.456V119H89.581V105.68H91.633V110.234C91.981 109.814 92.419 109.49 92.947 109.262C93.487 109.034 94.075 108.92 94.711 108.92ZM105.302 119.162C104.366 119.162 103.52 118.952 102.764 118.532C102.008 118.1 101.414 117.5 100.982 116.732C100.55 115.952 100.334 115.052 100.334 114.032C100.334 113.024 100.556 112.13 101 111.35C101.444 110.57 102.05 109.97 102.818 109.55C103.586 109.13 104.444 108.92 105.392 108.92C106.34 108.92 107.198 109.13 107.966 109.55C108.734 109.97 109.34 110.57 109.784 111.35C110.228 112.13 110.45 113.024 110.45 114.032C110.45 115.04 110.222 115.934 109.766 116.714C109.31 117.494 108.686 118.1 107.894 118.532C107.114 118.952 106.25 119.162 105.302 119.162ZM105.302 117.38C105.83 117.38 106.322 117.254 106.778 117.002C107.246 116.75 107.624 116.372 107.912 115.868C108.2 115.364 108.344 114.752 108.344 114.032C108.344 113.312 108.206 112.706 107.93 112.214C107.654 111.71 107.288 111.332 106.832 111.08C106.376 110.828 105.884 110.702 105.356 110.702C104.828 110.702 104.336 110.828 103.88 111.08C103.436 111.332 103.082 111.71 102.818 112.214C102.554 112.706 102.422 113.312 102.422 114.032C102.422 115.1 102.692 115.928 103.232 116.516C103.784 117.092 104.474 117.38 105.302 117.38ZM121.191 109.082V119H119.139V117.83C118.815 118.238 118.389 118.562 117.861 118.802C117.345 119.03 116.793 119.144 116.205 119.144C115.425 119.144 114.723 118.982 114.099 118.658C113.487 118.334 113.001 117.854 112.641 117.218C112.293 116.582 112.119 115.814 112.119 114.914V109.082H114.153V114.608C114.153 115.496 114.375 116.18 114.819 116.66C115.263 117.128 115.869 117.362 116.637 117.362C117.405 117.362 118.011 117.128 118.455 116.66C118.911 116.18 119.139 115.496 119.139 114.608V109.082H121.191ZM125.68 110.522C125.98 110.018 126.376 109.628 126.868 109.352C127.372 109.064 127.966 108.92 128.65 108.92V111.044H128.128C127.324 111.044 126.712 111.248 126.292 111.656C125.884 112.064 125.68 112.772 125.68 113.78V119H123.628V109.082H125.68V110.522ZM133.867 119.162C133.087 119.162 132.385 119.024 131.761 118.748C131.149 118.46 130.663 118.076 130.303 117.596C129.943 117.104 129.751 116.558 129.727 115.958H131.851C131.887 116.378 132.085 116.732 132.445 117.02C132.817 117.296 133.279 117.434 133.831 117.434C134.407 117.434 134.851 117.326 135.163 117.11C135.487 116.882 135.649 116.594 135.649 116.246C135.649 115.874 135.469 115.598 135.109 115.418C134.761 115.238 134.203 115.04 133.435 114.824C132.691 114.62 132.085 114.422 131.617 114.23C131.149 114.038 130.741 113.744 130.393 113.348C130.057 112.952 129.889 112.43 129.889 111.782C129.889 111.254 130.045 110.774 130.357 110.342C130.669 109.898 131.113 109.55 131.689 109.298C132.277 109.046 132.949 108.92 133.705 108.92C134.833 108.92 135.739 109.208 136.423 109.784C137.119 110.348 137.491 111.122 137.539 112.106H135.487C135.451 111.662 135.271 111.308 134.947 111.044C134.623 110.78 134.185 110.648 133.633 110.648C133.093 110.648 132.679 110.75 132.391 110.954C132.103 111.158 131.959 111.428 131.959 111.764C131.959 112.028 132.055 112.25 132.247 112.43C132.439 112.61 132.673 112.754 132.949 112.862C133.225 112.958 133.633 113.084 134.173 113.24C134.893 113.432 135.481 113.63 135.937 113.834C136.405 114.026 136.807 114.314 137.143 114.698C137.479 115.082 137.653 115.592 137.665 116.228C137.665 116.792 137.509 117.296 137.197 117.74C136.885 118.184 136.441 118.532 135.865 118.784C135.301 119.036 134.635 119.162 133.867 119.162ZM152.008 107.75V105.878H155.752V119H153.682V107.75H152.008ZM159.435 116.21C160.587 115.214 161.493 114.398 162.153 113.762C162.825 113.114 163.383 112.442 163.827 111.746C164.271 111.05 164.493 110.354 164.493 109.658C164.493 108.938 164.319 108.374 163.971 107.966C163.635 107.558 163.101 107.354 162.369 107.354C161.661 107.354 161.109 107.582 160.713 108.038C160.329 108.482 160.125 109.082 160.101 109.838H158.121C158.157 108.47 158.565 107.426 159.345 106.706C160.137 105.974 161.139 105.608 162.351 105.608C163.659 105.608 164.679 105.968 165.411 106.688C166.155 107.408 166.527 108.368 166.527 109.568C166.527 110.432 166.305 111.266 165.861 112.07C165.429 112.862 164.907 113.576 164.295 114.212C163.695 114.836 162.927 115.562 161.991 116.39L161.181 117.11H166.887V118.82H158.139V117.326L159.435 116.21ZM185.101 108.92C185.881 108.92 186.577 109.082 187.189 109.406C187.813 109.73 188.299 110.21 188.647 110.846C189.007 111.482 189.187 112.25 189.187 113.15V119H187.153V113.456C187.153 112.568 186.931 111.89 186.487 111.422C186.043 110.942 185.437 110.702 184.669 110.702C183.901 110.702 183.289 110.942 182.833 111.422C182.389 111.89 182.167 112.568 182.167 113.456V119H180.133V113.456C180.133 112.568 179.911 111.89 179.467 111.422C179.023 110.942 178.417 110.702 177.649 110.702C176.881 110.702 176.269 110.942 175.813 111.422C175.369 111.89 175.147 112.568 175.147 113.456V119H173.095V109.082H175.147V110.216C175.483 109.808 175.909 109.49 176.425 109.262C176.941 109.034 177.493 108.92 178.081 108.92C178.873 108.92 179.581 109.088 180.205 109.424C180.829 109.76 181.309 110.246 181.645 110.882C181.945 110.282 182.413 109.808 183.049 109.46C183.685 109.1 184.369 108.92 185.101 108.92ZM192.573 107.768C192.201 107.768 191.889 107.642 191.637 107.39C191.385 107.138 191.259 106.826 191.259 106.454C191.259 106.082 191.385 105.77 191.637 105.518C191.889 105.266 192.201 105.14 192.573 105.14C192.933 105.14 193.239 105.266 193.491 105.518C193.743 105.77 193.869 106.082 193.869 106.454C193.869 106.826 193.743 107.138 193.491 107.39C193.239 107.642 192.933 107.768 192.573 107.768ZM193.581 109.082V119H191.529V109.082H193.581ZM201.009 108.92C201.789 108.92 202.485 109.082 203.097 109.406C203.721 109.73 204.207 110.21 204.555 110.846C204.903 111.482 205.077 112.25 205.077 113.15V119H203.043V113.456C203.043 112.568 202.821 111.89 202.377 111.422C201.933 110.942 201.327 110.702 200.559 110.702C199.791 110.702 199.179 110.942 198.723 111.422C198.279 111.89 198.057 112.568 198.057 113.456V119H196.005V109.082H198.057V110.216C198.393 109.808 198.819 109.49 199.335 109.262C199.863 109.034 200.421 108.92 201.009 108.92ZM211.024 119.162C210.244 119.162 209.542 119.024 208.918 118.748C208.306 118.46 207.82 118.076 207.46 117.596C207.1 117.104 206.908 116.558 206.884 115.958H209.008C209.044 116.378 209.242 116.732 209.602 117.02C209.974 117.296 210.436 117.434 210.988 117.434C211.564 117.434 212.008 117.326 212.32 117.11C212.644 116.882 212.806 116.594 212.806 116.246C212.806 115.874 212.626 115.598 212.266 115.418C211.918 115.238 211.36 115.04 210.592 114.824C209.848 114.62 209.242 114.422 208.774 114.23C208.306 114.038 207.898 113.744 207.55 113.348C207.214 112.952 207.046 112.43 207.046 111.782C207.046 111.254 207.202 110.774 207.514 110.342C207.826 109.898 208.27 109.55 208.846 109.298C209.434 109.046 210.106 108.92 210.862 108.92C211.99 108.92 212.896 109.208 213.58 109.784C214.276 110.348 214.648 111.122 214.696 112.106H212.644C212.608 111.662 212.428 111.308 212.104 111.044C211.78 110.78 211.342 110.648 210.79 110.648C210.25 110.648 209.836 110.75 209.548 110.954C209.26 111.158 209.116 111.428 209.116 111.764C209.116 112.028 209.212 112.25 209.404 112.43C209.596 112.61 209.83 112.754 210.106 112.862C210.382 112.958 210.79 113.084 211.33 113.24C212.05 113.432 212.638 113.63 213.094 113.834C213.562 114.026 213.964 114.314 214.3 114.698C214.636 115.082 214.81 115.592 214.822 116.228C214.822 116.792 214.666 117.296 214.354 117.74C214.042 118.184 213.598 118.532 213.022 118.784C212.458 119.036 211.792 119.162 211.024 119.162Z" fill="#0A0D14"/>
<path d="M144.918 114.284C144.546 114.284 144.234 114.158 143.982 113.906C143.73 113.654 143.604 113.342 143.604 112.97C143.604 112.598 143.73 112.286 143.982 112.034C144.234 111.782 144.546 111.656 144.918 111.656C145.278 111.656 145.584 111.782 145.836 112.034C146.088 112.286 146.214 112.598 146.214 112.97C146.214 113.342 146.088 113.654 145.836 113.906C145.584 114.158 145.278 114.284 144.918 114.284Z" fill="#868C98"/>
<g clip-path="url(#clip0_905_60462)">
<rect x="18" y="145" width="355" height="24" rx="6" fill="white"/>
<rect x="18" y="145" width="71" height="24" fill="#F6F8FA"/>
<rect x="18" y="145" width="71" height="24" stroke="#E2E4E9"/>
<mask id="path-12-outside-1_905_60462" maskUnits="userSpaceOnUse" x="33.5" y="151" width="41" height="15" fill="black">
<rect fill="white" x="33.5" y="151" width="41" height="15"/>
<path d="M40.9501 152.66V153.776H38.7301V161H37.3621V153.776H35.1301V152.66H40.9501ZM45.2035 161.108C44.5795 161.108 44.0155 160.968 43.5115 160.688C43.0075 160.4 42.6115 160 42.3235 159.488C42.0355 158.968 41.8915 158.368 41.8915 157.688C41.8915 157.016 42.0395 156.42 42.3355 155.9C42.6315 155.38 43.0355 154.98 43.5475 154.7C44.0595 154.42 44.6315 154.28 45.2635 154.28C45.8955 154.28 46.4675 154.42 46.9795 154.7C47.4915 154.98 47.8955 155.38 48.1915 155.9C48.4875 156.42 48.6355 157.016 48.6355 157.688C48.6355 158.36 48.4835 158.956 48.1795 159.476C47.8755 159.996 47.4595 160.4 46.9315 160.688C46.4115 160.968 45.8355 161.108 45.2035 161.108ZM45.2035 159.92C45.5555 159.92 45.8835 159.836 46.1875 159.668C46.4995 159.5 46.7515 159.248 46.9435 158.912C47.1355 158.576 47.2315 158.168 47.2315 157.688C47.2315 157.208 47.1395 156.804 46.9555 156.476C46.7715 156.14 46.5275 155.888 46.2235 155.72C45.9195 155.552 45.5915 155.468 45.2395 155.468C44.8875 155.468 44.5595 155.552 44.2555 155.72C43.9595 155.888 43.7235 156.14 43.5475 156.476C43.3715 156.804 43.2835 157.208 43.2835 157.688C43.2835 158.4 43.4635 158.952 43.8235 159.344C44.1915 159.728 44.6515 159.92 45.2035 159.92ZM49.5319 157.664C49.5319 157 49.6679 156.412 49.9399 155.9C50.2199 155.388 50.5959 154.992 51.0679 154.712C51.5479 154.424 52.0799 154.28 52.6639 154.28C53.0959 154.28 53.5199 154.376 53.9359 154.568C54.3599 154.752 54.6959 155 54.9439 155.312V152.12H56.3239V161H54.9439V160.004C54.7199 160.324 54.4079 160.588 54.0079 160.796C53.6159 161.004 53.1639 161.108 52.6519 161.108C52.0759 161.108 51.5479 160.964 51.0679 160.676C50.5959 160.38 50.2199 159.972 49.9399 159.452C49.6679 158.924 49.5319 158.328 49.5319 157.664ZM54.9439 157.688C54.9439 157.232 54.8479 156.836 54.6559 156.5C54.4719 156.164 54.2279 155.908 53.9239 155.732C53.6199 155.556 53.2919 155.468 52.9399 155.468C52.5879 155.468 52.2599 155.556 51.9559 155.732C51.6519 155.9 51.4039 156.152 51.2119 156.488C51.0279 156.816 50.9359 157.208 50.9359 157.664C50.9359 158.12 51.0279 158.52 51.2119 158.864C51.4039 159.208 51.6519 159.472 51.9559 159.656C52.2679 159.832 52.5959 159.92 52.9399 159.92C53.2919 159.92 53.6199 159.832 53.9239 159.656C54.2279 159.48 54.4719 159.224 54.6559 158.888C54.8479 158.544 54.9439 158.144 54.9439 157.688ZM57.6647 157.664C57.6647 157 57.8007 156.412 58.0727 155.9C58.3527 155.388 58.7287 154.992 59.2007 154.712C59.6807 154.424 60.2087 154.28 60.7847 154.28C61.3047 154.28 61.7567 154.384 62.1407 154.592C62.5327 154.792 62.8447 155.044 63.0767 155.348V154.388H64.4567V161H63.0767V160.016C62.8447 160.328 62.5287 160.588 62.1287 160.796C61.7287 161.004 61.2727 161.108 60.7607 161.108C60.1927 161.108 59.6727 160.964 59.2007 160.676C58.7287 160.38 58.3527 159.972 58.0727 159.452C57.8007 158.924 57.6647 158.328 57.6647 157.664ZM63.0767 157.688C63.0767 157.232 62.9807 156.836 62.7887 156.5C62.6047 156.164 62.3607 155.908 62.0567 155.732C61.7527 155.556 61.4247 155.468 61.0727 155.468C60.7207 155.468 60.3927 155.556 60.0887 155.732C59.7847 155.9 59.5367 156.152 59.3447 156.488C59.1607 156.816 59.0687 157.208 59.0687 157.664C59.0687 158.12 59.1607 158.52 59.3447 158.864C59.5367 159.208 59.7847 159.472 60.0887 159.656C60.4007 159.832 60.7287 159.92 61.0727 159.92C61.4247 159.92 61.7527 159.832 62.0567 159.656C62.3607 159.48 62.6047 159.224 62.7887 158.888C62.9807 158.544 63.0767 158.144 63.0767 157.688ZM72.2055 154.388L68.1495 164.108H66.7335L68.0775 160.892L65.4735 154.388H66.9975L68.8575 159.428L70.7895 154.388H72.2055Z"/>
</mask>
<path d="M40.9501 152.66V153.776H38.7301V161H37.3621V153.776H35.1301V152.66H40.9501ZM45.2035 161.108C44.5795 161.108 44.0155 160.968 43.5115 160.688C43.0075 160.4 42.6115 160 42.3235 159.488C42.0355 158.968 41.8915 158.368 41.8915 157.688C41.8915 157.016 42.0395 156.42 42.3355 155.9C42.6315 155.38 43.0355 154.98 43.5475 154.7C44.0595 154.42 44.6315 154.28 45.2635 154.28C45.8955 154.28 46.4675 154.42 46.9795 154.7C47.4915 154.98 47.8955 155.38 48.1915 155.9C48.4875 156.42 48.6355 157.016 48.6355 157.688C48.6355 158.36 48.4835 158.956 48.1795 159.476C47.8755 159.996 47.4595 160.4 46.9315 160.688C46.4115 160.968 45.8355 161.108 45.2035 161.108ZM45.2035 159.92C45.5555 159.92 45.8835 159.836 46.1875 159.668C46.4995 159.5 46.7515 159.248 46.9435 158.912C47.1355 158.576 47.2315 158.168 47.2315 157.688C47.2315 157.208 47.1395 156.804 46.9555 156.476C46.7715 156.14 46.5275 155.888 46.2235 155.72C45.9195 155.552 45.5915 155.468 45.2395 155.468C44.8875 155.468 44.5595 155.552 44.2555 155.72C43.9595 155.888 43.7235 156.14 43.5475 156.476C43.3715 156.804 43.2835 157.208 43.2835 157.688C43.2835 158.4 43.4635 158.952 43.8235 159.344C44.1915 159.728 44.6515 159.92 45.2035 159.92ZM49.5319 157.664C49.5319 157 49.6679 156.412 49.9399 155.9C50.2199 155.388 50.5959 154.992 51.0679 154.712C51.5479 154.424 52.0799 154.28 52.6639 154.28C53.0959 154.28 53.5199 154.376 53.9359 154.568C54.3599 154.752 54.6959 155 54.9439 155.312V152.12H56.3239V161H54.9439V160.004C54.7199 160.324 54.4079 160.588 54.0079 160.796C53.6159 161.004 53.1639 161.108 52.6519 161.108C52.0759 161.108 51.5479 160.964 51.0679 160.676C50.5959 160.38 50.2199 159.972 49.9399 159.452C49.6679 158.924 49.5319 158.328 49.5319 157.664ZM54.9439 157.688C54.9439 157.232 54.8479 156.836 54.6559 156.5C54.4719 156.164 54.2279 155.908 53.9239 155.732C53.6199 155.556 53.2919 155.468 52.9399 155.468C52.5879 155.468 52.2599 155.556 51.9559 155.732C51.6519 155.9 51.4039 156.152 51.2119 156.488C51.0279 156.816 50.9359 157.208 50.9359 157.664C50.9359 158.12 51.0279 158.52 51.2119 158.864C51.4039 159.208 51.6519 159.472 51.9559 159.656C52.2679 159.832 52.5959 159.92 52.9399 159.92C53.2919 159.92 53.6199 159.832 53.9239 159.656C54.2279 159.48 54.4719 159.224 54.6559 158.888C54.8479 158.544 54.9439 158.144 54.9439 157.688ZM57.6647 157.664C57.6647 157 57.8007 156.412 58.0727 155.9C58.3527 155.388 58.7287 154.992 59.2007 154.712C59.6807 154.424 60.2087 154.28 60.7847 154.28C61.3047 154.28 61.7567 154.384 62.1407 154.592C62.5327 154.792 62.8447 155.044 63.0767 155.348V154.388H64.4567V161H63.0767V160.016C62.8447 160.328 62.5287 160.588 62.1287 160.796C61.7287 161.004 61.2727 161.108 60.7607 161.108C60.1927 161.108 59.6727 160.964 59.2007 160.676C58.7287 160.38 58.3527 159.972 58.0727 159.452C57.8007 158.924 57.6647 158.328 57.6647 157.664ZM63.0767 157.688C63.0767 157.232 62.9807 156.836 62.7887 156.5C62.6047 156.164 62.3607 155.908 62.0567 155.732C61.7527 155.556 61.4247 155.468 61.0727 155.468C60.7207 155.468 60.3927 155.556 60.0887 155.732C59.7847 155.9 59.5367 156.152 59.3447 156.488C59.1607 156.816 59.0687 157.208 59.0687 157.664C59.0687 158.12 59.1607 158.52 59.3447 158.864C59.5367 159.208 59.7847 159.472 60.0887 159.656C60.4007 159.832 60.7287 159.92 61.0727 159.92C61.4247 159.92 61.7527 159.832 62.0567 159.656C62.3607 159.48 62.6047 159.224 62.7887 158.888C62.9807 158.544 63.0767 158.144 63.0767 157.688ZM72.2055 154.388L68.1495 164.108H66.7335L68.0775 160.892L65.4735 154.388H66.9975L68.8575 159.428L70.7895 154.388H72.2055Z" fill="#0A0D14"/>
<path d="M40.9501 152.66H41.9501V151.66H40.9501V152.66ZM40.9501 153.776V154.776H41.9501V153.776H40.9501ZM38.7301 153.776V152.776H37.7301V153.776H38.7301ZM38.7301 161V162H39.7301V161H38.7301ZM37.3621 161H36.3621V162H37.3621V161ZM37.3621 153.776H38.3621V152.776H37.3621V153.776ZM35.1301 153.776H34.1301V154.776H35.1301V153.776ZM35.1301 152.66V151.66H34.1301V152.66H35.1301ZM40.9501 152.66H39.9501V153.776H40.9501H41.9501V152.66H40.9501ZM40.9501 153.776V152.776H38.7301V153.776V154.776H40.9501V153.776ZM38.7301 153.776H37.7301V161H38.7301H39.7301V153.776H38.7301ZM38.7301 161V160H37.3621V161V162H38.7301V161ZM37.3621 161H38.3621V153.776H37.3621H36.3621V161H37.3621ZM37.3621 153.776V152.776H35.1301V153.776V154.776H37.3621V153.776ZM35.1301 153.776H36.1301V152.66H35.1301H34.1301V153.776H35.1301ZM35.1301 152.66V153.66H40.9501V152.66V151.66H35.1301V152.66ZM43.5115 160.688L43.0154 161.556L43.0259 161.562L43.5115 160.688ZM42.3235 159.488L41.4487 159.973L41.452 159.978L42.3235 159.488ZM43.5475 154.7L43.0677 153.823V153.823L43.5475 154.7ZM46.9795 154.7L47.4594 153.823L46.9795 154.7ZM48.1795 159.476L47.3163 158.971L48.1795 159.476ZM46.9315 160.688L47.4057 161.568L47.4104 161.566L46.9315 160.688ZM46.1875 159.668L45.7134 158.787L45.7039 158.793L46.1875 159.668ZM46.9435 158.912L46.0753 158.416L46.9435 158.912ZM46.9555 156.476L46.0784 156.956L46.0834 156.965L46.9555 156.476ZM44.2555 155.72L43.7718 154.845L43.7619 154.85L44.2555 155.72ZM43.5475 156.476L44.4288 156.949L44.4334 156.94L43.5475 156.476ZM43.8235 159.344L43.087 160.02L43.0942 160.028L43.1016 160.036L43.8235 159.344ZM45.2035 161.108V160.108C44.7351 160.108 44.3405 160.005 43.9972 159.814L43.5115 160.688L43.0259 161.562C43.6905 161.931 44.424 162.108 45.2035 162.108V161.108ZM43.5115 160.688L44.0077 159.82C43.6627 159.623 43.3956 159.354 43.1951 158.998L42.3235 159.488L41.452 159.978C41.8275 160.646 42.3524 161.177 43.0154 161.556L43.5115 160.688ZM42.3235 159.488L43.1983 159.003C43.0036 158.652 42.8915 158.223 42.8915 157.688H41.8915H40.8915C40.8915 158.513 41.0674 159.284 41.4488 159.972L42.3235 159.488ZM41.8915 157.688H42.8915C42.8915 157.168 43.0046 156.746 43.2046 156.395L42.3355 155.9L41.4665 155.405C41.0745 156.094 40.8915 156.864 40.8915 157.688H41.8915ZM42.3355 155.9L43.2046 156.395C43.4113 156.032 43.6824 155.766 44.0274 155.577L43.5475 154.7L43.0677 153.823C42.3887 154.194 41.8518 154.728 41.4665 155.405L42.3355 155.9ZM43.5475 154.7L44.0274 155.577C44.3802 155.384 44.7849 155.28 45.2635 155.28V154.28V153.28C44.4782 153.28 43.7389 153.456 43.0677 153.823L43.5475 154.7ZM45.2635 154.28V155.28C45.7422 155.28 46.1469 155.384 46.4997 155.577L46.9795 154.7L47.4594 153.823C46.7882 153.456 46.0489 153.28 45.2635 153.28V154.28ZM46.9795 154.7L46.4997 155.577C46.8447 155.766 47.1158 156.032 47.3225 156.395L48.1915 155.9L49.0606 155.405C48.6753 154.728 48.1384 154.194 47.4594 153.823L46.9795 154.7ZM48.1915 155.9L47.3225 156.395C47.5225 156.746 47.6355 157.168 47.6355 157.688H48.6355H49.6355C49.6355 156.864 49.4526 156.094 49.0606 155.405L48.1915 155.9ZM48.6355 157.688H47.6355C47.6355 158.204 47.5207 158.622 47.3163 158.971L48.1795 159.476L49.0428 159.981C49.4464 159.29 49.6355 158.516 49.6355 157.688H48.6355ZM48.1795 159.476L47.3163 158.971C47.1039 159.334 46.8207 159.609 46.4527 159.81L46.9315 160.688L47.4104 161.566C48.0984 161.191 48.6472 160.658 49.0428 159.981L48.1795 159.476ZM46.9315 160.688L46.4574 159.808C46.0933 160.004 45.682 160.108 45.2035 160.108V161.108V162.108C45.9891 162.108 46.7298 161.932 47.4056 161.568L46.9315 160.688ZM45.2035 159.92V160.92C45.7224 160.92 46.2171 160.794 46.6712 160.543L46.1875 159.668L45.7039 158.793C45.55 158.878 45.3887 158.92 45.2035 158.92V159.92ZM46.1875 159.668L46.6616 160.548C47.1534 160.284 47.5358 159.891 47.8118 159.408L46.9435 158.912L46.0753 158.416C45.9673 158.605 45.8456 158.716 45.7134 158.788L46.1875 159.668ZM46.9435 158.912L47.8118 159.408C48.1086 158.889 48.2315 158.301 48.2315 157.688H47.2315H46.2315C46.2315 158.035 46.1625 158.263 46.0753 158.416L46.9435 158.912ZM47.2315 157.688H48.2315C48.2315 157.083 48.1156 156.5 47.8277 155.987L46.9555 156.476L46.0834 156.965C46.1635 157.108 46.2315 157.333 46.2315 157.688H47.2315ZM46.9555 156.476L47.8326 155.996C47.5673 155.511 47.194 155.114 46.7072 154.845L46.2235 155.72L45.7399 156.595C45.8611 156.662 45.9758 156.769 46.0785 156.956L46.9555 156.476ZM46.2235 155.72L46.7072 154.845C46.2531 154.594 45.7584 154.468 45.2395 154.468V155.468V156.468C45.4247 156.468 45.586 156.51 45.7399 156.595L46.2235 155.72ZM45.2395 155.468V154.468C44.7207 154.468 44.226 154.594 43.7719 154.845L44.2555 155.72L44.7392 156.595C44.8931 156.51 45.0544 156.468 45.2395 156.468V155.468ZM44.2555 155.72L43.7619 154.85C43.2802 155.124 42.9163 155.526 42.6617 156.012L43.5475 156.476L44.4334 156.94C44.5308 156.754 44.6388 156.652 44.7492 156.59L44.2555 155.72ZM43.5475 156.476L42.6664 156.003C42.393 156.513 42.2835 157.089 42.2835 157.688H43.2835H44.2835C44.2835 157.327 44.3501 157.095 44.4287 156.949L43.5475 156.476ZM43.2835 157.688H42.2835C42.2835 158.564 42.5071 159.389 43.087 160.02L43.8235 159.344L44.5601 158.668C44.42 158.515 44.2835 158.236 44.2835 157.688H43.2835ZM43.8235 159.344L43.1016 160.036C43.666 160.625 44.3905 160.92 45.2035 160.92V159.92V158.92C44.9125 158.92 44.717 158.831 44.5455 158.652L43.8235 159.344ZM49.9399 155.9L49.0625 155.42L49.0568 155.431L49.9399 155.9ZM51.0679 154.712L51.5781 155.572L51.5824 155.569L51.0679 154.712ZM53.9359 154.568L53.5168 155.476L53.5273 155.481L53.5378 155.485L53.9359 154.568ZM54.9439 155.312L54.1611 155.934L55.9439 158.177V155.312H54.9439ZM54.9439 152.12V151.12H53.9439V152.12H54.9439ZM56.3239 152.12H57.3239V151.12H56.3239V152.12ZM56.3239 161V162H57.3239V161H56.3239ZM54.9439 161H53.9439V162H54.9439V161ZM54.9439 160.004H55.9439V156.832L54.1247 159.431L54.9439 160.004ZM54.0079 160.796L53.5465 159.909L53.5392 159.913L54.0079 160.796ZM51.0679 160.676L50.5366 161.523L50.5449 161.528L50.5534 161.533L51.0679 160.676ZM49.9399 159.452L49.0509 159.91L49.0551 159.918L49.0594 159.926L49.9399 159.452ZM54.6559 156.5L53.7788 156.98L53.7831 156.988L53.7876 156.996L54.6559 156.5ZM53.9239 155.732L53.4229 156.597V156.597L53.9239 155.732ZM51.9559 155.732L52.4396 156.607L52.4483 156.602L52.4569 156.597L51.9559 155.732ZM51.2119 156.488L50.3436 155.992L50.3397 155.999L51.2119 156.488ZM51.2119 158.864L50.3301 159.336L50.3343 159.344L50.3387 159.351L51.2119 158.864ZM51.9559 159.656L51.4381 160.512L51.4512 160.519L51.4646 160.527L51.9559 159.656ZM53.9239 159.656L54.4249 160.521L53.9239 159.656ZM54.6559 158.888L53.7827 158.401L53.7788 158.408L54.6559 158.888ZM49.5319 157.664H50.5319C50.5319 157.14 50.6383 156.717 50.823 156.369L49.9399 155.9L49.0568 155.431C48.6975 156.107 48.5319 156.86 48.5319 157.664H49.5319ZM49.9399 155.9L50.8173 156.38C51.0169 156.015 51.2702 155.755 51.5781 155.572L51.0679 154.712L50.5577 153.852C49.9216 154.229 49.4229 154.761 49.0625 155.42L49.9399 155.9ZM51.0679 154.712L51.5824 155.569C51.9001 155.379 52.2529 155.28 52.6639 155.28V154.28V153.28C51.9069 153.28 51.1957 153.469 50.5534 153.855L51.0679 154.712ZM52.6639 154.28V155.28C52.9425 155.28 53.2241 155.341 53.5168 155.476L53.9359 154.568L54.3549 153.66C53.8157 153.411 53.2493 153.28 52.6639 153.28V154.28ZM53.9359 154.568L53.5378 155.485C53.8354 155.615 54.0304 155.77 54.1611 155.934L54.9439 155.312L55.7267 154.69C55.3614 154.23 54.8843 153.889 54.334 153.651L53.9359 154.568ZM54.9439 155.312H55.9439V152.12H54.9439H53.9439V155.312H54.9439ZM54.9439 152.12V153.12H56.3239V152.12V151.12H54.9439V152.12ZM56.3239 152.12H55.3239V161H56.3239H57.3239V152.12H56.3239ZM56.3239 161V160H54.9439V161V162H56.3239V161ZM54.9439 161H55.9439V160.004H54.9439H53.9439V161H54.9439ZM54.9439 160.004L54.1247 159.431C54.0063 159.6 53.8259 159.764 53.5465 159.909L54.0079 160.796L54.4692 161.683C54.9899 161.412 55.4335 161.048 55.7631 160.577L54.9439 160.004ZM54.0079 160.796L53.5392 159.913C53.3123 160.033 53.0257 160.108 52.6519 160.108V161.108V162.108C53.302 162.108 53.9195 161.975 54.4766 161.679L54.0079 160.796ZM52.6519 161.108V160.108C52.2516 160.108 51.9023 160.01 51.5824 159.819L51.0679 160.676L50.5534 161.533C51.1935 161.918 51.9002 162.108 52.6519 162.108V161.108ZM51.0679 160.676L51.5992 159.829C51.2828 159.63 51.0234 159.355 50.8204 158.978L49.9399 159.452L49.0594 159.926C49.4164 160.589 49.909 161.13 50.5366 161.523L51.0679 160.676ZM49.9399 159.452L50.8289 158.994C50.6381 158.624 50.5319 158.188 50.5319 157.664H49.5319H48.5319C48.5319 158.468 48.6977 159.224 49.0509 159.91L49.9399 159.452ZM54.9439 157.688H55.9439C55.9439 157.089 55.8167 156.516 55.5241 156.004L54.6559 156.5L53.7876 156.996C53.879 157.156 53.9439 157.375 53.9439 157.688H54.9439ZM54.6559 156.5L55.533 156.02C55.2694 155.538 54.9013 155.142 54.4249 154.867L53.9239 155.732L53.4229 156.597C53.5545 156.674 53.6744 156.79 53.7788 156.98L54.6559 156.5ZM53.9239 155.732L54.4249 154.867C53.9683 154.602 53.4674 154.468 52.9399 154.468V155.468V156.468C53.1163 156.468 53.2715 156.51 53.4229 156.597L53.9239 155.732ZM52.9399 155.468V154.468C52.4123 154.468 51.9115 154.602 51.4549 154.867L51.9559 155.732L52.4569 156.597C52.6083 156.51 52.7634 156.468 52.9399 156.468V155.468ZM51.9559 155.732L51.4722 154.857C50.9898 155.123 50.616 155.515 50.3436 155.992L51.2119 156.488L52.0801 156.984C52.1918 156.789 52.314 156.677 52.4396 156.607L51.9559 155.732ZM51.2119 156.488L50.3397 155.999C50.0558 156.505 49.9359 157.073 49.9359 157.664H50.9359H51.9359C51.9359 157.343 52 157.127 52.084 156.977L51.2119 156.488ZM50.9359 157.664H49.9359C49.9359 158.257 50.0563 158.824 50.3301 159.336L51.2119 158.864L52.0937 158.392C51.9994 158.216 51.9359 157.983 51.9359 157.664H50.9359ZM51.2119 158.864L50.3387 159.351C50.6058 159.83 50.97 160.228 51.4381 160.512L51.9559 159.656L52.4737 158.8C52.3338 158.716 52.202 158.586 52.0851 158.377L51.2119 158.864ZM51.9559 159.656L51.4646 160.527C51.9201 160.784 52.4165 160.92 52.9399 160.92V159.92V158.92C52.7753 158.92 52.6157 158.88 52.4472 158.785L51.9559 159.656ZM52.9399 159.92V160.92C53.4674 160.92 53.9683 160.786 54.4249 160.521L53.9239 159.656L53.4229 158.791C53.2715 158.878 53.1163 158.92 52.9399 158.92V159.92ZM53.9239 159.656L54.4249 160.521C54.9013 160.246 55.2694 159.85 55.533 159.368L54.6559 158.888L53.7788 158.408C53.6744 158.598 53.5545 158.714 53.4229 158.791L53.9239 159.656ZM54.6559 158.888L55.5291 159.375C55.8165 158.86 55.9439 158.287 55.9439 157.688H54.9439H53.9439C53.9439 158.001 53.8793 158.228 53.7827 158.401L54.6559 158.888ZM58.0727 155.9L57.1953 155.42L57.1896 155.431L58.0727 155.9ZM59.2007 154.712L59.7109 155.572L59.7152 155.569L59.2007 154.712ZM62.1407 154.592L61.6644 155.471L61.6753 155.477L61.6862 155.483L62.1407 154.592ZM63.0767 155.348L62.2818 155.955L64.0767 158.307V155.348H63.0767ZM63.0767 154.388V153.388H62.0767V154.388H63.0767ZM64.4567 154.388H65.4567V153.388H64.4567V154.388ZM64.4567 161V162H65.4567V161H64.4567ZM63.0767 161H62.0767V162H63.0767V161ZM63.0767 160.016H64.0767V156.995L62.2742 159.419L63.0767 160.016ZM62.1287 160.796L61.6674 159.909L62.1287 160.796ZM59.2007 160.676L58.6694 161.523L58.6798 161.53L59.2007 160.676ZM58.0727 159.452L57.1837 159.91L57.1879 159.918L57.1922 159.926L58.0727 159.452ZM62.7887 156.5L61.9116 156.98L61.916 156.988L61.9205 156.996L62.7887 156.5ZM62.0567 155.732L61.5557 156.597V156.597L62.0567 155.732ZM60.0887 155.732L60.5724 156.607L60.5811 156.602L60.5897 156.597L60.0887 155.732ZM59.3447 156.488L58.4764 155.992L58.4726 155.999L59.3447 156.488ZM59.3447 158.864L58.4629 159.336L58.4671 159.344L58.4715 159.351L59.3447 158.864ZM60.0887 159.656L59.5709 160.512L59.584 160.519L59.5974 160.527L60.0887 159.656ZM62.0567 159.656L62.5577 160.521L62.0567 159.656ZM62.7887 158.888L61.9155 158.401L61.9116 158.408L62.7887 158.888ZM57.6647 157.664H58.6647C58.6647 157.14 58.7711 156.717 58.9558 156.369L58.0727 155.9L57.1896 155.431C56.8303 156.107 56.6647 156.86 56.6647 157.664H57.6647ZM58.0727 155.9L58.9501 156.38C59.1497 156.015 59.403 155.755 59.7109 155.572L59.2007 154.712L58.6905 153.852C58.0544 154.229 57.5557 154.761 57.1953 155.42L58.0727 155.9ZM59.2007 154.712L59.7152 155.569C60.0351 155.378 60.3844 155.28 60.7847 155.28V154.28V153.28C60.033 153.28 59.3263 153.47 58.6862 153.855L59.2007 154.712ZM60.7847 154.28V155.28C61.17 155.28 61.4522 155.356 61.6644 155.471L62.1407 154.592L62.617 153.713C62.0612 153.412 61.4394 153.28 60.7847 153.28V154.28ZM62.1407 154.592L61.6862 155.483C61.965 155.625 62.1533 155.786 62.2818 155.955L63.0767 155.348L63.8717 154.741C63.5361 154.302 63.1004 153.959 62.5952 153.701L62.1407 154.592ZM63.0767 155.348H64.0767V154.388H63.0767H62.0767V155.348H63.0767ZM63.0767 154.388V155.388H64.4567V154.388V153.388H63.0767V154.388ZM64.4567 154.388H63.4567V161H64.4567H65.4567V154.388H64.4567ZM64.4567 161V160H63.0767V161V162H64.4567V161ZM63.0767 161H64.0767V160.016H63.0767H62.0767V161H63.0767ZM63.0767 160.016L62.2742 159.419C62.1459 159.592 61.9545 159.759 61.6674 159.909L62.1287 160.796L62.5901 161.683C63.1029 161.417 63.5435 161.064 63.8792 160.613L63.0767 160.016ZM62.1287 160.796L61.6674 159.909C61.4282 160.033 61.1341 160.108 60.7607 160.108V161.108V162.108C61.4113 162.108 62.0293 161.975 62.5901 161.683L62.1287 160.796ZM60.7607 161.108V160.108C60.3712 160.108 60.0323 160.012 59.7216 159.822L59.2007 160.676L58.6798 161.53C59.3132 161.916 60.0142 162.108 60.7607 162.108V161.108ZM59.2007 160.676L59.732 159.829C59.4156 159.63 59.1562 159.355 58.9532 158.978L58.0727 159.452L57.1922 159.926C57.5492 160.589 58.0418 161.13 58.6694 161.523L59.2007 160.676ZM58.0727 159.452L58.9617 158.994C58.7709 158.624 58.6647 158.188 58.6647 157.664H57.6647H56.6647C56.6647 158.468 56.8305 159.224 57.1837 159.91L58.0727 159.452ZM63.0767 157.688H64.0767C64.0767 157.089 63.9496 156.516 63.6569 156.004L62.7887 156.5L61.9205 156.996C62.0119 157.156 62.0767 157.375 62.0767 157.688H63.0767ZM62.7887 156.5L63.6658 156.02C63.4022 155.538 63.0341 155.142 62.5577 154.867L62.0567 155.732L61.5557 156.597C61.6873 156.674 61.8072 156.79 61.9116 156.98L62.7887 156.5ZM62.0567 155.732L62.5577 154.867C62.1011 154.602 61.6003 154.468 61.0727 154.468V155.468V156.468C61.2491 156.468 61.4043 156.51 61.5557 156.597L62.0567 155.732ZM61.0727 155.468V154.468C60.5451 154.468 60.0443 154.602 59.5877 154.867L60.0887 155.732L60.5897 156.597C60.7411 156.51 60.8963 156.468 61.0727 156.468V155.468ZM60.0887 155.732L59.605 154.857C59.1226 155.123 58.7488 155.515 58.4765 155.992L59.3447 156.488L60.2129 156.984C60.3246 156.789 60.4468 156.677 60.5724 156.607L60.0887 155.732ZM59.3447 156.488L58.4726 155.999C58.1886 156.505 58.0687 157.073 58.0687 157.664H59.0687H60.0687C60.0687 157.343 60.1328 157.127 60.2168 156.977L59.3447 156.488ZM59.0687 157.664H58.0687C58.0687 158.257 58.1892 158.824 58.4629 159.336L59.3447 158.864L60.2265 158.392C60.1323 158.216 60.0687 157.983 60.0687 157.664H59.0687ZM59.3447 158.864L58.4715 159.351C58.7386 159.83 59.1028 160.228 59.5709 160.512L60.0887 159.656L60.6065 158.8C60.4666 158.716 60.3348 158.586 60.2179 158.377L59.3447 158.864ZM60.0887 159.656L59.5974 160.527C60.0529 160.784 60.5493 160.92 61.0727 160.92V159.92V158.92C60.9081 158.92 60.7485 158.88 60.58 158.785L60.0887 159.656ZM61.0727 159.92V160.92C61.6003 160.92 62.1011 160.786 62.5577 160.521L62.0567 159.656L61.5557 158.791C61.4043 158.878 61.2491 158.92 61.0727 158.92V159.92ZM62.0567 159.656L62.5577 160.521C63.0341 160.246 63.4022 159.85 63.6658 159.368L62.7887 158.888L61.9116 158.408C61.8072 158.598 61.6873 158.714 61.5557 158.791L62.0567 159.656ZM62.7887 158.888L63.6619 159.375C63.9493 158.86 64.0767 158.287 64.0767 157.688H63.0767H62.0767C62.0767 158.001 62.0121 158.228 61.9155 158.401L62.7887 158.888ZM72.2055 154.388L73.1284 154.773L73.7064 153.388H72.2055V154.388ZM68.1495 164.108V165.108H68.8158L69.0724 164.493L68.1495 164.108ZM66.7335 164.108L65.8108 163.722L65.2318 165.108H66.7335V164.108ZM68.0775 160.892L69.0002 161.278L69.1579 160.9L69.0059 160.52L68.0775 160.892ZM65.4735 154.388V153.388H63.996L64.5452 154.76L65.4735 154.388ZM66.9975 154.388L67.9357 154.042L67.6944 153.388H66.9975V154.388ZM68.8575 159.428L67.9194 159.774L68.8397 162.268L69.7913 159.786L68.8575 159.428ZM70.7895 154.388V153.388H70.1019L69.8558 154.03L70.7895 154.388ZM72.2055 154.388L71.2826 154.003L67.2266 163.723L68.1495 164.108L69.0724 164.493L73.1284 154.773L72.2055 154.388ZM68.1495 164.108V163.108H66.7335V164.108V165.108H68.1495V164.108ZM66.7335 164.108L67.6562 164.494L69.0002 161.278L68.0775 160.892L67.1548 160.506L65.8108 163.722L66.7335 164.108ZM68.0775 160.892L69.0059 160.52L66.4019 154.016L65.4735 154.388L64.5452 154.76L67.1492 161.264L68.0775 160.892ZM65.4735 154.388V155.388H66.9975V154.388V153.388H65.4735V154.388ZM66.9975 154.388L66.0594 154.734L67.9194 159.774L68.8575 159.428L69.7957 159.082L67.9357 154.042L66.9975 154.388ZM68.8575 159.428L69.7913 159.786L71.7233 154.746L70.7895 154.388L69.8558 154.03L67.9238 159.07L68.8575 159.428ZM70.7895 154.388V155.388H72.2055V154.388V153.388H70.7895V154.388Z" fill="#E2E4E9" mask="url(#path-12-outside-1_905_60462)"/>
<rect x="89" y="145" width="71" height="24" fill="white"/>
<rect x="89" y="145" width="71" height="24" stroke="#E2E4E9"/>
<path d="M119.949 152.273V161H118.628V153.594H118.577L116.489 154.957V153.696L118.667 152.273H119.949ZM124.138 161L121.718 152.273H123.103L124.803 159.031H124.884L126.653 152.273H128.025L129.793 159.036H129.874L131.57 152.273H132.959L130.535 161H129.209L127.373 154.463H127.305L125.468 161H124.138Z" fill="#525866"/>
<rect x="160" y="145" width="71" height="24" fill="white"/>
<rect x="160" y="145" width="71" height="24" stroke="#E2E4E9"/>
<path d="M186.795 161V160.045L189.748 156.986C190.063 156.653 190.323 156.362 190.528 156.112C190.735 155.859 190.89 155.619 190.992 155.392C191.094 155.165 191.145 154.923 191.145 154.668C191.145 154.378 191.077 154.128 190.941 153.918C190.805 153.705 190.618 153.541 190.383 153.428C190.147 153.311 189.881 153.253 189.586 153.253C189.273 153.253 189.001 153.317 188.768 153.445C188.535 153.572 188.356 153.753 188.231 153.986C188.106 154.219 188.043 154.491 188.043 154.804H186.786C186.786 154.273 186.908 153.808 187.153 153.411C187.397 153.013 187.732 152.705 188.158 152.486C188.584 152.264 189.069 152.153 189.611 152.153C190.16 152.153 190.643 152.263 191.06 152.482C191.481 152.697 191.809 152.993 192.045 153.368C192.28 153.74 192.398 154.161 192.398 154.629C192.398 154.953 192.337 155.27 192.215 155.58C192.096 155.889 191.887 156.234 191.589 156.615C191.29 156.993 190.876 157.452 190.344 157.991L188.61 159.807V159.871H192.539V161H186.795ZM195.982 161L193.562 152.273H194.947L196.647 159.031H196.728L198.496 152.273H199.868L201.637 159.036H201.718L203.414 152.273H204.803L202.378 161H201.053L199.216 154.463H199.148L197.312 161H195.982Z" fill="#525866"/>
<rect x="231" y="145" width="71" height="24" fill="white"/>
<rect x="231" y="145" width="71" height="24" stroke="#E2E4E9"/>
<path d="M262.43 152.273V161H261.109V153.594H261.058L258.97 154.957V153.696L261.147 152.273H262.43ZM264.91 152.273H266.508L269.286 159.057H269.389L272.167 152.273H273.765V161H272.512V154.685H272.431L269.857 160.987H268.818L266.244 154.68H266.163V161H264.91V152.273Z" fill="#525866"/>
<rect x="302" y="145" width="71" height="24" fill="white"/>
<rect x="302" y="145" width="71" height="24" stroke="#E2E4E9"/>
<path d="M332.187 161.119C331.798 161.114 331.414 161.043 331.037 160.906C330.662 160.77 330.321 160.543 330.014 160.224C329.707 159.906 329.461 159.479 329.277 158.942C329.095 158.405 329.004 157.734 329.004 156.93C329.004 156.169 329.079 155.493 329.23 154.902C329.383 154.311 329.603 153.812 329.89 153.406C330.177 152.997 330.524 152.686 330.93 152.473C331.336 152.26 331.792 152.153 332.298 152.153C332.818 152.153 333.279 152.256 333.683 152.46C334.086 152.665 334.413 152.947 334.663 153.308C334.916 153.669 335.076 154.08 335.145 154.54H333.845C333.757 154.176 333.582 153.879 333.321 153.649C333.059 153.419 332.718 153.304 332.298 153.304C331.659 153.304 331.16 153.582 330.802 154.139C330.447 154.696 330.268 155.47 330.265 156.462H330.329C330.48 156.214 330.664 156.004 330.883 155.831C331.105 155.655 331.352 155.52 331.625 155.426C331.9 155.33 332.19 155.281 332.494 155.281C333 155.281 333.457 155.405 333.866 155.652C334.278 155.896 334.606 156.234 334.85 156.666C335.095 157.098 335.217 157.592 335.217 158.149C335.217 158.706 335.091 159.21 334.838 159.662C334.588 160.114 334.235 160.472 333.781 160.736C333.326 160.997 332.795 161.125 332.187 161.119ZM332.183 160.011C332.518 160.011 332.818 159.929 333.082 159.764C333.346 159.599 333.555 159.378 333.708 159.099C333.862 158.821 333.939 158.51 333.939 158.166C333.939 157.831 333.863 157.526 333.713 157.25C333.565 156.974 333.36 156.756 333.099 156.594C332.841 156.432 332.545 156.351 332.213 156.351C331.96 156.351 331.725 156.399 331.51 156.496C331.297 156.592 331.109 156.726 330.947 156.896C330.785 157.067 330.657 157.263 330.564 157.484C330.473 157.703 330.427 157.935 330.427 158.179C330.427 158.506 330.502 158.808 330.653 159.087C330.806 159.365 331.015 159.589 331.279 159.76C331.547 159.928 331.848 160.011 332.183 160.011ZM336.888 152.273H338.487L341.265 159.057H341.367L344.146 152.273H345.744V161H344.491V154.685H344.41L341.836 160.987H340.796L338.222 154.68H338.141V161H336.888V152.273Z" fill="#525866"/>
</g>
<rect x="18.5" y="145.5" width="354" height="23" rx="5.5" stroke="#E2E4E9"/>
<line x1="18" y1="167.5" x2="373" y2="167.5" stroke="#E2E4E9" stroke-dasharray="4 6"/>
<line x1="18" y1="214.833" x2="373" y2="214.833" stroke="#E2E4E9" stroke-dasharray="4 6"/>
<line x1="18" y1="262.167" x2="373" y2="262.167" stroke="#E2E4E9" stroke-dasharray="4 6"/>
<line x1="18" y1="309.5" x2="373" y2="309.5" stroke="#E2E4E9" stroke-dasharray="4 6"/>
<path d="M24.4956 285.011H18.4947C18.2215 285.011 18 285.232 18 285.505C18 285.779 18.2215 286 18.4947 286H369C371.209 286 373 284.209 373 282V196C373 193.791 371.209 192 369 192H354.232C353.113 192 352.046 192.469 351.288 193.292L310.399 237.754C309.642 238.577 308.574 239.046 307.455 239.046H296.449C295.005 239.046 293.673 238.268 292.964 237.009L268.757 194.037C268.048 192.778 266.716 192 265.272 192H242.706C241.15 192 239.736 192.901 239.08 194.311L219.319 236.735C218.662 238.145 217.257 239.046 215.702 239.046H184.885C183.546 239.046 182.297 239.716 181.555 240.83L161.525 270.932C160.783 272.046 159.533 272.716 158.195 272.716H147.013C145.665 272.716 144.408 272.037 143.669 270.91L123.949 240.852C123.21 239.725 121.953 239.046 120.605 239.046H105.439C103.872 239.046 102.45 238.131 101.8 236.706L82.4767 194.34C81.8266 192.915 80.4041 192 78.8374 192H58.505C56.7409 192 55.1851 193.156 54.6755 194.844L28.325 282.166C27.8154 283.855 26.2596 285.011 24.4956 285.011Z" fill="url(#paint0_linear_905_60462)" fill-opacity="0.12"/>
<path d="M18 286H24.4865C26.2549 286 27.8134 284.839 28.3193 283.144L54.6812 194.856C55.1872 193.161 56.7457 192 58.514 192H78.8261C80.3986 192 81.8252 192.921 82.472 194.355L101.805 237.192C102.451 238.625 103.878 239.547 105.45 239.547H120.592C121.947 239.547 123.21 240.232 123.947 241.369L143.671 271.753C144.408 272.889 145.671 273.575 147.026 273.575H158.182C159.528 273.575 160.783 272.898 161.523 271.774L181.557 241.347C182.297 240.223 183.552 239.547 184.898 239.547C193.994 239.547 209.59 239.547 215.691 239.547C217.252 239.547 218.661 238.638 219.314 237.221L239.084 194.326C239.738 192.908 241.156 192 242.717 192H265.26C266.71 192 268.047 192.785 268.753 194.053L292.967 237.494C293.673 238.761 295.01 239.547 296.461 239.547H307.443C308.569 239.547 309.643 239.072 310.401 238.239L351.286 193.308C352.044 192.475 353.119 192 354.245 192L373 192" stroke="#375DFB" stroke-width="2"/>
<g filter="url(#filter1_d_905_60462)">
<circle cx="196" cy="239" r="6" fill="#375DFB"/>
<circle cx="196" cy="239" r="5" stroke="white" stroke-width="2"/>
</g>
<g filter="url(#filter2_dd_905_60462)">
<path d="M155.5 209C155.5 206.791 157.291 205 159.5 205H233.5C235.709 205 237.5 206.791 237.5 209V221C237.5 223.209 235.709 225 233.5 225H159.5C157.291 225 155.5 223.209 155.5 221V209Z" fill="white" shape-rendering="crispEdges"/>
<path d="M233.5 204.5C235.985 204.5 238 206.515 238 209V221C238 223.485 235.985 225.5 233.5 225.5H159.5C157.015 225.5 155 223.485 155 221V209C155 206.515 157.015 204.5 159.5 204.5H233.5Z" stroke="#E2E4E9" shape-rendering="crispEdges"/>
<path d="M170.908 210.696V219H169.816V212.808L167.056 219H166.288L163.516 212.796V219H162.424V210.696H163.6L166.672 217.56L169.744 210.696H170.908ZM175.628 219.108C175.012 219.108 174.452 218.968 173.948 218.688C173.452 218.408 173.06 218.012 172.772 217.5C172.492 216.98 172.352 216.38 172.352 215.7C172.352 215.028 172.496 214.436 172.784 213.924C173.08 213.404 173.48 213.008 173.984 212.736C174.488 212.456 175.052 212.316 175.676 212.316C176.3 212.316 176.864 212.456 177.368 212.736C177.872 213.008 178.268 213.4 178.556 213.912C178.852 214.424 179 215.02 179 215.7C179 216.38 178.848 216.98 178.544 217.5C178.248 218.012 177.844 218.408 177.332 218.688C176.82 218.968 176.252 219.108 175.628 219.108ZM175.628 218.148C176.02 218.148 176.388 218.056 176.732 217.872C177.076 217.688 177.352 217.412 177.56 217.044C177.776 216.676 177.884 216.228 177.884 215.7C177.884 215.172 177.78 214.724 177.572 214.356C177.364 213.988 177.092 213.716 176.756 213.54C176.42 213.356 176.056 213.264 175.664 213.264C175.264 213.264 174.896 213.356 174.56 213.54C174.232 213.716 173.968 213.988 173.768 214.356C173.568 214.724 173.468 215.172 173.468 215.7C173.468 216.236 173.564 216.688 173.756 217.056C173.956 217.424 174.22 217.7 174.548 217.884C174.876 218.06 175.236 218.148 175.628 218.148ZM183.64 212.304C184.44 212.304 185.088 212.548 185.584 213.036C186.08 213.516 186.328 214.212 186.328 215.124V219H185.248V215.28C185.248 214.624 185.084 214.124 184.756 213.78C184.428 213.428 183.98 213.252 183.412 213.252C182.836 213.252 182.376 213.432 182.032 213.792C181.696 214.152 181.528 214.676 181.528 215.364V219H180.436V212.424H181.528V213.36C181.744 213.024 182.036 212.764 182.404 212.58C182.78 212.396 183.192 212.304 183.64 212.304ZM187.704 215.688C187.704 215.016 187.84 214.428 188.112 213.924C188.384 213.412 188.756 213.016 189.228 212.736C189.708 212.456 190.244 212.316 190.836 212.316C191.348 212.316 191.824 212.436 192.264 212.676C192.704 212.908 193.04 213.216 193.272 213.6V210.12H194.376V219H193.272V217.764C193.056 218.156 192.736 218.48 192.312 218.736C191.888 218.984 191.392 219.108 190.824 219.108C190.24 219.108 189.708 218.964 189.228 218.676C188.756 218.388 188.384 217.984 188.112 217.464C187.84 216.944 187.704 216.352 187.704 215.688ZM193.272 215.7C193.272 215.204 193.172 214.772 192.972 214.404C192.772 214.036 192.5 213.756 192.156 213.564C191.82 213.364 191.448 213.264 191.04 213.264C190.632 213.264 190.26 213.36 189.924 213.552C189.588 213.744 189.32 214.024 189.12 214.392C188.92 214.76 188.82 215.192 188.82 215.688C188.82 216.192 188.92 216.632 189.12 217.008C189.32 217.376 189.588 217.66 189.924 217.86C190.26 218.052 190.632 218.148 191.04 218.148C191.448 218.148 191.82 218.052 192.156 217.86C192.5 217.66 192.772 217.376 192.972 217.008C193.172 216.632 193.272 216.196 193.272 215.7ZM195.813 215.688C195.813 215.016 195.949 214.428 196.221 213.924C196.493 213.412 196.865 213.016 197.337 212.736C197.817 212.456 198.349 212.316 198.933 212.316C199.509 212.316 200.009 212.44 200.433 212.688C200.857 212.936 201.173 213.248 201.381 213.624V212.424H202.485V219H201.381V217.776C201.165 218.16 200.841 218.48 200.409 218.736C199.985 218.984 199.489 219.108 198.921 219.108C198.337 219.108 197.809 218.964 197.337 218.676C196.865 218.388 196.493 217.984 196.221 217.464C195.949 216.944 195.813 216.352 195.813 215.688ZM201.381 215.7C201.381 215.204 201.281 214.772 201.081 214.404C200.881 214.036 200.609 213.756 200.265 213.564C199.929 213.364 199.557 213.264 199.149 213.264C198.741 213.264 198.369 213.36 198.033 213.552C197.697 213.744 197.429 214.024 197.229 214.392C197.029 214.76 196.929 215.192 196.929 215.688C196.929 216.192 197.029 216.632 197.229 217.008C197.429 217.376 197.697 217.66 198.033 217.86C198.369 218.052 198.741 218.148 199.149 218.148C199.557 218.148 199.929 218.052 200.265 217.86C200.609 217.66 200.881 217.376 201.081 217.008C201.281 216.632 201.381 216.196 201.381 215.7ZM209.994 212.424L206.034 222.096H204.906L206.202 218.928L203.55 212.424H204.762L206.826 217.752L208.866 212.424H209.994ZM212.22 217.488L210.876 220.716H210.144L211.02 217.488H212.22ZM221.326 212.388C221.15 211.5 220.602 211.056 219.682 211.056C218.97 211.056 218.438 211.332 218.086 211.884C217.734 212.428 217.562 213.328 217.57 214.584C217.754 214.168 218.058 213.844 218.482 213.612C218.914 213.372 219.394 213.252 219.922 213.252C220.746 213.252 221.402 213.508 221.89 214.02C222.386 214.532 222.634 215.24 222.634 216.144C222.634 216.688 222.526 217.176 222.31 217.608C222.102 218.04 221.782 218.384 221.35 218.64C220.926 218.896 220.41 219.024 219.802 219.024C218.978 219.024 218.334 218.84 217.87 218.472C217.406 218.104 217.082 217.596 216.898 216.948C216.714 216.3 216.622 215.5 216.622 214.548C216.622 211.612 217.646 210.144 219.694 210.144C220.478 210.144 221.094 210.356 221.542 210.78C221.99 211.204 222.254 211.74 222.334 212.388H221.326ZM219.694 214.176C219.35 214.176 219.026 214.248 218.722 214.392C218.418 214.528 218.17 214.74 217.978 215.028C217.794 215.308 217.702 215.652 217.702 216.06C217.702 216.668 217.878 217.164 218.23 217.548C218.582 217.924 219.086 218.112 219.742 218.112C220.302 218.112 220.746 217.94 221.074 217.596C221.41 217.244 221.578 216.772 221.578 216.18C221.578 215.556 221.418 215.068 221.098 214.716C220.778 214.356 220.31 214.176 219.694 214.176ZM227.551 212.304C228.047 212.304 228.495 212.412 228.895 212.628C229.295 212.836 229.607 213.152 229.831 213.576C230.063 214 230.179 214.516 230.179 215.124V219H229.099V215.28C229.099 214.624 228.935 214.124 228.607 213.78C228.279 213.428 227.831 213.252 227.263 213.252C226.687 213.252 226.227 213.432 225.883 213.792C225.547 214.152 225.379 214.676 225.379 215.364V219H224.287V210.12H225.379V213.36C225.595 213.024 225.891 212.764 226.267 212.58C226.651 212.396 227.079 212.304 227.551 212.304Z" fill="#0A0D14"/>
</g>
<path d="M197.914 228.293C197.133 229.074 195.867 229.074 195.086 228.293L191.293 224.5L201.707 224.5L197.914 228.293Z" fill="white" stroke="#E2E4E9"/>
<rect x="189.5" y="223" width="14" height="2" rx="1" fill="white"/>
<path fill-rule="evenodd" clip-rule="evenodd" d="M26 326C28.7614 326 31 323.761 31 321C31 318.239 28.7614 316 26 316C23.2386 316 21 318.239 21 321C21 323.761 23.2386 326 26 326ZM26.8927 323.567L26.9725 323.24C26.9312 323.26 26.8646 323.282 26.7732 323.307C26.6816 323.333 26.5991 323.345 26.5267 323.345C26.3723 323.345 26.2636 323.32 26.2005 323.269C26.1379 323.218 26.1066 323.123 26.1066 322.983C26.1066 322.927 26.1161 322.844 26.1358 322.736C26.1549 322.627 26.1769 322.53 26.2013 322.445L26.4994 321.39C26.5285 321.293 26.5486 321.187 26.5593 321.071C26.5703 320.955 26.5755 320.873 26.5755 320.827C26.5755 320.605 26.4975 320.424 26.3414 320.285C26.1854 320.146 25.9631 320.076 25.6752 320.076C25.5149 320.076 25.3455 320.105 25.1662 320.162C24.9869 320.218 24.7995 320.287 24.6034 320.367L24.5233 320.693C24.5818 320.672 24.6514 320.648 24.7328 320.624C24.8139 320.6 24.8934 320.588 24.9708 320.588C25.1288 320.588 25.2352 320.615 25.291 320.668C25.3467 320.721 25.3747 320.816 25.3747 320.951C25.3747 321.026 25.3659 321.109 25.3475 321.199C25.3294 321.29 25.3067 321.386 25.2801 321.488L24.9808 322.547C24.9541 322.659 24.9347 322.758 24.9224 322.847C24.9103 322.935 24.9045 323.022 24.9045 323.106C24.9045 323.324 24.9849 323.503 25.1458 323.645C25.3066 323.786 25.5322 323.857 25.8222 323.857C26.011 323.857 26.1767 323.832 26.3193 323.783C26.4618 323.733 26.6531 323.661 26.8927 323.567ZM26.8396 319.28C26.9788 319.151 27.0481 318.994 27.0481 318.81C27.0481 318.627 26.9789 318.469 26.8396 318.339C26.7007 318.208 26.5333 318.143 26.3375 318.143C26.1412 318.143 25.9731 318.208 25.8329 318.339C25.6926 318.469 25.6224 318.627 25.6224 318.81C25.6224 318.994 25.6926 319.151 25.8329 319.28C25.9733 319.41 26.1411 319.475 26.3375 319.475C26.5333 319.475 26.7007 319.41 26.8396 319.28Z" fill="#CDD0D5"/>
<path d="M44.072 316.636V317.524H41.792V325H40.7V317.524H38.408V316.636H44.072ZM48.2842 325.108C47.6682 325.108 47.1082 324.968 46.6042 324.688C46.1082 324.408 45.7162 324.012 45.4282 323.5C45.1482 322.98 45.0082 322.38 45.0082 321.7C45.0082 321.028 45.1522 320.436 45.4402 319.924C45.7362 319.404 46.1362 319.008 46.6402 318.736C47.1442 318.456 47.7082 318.316 48.3322 318.316C48.9562 318.316 49.5202 318.456 50.0242 318.736C50.5282 319.008 50.9242 319.4 51.2122 319.912C51.5082 320.424 51.6562 321.02 51.6562 321.7C51.6562 322.38 51.5042 322.98 51.2002 323.5C50.9042 324.012 50.5002 324.408 49.9882 324.688C49.4762 324.968 48.9082 325.108 48.2842 325.108ZM48.2842 324.148C48.6762 324.148 49.0442 324.056 49.3882 323.872C49.7322 323.688 50.0082 323.412 50.2162 323.044C50.4322 322.676 50.5402 322.228 50.5402 321.7C50.5402 321.172 50.4362 320.724 50.2282 320.356C50.0202 319.988 49.7482 319.716 49.4122 319.54C49.0762 319.356 48.7122 319.264 48.3202 319.264C47.9202 319.264 47.5522 319.356 47.2162 319.54C46.8882 319.716 46.6242 319.988 46.4242 320.356C46.2242 320.724 46.1242 321.172 46.1242 321.7C46.1242 322.236 46.2202 322.688 46.4122 323.056C46.6122 323.424 46.8762 323.7 47.2042 323.884C47.5322 324.06 47.8922 324.148 48.2842 324.148ZM54.424 319.324V323.2C54.424 323.52 54.492 323.748 54.628 323.884C54.764 324.012 55 324.076 55.336 324.076H56.14V325H55.156C54.548 325 54.092 324.86 53.788 324.58C53.484 324.3 53.332 323.84 53.332 323.2V319.324H52.48V318.424H53.332V316.768H54.424V318.424H56.14V319.324H54.424ZM57.0551 321.688C57.0551 321.016 57.1911 320.428 57.4631 319.924C57.7351 319.412 58.1071 319.016 58.5791 318.736C59.0591 318.456 59.5911 318.316 60.1751 318.316C60.7511 318.316 61.2511 318.44 61.6751 318.688C62.0991 318.936 62.4151 319.248 62.6231 319.624V318.424H63.7271V325H62.6231V323.776C62.4071 324.16 62.0831 324.48 61.6511 324.736C61.2271 324.984 60.7311 325.108 60.1631 325.108C59.5791 325.108 59.0511 324.964 58.5791 324.676C58.1071 324.388 57.7351 323.984 57.4631 323.464C57.1911 322.944 57.0551 322.352 57.0551 321.688ZM62.6231 321.7C62.6231 321.204 62.5231 320.772 62.3231 320.404C62.1231 320.036 61.8511 319.756 61.5071 319.564C61.1711 319.364 60.7991 319.264 60.3911 319.264C59.9831 319.264 59.6111 319.36 59.2751 319.552C58.9391 319.744 58.6711 320.024 58.4711 320.392C58.2711 320.76 58.1711 321.192 58.1711 321.688C58.1711 322.192 58.2711 322.632 58.4711 323.008C58.6711 323.376 58.9391 323.66 59.2751 323.86C59.6111 324.052 59.9831 324.148 60.3911 324.148C60.7991 324.148 61.1711 324.052 61.5071 323.86C61.8511 323.66 62.1231 323.376 62.3231 323.008C62.5231 322.632 62.6231 322.196 62.6231 321.7ZM66.6644 316.12V325H65.5724V316.12H66.6644ZM80.4848 318.424L78.4328 325H77.3048L75.7208 319.78L74.1368 325H73.0088L70.9448 318.424H72.0608L73.5728 323.944L75.2048 318.424H76.3208L77.9168 323.956L79.4048 318.424H80.4848ZM84.4365 325.108C83.8205 325.108 83.2605 324.968 82.7565 324.688C82.2605 324.408 81.8685 324.012 81.5805 323.5C81.3005 322.98 81.1605 322.38 81.1605 321.7C81.1605 321.028 81.3045 320.436 81.5925 319.924C81.8885 319.404 82.2885 319.008 82.7925 318.736C83.2965 318.456 83.8605 318.316 84.4845 318.316C85.1085 318.316 85.6725 318.456 86.1765 318.736C86.6805 319.008 87.0765 319.4 87.3645 319.912C87.6605 320.424 87.8085 321.02 87.8085 321.7C87.8085 322.38 87.6565 322.98 87.3525 323.5C87.0565 324.012 86.6525 324.408 86.1405 324.688C85.6285 324.968 85.0605 325.108 84.4365 325.108ZM84.4365 324.148C84.8285 324.148 85.1965 324.056 85.5405 323.872C85.8845 323.688 86.1605 323.412 86.3685 323.044C86.5845 322.676 86.6925 322.228 86.6925 321.7C86.6925 321.172 86.5885 320.724 86.3805 320.356C86.1725 319.988 85.9005 319.716 85.5645 319.54C85.2285 319.356 84.8645 319.264 84.4725 319.264C84.0725 319.264 83.7045 319.356 83.3685 319.54C83.0405 319.716 82.7765 319.988 82.5765 320.356C82.3765 320.724 82.2765 321.172 82.2765 321.7C82.2765 322.236 82.3725 322.688 82.5645 323.056C82.7645 323.424 83.0285 323.7 83.3565 323.884C83.6845 324.06 84.0445 324.148 84.4365 324.148ZM90.3363 319.492C90.5283 319.116 90.8003 318.824 91.1523 318.616C91.5123 318.408 91.9483 318.304 92.4603 318.304V319.432H92.1723C90.9483 319.432 90.3363 320.096 90.3363 321.424V325H89.2443V318.424H90.3363V319.492ZM97.3929 325L94.8129 322.096V325H93.7209V316.12H94.8129V321.34L97.3449 318.424H98.8689L95.7729 321.7L98.8809 325H97.3929ZM106.36 318.304C106.856 318.304 107.304 318.412 107.704 318.628C108.104 318.836 108.416 319.152 108.64 319.576C108.872 320 108.988 320.516 108.988 321.124V325H107.908V321.28C107.908 320.624 107.744 320.124 107.416 319.78C107.088 319.428 106.64 319.252 106.072 319.252C105.496 319.252 105.036 319.432 104.692 319.792C104.356 320.152 104.188 320.676 104.188 321.364V325H103.096V316.12H104.188V319.36C104.404 319.024 104.7 318.764 105.076 318.58C105.46 318.396 105.888 318.304 106.36 318.304ZM113.64 325.108C113.024 325.108 112.464 324.968 111.96 324.688C111.464 324.408 111.072 324.012 110.784 323.5C110.504 322.98 110.364 322.38 110.364 321.7C110.364 321.028 110.508 320.436 110.796 319.924C111.092 319.404 111.492 319.008 111.996 318.736C112.5 318.456 113.064 318.316 113.688 318.316C114.312 318.316 114.876 318.456 115.38 318.736C115.884 319.008 116.28 319.4 116.568 319.912C116.864 320.424 117.012 321.02 117.012 321.7C117.012 322.38 116.86 322.98 116.556 323.5C116.26 324.012 115.856 324.408 115.344 324.688C114.832 324.968 114.264 325.108 113.64 325.108ZM113.64 324.148C114.032 324.148 114.4 324.056 114.744 323.872C115.088 323.688 115.364 323.412 115.572 323.044C115.788 322.676 115.896 322.228 115.896 321.7C115.896 321.172 115.792 320.724 115.584 320.356C115.376 319.988 115.104 319.716 114.768 319.54C114.432 319.356 114.068 319.264 113.676 319.264C113.276 319.264 112.908 319.356 112.572 319.54C112.244 319.716 111.98 319.988 111.78 320.356C111.58 320.724 111.48 321.172 111.48 321.7C111.48 322.236 111.576 322.688 111.768 323.056C111.968 323.424 112.232 323.7 112.56 323.884C112.888 324.06 113.248 324.148 113.64 324.148ZM124.279 318.424V325H123.187V324.028C122.979 324.364 122.687 324.628 122.311 324.82C121.943 325.004 121.535 325.096 121.087 325.096C120.575 325.096 120.115 324.992 119.707 324.784C119.299 324.568 118.975 324.248 118.735 323.824C118.503 323.4 118.387 322.884 118.387 322.276V318.424H119.467V322.132C119.467 322.78 119.631 323.28 119.959 323.632C120.287 323.976 120.735 324.148 121.303 324.148C121.887 324.148 122.347 323.968 122.683 323.608C123.019 323.248 123.187 322.724 123.187 322.036V318.424H124.279ZM127.215 319.492C127.407 319.116 127.679 318.824 128.031 318.616C128.391 318.408 128.827 318.304 129.339 318.304V319.432H129.051C127.827 319.432 127.215 320.096 127.215 321.424V325H126.123V318.424H127.215V319.492ZM132.928 325.108C132.424 325.108 131.972 325.024 131.572 324.856C131.172 324.68 130.856 324.44 130.624 324.136C130.392 323.824 130.264 323.468 130.24 323.068H131.368C131.4 323.396 131.552 323.664 131.824 323.872C132.104 324.08 132.468 324.184 132.916 324.184C133.332 324.184 133.66 324.092 133.9 323.908C134.14 323.724 134.26 323.492 134.26 323.212C134.26 322.924 134.132 322.712 133.876 322.576C133.62 322.432 133.224 322.292 132.688 322.156C132.2 322.028 131.8 321.9 131.488 321.772C131.184 321.636 130.92 321.44 130.696 321.184C130.48 320.92 130.372 320.576 130.372 320.152C130.372 319.816 130.472 319.508 130.672 319.228C130.872 318.948 131.156 318.728 131.524 318.568C131.892 318.4 132.312 318.316 132.784 318.316C133.512 318.316 134.1 318.5 134.548 318.868C134.996 319.236 135.236 319.74 135.268 320.38H134.176C134.152 320.036 134.012 319.76 133.756 319.552C133.508 319.344 133.172 319.24 132.748 319.24C132.356 319.24 132.044 319.324 131.812 319.492C131.58 319.66 131.464 319.88 131.464 320.152C131.464 320.368 131.532 320.548 131.668 320.692C131.812 320.828 131.988 320.94 132.196 321.028C132.412 321.108 132.708 321.2 133.084 321.304C133.556 321.432 133.94 321.56 134.236 321.688C134.532 321.808 134.784 321.992 134.992 322.24C135.208 322.488 135.32 322.812 135.328 323.212C135.328 323.572 135.228 323.896 135.028 324.184C134.828 324.472 134.544 324.7 134.176 324.868C133.816 325.028 133.4 325.108 132.928 325.108ZM140.633 317.356C140.425 317.356 140.249 317.284 140.105 317.14C139.961 316.996 139.889 316.82 139.889 316.612C139.889 316.404 139.961 316.228 140.105 316.084C140.249 315.94 140.425 315.868 140.633 315.868C140.833 315.868 141.001 315.94 141.137 316.084C141.281 316.228 141.353 316.404 141.353 316.612C141.353 316.82 141.281 316.996 141.137 317.14C141.001 317.284 140.833 317.356 140.633 317.356ZM141.161 318.424V325H140.069V318.424H141.161ZM146.226 318.304C147.026 318.304 147.674 318.548 148.17 319.036C148.666 319.516 148.914 320.212 148.914 321.124V325H147.834V321.28C147.834 320.624 147.67 320.124 147.342 319.78C147.014 319.428 146.566 319.252 145.998 319.252C145.422 319.252 144.962 319.432 144.618 319.792C144.282 320.152 144.114 320.676 144.114 321.364V325H143.022V318.424H144.114V319.36C144.33 319.024 144.622 318.764 144.99 318.58C145.366 318.396 145.778 318.304 146.226 318.304ZM150.289 321.7C150.289 321.02 150.425 320.428 150.697 319.924C150.969 319.412 151.345 319.016 151.825 318.736C152.313 318.456 152.869 318.316 153.493 318.316C154.301 318.316 154.965 318.512 155.485 318.904C156.013 319.296 156.361 319.84 156.529 320.536H155.353C155.241 320.136 155.021 319.82 154.693 319.588C154.373 319.356 153.973 319.24 153.493 319.24C152.869 319.24 152.365 319.456 151.981 319.888C151.597 320.312 151.405 320.916 151.405 321.7C151.405 322.492 151.597 323.104 151.981 323.536C152.365 323.968 152.869 324.184 153.493 324.184C153.973 324.184 154.373 324.072 154.693 323.848C155.013 323.624 155.233 323.304 155.353 322.888H156.529C156.353 323.56 156.001 324.1 155.473 324.508C154.945 324.908 154.285 325.108 153.493 325.108C152.869 325.108 152.313 324.968 151.825 324.688C151.345 324.408 150.969 324.012 150.697 323.5C150.425 322.988 150.289 322.388 150.289 321.7ZM159.079 316.12V325H157.987V316.12H159.079ZM166.772 318.424V325H165.68V324.028C165.472 324.364 165.18 324.628 164.804 324.82C164.436 325.004 164.028 325.096 163.58 325.096C163.068 325.096 162.608 324.992 162.2 324.784C161.792 324.568 161.468 324.248 161.228 323.824C160.996 323.4 160.88 322.884 160.88 322.276V318.424H161.96V322.132C161.96 322.78 162.124 323.28 162.452 323.632C162.78 323.976 163.228 324.148 163.796 324.148C164.38 324.148 164.84 323.968 165.176 323.608C165.512 323.248 165.68 322.724 165.68 322.036V318.424H166.772ZM168.207 321.688C168.207 321.016 168.343 320.428 168.615 319.924C168.887 319.412 169.259 319.016 169.731 318.736C170.211 318.456 170.747 318.316 171.339 318.316C171.851 318.316 172.327 318.436 172.767 318.676C173.207 318.908 173.543 319.216 173.775 319.6V316.12H174.879V325H173.775V323.764C173.559 324.156 173.239 324.48 172.815 324.736C172.391 324.984 171.895 325.108 171.327 325.108C170.743 325.108 170.211 324.964 169.731 324.676C169.259 324.388 168.887 323.984 168.615 323.464C168.343 322.944 168.207 322.352 168.207 321.688ZM173.775 321.7C173.775 321.204 173.675 320.772 173.475 320.404C173.275 320.036 173.003 319.756 172.659 319.564C172.323 319.364 171.951 319.264 171.543 319.264C171.135 319.264 170.763 319.36 170.427 319.552C170.091 319.744 169.823 320.024 169.623 320.392C169.423 320.76 169.323 321.192 169.323 321.688C169.323 322.192 169.423 322.632 169.623 323.008C169.823 323.376 170.091 323.66 170.427 323.86C170.763 324.052 171.135 324.148 171.543 324.148C171.951 324.148 172.323 324.052 172.659 323.86C173.003 323.66 173.275 323.376 173.475 323.008C173.675 322.632 173.775 322.196 173.775 321.7ZM182.725 321.46C182.725 321.668 182.713 321.888 182.689 322.12H177.433C177.473 322.768 177.693 323.276 178.093 323.644C178.501 324.004 178.993 324.184 179.569 324.184C180.041 324.184 180.433 324.076 180.745 323.86C181.065 323.636 181.289 323.34 181.417 322.972H182.593C182.417 323.604 182.065 324.12 181.537 324.52C181.009 324.912 180.353 325.108 179.569 325.108C178.945 325.108 178.385 324.968 177.889 324.688C177.401 324.408 177.017 324.012 176.737 323.5C176.457 322.98 176.317 322.38 176.317 321.7C176.317 321.02 176.453 320.424 176.725 319.912C176.997 319.4 177.377 319.008 177.865 318.736C178.361 318.456 178.929 318.316 179.569 318.316C180.193 318.316 180.745 318.452 181.225 318.724C181.705 318.996 182.073 319.372 182.329 319.852C182.593 320.324 182.725 320.86 182.725 321.46ZM181.597 321.232C181.597 320.816 181.505 320.46 181.321 320.164C181.137 319.86 180.885 319.632 180.565 319.48C180.253 319.32 179.905 319.24 179.521 319.24C178.969 319.24 178.497 319.416 178.105 319.768C177.721 320.12 177.501 320.608 177.445 321.232H181.597ZM193.365 321.46C193.365 321.668 193.353 321.888 193.329 322.12H188.073C188.113 322.768 188.333 323.276 188.733 323.644C189.141 324.004 189.633 324.184 190.209 324.184C190.681 324.184 191.073 324.076 191.385 323.86C191.705 323.636 191.929 323.34 192.057 322.972H193.233C193.057 323.604 192.705 324.12 192.177 324.52C191.649 324.912 190.993 325.108 190.209 325.108C189.585 325.108 189.025 324.968 188.529 324.688C188.041 324.408 187.657 324.012 187.377 323.5C187.097 322.98 186.957 322.38 186.957 321.7C186.957 321.02 187.093 320.424 187.365 319.912C187.637 319.4 188.017 319.008 188.505 318.736C189.001 318.456 189.569 318.316 190.209 318.316C190.833 318.316 191.385 318.452 191.865 318.724C192.345 318.996 192.713 319.372 192.969 319.852C193.233 320.324 193.365 320.86 193.365 321.46ZM192.237 321.232C192.237 320.816 192.145 320.46 191.961 320.164C191.777 319.86 191.525 319.632 191.205 319.48C190.893 319.32 190.545 319.24 190.161 319.24C189.609 319.24 189.137 319.416 188.745 319.768C188.361 320.12 188.141 320.608 188.085 321.232H192.237ZM198.239 325L196.679 322.552L195.179 325H194.039L196.163 321.736L194.039 318.424H195.275L196.835 320.86L198.323 318.424H199.463L197.351 321.676L199.475 325H198.239ZM201.881 319.324V323.2C201.881 323.52 201.949 323.748 202.085 323.884C202.221 324.012 202.457 324.076 202.793 324.076H203.597V325H202.613C202.005 325 201.549 324.86 201.245 324.58C200.941 324.3 200.789 323.84 200.789 323.2V319.324H199.937V318.424H200.789V316.768H201.881V318.424H203.597V319.324H201.881ZM206.012 319.492C206.204 319.116 206.476 318.824 206.828 318.616C207.188 318.408 207.624 318.304 208.136 318.304V319.432H207.848C206.624 319.432 206.012 320.096 206.012 321.424V325H204.92V318.424H206.012V319.492ZM208.989 321.688C208.989 321.016 209.125 320.428 209.397 319.924C209.669 319.412 210.041 319.016 210.513 318.736C210.993 318.456 211.525 318.316 212.109 318.316C212.685 318.316 213.185 318.44 213.609 318.688C214.033 318.936 214.349 319.248 214.557 319.624V318.424H215.661V325H214.557V323.776C214.341 324.16 214.017 324.48 213.585 324.736C213.161 324.984 212.665 325.108 212.097 325.108C211.513 325.108 210.985 324.964 210.513 324.676C210.041 324.388 209.669 323.984 209.397 323.464C209.125 322.944 208.989 322.352 208.989 321.688ZM214.557 321.7C214.557 321.204 214.457 320.772 214.257 320.404C214.057 320.036 213.785 319.756 213.441 319.564C213.105 319.364 212.733 319.264 212.325 319.264C211.917 319.264 211.545 319.36 211.209 319.552C210.873 319.744 210.605 320.024 210.405 320.392C210.205 320.76 210.105 321.192 210.105 321.688C210.105 322.192 210.205 322.632 210.405 323.008C210.605 323.376 210.873 323.66 211.209 323.86C211.545 324.052 211.917 324.148 212.325 324.148C212.733 324.148 213.105 324.052 213.441 323.86C213.785 323.66 214.057 323.376 214.257 323.008C214.457 322.632 214.557 322.196 214.557 321.7ZM223.969 318.304C224.465 318.304 224.913 318.412 225.313 318.628C225.713 318.836 226.025 319.152 226.249 319.576C226.481 320 226.597 320.516 226.597 321.124V325H225.517V321.28C225.517 320.624 225.353 320.124 225.025 319.78C224.697 319.428 224.249 319.252 223.681 319.252C223.105 319.252 222.645 319.432 222.301 319.792C221.965 320.152 221.797 320.676 221.797 321.364V325H220.705V316.12H221.797V319.36C222.013 319.024 222.309 318.764 222.685 318.58C223.069 318.396 223.497 318.304 223.969 318.304ZM231.249 325.108C230.633 325.108 230.073 324.968 229.569 324.688C229.073 324.408 228.681 324.012 228.393 323.5C228.113 322.98 227.973 322.38 227.973 321.7C227.973 321.028 228.117 320.436 228.405 319.924C228.701 319.404 229.101 319.008 229.605 318.736C230.109 318.456 230.673 318.316 231.297 318.316C231.921 318.316 232.485 318.456 232.989 318.736C233.493 319.008 233.889 319.4 234.177 319.912C234.473 320.424 234.621 321.02 234.621 321.7C234.621 322.38 234.469 322.98 234.165 323.5C233.869 324.012 233.465 324.408 232.953 324.688C232.441 324.968 231.873 325.108 231.249 325.108ZM231.249 324.148C231.641 324.148 232.009 324.056 232.353 323.872C232.697 323.688 232.973 323.412 233.181 323.044C233.397 322.676 233.505 322.228 233.505 321.7C233.505 321.172 233.401 320.724 233.193 320.356C232.985 319.988 232.713 319.716 232.377 319.54C232.041 319.356 231.677 319.264 231.285 319.264C230.885 319.264 230.517 319.356 230.181 319.54C229.853 319.716 229.589 319.988 229.389 320.356C229.189 320.724 229.089 321.172 229.089 321.7C229.089 322.236 229.185 322.688 229.377 323.056C229.577 323.424 229.841 323.7 230.169 323.884C230.497 324.06 230.857 324.148 231.249 324.148ZM241.889 318.424V325H240.797V324.028C240.589 324.364 240.297 324.628 239.921 324.82C239.553 325.004 239.145 325.096 238.697 325.096C238.185 325.096 237.725 324.992 237.317 324.784C236.909 324.568 236.585 324.248 236.345 323.824C236.113 323.4 235.997 322.884 235.997 322.276V318.424H237.077V322.132C237.077 322.78 237.241 323.28 237.569 323.632C237.897 323.976 238.345 324.148 238.913 324.148C239.497 324.148 239.957 323.968 240.293 323.608C240.629 323.248 240.797 322.724 240.797 322.036V318.424H241.889ZM244.825 319.492C245.017 319.116 245.289 318.824 245.641 318.616C246.001 318.408 246.437 318.304 246.949 318.304V319.432H246.661C245.437 319.432 244.825 320.096 244.825 321.424V325H243.733V318.424H244.825V319.492ZM250.537 325.108C250.033 325.108 249.581 325.024 249.181 324.856C248.781 324.68 248.465 324.44 248.233 324.136C248.001 323.824 247.873 323.468 247.849 323.068H248.977C249.009 323.396 249.161 323.664 249.433 323.872C249.713 324.08 250.077 324.184 250.525 324.184C250.941 324.184 251.269 324.092 251.509 323.908C251.749 323.724 251.869 323.492 251.869 323.212C251.869 322.924 251.741 322.712 251.485 322.576C251.229 322.432 250.833 322.292 250.297 322.156C249.809 322.028 249.409 321.9 249.097 321.772C248.793 321.636 248.529 321.44 248.305 321.184C248.089 320.92 247.981 320.576 247.981 320.152C247.981 319.816 248.081 319.508 248.281 319.228C248.481 318.948 248.765 318.728 249.133 318.568C249.501 318.4 249.921 318.316 250.393 318.316C251.121 318.316 251.709 318.5 252.157 318.868C252.605 319.236 252.845 319.74 252.877 320.38H251.785C251.761 320.036 251.621 319.76 251.365 319.552C251.117 319.344 250.781 319.24 250.357 319.24C249.965 319.24 249.653 319.324 249.421 319.492C249.189 319.66 249.073 319.88 249.073 320.152C249.073 320.368 249.141 320.548 249.277 320.692C249.421 320.828 249.597 320.94 249.805 321.028C250.021 321.108 250.317 321.2 250.693 321.304C251.165 321.432 251.549 321.56 251.845 321.688C252.141 321.808 252.393 321.992 252.601 322.24C252.817 322.488 252.929 322.812 252.937 323.212C252.937 323.572 252.837 323.896 252.637 324.184C252.437 324.472 252.153 324.7 251.785 324.868C251.425 325.028 251.009 325.108 250.537 325.108ZM254.827 325.072C254.619 325.072 254.443 325 254.299 324.856C254.155 324.712 254.083 324.536 254.083 324.328C254.083 324.12 254.155 323.944 254.299 323.8C254.443 323.656 254.619 323.584 254.827 323.584C255.027 323.584 255.195 323.656 255.331 323.8C255.475 323.944 255.547 324.12 255.547 324.328C255.547 324.536 255.475 324.712 255.331 324.856C255.195 325 255.027 325.072 254.827 325.072Z" fill="#868C98"/>
</g>
<defs>
<filter id="filter0_d_905_60462" x="0" y="0" width="391" height="348" filterUnits="userSpaceOnUse" color-interpolation-filters="sRGB">
<feFlood flood-opacity="0" result="BackgroundImageFix"/>
<feColorMatrix in="SourceAlpha" type="matrix" values="0 0 0 0 0 0 0 0 0 0 0 0 0 0 0 0 0 0 127 0" result="hardAlpha"/>
<feOffset dy="1"/>
<feGaussianBlur stdDeviation="1"/>
<feComposite in2="hardAlpha" operator="out"/>
<feColorMatrix type="matrix" values="0 0 0 0 0.894118 0 0 0 0 0.898039 0 0 0 0 0.905882 0 0 0 0.24 0"/>
<feBlend mode="normal" in2="BackgroundImageFix" result="effect1_dropShadow_905_60462"/>
<feBlend mode="normal" in="SourceGraphic" in2="effect1_dropShadow_905_60462" result="shape"/>
</filter>
<filter id="filter1_d_905_60462" x="186" y="231" width="20" height="20" filterUnits="userSpaceOnUse" color-interpolation-filters="sRGB">
<feFlood flood-opacity="0" result="BackgroundImageFix"/>
<feColorMatrix in="SourceAlpha" type="matrix" values="0 0 0 0 0 0 0 0 0 0 0 0 0 0 0 0 0 0 127 0" result="hardAlpha"/>
<feOffset dy="2"/>
<feGaussianBlur stdDeviation="2"/>
<feColorMatrix type="matrix" values="0 0 0 0 0.105882 0 0 0 0 0.109804 0 0 0 0 0.113725 0 0 0 0.04 0"/>
<feBlend mode="normal" in2="BackgroundImageFix" result="effect1_dropShadow_905_60462"/>
<feBlend mode="normal" in="SourceGraphic" in2="effect1_dropShadow_905_60462" result="shape"/>
</filter>
<filter id="filter2_dd_905_60462" x="130.5" y="192" width="132" height="70" filterUnits="userSpaceOnUse" color-interpolation-filters="sRGB">
<feFlood flood-opacity="0" result="BackgroundImageFix"/>
<feColorMatrix in="SourceAlpha" type="matrix" values="0 0 0 0 0 0 0 0 0 0 0 0 0 0 0 0 0 0 127 0" result="hardAlpha"/>
<feOffset dy="1"/>
<feGaussianBlur stdDeviation="1"/>
<feComposite in2="hardAlpha" operator="out"/>
<feColorMatrix type="matrix" values="0 0 0 0 0.894118 0 0 0 0 0.898039 0 0 0 0 0.905882 0 0 0 0.24 0"/>
<feBlend mode="normal" in2="BackgroundImageFix" result="effect1_dropShadow_905_60462"/>
<feColorMatrix in="SourceAlpha" type="matrix" values="0 0 0 0 0 0 0 0 0 0 0 0 0 0 0 0 0 0 127 0" result="hardAlpha"/>
<feOffset dy="12"/>
<feGaussianBlur stdDeviation="12"/>
<feComposite in2="hardAlpha" operator="out"/>
<feColorMatrix type="matrix" values="0 0 0 0 0.52549 0 0 0 0 0.54902 0 0 0 0 0.596078 0 0 0 0.12 0"/>
<feBlend mode="normal" in2="effect1_dropShadow_905_60462" result="effect2_dropShadow_905_60462"/>
<feBlend mode="normal" in="SourceGraphic" in2="effect2_dropShadow_905_60462" result="shape"/>
</filter>
<linearGradient id="paint0_linear_905_60462" x1="195.5" y1="227.5" x2="195.5" y2="286" gradientUnits="userSpaceOnUse">
<stop stop-color="#CFD1D3"/>
<stop offset="1" stop-color="#E4E5E7" stop-opacity="0"/>
</linearGradient>
<clipPath id="clip0_905_60462">
<rect x="18" y="145" width="355" height="24" rx="6" fill="white"/>
</clipPath>
</defs>
</svg>
