<svg width="32" height="32" viewBox="0 0 32 32" fill="none" xmlns="http://www.w3.org/2000/svg">
<g clip-path="url(#clip0_789_83589)">
<rect width="32" height="32" rx="16" fill="#E2E4E9"/>
<path d="M23.3257 13.6155C22.2557 13.2379 21.5345 14.0483 21.5345 14.0483C21.3592 12.1398 20.7889 9.31864 20.1084 7.55179C20.1084 7.55179 20.1337 6.98507 20.4866 6.97289C20.5815 6.96936 20.6998 7.0059 20.8479 7.10431C21.2319 7.35946 21.6454 8.08967 22.0307 9.03816C22.5715 10.3703 23.0564 12.133 23.3254 13.6159L23.3257 13.6155Z" fill="#6D1249" stroke="black" stroke-width="0.284929" stroke-linecap="round" stroke-linejoin="round"/>
<path d="M23.3895 16.4538C23.2735 16.6045 23.1372 16.6346 22.9898 16.5795C22.5224 16.4054 21.9471 15.3742 21.5765 14.6126C21.5672 14.436 21.5534 14.2469 21.5352 14.0478C21.5352 14.0478 22.2564 13.2371 23.3264 13.6151C23.5764 14.9931 23.6402 16.1291 23.3898 16.4538H23.3895Z" fill="#F5D256" stroke="black" stroke-width="0.284929" stroke-linecap="round" stroke-linejoin="round"/>
<path d="M22.0313 9.03816C21.9803 9.04393 21.9255 9.03656 21.8777 9.01989C21.6194 8.9311 21.4636 8.67113 21.3581 8.41887C21.253 8.16692 21.1699 7.89317 20.976 7.70085C20.8866 7.61205 20.7776 7.54538 20.6814 7.46396C20.5224 7.32933 20.4526 7.17419 20.4872 6.97289C20.5821 6.96936 20.7004 7.0059 20.8484 7.10431C21.2325 7.35946 21.646 8.08967 22.0313 9.03816Z" fill="#961E6C"/>
<path d="M23.3257 13.6149C22.2557 13.2373 21.5345 14.0477 21.5345 14.0477C21.3592 12.1391 20.7889 9.31801 20.1084 7.55117C20.1084 7.55117 20.1488 6.63921 20.8479 7.10336C21.7714 7.71657 22.8648 11.0756 23.3254 13.6146L23.3257 13.6149Z" stroke="black" stroke-width="0.284929" stroke-linecap="round" stroke-linejoin="round"/>
<path d="M21.2721 9.73213C21.5894 10.3062 22.0026 10.839 22.1872 11.4685C22.2969 11.8416 22.3071 12.2843 22.0529 12.5786C22.0199 12.617 21.9715 12.6552 21.9231 12.6395C21.8545 12.6174 21.8593 12.5206 21.868 12.4487C21.8965 12.2183 21.818 11.9862 21.7042 11.7836C21.5904 11.581 21.442 11.4009 21.3131 11.2076C20.8807 10.5588 20.6826 9.78662 20.4919 9.03078C20.4191 8.74293 20.3463 8.45476 20.2906 8.16306C20.2662 8.03516 20.1111 7.60307 20.3204 7.58544C20.5185 7.56877 20.5598 7.99157 20.6034 8.12524C20.6884 8.38584 20.7791 8.64452 20.881 8.89871C20.9951 9.18368 21.1233 9.46319 21.2721 9.73181V9.73213Z" fill="#450832"/>
<path d="M32.6019 32.4117H2.2463C2.2463 32.4117 1.93441 26.9987 3.79005 25.0417C4.03591 24.7824 4.58692 24.5308 5.31296 24.2904C5.53157 24.2176 5.76557 24.1464 6.01206 24.0762C8.00073 23.5095 10.7875 23.0162 12.4993 22.6543L13.5468 22.6239L14.244 22.6033L22.1816 22.3713L22.523 22.3613C24.8412 22.9515 29.3583 23.9015 30.7722 24.8138C30.8902 24.8904 30.9873 24.9667 31.0591 25.0424C32.9148 26.9993 32.6025 32.4123 32.6025 32.4123L32.6019 32.4117Z" fill="#E86F3A" stroke="black" stroke-width="0.284929" stroke-linecap="round" stroke-linejoin="round"/>
<path d="M21.5745 15.4963C21.5524 15.7646 21.5043 15.9505 21.4268 16.0306C20.9411 16.53 20.2539 14.8683 19.9157 13.9275C19.8824 13.8336 19.8519 13.7471 19.826 13.6708C19.7538 13.4602 19.7122 13.3252 19.7122 13.3252L19.3958 12.0825L18.9989 10.5256L18.9945 10.5073L18.9403 10.2948C18.8813 8.78888 18.6948 7.24962 18.3595 6.3755C18.3579 6.37005 18.3559 6.36524 18.3537 6.35979C18.3476 6.34472 18.3418 6.32998 18.3357 6.31523C18.3181 6.27132 18.2998 6.22933 18.2812 6.18926C18.3463 6.04822 18.5149 5.79339 18.8694 5.87224C18.9518 5.89051 19.0438 5.92673 19.147 5.98635C19.4522 6.16233 19.7609 6.68546 20.051 7.40701C20.0699 7.45413 20.0888 7.50189 20.1074 7.55029C20.3972 8.30229 20.6667 9.24598 20.8947 10.2284C21.112 11.1657 21.2908 12.1386 21.4127 13.0159C21.4947 13.6041 21.5502 14.1494 21.5748 14.6113C21.5931 14.9587 21.5938 15.2594 21.5742 15.496L21.5745 15.4963Z" fill="#6D1249" stroke="black" stroke-width="0.284929" stroke-linecap="round" stroke-linejoin="round"/>
<path d="M20.05 7.40814C20.0295 7.49629 20.0055 7.58347 19.9779 7.6697C19.8503 7.70208 19.7128 7.64726 19.6147 7.55911C19.5166 7.47128 19.4503 7.35461 19.3852 7.24017C19.2535 7.00746 19.1221 6.77442 18.9903 6.54202C18.9291 6.43336 18.8666 6.32277 18.8374 6.20096C18.8114 6.09198 18.8153 5.97081 18.8682 5.87305C18.9506 5.89132 19.0426 5.92754 19.1458 5.98716C19.4509 6.16314 19.7596 6.68627 20.0497 7.40782L20.05 7.40814Z" fill="#961E6C"/>
<path d="M21.5742 15.496C21.5521 15.7643 21.504 15.9503 21.4264 16.0304C20.9408 16.5298 20.2536 14.8681 19.9154 13.9273C19.8821 13.8334 19.8516 13.7468 19.8256 13.6705C19.7535 13.4599 19.7118 13.325 19.7118 13.325L19.3955 12.0822L18.9986 10.5254L18.94 10.2946C18.8765 8.67517 18.6656 7.01699 18.2812 6.18934C18.3611 6.0156 18.5989 5.6691 19.147 5.98644C19.4721 6.17427 19.801 6.7551 20.1074 7.55037C20.3972 8.30237 20.6667 9.24606 20.8947 10.2285C21.112 11.1658 21.2908 12.1387 21.4127 13.016C21.4947 13.6042 21.5502 14.1494 21.5748 14.6113C21.5931 14.9588 21.5938 15.2595 21.5742 15.496Z" stroke="black" stroke-width="0.284929" stroke-linecap="round" stroke-linejoin="round"/>
<path d="M19.2452 10.3752C19.2048 10.4676 19.1118 10.5663 19.0201 10.5249C19.0105 10.5208 19.0019 10.5153 18.9942 10.5086L18.94 10.2961C18.881 8.79015 18.6945 7.25089 18.3592 6.37677L18.2479 6.3867L18.2095 6.38991C18.2441 6.35305 18.2877 6.32901 18.3354 6.3165C18.4287 6.29278 18.5367 6.31298 18.6204 6.36491C18.7464 6.44344 18.8268 6.57743 18.8929 6.71078C19.3256 7.58202 19.3436 8.59334 19.3525 9.56619C19.3551 9.84058 19.3557 10.1243 19.2448 10.3749L19.2452 10.3752Z" fill="#450832"/>
<path d="M21.4125 13.0171C20.9971 13.3489 20.4009 13.5649 19.8252 13.6717C19.8515 13.748 19.8816 13.8345 19.9149 13.9284C19.9438 14.3211 20.0034 15.1071 20.0855 16.0565C20.0855 16.0565 20.0855 16.0572 20.0858 16.0588C20.3102 18.6648 20.7016 21.6254 21.0804 21.9231C21.0804 21.9231 19.9582 26.5226 16.939 26.5226C13.9198 26.5226 13.9326 22.2357 13.9326 22.2357C14.2198 22.0097 14.2756 21.8414 14.2592 20.8516C14.2471 20.1217 14.1955 19.42 14.1685 19.094C14.1586 18.9732 14.1519 18.9039 14.1519 18.9039C13.4736 19.1187 12.7553 19.2242 12.0821 19.0914C11.4141 18.9594 10.7906 18.5933 10.2938 17.867C9.8572 17.2291 9.70847 16.4473 9.75046 15.6033C9.80143 14.5718 10.1374 13.4479 10.581 12.3821C11.0615 11.2262 11.6692 10.1386 12.1776 9.3113C12.1799 9.30777 12.3914 9.21385 12.7367 9.10454C13.2502 8.94203 14.0595 8.74618 14.9148 8.76381C14.8519 10.3233 14.916 12.5462 15.7927 12.5446C15.9706 12.5443 16.1049 12.1398 16.2008 11.5788C16.2768 11.1339 16.3284 10.5903 16.3588 10.0723C16.33 10.5906 16.2793 11.1349 16.2043 11.5801C16.2043 11.5801 16.5338 14.0496 17.1797 13.748C17.2874 13.6976 17.3673 13.5181 17.4233 13.2505C17.6243 13.9002 17.9619 14.5775 18.4895 14.5096C18.8353 14.4647 19.0056 12.601 18.9491 10.5935C18.9652 10.5707 18.9815 10.5483 18.9979 10.5262C19.0729 10.4262 19.154 10.3316 19.2412 10.2473C19.6556 9.84757 20.2066 9.68024 20.8939 10.2293C21.0016 10.3152 21.1128 10.4191 21.2273 10.5422C21.3507 10.6749 21.4564 10.8031 21.5459 10.9272C22.2238 11.8606 21.995 12.5523 21.4119 13.0168L21.4125 13.0171Z" fill="#94624B" stroke="black" stroke-width="0.284929" stroke-linecap="round" stroke-linejoin="round"/>
<path d="M17.2319 17.377C17.2345 18.8255 16.3847 20.2439 15.1061 20.9244C14.9564 21.0039 14.7907 21.076 14.623 21.0523C14.4826 21.0325 14.3653 20.9501 14.2611 20.8504C14.2489 20.1205 14.1973 19.4188 14.1704 19.0928C14.2855 18.9838 14.4115 18.8848 14.5368 18.7874L17.2319 17.377Z" fill="#663421"/>
<path d="M12.7466 9.43015C12.6334 9.77987 12.4443 10.1142 12.3183 10.4623C11.8023 11.8858 11.5612 13.4078 11.6067 14.9214C11.6321 15.7721 11.7484 16.6203 11.9574 17.4454C12.0555 17.8339 12.1747 18.2243 12.1658 18.625C12.1622 18.7811 12.135 18.9414 12.0821 19.0904C11.4141 18.9584 10.7906 18.5923 10.2938 17.8659C9.8572 17.2281 9.70847 16.4462 9.75046 15.6022C9.80143 14.5707 10.1374 13.4469 10.581 12.3811C11.0615 11.2252 11.6692 10.1376 12.1776 9.31027C12.1799 9.30674 12.3914 9.21282 12.7367 9.10352C12.7815 9.19102 12.7873 9.30322 12.7466 9.43015Z" fill="#AD8679"/>
<path d="M14.5561 9.74898C14.5199 10.5882 14.4843 11.4363 14.6401 12.2617C14.6898 12.5249 14.7808 12.8137 15.0171 12.9394C15.1937 13.0336 15.4097 13.0115 15.5995 13.0756C15.9303 13.1875 16.1162 13.5295 16.2681 13.8439C16.4201 14.1584 16.5986 14.502 16.9256 14.6245C17.0387 14.6668 17.1609 14.6783 17.2782 14.7069C17.5548 14.7742 17.8061 14.9405 17.9763 15.1688C18.0436 15.2588 18.0988 15.3588 18.1792 15.4377C18.2597 15.5166 18.3744 15.572 18.4837 15.5451C18.5905 15.5188 18.6661 15.4185 18.695 15.3127C18.7238 15.2069 18.7136 15.0944 18.702 14.9851C18.5581 13.6257 18.2286 12.2935 17.8786 10.9719C17.6737 10.1984 17.4394 9.38837 16.8679 8.8287C16.5239 8.49181 16.0495 8.26486 15.5697 8.303C15.2815 8.32608 14.7734 8.47353 14.6196 8.74824C14.5635 8.84793 14.5862 8.97391 14.5843 9.08321C14.5805 9.30503 14.5657 9.52717 14.5561 9.74898Z" fill="#7C412E"/>
<path d="M13.5409 25.5477C13.4636 26.1487 13.3486 26.7696 12.9947 27.2617C12.6405 27.7537 11.9824 28.0768 11.4141 27.8662C10.59 27.5614 10.3794 26.3789 9.56517 26.0487C8.56026 25.641 7.42201 26.8094 6.41165 26.4164C5.96385 26.2423 5.6776 25.7974 5.51508 25.3458C5.39296 25.0069 5.32564 24.6492 5.3125 24.2896C5.53111 24.2168 5.76511 24.1456 6.01161 24.0754C8.00027 23.5087 10.7871 23.0154 12.4988 22.6535L13.5463 22.623C13.7172 23.586 13.6656 24.5771 13.5406 25.5477H13.5409Z" fill="#49A2A6" stroke="black" stroke-width="0.284929" stroke-linecap="round" stroke-linejoin="round"/>
<path d="M30.699 24.8119C30.4423 25.6398 29.9175 26.3813 29.1832 26.8409C28.5296 27.2499 27.6048 27.4032 27.0291 26.8903C26.5803 26.4906 26.4925 25.8334 26.2162 25.2997C25.7543 24.4077 24.6808 23.8775 23.6919 24.0531C23.3813 24.1083 23.0822 24.2249 22.7687 24.257C22.4546 24.2891 22.1033 24.2163 21.9113 23.9659C21.676 23.6589 21.7654 23.2184 21.902 22.8565C21.96 22.7024 22.0296 22.5382 22.1091 22.3693L22.4508 22.3594C24.7686 22.9495 29.2861 23.8996 30.6993 24.8119H30.699Z" fill="#49A2A6" stroke="black" stroke-width="0.284929" stroke-linecap="round" stroke-linejoin="round"/>
<path d="M28.9166 32.4105H19.2384C19.1149 31.9461 19.1114 31.4498 19.2467 30.9879C19.532 30.0141 20.4196 29.2455 21.4241 29.1028C22.4685 28.9544 23.501 29.4304 24.5556 29.4609C25.1867 29.4791 25.8191 29.3368 26.4464 29.4057C27.4148 29.5118 28.3082 30.159 28.7018 31.0495C28.8896 31.4745 28.9592 31.9477 28.9162 32.4102L28.9166 32.4105Z" fill="#49A2A6" stroke="black" stroke-width="0.284929" stroke-linecap="round" stroke-linejoin="round"/>
<path d="M12.8922 32.4106H3.75928C3.94744 31.2534 5.387 30.3399 6.40922 30.1203C7.76481 29.8293 9.17713 30.1863 10.4715 30.6848C11.0517 30.9082 11.6271 31.1646 12.1178 31.5464C12.4239 31.7849 12.6964 32.0769 12.8922 32.4106Z" fill="#49A2A6" stroke="black" stroke-width="0.284929" stroke-linecap="round" stroke-linejoin="round"/>
<path d="M19.7444 12.4931C19.9531 12.4011 20.1813 12.354 20.4092 12.3556C20.5256 12.3566 20.6464 12.3694 20.7551 12.3277C20.8483 12.2918 20.9224 12.2197 20.9887 12.145C21.0522 12.0735 21.1125 11.9963 21.142 11.9055C21.1714 11.8148 21.165 11.7074 21.1048 11.6334C21.0532 11.5703 20.9698 11.5398 20.8887 11.535C20.8076 11.5302 20.7265 11.5475 20.647 11.5648C20.3646 11.6263 20.0806 11.6882 19.8127 11.7966C19.5668 11.8956 19.1837 12.0735 19.1119 12.3604C19.0825 12.4787 19.1424 12.571 19.2575 12.6072C19.428 12.6607 19.594 12.5595 19.7444 12.4931Z" fill="#663421"/>
<path d="M21.5472 10.9262C21.4597 11.0791 21.3148 11.2067 21.1456 11.1856C21.0295 11.1708 20.9334 11.0881 20.8616 10.9955C20.7904 10.9028 20.7362 10.7974 20.66 10.7086C20.4917 10.5127 20.216 10.4153 19.9618 10.4624C19.7871 10.4948 19.6063 10.589 19.4422 10.5214C19.3316 10.4759 19.264 10.3659 19.2422 10.246C19.6567 9.84633 20.2077 9.679 20.8949 10.2281C21.0026 10.314 21.1138 10.4179 21.2283 10.5409C21.3517 10.6737 21.4575 10.8019 21.5469 10.9259L21.5472 10.9262Z" fill="#AD8679"/>
<path d="M15.0125 7.35352C14.9926 7.55322 14.9426 8.09718 14.9157 8.76199C13.4854 8.73218 12.184 9.29987 12.1782 9.30916C12.2378 9.21204 12.2962 9.11844 12.3526 9.029C12.3532 9.02836 12.3536 9.02772 12.3539 9.02708C12.8174 8.29207 13.1652 7.81863 13.1956 7.77792C13.1966 7.77663 13.1972 7.77567 13.1972 7.77535H13.1976V7.77471C13.1976 7.77471 13.6178 7.56411 14.2538 7.44006C14.482 7.39551 14.7381 7.36217 15.0122 7.35384L15.0125 7.35352Z" fill="#4C70F5" stroke="black" stroke-width="0.284929" stroke-linecap="round" stroke-linejoin="round"/>
<path d="M12.353 9.02994C12.2966 9.11937 12.2382 9.21297 12.1786 9.31009C11.8039 9.92009 11.3753 10.6708 10.9836 11.4863C10.6005 10.7766 9.86426 11.1648 9.86426 11.1648C9.97004 10.9032 10.0566 10.7253 10.0566 10.7253C10.3861 11.0474 11.0836 10.2079 11.5276 9.58705C11.5356 9.60275 11.5449 9.61654 11.5551 9.62904C11.691 9.79251 12.0228 9.45722 12.3526 9.0293L12.353 9.02994Z" fill="#6D1249" stroke="black" stroke-width="0.284929" stroke-linecap="round" stroke-linejoin="round"/>
<path d="M10.582 12.3809C10.1386 13.4467 9.80272 14.5705 9.75143 15.6017C9.31741 16.2537 8.87923 16.731 8.66831 16.4197C8.17211 15.6886 9.48313 12.6585 9.48313 12.6585C9.48281 12.7738 9.49596 12.8796 9.52705 12.9707C9.65174 13.3377 10.1492 12.8812 10.582 12.3812V12.3809Z" fill="#6D1249" stroke="black" stroke-width="0.284929" stroke-linecap="round" stroke-linejoin="round"/>
<path d="M14.1533 18.9023C15.7775 18.3879 17.1725 17.2451 17.1725 17.2451" stroke="black" stroke-width="0.284929" stroke-linecap="round" stroke-linejoin="round"/>
<path d="M19.8271 13.6699C19.5895 13.7145 19.3558 13.7398 19.1392 13.7472" stroke="black" stroke-width="0.284929" stroke-linecap="round" stroke-linejoin="round"/>
<path d="M18.3062 11.9762C18.3062 11.9762 18.5212 11.2005 18.9504 10.5928" stroke="black" stroke-width="0.284929" stroke-linecap="round" stroke-linejoin="round"/>
<path d="M19.147 12.3243C19.147 12.3243 20.2288 11.0703 21.194 11.8136" stroke="black" stroke-width="0.284929" stroke-linecap="round" stroke-linejoin="round"/>
<path d="M20.2791 12.544C20.2791 12.544 20.2743 12.025 20.1079 11.709" stroke="black" stroke-width="0.284929" stroke-linecap="round" stroke-linejoin="round"/>
<path d="M22.4502 22.3594C22.4502 22.3594 21.0815 28.0263 16.8214 28.0263C12.8803 28.0263 12.4268 22.6524 12.4268 22.6524C13.2313 22.4822 13.7984 22.3411 13.934 22.2344C13.934 22.2344 13.9211 26.5214 16.9404 26.5214C19.9596 26.5214 21.0818 21.9219 21.0818 21.9219C21.2116 22.0235 21.7226 22.1732 22.4505 22.3591L22.4502 22.3594Z" fill="#F5D256" stroke="black" stroke-width="0.284929" stroke-linecap="round" stroke-linejoin="round"/>
<path d="M16.3591 10.0721C16.3287 10.5901 16.2768 11.1338 16.2011 11.5787C16.1053 12.1393 15.971 12.5442 15.7931 12.5445C15.1629 12.5455 14.9526 11.3973 14.9077 10.1725C14.9077 10.1725 15.4517 9.57144 16.3591 10.0725V10.0721Z" fill="#F5D256" stroke="black" stroke-width="0.284929" stroke-linecap="round" stroke-linejoin="round"/>
<path d="M16.3926 9.05568C16.3923 9.30282 16.3846 9.58971 16.3698 9.8907C16.3689 9.91057 16.3679 9.93077 16.367 9.95096C16.367 9.95256 16.3666 9.95417 16.3666 9.95609C16.3666 9.96058 16.3663 9.96507 16.366 9.96923C16.3644 10.0035 16.3625 10.0378 16.3602 10.0724C15.4524 9.57176 14.9088 10.1725 14.9088 10.1725C14.8912 9.69324 14.8989 9.20217 14.9165 8.76366C14.9434 8.09885 14.9934 7.55489 15.0133 7.35519C14.7389 7.36352 14.4831 7.39686 14.2549 7.44141C14.2549 7.44141 14.3145 7.05644 14.5815 6.79231C14.6165 6.75737 14.6549 6.725 14.6972 6.69583C14.7056 6.68942 14.7142 6.68397 14.7229 6.67852C14.7235 6.6782 14.7238 6.67788 14.7245 6.67756C14.7351 6.6705 14.7456 6.66441 14.7569 6.65832C14.7642 6.65448 14.7716 6.65031 14.7787 6.64646C14.7857 6.64294 14.7928 6.63909 14.8001 6.63556C14.9283 6.57178 15.0864 6.53748 15.279 6.55222C15.8275 6.5955 16.0929 6.98752 16.2314 7.49911H16.2317C16.3144 7.80395 16.3522 8.1511 16.3775 8.49184C16.3881 8.63288 16.3936 8.82745 16.3926 9.05568Z" fill="#6D1249" stroke="black" stroke-width="0.284929" stroke-linecap="round" stroke-linejoin="round"/>
<path d="M15.021 7.27148C15.021 7.27148 15.0181 7.30033 15.0127 7.35354" stroke="black" stroke-width="0.284929" stroke-linecap="round" stroke-linejoin="round"/>
<path d="M17.4241 13.2505C17.3677 13.5181 17.2882 13.6976 17.1805 13.748C16.5349 14.0493 16.2051 11.5801 16.2051 11.5801C16.2801 11.1349 16.3308 10.5906 16.3596 10.0723C16.3615 10.0377 16.3635 10.0034 16.3654 9.96906C16.3657 9.9649 16.366 9.96041 16.366 9.95592C16.366 9.95432 16.3663 9.95272 16.3663 9.95079C16.3673 9.9306 16.3683 9.9104 16.3692 9.89053C16.383 9.59018 16.3901 9.30361 16.3901 9.05647C16.3904 8.92986 16.3888 8.8135 16.3849 8.7106C16.3824 8.62855 16.3785 8.55546 16.3737 8.49263C16.3474 8.15189 16.309 7.80474 16.2259 7.50023H16.2256C16.0855 6.98928 15.8198 6.59725 15.2707 6.55526C15.1351 6.54468 15.0168 6.55911 14.9139 6.59084C14.8736 6.60302 14.8354 6.61809 14.7995 6.6354C14.7921 6.63892 14.7848 6.64277 14.778 6.64629C14.7707 6.65014 14.7633 6.65431 14.7562 6.65815C14.745 6.66424 14.7344 6.67034 14.7239 6.67739C14.7232 6.67771 14.7229 6.67803 14.7223 6.67835C14.7136 6.6838 14.705 6.68925 14.6966 6.69566C14.6543 6.72419 14.6155 6.75624 14.5803 6.79054C14.578 6.79278 14.5761 6.79471 14.5738 6.79695C14.5738 6.79503 14.5729 6.78573 14.5719 6.77067C14.5678 6.68829 14.5639 6.42929 14.6668 6.16612C14.7665 5.91161 14.9652 5.65485 15.3582 5.55003C15.4733 5.51926 15.6054 5.50163 15.7563 5.50099C15.9961 5.50003 16.2041 5.5651 16.383 5.67633C16.8129 5.94334 17.0783 6.47801 17.2238 7.013V7.01364C17.2841 7.23417 17.3235 7.45503 17.3462 7.65697C17.4296 8.40288 17.7069 11.9199 17.4245 13.2502L17.4241 13.2505Z" fill="#6D1249" stroke="black" stroke-width="0.284929" stroke-linecap="round" stroke-linejoin="round"/>
<path d="M12.353 9.02846C12.7601 8.49988 13.1643 7.82994 13.1948 7.7793" stroke="black" stroke-width="0.284929" stroke-linecap="round" stroke-linejoin="round"/>
<path d="M14.5718 6.77051C14.5759 6.78044 14.5792 6.78718 14.5801 6.79038" stroke="black" stroke-width="0.284929" stroke-linecap="round" stroke-linejoin="round"/>
<path d="M14.9165 8.76199C14.9434 8.09718 14.9934 7.55322 15.0133 7.35352C14.7389 7.36185 14.4831 7.39519 14.2549 7.43974" stroke="black" stroke-width="0.284929" stroke-linecap="round" stroke-linejoin="round"/>
<path d="M18.4895 14.5097C17.9619 14.5776 17.6243 13.9 17.4233 13.2506C17.5416 12.6928 17.5615 11.7508 17.5387 10.7894C17.5387 10.7894 18.0965 9.91403 18.9462 10.4904C18.9472 10.525 18.9482 10.5593 18.9491 10.5939C19.0056 12.6012 18.8353 14.4651 18.4895 14.51V14.5097Z" fill="#F5D256" stroke="black" stroke-width="0.284929" stroke-linecap="round" stroke-linejoin="round"/>
<path d="M18.9472 10.4901C18.592 10.2491 18.2875 10.2619 18.0541 10.3587C17.7285 10.4927 17.5397 10.7892 17.5397 10.7892C17.5082 9.45799 17.3945 8.08991 17.3461 7.65685C17.2893 7.14847 17.1239 6.52052 16.7986 6.074C16.7966 6.07079 16.7944 6.06759 16.7918 6.0647C16.7739 6.04002 16.7553 6.01662 16.7364 5.99354C16.6335 5.86725 16.5162 5.75858 16.3828 5.6762C16.3828 5.6762 16.6947 5.3095 17.1556 5.31751C17.1932 5.31783 17.2319 5.32072 17.2717 5.32713C17.5124 5.36335 17.7868 5.50695 18.0746 5.84866C18.1487 5.93648 18.2176 6.05188 18.2817 6.19036C18.3253 6.28396 18.3663 6.38781 18.4051 6.50096C18.7119 7.39176 18.8843 8.85889 18.9404 10.2956C18.943 10.3606 18.9456 10.4257 18.9475 10.4901H18.9472Z" fill="#6D1249" stroke="black" stroke-width="0.284929" stroke-linecap="round" stroke-linejoin="round"/>
<path d="M14.5803 6.79106C14.3132 7.05551 14.2536 7.44048 14.2536 7.44048C13.6177 7.56453 13.1974 7.77513 13.1974 7.77513C13.1974 7.77513 13.1974 7.77545 13.1971 7.77577C13.1971 7.77609 13.1965 7.77705 13.1955 7.77833C13.1747 7.80654 13.0038 8.03894 12.7483 8.42007C12.4307 7.62159 11.8922 7.92066 11.8765 7.92963C12.0226 7.59915 12.1993 7.26514 12.3884 6.97184C12.6849 6.51186 13.0128 6.15093 13.3029 6.05733C13.6709 5.93809 13.9533 6.04194 14.1571 6.20638C14.4043 6.4048 14.5373 6.69008 14.571 6.77022C14.5719 6.78529 14.5729 6.79458 14.5729 6.79651C14.5748 6.79458 14.5767 6.79266 14.5793 6.79042C14.5796 6.79074 14.5799 6.79106 14.5799 6.79138L14.5803 6.79106Z" fill="#6D1249" stroke="black" stroke-width="0.284929" stroke-linecap="round" stroke-linejoin="round"/>
<path d="M14.6679 6.16647C14.565 6.42963 14.5688 6.68863 14.573 6.77101C14.5114 6.62485 14.1194 5.79399 13.3049 6.05844C12.4359 6.33988 11.2291 9.01098 11.5291 9.58828C11.0851 10.2092 10.3876 11.0484 10.0581 10.7265C9.71608 10.3932 10.3043 8.4324 11.1951 6.9861C11.6195 6.29693 12.1125 5.72475 12.6064 5.50134C13.0914 5.28208 13.4751 5.26638 13.7735 5.34843C14.4092 5.52281 14.6576 6.13922 14.6682 6.16615L14.6679 6.16647Z" fill="#6D1249" stroke="black" stroke-width="0.284929" stroke-linecap="round" stroke-linejoin="round"/>
<path d="M17.2706 5.32632C16.7465 5.24682 16.3817 5.67539 16.3817 5.67539C16.2025 5.56384 15.9948 5.49909 15.7551 5.50006C15.0893 5.50294 14.7947 5.83663 14.6655 6.16487C14.6655 6.14467 14.6694 4.98205 15.5579 4.77851C16.6449 4.53009 17.2706 5.326 17.2706 5.326V5.32632Z" fill="#6D1249" stroke="black" stroke-width="0.284929" stroke-linecap="round" stroke-linejoin="round"/>
<path d="M14.6655 6.16602L14.6663 6.16842" stroke="black" stroke-width="0.284929" stroke-linecap="round" stroke-linejoin="round"/>
<path d="M21.7747 18.1201C21.7516 18.7769 21.632 19.3004 21.3118 19.3058C20.4592 19.3196 20.0973 16.1571 20.0864 16.0581C20.0861 16.0565 20.0861 16.0558 20.0861 16.0558C20.004 15.1064 19.9444 14.3204 19.9155 13.9277C20.2534 14.8685 20.941 16.5302 21.4266 16.0308C21.5041 15.951 21.5522 15.7648 21.5743 15.4965C21.5743 15.4965 21.8138 17.0021 21.7747 18.1201Z" fill="#6D1249" stroke="black" stroke-width="0.284929" stroke-linecap="round" stroke-linejoin="round"/>
<path d="M22.9423 20.0164C22.1083 19.9849 21.7755 18.1197 21.7755 18.1197C21.8146 17.0016 21.5752 15.496 21.5752 15.496C21.5947 15.2591 21.5941 14.9588 21.5758 14.6113C21.9467 15.3729 22.5221 16.4045 22.9891 16.5785C22.9991 16.6224 23.7709 20.0471 22.942 20.0164H22.9423Z" fill="#6D1249" stroke="black" stroke-width="0.284929" stroke-linecap="round" stroke-linejoin="round"/>
<path d="M12.6399 12.4121C12.6399 12.4121 11.6671 13.9123 12.0613 14.1584C12.4553 14.4046 12.8864 13.9985 12.8864 13.9985" stroke="black" stroke-width="0.284929" stroke-linecap="round" stroke-linejoin="round"/>
<path d="M12.9594 15.4773C12.9594 15.4773 14.2951 15.9328 15.0125 14.9355C15.0125 14.9355 15.4177 16.4254 14.3262 16.6168C12.7501 16.8931 12.9594 15.4773 12.9594 15.4773Z" fill="white" stroke="black" stroke-width="0.284929" stroke-linecap="round" stroke-linejoin="round"/>
<path d="M12.9424 24.8328C13.2187 24.6466 13.4947 24.4607 13.771 24.2744" stroke="black" stroke-width="0.284929" stroke-linecap="round" stroke-linejoin="round"/>
<path d="M14.3501 27.0741C14.5097 26.9096 14.6694 26.7452 14.8287 26.5811" stroke="black" stroke-width="0.284929" stroke-linecap="round" stroke-linejoin="round"/>
<path d="M17.042 27.8527L17.1718 27.0645" stroke="black" stroke-width="0.284929" stroke-linecap="round" stroke-linejoin="round"/>
<path d="M19.6174 26.943C19.4927 26.7734 19.3683 26.6041 19.2437 26.4346" stroke="black" stroke-width="0.284929" stroke-linecap="round" stroke-linejoin="round"/>
<path d="M21.1916 25.0062C20.9871 24.902 20.7826 24.7979 20.5781 24.6934" stroke="black" stroke-width="0.284929" stroke-linecap="round" stroke-linejoin="round"/>
<path d="M22.1901 22.8758C21.9106 22.8515 21.6311 22.8271 21.3516 22.8027" stroke="black" stroke-width="0.284929" stroke-linecap="round" stroke-linejoin="round"/>
<path d="M16.2798 12.0252C16.2798 12.0252 16.6965 11.1552 17.5459 11.9499" stroke="black" stroke-width="0.284929" stroke-linecap="round" stroke-linejoin="round"/>
<path d="M16.3799 12.5027C16.5466 12.2992 16.9232 12.0194 17.5143 12.5479" stroke="#F5D256" stroke-width="0.284929" stroke-linecap="round" stroke-linejoin="round"/>
<path d="M18.9984 10.5265C18.9811 10.5136 18.9638 10.5015 18.9468 10.4902" stroke="black" stroke-width="0.284929" stroke-linecap="round" stroke-linejoin="round"/>
<path d="M10.9834 11.4855C10.8433 11.7766 10.708 12.0763 10.5817 12.3802C10.149 12.8802 9.65152 13.337 9.52683 12.9696C9.49606 12.8789 9.4826 12.7731 9.48292 12.6574C9.48324 12.1946 9.69736 11.5753 9.86404 11.1637C9.86404 11.1637 10.6003 10.7752 10.9834 11.4852V11.4855Z" fill="#F5D256" stroke="black" stroke-width="0.284929" stroke-linecap="round" stroke-linejoin="round"/>
<path d="M12.7492 8.42077C12.7492 8.42077 12.7492 8.42109 12.7488 8.42109C12.6328 8.59451 12.4995 8.7987 12.3546 9.02821C12.3542 9.02885 12.3539 9.02949 12.3533 9.03013C12.0234 9.45806 11.6917 9.79335 11.5558 9.62987C11.5455 9.61737 11.5362 9.60326 11.5282 9.58788C11.3923 9.32631 11.566 8.6349 11.877 7.93034H11.8773C11.893 7.92136 12.4315 7.62229 12.7492 8.42077Z" fill="#F5D256" stroke="black" stroke-width="0.284929" stroke-linecap="round" stroke-linejoin="round"/>
<path d="M12.7493 8.41992L12.7485 8.42072C12.7485 8.42072 12.7488 8.42046 12.7493 8.41992Z" fill="#F5D256" stroke="black" stroke-width="0.284929" stroke-linecap="round" stroke-linejoin="round"/>
<path d="M10.1875 9.20526C10.1875 9.20526 10.9068 8.75265 11.396 9.76589" stroke="black" stroke-width="0.284929" stroke-linecap="round" stroke-linejoin="round"/>
<path d="M8.83447 14.4501C8.83447 14.4501 9.57942 14.0584 9.8413 14.8142" stroke="#F5D256" stroke-width="0.284929" stroke-linecap="round" stroke-linejoin="round"/>
<path d="M20.3452 17.5662C20.3446 17.5636 20.8328 16.8039 21.7742 17.4437L20.3452 17.5662Z" fill="#6D1249"/>
<path d="M20.3452 17.5662C20.3446 17.5636 20.8328 16.8039 21.7742 17.4437" stroke="black" stroke-width="0.284929" stroke-linecap="round" stroke-linejoin="round"/>
<path d="M20.2876 16.9578C20.287 16.9552 20.7751 16.1955 21.7166 16.8353L20.2876 16.9578Z" fill="#6D1249"/>
<path d="M20.2876 16.9578C20.287 16.9552 20.7751 16.1955 21.7166 16.8353" stroke="black" stroke-width="0.284929" stroke-linecap="round" stroke-linejoin="round"/>
<path d="M16.8362 5.94336L16.7913 6.06453C16.7733 6.03984 16.7548 6.01644 16.7358 5.99336C16.7669 5.97317 16.8006 5.95618 16.8358 5.94368L16.8362 5.94336Z" fill="#450832"/>
<path d="M18.0539 10.3577C17.7282 10.4917 17.5394 10.7882 17.5394 10.7882C17.508 9.45702 17.3942 8.08893 17.3458 7.65587C17.2891 7.14749 17.1237 6.51954 16.7983 6.07302C16.8881 5.98423 17.0471 5.9884 17.1561 6.05667C17.2724 6.12976 17.3442 6.25573 17.4038 6.37946C17.7757 7.14845 17.8722 8.01745 17.9632 8.86721C18.0164 9.36246 18.0693 9.86154 18.0536 10.3577H18.0539Z" fill="#450832"/>
<path d="M21.4122 13.0171C20.9968 13.3489 20.4006 13.565 19.8249 13.6717C19.8512 13.748 19.8813 13.8345 19.9146 13.9285C19.9435 14.3211 20.0031 15.1071 20.0852 16.0565C20.0852 16.0565 20.0852 16.0572 20.0855 16.0588C20.3099 18.6648 20.7012 21.6254 21.0801 21.9232C21.0801 21.9232 19.9579 26.5227 16.9387 26.5227C13.9195 26.5227 13.9323 22.2357 13.9323 22.2357C14.5099 21.7818 14.1515 18.9036 14.1515 18.9036C12.8008 19.3319 11.2916 19.3251 10.2938 17.8667C9.8572 17.2288 9.70847 16.447 9.75046 15.603C9.80143 14.5715 10.1374 13.4476 10.581 12.3818C11.0615 11.2259 11.6692 10.1383 12.1776 9.311C12.1834 9.3017 13.4845 8.73402 14.9151 8.76383C14.8523 10.3233 14.9164 12.5463 15.7931 12.5447C15.971 12.5443 16.1053 12.1398 16.2011 11.5789C16.2771 11.1339 16.3287 10.5903 16.3591 10.0723C16.3303 10.5906 16.2796 11.1349 16.2046 11.5801C16.2046 11.5801 16.5342 14.0496 17.1801 13.748C17.2878 13.6977 17.3676 13.5182 17.4237 13.2505C17.6246 13.9002 17.9622 14.5776 18.4898 14.5096C18.8357 14.4647 19.0059 12.6011 18.9495 10.5935C18.9655 10.5707 18.9818 10.5483 18.9982 10.5262C19.43 9.94985 20.0624 9.56455 20.8945 10.2294C21.0022 10.3153 21.1135 10.4191 21.2279 10.5422C22.279 11.6731 22.0732 12.4905 21.4125 13.0168L21.4122 13.0171Z" stroke="black" stroke-width="0.284929" stroke-linecap="round" stroke-linejoin="round"/>
<path d="M17.5373 5.04127L17.4893 5.04255C17.5053 5.04127 17.521 5.04063 17.5373 5.04127Z" fill="#961E6C"/>
<path d="M18.4055 6.50116C18.3917 6.60501 18.3725 6.70791 18.3488 6.80984C18.3263 6.90568 18.2818 7.01787 18.185 7.03422C18.1148 7.04608 18.0462 6.998 18.009 6.93742C17.9718 6.87683 17.959 6.80503 17.9423 6.73579C17.8664 6.42006 17.6965 6.12772 17.4602 5.90494C17.348 5.79948 17.2163 5.70204 17.1634 5.55747C17.1352 5.48086 17.1336 5.3956 17.1563 5.31738C17.1939 5.3177 17.2326 5.32059 17.2724 5.327C17.5131 5.36322 17.7875 5.50683 18.0754 5.84853C18.1494 5.93636 18.2183 6.05175 18.2824 6.19023C18.326 6.28383 18.367 6.38768 18.4058 6.50084L18.4055 6.50116Z" fill="#961E6C"/>
<path d="M17.4241 13.2498C17.3677 13.5175 17.2882 13.697 17.1805 13.7473C16.5349 14.0486 16.2051 11.5795 16.2051 11.5795C16.2801 11.1342 16.3308 10.5899 16.3596 10.0716C16.3615 10.037 16.3635 10.0027 16.3654 9.96841C16.3657 9.96424 16.366 9.95975 16.366 9.95527C16.366 9.95366 16.3663 9.95206 16.3663 9.95014C16.3673 9.92994 16.3683 9.90975 16.3692 9.88987C16.383 9.58952 16.3901 9.30296 16.3901 9.05582C16.3907 8.82759 16.3846 8.63302 16.3737 8.49198C16.3474 8.15124 16.309 7.80409 16.2259 7.49957H16.2256C16.0855 6.98862 15.8198 6.5966 15.2707 6.5546C15.0816 6.53986 14.9264 6.57352 14.7995 6.63442C14.7921 6.63795 14.7848 6.64179 14.778 6.64532C14.7707 6.64916 14.7633 6.65333 14.7562 6.65718C14.745 6.66327 14.7344 6.66936 14.7239 6.67641C14.7232 6.67673 14.7229 6.67705 14.7223 6.67737C14.7136 6.68282 14.705 6.68827 14.6966 6.69468C14.6543 6.72321 14.6155 6.75527 14.5803 6.78956C14.578 6.79181 14.5761 6.79373 14.5738 6.79597C14.5738 6.79405 14.5729 6.78475 14.5719 6.76969C14.5678 6.68731 14.5639 6.42831 14.6668 6.16514C14.7957 5.83658 15.0902 5.50257 15.7563 5.50001C15.9961 5.49905 16.2041 5.56412 16.383 5.67535C16.9904 6.05231 17.2687 6.9649 17.3459 7.65632C17.4293 8.40223 17.7065 11.9192 17.4241 13.2495V13.2498Z" stroke="black" stroke-width="0.284929" stroke-linecap="round" stroke-linejoin="round"/>
<path d="M10.582 12.3809C10.1386 13.4467 9.80272 14.5705 9.75143 15.6017C9.31741 16.2537 8.87923 16.731 8.66831 16.4197C8.17211 15.6886 9.48313 12.6585 9.48313 12.6585C9.48281 12.7738 9.49596 12.8796 9.52705 12.9707C9.65174 13.3377 10.1492 12.8812 10.582 12.3812V12.3809Z" stroke="black" stroke-width="0.284929" stroke-linecap="round" stroke-linejoin="round"/>
<path d="M21.7749 18.1196C21.7749 18.1196 22.5006 17.3201 23.2299 17.9211" stroke="#F5D256" stroke-width="0.284929" stroke-linecap="round" stroke-linejoin="round"/>
<path d="M17.2224 7.013V7.01364C17.2224 7.08961 17.2153 7.16622 17.2016 7.24155C17.1948 7.27681 17.1839 7.31591 17.1522 7.33258C17.114 7.35278 17.0676 7.32938 17.0329 7.30341C16.8153 7.14346 16.6884 6.89279 16.5492 6.66168C16.4095 6.43057 16.2322 6.19721 15.9742 6.11804C15.8723 6.08694 15.7642 6.08181 15.6597 6.06098C15.5552 6.04014 15.4485 5.99847 15.3837 5.91417C15.3126 5.82057 15.3065 5.68786 15.3462 5.57728C15.3494 5.56798 15.3533 5.55901 15.3571 5.55003C15.4722 5.51926 15.6043 5.50163 15.7553 5.50099C15.995 5.50003 16.2031 5.5651 16.3819 5.67633C16.8118 5.94334 17.0772 6.47801 17.2227 7.013H17.2224Z" fill="#961E6C"/>
<path d="M13.7723 5.34843C13.763 5.35965 13.7531 5.37023 13.7428 5.38017C13.6537 5.46543 13.5348 5.51095 13.4213 5.56032C12.7674 5.8456 12.2029 6.33347 11.826 6.93898C11.7609 7.04348 11.6894 7.1608 11.5702 7.19157C11.4115 7.23292 11.2849 7.11784 11.1938 6.9861C11.6182 6.29693 12.1112 5.72475 12.6052 5.50134C13.0902 5.28208 13.4739 5.26638 13.7723 5.34843Z" fill="#961E6C"/>
<path d="M14.1582 6.20606C14.0989 6.37467 13.9146 6.4891 13.7371 6.54744C13.5306 6.61572 13.3024 6.64777 13.137 6.78913C12.9985 6.90773 12.9046 7.10231 12.7251 7.13628C12.594 7.16161 12.4664 7.08371 12.3892 6.97184C12.6857 6.51186 13.0136 6.15093 13.3037 6.05733C13.6717 5.93809 13.9541 6.04194 14.1579 6.20638L14.1582 6.20606Z" fill="#961E6C"/>
<path d="M22.9423 20.0164C22.1083 19.9849 21.7755 18.1197 21.7755 18.1197C21.8146 17.0016 21.5752 15.496 21.5752 15.496C21.5947 15.2591 21.5941 14.9588 21.5758 14.6113C21.9467 15.3729 22.5221 16.4045 22.9891 16.5785C22.9991 16.6224 23.7709 20.0471 22.942 20.0164H22.9423Z" stroke="black" stroke-width="0.284929" stroke-linecap="round" stroke-linejoin="round"/>
<path d="M19.7416 13.2546C19.9138 13.2546 20.0535 13.115 20.0535 12.9427C20.0535 12.7705 19.9138 12.6309 19.7416 12.6309C19.5693 12.6309 19.4297 12.7705 19.4297 12.9427C19.4297 13.115 19.5693 13.2546 19.7416 13.2546Z" fill="#4C70F5" stroke="black" stroke-width="0.284929" stroke-linecap="round" stroke-linejoin="round"/>
<path d="M20.313 14.9593C20.6498 14.8746 20.8313 14.4418 20.7183 13.9927C20.6053 13.5436 20.2407 13.2482 19.9039 13.3329C19.567 13.4176 19.3855 13.8504 19.4985 14.2995C19.6115 14.7487 19.9761 15.0441 20.313 14.9593Z" fill="#4C70F5" stroke="black" stroke-width="0.284929" stroke-linecap="round" stroke-linejoin="round"/>
<path d="M16.7223 8.55342C16.711 8.61721 16.6966 8.68196 16.6585 8.73421C16.6203 8.78581 16.552 8.82075 16.4905 8.8012C16.4453 8.7871 16.4139 8.74767 16.385 8.71081C16.3825 8.62875 16.3786 8.55566 16.3738 8.49284C16.3475 8.1521 16.3091 7.80495 16.2261 7.50043H16.2257C16.0857 6.98948 15.8199 6.59745 15.2708 6.55546C15.1352 6.54489 15.017 6.55931 14.9141 6.59104C14.925 6.53591 14.949 6.48302 14.9833 6.43846L14.9503 6.44231C15.15 6.24646 15.4574 6.18075 15.7298 6.24389C16.002 6.30768 16.2386 6.48911 16.4017 6.71606C16.5649 6.94332 16.6601 7.21354 16.7136 7.48825C16.7816 7.83893 16.7844 8.20178 16.7223 8.5531V8.55342Z" fill="#450832"/>
<path d="M13.8106 5.84291C13.6083 5.76726 13.3801 5.77944 13.175 5.84643C12.9695 5.91342 12.7845 6.03171 12.615 6.16537C12.0678 6.59715 11.662 7.20458 11.4722 7.87516C11.4508 7.95081 11.4347 8.04056 11.4847 8.10147C11.5389 8.1675 11.6476 8.16077 11.7171 8.11076C11.7864 8.06076 11.8261 7.98094 11.8646 7.90465C12.0957 7.44467 12.3688 7.00616 12.6791 6.59554C12.8012 6.43431 12.9307 6.27564 13.0913 6.15255C13.2484 6.03267 13.4417 5.9458 13.6423 5.94804C13.7519 5.94901 13.8414 5.98362 13.9404 6.02433C13.9872 6.04357 14.0533 6.07851 14.1001 6.05286C14.0542 5.95413 13.909 5.87945 13.8106 5.84291Z" fill="#450832"/>
<path d="M14.5803 6.79118C14.3132 7.05563 14.2536 7.44061 14.2536 7.44061C13.6177 7.56466 13.1974 7.77526 13.1974 7.77526C13.1974 7.77526 13.1974 7.77558 13.1971 7.7759C13.1971 7.77622 13.1965 7.77718 13.1955 7.77846C13.1747 7.80667 13.0038 8.03907 12.7483 8.42019C12.4307 7.62172 11.8922 7.92078 11.8765 7.92976C12.2518 7.07967 12.8278 6.21132 13.3032 6.05746C14.1177 5.79301 14.5097 6.62386 14.5713 6.77003C14.5722 6.78509 14.5732 6.79439 14.5732 6.79631C14.5751 6.79439 14.5771 6.79247 14.5796 6.79022C14.5799 6.79054 14.5803 6.79086 14.5803 6.79118Z" stroke="black" stroke-width="0.284929" stroke-linecap="round" stroke-linejoin="round"/>
<path d="M14.6678 6.16647C14.5649 6.42964 14.5688 6.68864 14.5729 6.77102C14.5114 6.62485 14.1194 5.794 13.3049 6.05845C12.4359 6.33989 11.229 9.01099 11.5291 9.58829C11.0851 10.2092 10.3876 11.0484 10.0581 10.7265C9.55321 10.2345 11.0758 6.19372 12.6064 5.50134C14.1239 4.81442 14.6524 6.12673 14.6681 6.16615L14.6678 6.16647Z" stroke="black" stroke-width="0.284929" stroke-linecap="round" stroke-linejoin="round"/>
<path d="M17.4241 13.2498C17.3677 13.5175 17.2882 13.697 17.1805 13.7473C16.5349 14.0486 16.2051 11.5795 16.2051 11.5795C16.2801 11.1342 16.3308 10.5899 16.3596 10.0716C16.3615 10.037 16.3635 10.0027 16.3654 9.96841C16.3657 9.96424 16.366 9.95975 16.366 9.95527C16.366 9.95366 16.3663 9.95206 16.3663 9.95014C16.3673 9.92994 16.3683 9.90975 16.3692 9.88987C16.383 9.58952 16.3901 9.30296 16.3901 9.05582C16.3907 8.82759 16.3846 8.63302 16.3737 8.49198C16.3474 8.15124 16.309 7.80409 16.2259 7.49957H16.2256C16.0855 6.98862 15.8198 6.5966 15.2707 6.5546C15.0816 6.53986 14.9264 6.57352 14.7995 6.63442C14.7921 6.63795 14.7848 6.64179 14.778 6.64532C14.7707 6.64916 14.7633 6.65333 14.7562 6.65718C14.745 6.66327 14.7344 6.66936 14.7239 6.67641C14.7232 6.67673 14.7229 6.67705 14.7223 6.67737C14.7136 6.68282 14.705 6.68827 14.6966 6.69468C14.6543 6.72321 14.6155 6.75527 14.5803 6.78956C14.578 6.79181 14.5761 6.79373 14.5738 6.79597C14.5738 6.79405 14.5729 6.78475 14.5719 6.76969C14.5678 6.68731 14.5639 6.42831 14.6668 6.16514C14.7957 5.83658 15.0902 5.50257 15.7563 5.50001C15.9961 5.49905 16.2041 5.56412 16.383 5.67535C16.9904 6.05231 17.2687 6.9649 17.3459 7.65632C17.4293 8.40223 17.7065 11.9192 17.4241 13.2495V13.2498Z" stroke="black" stroke-width="0.284929" stroke-linecap="round" stroke-linejoin="round"/>
<path d="M18.9469 10.4897C18.0971 9.91338 17.5393 10.7888 17.5393 10.7888C17.5079 9.45756 17.3941 8.08948 17.3457 7.65642C17.2685 6.965 16.9902 6.05273 16.3828 5.67545C16.3828 5.67545 16.7476 5.24624 17.2717 5.32638C17.5124 5.3626 17.7868 5.5062 18.0746 5.8479C18.1487 5.93573 18.2176 6.05113 18.2817 6.18961C18.6661 7.01725 18.877 8.67543 18.9404 10.2948C18.943 10.3599 18.9456 10.425 18.9475 10.4894L18.9469 10.4897Z" stroke="black" stroke-width="0.284929" stroke-linecap="round" stroke-linejoin="round"/>
</g>
<defs>
<clipPath id="clip0_789_83589">
<rect width="32" height="32" rx="16" fill="white"/>
</clipPath>
</defs>
</svg>
