<svg width="32" height="32" viewBox="0 0 32 32" fill="none" xmlns="http://www.w3.org/2000/svg">
<g clip-path="url(#clip0_789_83677)">
<rect width="32" height="32" rx="16" fill="#FBDFB1"/>
<path d="M19.9477 20.878C19.9477 20.878 19.1056 22.0842 17.7609 23.327C16.6428 24.3595 15.8283 24.6993 15.8982 24.9224L15.7184 24.8002C15.5023 24.4669 13.539 21.4329 13.4723 21.388C13.5852 20.3437 13.5598 18.2156 13.5598 18.2156C12.4184 18.6188 11.2336 18.7172 10.3512 18.0124C7.29607 15.5724 11.1442 9.35733 12.2751 7.67383C12.2831 7.70107 12.6732 9.00601 13.1752 9.257C13.682 9.51023 14.5577 9.41823 15.0414 9.76378C15.5254 10.1093 15.5943 11.054 15.9171 11.3306C16.2396 11.6072 17.5532 11.8377 17.7144 12.2522C17.8757 12.667 17.5759 13.4504 18.0138 13.8193C18.4517 14.1879 18.9585 13.9344 19.1889 14.5335C19.4194 15.1326 18.6841 15.9506 19.1447 16.4574C19.6056 16.9642 19.9406 17.1334 19.8948 17.9085C19.8486 18.6839 19.1655 19.5404 19.5803 20.2549C19.6973 20.4565 19.8236 20.6649 19.9477 20.878Z" fill="#CC927A" stroke="black" stroke-width="0.284929" stroke-linecap="round" stroke-linejoin="round"/>
<path d="M31.9868 25.4474C31.9621 25.6952 28.4679 31.6179 28.2448 31.7913C28.1422 31.8711 25.657 33.069 22.9869 34.3438C22.0675 34.7826 21.1264 35.2308 20.2529 35.6455C22.0114 33.0023 24.1764 29.5475 24.1764 29.2984C24.1764 28.8901 22.2775 28.216 22.2163 27.9916C22.1547 27.7669 24.3601 26.4805 24.2988 26.1539C24.2822 26.0657 24.0972 25.6827 23.8071 25.1772C23.61 24.8326 23.3638 24.4316 23.0898 24.0277C23.5953 24.054 24.2142 24.4419 24.8332 24.4419C24.929 24.4419 25.0377 24.4374 25.1537 24.4303C25.7894 24.3922 26.6465 24.2752 26.8606 24.3726C27.1142 24.488 27.9668 25.4327 28.6121 25.0871C29.257 24.7412 29.6257 24.488 29.6949 24.2575C29.708 24.2133 29.6994 24.1178 29.6779 23.9883C30.0132 24.0742 30.2135 24.1271 30.2273 24.1341C30.2652 24.153 30.5357 24.3136 30.8534 24.5185C31.3659 24.8486 32.0022 25.2945 31.9868 25.4474Z" fill="#F5D256" stroke="black" stroke-width="0.284929" stroke-linecap="round" stroke-linejoin="round"/>
<path d="M24.1763 29.297C24.1763 29.4931 22.8326 31.6789 21.4026 33.8901C21.0173 34.4856 20.626 35.0831 20.2528 35.6441C19.6637 35.9239 19.105 36.1884 18.6052 36.4243C17.9552 36.7317 17.4038 36.9913 17.0118 37.1744C16.8208 36.8317 16.6826 36.566 16.6826 36.566C16.6826 36.566 19.1476 29.2059 20.1698 25.3485C20.4199 24.4045 20.5836 23.6701 20.6035 23.305C20.6167 23.063 20.624 22.8582 20.6263 22.6851C20.6433 22.6341 20.6555 22.5892 20.6625 22.5508C20.8007 23.3342 20.432 24.233 21.0542 24.5785C21.4684 24.8084 22.0046 24.4773 22.4665 24.2368C22.6989 24.116 22.9124 24.0179 23.082 24.0256C23.0845 24.0256 23.0871 24.0259 23.0897 24.0263C23.3637 24.4301 23.6099 24.8311 23.807 25.1757C24.0971 25.6812 24.2821 26.0643 24.2988 26.1524C24.36 26.4791 22.1546 27.7654 22.2162 27.9901C22.2268 28.0283 22.2896 28.0789 22.3874 28.1392C22.8663 28.4353 24.1763 28.9578 24.1763 29.297Z" fill="#F5D256" stroke="black" stroke-width="0.284929" stroke-linecap="round" stroke-linejoin="round"/>
<path d="M13.3203 8.77348C13.3581 9.35656 13.6505 9.91847 14.1063 10.2839C14.4073 10.5253 14.7689 10.6801 15.0817 10.9064C15.5693 11.259 15.9263 11.7876 16.0719 12.3713C16.1203 12.5662 16.1494 12.7739 16.268 12.9361C16.4697 13.2114 16.8627 13.2682 17.1124 13.5009C17.6576 14.0083 17.2592 15.0116 17.7131 15.6024C17.8288 15.753 17.9919 15.863 18.1 16.0194C18.2868 16.2906 18.2756 16.6467 18.2609 16.9756C18.1727 18.938 18.2711 21.0536 19.4511 22.6242C19.6501 22.889 19.928 23.1547 20.2582 23.1259C20.6348 23.0929 20.8631 22.7034 21.0067 22.3537C21.5125 21.1218 21.768 19.8009 21.9205 18.478C22.0516 17.3423 22.1071 16.1784 21.8372 15.0674C21.582 14.0173 21.048 13.0605 20.5592 12.0969C20.1466 11.2837 19.7437 10.4307 19.0526 9.83577C18.4574 9.32354 17.6999 9.04819 16.9607 8.78342C16.4152 8.58789 15.8699 8.39268 15.3244 8.19714C14.7047 7.97533 13.9547 7.77146 13.4392 8.18016" fill="#BA735A"/>
<path d="M8.50964 11.2557C8.26378 12.3988 8.06985 13.5604 8.07851 14.7298C8.08716 15.8991 8.30674 17.0823 8.8491 18.1183C9.1081 18.6129 9.55141 19.1251 10.1066 19.0635C10.5772 19.0116 10.9092 18.5423 10.981 18.0747C11.0525 17.6067 10.9288 17.1342 10.8355 16.6704C10.7256 16.1235 10.6573 15.5667 10.6653 15.0093C10.6967 12.7902 11.9036 10.789 12.8386 8.77598C13.0091 8.40863 13.1739 8.02879 13.205 7.62522C13.2136 7.51495 13.2088 7.39475 13.1402 7.30788C13.0691 7.21781 12.9469 7.18639 12.8325 7.17517C12.4668 7.13831 12.101 7.24762 11.7645 7.39539C10.8676 7.78934 10.1117 8.46088 9.51359 9.2366C8.91577 10.0126 8.46669 10.8925 8.07178 11.7891" fill="#FFC7B3"/>
<path d="M15.7244 18.9997C15.1888 19.66 14.4243 20.1315 13.5934 20.3133C13.5902 19.7129 13.5937 19.1122 13.6043 18.5118C13.6059 18.4153 13.6095 18.3137 13.6591 18.231C13.7146 18.1393 13.8165 18.088 13.9133 18.0425C14.3281 17.8473 14.7487 17.6646 15.1586 17.4591C15.3696 17.3533 15.5779 17.2421 15.7799 17.12C15.9228 17.0334 16.2206 16.7289 16.3748 16.7122C16.7502 16.6715 16.446 17.5909 16.3809 17.789C16.2373 18.2275 16.0151 18.6406 15.7244 18.999V18.9997Z" fill="#B27059"/>
<path d="M20.6265 22.6874C20.6252 22.7733 20.623 22.8669 20.6192 22.9688C20.6156 23.0727 20.6105 23.1852 20.6038 23.3073C20.5018 25.1655 16.6829 36.5683 16.6829 36.5683H16.2572C16.2572 36.5683 12.4895 25.8259 12.1904 23.5301C12.1818 23.4657 12.1763 23.408 12.1734 23.3573C12.1439 22.8201 12.1587 22.4627 12.1949 22.2261C12.243 22.2172 12.2898 22.2082 12.3353 22.1992C12.3193 22.3088 12.486 22.8717 12.7302 23.5901C13.2617 25.1543 14.1608 27.4565 14.34 27.4289C14.4031 27.4193 14.5378 27.2933 14.7006 27.1004C15.21 26.4952 15.9943 25.2284 15.7174 24.8014L15.8972 24.9235C15.8972 24.9235 16.6688 27.484 17.1611 27.5171C17.5374 27.5421 19.2937 25.1396 20.1698 23.6147C20.2617 23.4548 20.3438 23.3045 20.4137 23.1676C20.5105 22.9785 20.5836 22.815 20.6265 22.6874Z" fill="#C9C4FE" stroke="black" stroke-width="0.284929" stroke-linecap="round" stroke-linejoin="round"/>
<path d="M20.6192 22.9688C20.6156 23.0726 20.6105 23.1851 20.6038 23.3072C20.5018 25.1654 16.6829 36.5682 16.6829 36.5682H16.2572C16.2572 36.5682 12.4895 25.8258 12.1904 23.53C12.26 23.3922 12.3356 23.2576 12.4171 23.1265C12.5216 23.2806 12.6261 23.4351 12.7302 23.59C13.3111 24.4535 13.8768 25.3289 14.3307 26.2646C14.4641 26.539 14.5871 26.8179 14.7006 27.1003C15.3837 28.7979 15.7251 30.6279 15.8642 32.4566C15.8995 32.9201 15.9943 33.4862 16.4332 33.6397C18.4032 30.6535 18.6376 26.8464 20.1698 23.6146C20.1909 23.5698 20.2124 23.5249 20.2342 23.48C20.2868 23.3717 20.3419 23.2633 20.4137 23.1675C20.4355 23.1383 20.4586 23.1101 20.4839 23.0838C20.5256 23.0402 20.5711 23.0021 20.6192 22.9688Z" fill="#A2A0F2"/>
<path d="M16.4639 4.92624C17.2893 4.48325 18.3788 4.59415 19.0978 5.19454C19.2282 5.30352 19.3494 5.42853 19.502 5.50418C19.9463 5.72536 20.5015 5.4686 20.9698 5.63304C21.3384 5.76254 21.5862 6.17124 21.5307 6.55781C21.499 6.77803 21.3817 6.99504 21.432 7.21173C21.5147 7.56753 21.9734 7.67235 22.3375 7.6419C22.7017 7.61177 23.1094 7.52971 23.4001 7.75088C23.7156 7.99065 23.7207 8.46602 23.6152 8.84811C23.5094 9.22988 23.3222 9.60524 23.3565 9.99983C23.9233 10.297 24.7416 9.85847 25.2071 10.2979C25.5494 10.6214 25.4369 11.1807 25.3039 11.6324C25.1708 12.084 25.0747 12.6517 25.4327 12.9575C25.8225 13.2905 26.4879 13.0607 26.8819 13.3886C27.3092 13.7444 27.1012 14.4208 26.9338 14.951C26.7425 15.5584 26.6543 16.1982 26.6751 16.8348C26.6806 17.0018 26.6973 17.1797 26.7995 17.3121C26.9511 17.5092 27.2393 17.539 27.4845 17.4961C27.7294 17.4531 27.9669 17.3547 28.2157 17.357C28.8058 17.3624 29.2498 17.9397 29.3687 18.5177C29.4876 19.0959 29.3786 19.6937 29.3838 20.2839C29.386 20.5592 29.4911 20.9137 29.7662 20.9218C29.8575 21.4891 29.2389 22.0546 29.4745 22.5787C29.5395 22.7235 29.6617 22.8338 29.7508 22.9652C29.9636 23.2803 29.963 23.7252 29.7489 24.0394C29.5347 24.3535 29.1206 24.517 28.7497 24.4336" stroke="black" stroke-width="0.284929" stroke-linecap="round" stroke-linejoin="round"/>
<path d="M15.9077 4.54343C16.7331 4.10043 17.8226 4.21134 18.5416 4.81172C18.6721 4.92071 18.7933 5.04572 18.9458 5.12137C19.3901 5.34255 19.9453 5.08579 20.4136 5.25023C20.7822 5.37973 21.03 5.78842 20.9746 6.175C20.9428 6.39522 20.8255 6.61223 20.8758 6.82891C20.9585 7.18472 21.4172 7.28954 21.7814 7.25908C22.1455 7.22895 22.5533 7.14689 22.844 7.36807C23.1594 7.60784 23.1645 8.08321 23.0591 8.4653C22.9533 8.84707 22.7661 9.22242 22.8004 9.61701C23.3671 9.91416 24.1855 9.47565 24.6509 9.91512C24.9932 10.2386 24.8807 10.7979 24.7477 11.2495C24.6147 11.7012 24.5185 12.2689 24.8766 12.5747C25.2663 12.9077 25.9318 12.6779 26.3257 13.0058C26.753 13.3616 26.545 14.038 26.3777 14.5682C26.1863 15.1756 26.0982 15.8154 26.119 16.452C26.1244 16.619 26.1411 16.7969 26.2434 16.9293C26.395 17.1264 26.6832 17.1562 26.9284 17.1133C27.1733 17.0703 27.4108 16.9719 27.6595 16.9742C28.2497 16.9796 28.6936 17.5569 28.8125 18.1349C28.9315 18.7131 28.8225 19.3109 28.8276 19.9011C28.8298 20.1764 28.935 20.5309 29.21 20.5389C29.3014 21.1063 28.6827 21.6717 28.9183 22.1958C28.9834 22.3407 29.1055 22.451 29.1946 22.5824C29.4075 22.8975 29.4068 23.3424 29.1927 23.6566C28.9786 23.9707 28.5644 24.1342 28.1936 24.0508" stroke="black" stroke-width="0.284929" stroke-linecap="round" stroke-linejoin="round"/>
<path d="M9.64553 6.45496C9.31505 6.25975 8.86917 6.38348 8.58902 6.64601C8.30886 6.90854 8.15885 7.27844 8.03095 7.64034C7.90305 8.00224 7.78413 8.37759 7.54629 8.67891C7.1924 9.12671 6.60965 9.36551 6.3061 9.84922C5.87529 10.5355 6.15288 11.4468 5.93074 12.2261C5.77079 12.787 5.35664 13.256 5.23676 13.8265C5.0002 14.9513 5.95574 16.1595 5.48518 17.2083C5.31273 17.5933 4.97327 17.8757 4.74344 18.2292C4.43219 18.7078 4.33571 19.3207 4.48476 19.872C4.55464 20.1304 4.67645 20.3823 4.66619 20.6497C4.65786 20.8731 4.55752 21.0818 4.45912 21.2824C4.24596 21.718 4.03279 22.154 3.81963 22.5896C3.72988 22.7726 3.63852 22.9643 3.63916 23.1682C3.64045 23.5301 3.92381 23.8205 4.18794 24.0683C4.27897 24.1539 4.37546 24.2423 4.49662 24.2737C4.64728 24.3128 4.80402 24.2558 4.94891 24.1997C5.48711 23.9917 6.0253 23.7833 6.5635 23.5753" stroke="black" stroke-width="0.284929" stroke-linecap="round" stroke-linejoin="round"/>
<path d="M10.375 5.48036C10.0445 5.28514 9.59867 5.40887 9.31851 5.6714C9.03835 5.93393 8.88834 6.30384 8.76044 6.66573C8.63254 7.02763 8.51362 7.40298 8.27578 7.7043C7.9219 8.1521 7.33915 8.3909 7.03559 8.87461C6.60478 9.56089 6.88237 10.4722 6.66023 11.2514C6.50028 11.8124 6.08614 12.2814 5.96625 12.8519C5.72969 13.9767 6.68523 15.1849 6.21467 16.2337C6.04222 16.6187 5.70276 16.9011 5.47293 17.2546C5.16168 17.7332 5.0652 18.3461 5.21425 18.8974C5.28413 19.1558 5.40594 19.4077 5.39568 19.6751C5.38735 19.8985 5.28702 20.1071 5.18861 20.3078C4.97545 20.7434 4.76228 21.1794 4.54912 21.615C4.45937 21.798 4.36801 21.9897 4.36866 22.1936C4.36994 22.5555 4.6533 22.8459 4.91743 23.0937C5.00846 23.1793 5.10495 23.2677 5.22611 23.2991C5.37677 23.3382 5.53352 23.2812 5.6784 23.2251C6.2166 23.0171 6.75479 22.8087 7.29299 22.6007" stroke="black" stroke-width="0.284929" stroke-linecap="round" stroke-linejoin="round"/>
<path d="M12.5698 7.24707C12.5698 7.24707 12.4579 7.40061 12.2749 7.67307" stroke="black" stroke-width="0.284929" stroke-linecap="round" stroke-linejoin="round"/>
<path d="M16.5339 16.5742C15.8255 17.0884 14.7148 17.8077 13.5596 18.2151" stroke="black" stroke-width="0.284929" stroke-linecap="round" stroke-linejoin="round"/>
<path d="M29.6791 23.9881C29.6647 23.9015 29.6448 23.7996 29.6217 23.6874C29.4996 23.0922 29.2941 22.2142 29.4198 21.8379C29.6041 21.2849 29.7653 20.5935 29.1432 20.271C28.521 19.9486 28.4059 19.695 28.429 18.9805C28.4466 18.4231 28.17 17.8657 27.8065 17.297C27.7042 17.1371 27.5953 16.9765 27.484 16.8146C27.4513 16.7672 27.4231 16.7216 27.3978 16.6774C27.0359 16.0341 27.4372 15.7074 27.0923 15.0173C27.0173 14.8673 26.9195 14.749 26.8109 14.6493C26.3852 14.2589 25.7928 14.1579 25.756 13.589C25.7531 13.545 25.7512 13.4995 25.7502 13.453C25.7323 12.7434 25.8803 11.7631 25.3181 11.3307C25.255 11.282 25.1941 11.2346 25.136 11.1871C24.6511 10.7951 24.3388 10.4425 24.1523 9.8623C24.1491 9.85268 24.1459 9.84307 24.143 9.83313C23.9366 9.16768 23.9128 8.63942 23.1618 8.31631C23.1586 8.31503 23.1554 8.31343 23.1522 8.31214C22.8743 8.19418 22.7287 7.97814 22.6313 7.73292C22.4617 7.30724 22.437 6.795 22.1152 6.56101C21.9514 6.44176 21.7562 6.41195 21.5479 6.40394C21.1113 6.38727 20.6157 6.46805 20.2259 6.03115C20.0884 5.87728 19.9801 5.72214 19.8858 5.57469C19.5842 5.10413 19.4268 4.71242 18.9357 4.69479C18.7078 4.68678 18.4338 4.73614 18.1536 4.79192C17.727 4.8775 17.2859 4.97848 16.9692 4.91597C16.9048 4.90315 16.8455 4.88391 16.7926 4.85603C16.3089 4.60248 16.3778 4.09569 15.7559 4.28001C15.3386 4.40374 15.0559 4.54798 14.8177 4.6855C14.7007 4.75281 14.5946 4.81852 14.4885 4.87911C14.4885 4.87911 13.5105 3.83349 12.8656 4.24058C12.2203 4.64735 11.5203 5.34742 11.2577 5.40576C11.1805 5.42307 11.05 5.42499 10.8962 5.4282C10.5278 5.43589 10.0259 5.45064 9.79957 5.69746C9.4787 6.04749 9.27451 7.01874 8.89563 7.24761C8.51643 7.47648 7.46632 8.20572 7.32047 8.58493C7.17462 8.96381 7.32047 9.45969 7.11628 9.98475C6.9121 10.5098 6.27069 11.4137 6.09567 11.9096C5.92065 12.4055 6.56238 13.0181 6.38737 13.572C6.21235 14.1262 5.6873 15.0013 5.65813 15.4097C5.65236 15.4924 5.65813 15.5751 5.67095 15.6626C5.71999 16.0049 5.86776 16.4155 5.7748 17.1595C5.75333 17.332 5.70973 17.4893 5.65268 17.6349C5.40105 18.2779 4.88369 18.6908 4.81221 19.1427C4.77695 19.3665 4.8792 19.6376 5.00069 19.9178C5.18019 20.3319 5.40073 20.7663 5.27892 21.0968C5.27892 21.0968 5.27091 21.1012 5.25616 21.1102C5.12378 21.1894 4.45352 21.6071 4.37498 22.001C4.33139 22.2183 4.52115 22.5629 4.69072 22.9088C4.83016 23.1931 4.95613 23.4781 4.92792 23.6929C6.71272 23.18 9.32933 22.7376 11.1728 22.411C11.3363 22.2575 11.4997 22.1247 11.6597 22.0212C11.9235 21.8504 12.1783 21.758 12.4114 21.7786C12.4623 21.7657 12.5008 21.792 12.5008 21.792C12.7072 21.451 13.0781 21.1234 13.4724 21.3881C13.5852 20.3438 13.5599 18.2157 13.5599 18.2157C12.4184 18.6189 11.2337 18.7174 10.3512 18.0125C9.13988 17.0451 9.01391 15.4843 9.37324 13.848C9.92009 11.3567 11.5927 8.69007 12.2751 7.67394C12.2831 7.70118 12.6733 9.00612 13.1752 9.25711C13.682 9.51034 14.5577 9.41834 15.0414 9.76389C15.5255 10.1094 15.5944 11.0541 15.9172 11.3307C16.2396 11.6073 17.5532 11.8378 17.7145 12.2523C17.8757 12.6671 17.576 13.4505 18.0138 13.8194C18.4517 14.1881 18.9585 13.9345 19.189 14.5336C19.4194 15.1327 18.6841 15.9507 19.1447 16.4575C19.6057 16.9643 19.9406 17.1335 19.8948 17.9086C19.8486 18.684 19.1656 19.5405 19.5804 20.255C19.6974 20.4566 19.8236 20.665 19.9477 20.8782C19.9592 20.8977 19.9708 20.9176 19.982 20.9378C20.1176 21.1718 20.249 21.4109 20.3615 21.6523C20.4731 21.8914 20.566 22.1324 20.6257 22.3729C20.6407 22.4328 20.6532 22.4924 20.6638 22.552C20.802 23.3354 20.4333 24.2343 21.0555 24.5798C21.6777 24.9254 22.5762 24.0038 23.0833 24.0269C23.0858 24.0269 23.0884 24.0272 23.091 24.0275C23.5965 24.0538 24.2154 24.4416 24.8344 24.4416C25.4534 24.4416 26.6086 24.2573 26.8619 24.3724C27.1154 24.4878 27.9681 25.4325 28.6133 25.0869C29.2582 24.741 29.6269 24.4878 29.6961 24.2573C29.7093 24.2131 29.7006 24.1176 29.6791 23.9881ZM20.441 21.792C20.441 21.792 20.4772 21.7452 20.5176 21.7795C20.4917 21.7824 20.4663 21.7863 20.441 21.792Z" fill="#3D0027" stroke="black" stroke-width="0.284929" stroke-linecap="round" stroke-linejoin="round"/>
<path d="M29.6791 23.9881C29.6647 23.9015 29.6448 23.7996 29.6217 23.6874C29.4996 23.0922 29.2941 22.2142 29.4198 21.8379C29.6041 21.2849 29.7653 20.5935 29.1432 20.271C28.521 19.9486 28.4059 19.695 28.429 18.9805C28.4466 18.4231 28.17 17.8657 27.8065 17.297C27.7042 17.1371 27.5953 16.9765 27.484 16.8146C27.4513 16.7672 27.4231 16.7216 27.3978 16.6774C27.0359 16.0341 27.4372 15.7074 27.0923 15.0173C27.0173 14.8673 26.9195 14.749 26.8109 14.6493C26.3852 14.2589 25.7928 14.1579 25.756 13.589C25.7531 13.545 25.7512 13.4995 25.7502 13.453C25.7323 12.7434 25.8803 11.7631 25.3181 11.3307C25.255 11.282 25.1941 11.2346 25.136 11.1871C24.6511 10.7951 24.3388 10.4425 24.1523 9.8623C24.1491 9.85268 24.1459 9.84307 24.143 9.83313C23.9366 9.16768 23.9128 8.63942 23.1618 8.31631C23.1586 8.31503 23.1554 8.31343 23.1522 8.31214C22.8743 8.19418 22.7287 7.97814 22.6313 7.73292C22.4617 7.30724 22.437 6.795 22.1152 6.56101C21.9514 6.44176 21.7562 6.41195 21.5479 6.40394C21.1113 6.38727 20.6157 6.46805 20.2259 6.03115C20.0884 5.87728 19.9801 5.72214 19.8858 5.57469C19.5842 5.10413 19.4268 4.71242 18.9357 4.69479C18.7078 4.68678 18.4338 4.73614 18.1536 4.79192C17.727 4.8775 17.2859 4.97848 16.9692 4.91597C16.9048 4.90315 16.8455 4.88391 16.7926 4.85603C16.3089 4.60248 16.3778 4.09569 15.7559 4.28001C15.3386 4.40374 15.0559 4.54798 14.8177 4.6855C14.7007 4.75281 14.5946 4.81852 14.4885 4.87911C14.4885 4.87911 13.5105 3.83349 12.8656 4.24058C12.2203 4.64735 11.5203 5.34742 11.2577 5.40576C11.1805 5.42307 11.05 5.42499 10.8962 5.4282C10.5278 5.43589 10.0259 5.45064 9.79957 5.69746C9.4787 6.04749 9.27451 7.01874 8.89563 7.24761C8.51643 7.47648 7.46632 8.20572 7.32047 8.58493C7.17462 8.96381 7.32047 9.45969 7.11628 9.98475C6.9121 10.5098 6.27069 11.4137 6.09567 11.9096C5.92065 12.4055 6.56238 13.0181 6.38737 13.572C6.21235 14.1262 5.6873 15.0013 5.65813 15.4097C5.65236 15.4924 5.65813 15.5751 5.67095 15.6626C5.71999 16.0049 5.86776 16.4155 5.7748 17.1595C5.75333 17.332 5.70973 17.4893 5.65268 17.6349C5.40105 18.2779 4.88369 18.6908 4.81221 19.1427C4.77695 19.3665 4.8792 19.6376 5.00069 19.9178C5.18019 20.3319 5.40073 20.7663 5.27892 21.0968C5.27892 21.0968 5.27091 21.1012 5.25616 21.1102C5.12378 21.1894 4.45352 21.6071 4.37498 22.001C4.33139 22.2183 4.52115 22.5629 4.69072 22.9088C4.83016 23.1931 4.95613 23.4781 4.92792 23.6929C6.71272 23.18 9.32933 22.7376 11.1728 22.411C11.3363 22.2575 11.4997 22.1247 11.6597 22.0212C11.9235 21.8504 12.1783 21.758 12.4114 21.7786C12.4623 21.7657 12.5008 21.792 12.5008 21.792C12.7072 21.451 13.0781 21.1234 13.4724 21.3881C13.5852 20.3438 13.5599 18.2157 13.5599 18.2157C12.4184 18.6189 11.2337 18.7174 10.3512 18.0125C9.13988 17.0451 9.01391 15.4843 9.37324 13.848C9.92009 11.3567 11.5927 8.69007 12.2751 7.67394C12.2793 7.68772 12.3832 8.03551 12.5508 8.40574C12.7111 8.75962 12.9297 9.13466 13.1752 9.25711C13.4653 9.402 13.8763 9.43373 14.2651 9.49944C14.5558 9.54816 14.8344 9.61612 15.0414 9.76389C15.3036 9.95109 15.444 10.3143 15.5691 10.6518C15.6748 10.9371 15.7694 11.2038 15.9172 11.3307C16.1922 11.5666 17.1891 11.7692 17.5757 12.0808C17.6423 12.1346 17.6907 12.1914 17.7145 12.2523C17.7478 12.3379 17.7616 12.4392 17.7661 12.5494C17.7834 12.9729 17.6664 13.5268 18.0138 13.8194C18.4517 14.1881 18.9585 13.9345 19.189 14.5336C19.4194 15.1327 18.6841 15.9507 19.1447 16.4575C19.6057 16.9643 19.9406 17.1335 19.8948 17.9086C19.8486 18.684 19.1656 19.5405 19.5804 20.255C19.6974 20.4566 19.8236 20.665 19.9477 20.8782C19.9592 20.8977 19.9708 20.9176 19.982 20.9378C20.1176 21.1718 20.249 21.4109 20.3615 21.6523C20.4731 21.8914 20.566 22.1324 20.6257 22.3729C20.6385 22.4245 20.6497 22.4757 20.6593 22.527C20.6609 22.5354 20.6622 22.5437 20.6638 22.552C20.802 23.3354 20.4333 24.2343 21.0555 24.5798C21.6777 24.9254 22.5762 24.0038 23.0833 24.0269C23.0858 24.0269 23.0884 24.0272 23.091 24.0275C23.5965 24.0538 24.2154 24.4416 24.8344 24.4416C25.4534 24.4416 26.6086 24.2573 26.8619 24.3724C27.1154 24.4878 27.9681 25.4325 28.6133 25.0869C29.2582 24.741 29.6269 24.4878 29.6961 24.2573C29.7093 24.2131 29.7006 24.1176 29.6791 23.9881ZM20.441 21.792C20.441 21.792 20.4772 21.7452 20.5176 21.7795C20.4917 21.7824 20.4663 21.7863 20.441 21.792Z" fill="#3D0027" stroke="black" stroke-width="0.284929" stroke-linecap="round" stroke-linejoin="round"/>
<path d="M16.258 36.5679C16.258 36.5679 16.0766 36.9169 15.842 37.3308C15.2977 37.1801 14.3864 36.9185 13.3385 36.614C11.5197 33.941 8.76433 29.58 8.76433 29.2989C8.76433 28.8905 10.6632 28.2164 10.7245 27.992C10.7857 27.7673 8.58065 26.4809 8.64188 26.1543C8.68611 25.9177 9.9404 23.5672 11.1726 22.4116C11.3489 22.2462 11.5249 22.1052 11.6967 21.9984C11.947 21.8427 12.189 21.7596 12.4112 21.7792C12.341 21.7968 12.2467 21.8888 12.1958 22.2257C12.1595 22.4623 12.1448 22.8197 12.1743 23.3569C12.2355 24.4734 13.6975 29.0177 14.8547 32.4674C15.6237 34.7593 16.258 36.5679 16.258 36.5679Z" fill="#F5D256" stroke="black" stroke-width="0.284929" stroke-linecap="round" stroke-linejoin="round"/>
<path d="M12.5002 21.7914C12.4101 21.9401 12.3514 22.0918 12.3357 22.1975C12.2902 22.2065 12.2434 22.2155 12.1953 22.2245C12.2463 21.8876 12.3405 21.7956 12.4107 21.7779C12.4617 21.7651 12.5002 21.7914 12.5002 21.7914Z" stroke="black" stroke-width="0.284929" stroke-linecap="round" stroke-linejoin="round"/>
<path d="M20.517 21.7792C20.4911 21.7821 20.4658 21.7859 20.4404 21.7917C20.4404 21.7917 20.4767 21.7449 20.517 21.7792Z" stroke="black" stroke-width="0.284929" stroke-linecap="round" stroke-linejoin="round"/>
<path d="M13.3381 36.6125C12.5076 36.3715 11.5914 36.1038 10.7035 35.8436C8.44112 35.1804 6.36335 34.5659 6.36335 34.5659L1.67987 26.1153C1.67987 26.1153 1.63018 25.5951 3.19123 24.4055C3.51819 24.1565 4.14229 23.9174 4.92731 23.692C6.41592 23.2644 8.48311 22.8855 10.1977 22.582C10.5391 22.5217 10.8664 22.4643 11.1722 22.4102C9.93999 23.5657 8.6857 25.9163 8.64146 26.1528C8.58024 26.4795 10.7853 27.7658 10.724 27.9905C10.6628 28.2149 8.76391 28.889 8.76391 29.2974C8.76391 29.5785 11.5193 33.9395 13.3381 36.6125Z" fill="#F5D256" stroke="black" stroke-width="0.284929" stroke-linecap="round" stroke-linejoin="round"/>
<path d="M5.25616 21.1094C5.33373 21.4209 5.38695 21.7373 5.33822 22.0518C5.28084 22.4233 5.03499 22.7913 4.69072 22.908C4.52115 22.5621 4.33139 22.2175 4.37498 22.0002C4.45352 21.6062 5.12378 21.1885 5.25616 21.1094Z" fill="#6D1151"/>
<path d="M5.65221 17.6348C5.65798 17.8258 5.64452 18.0149 5.59419 18.1992C5.4727 18.6438 5.14543 19.0128 5.03837 19.4612C5.00247 19.6116 4.99253 19.7645 5.00022 19.9177C4.87873 19.6375 4.77648 19.3664 4.81174 19.1426C4.88322 18.6906 5.40058 18.2778 5.65221 17.6348Z" fill="#6D1151"/>
<path d="M10.895 5.42871C10.3427 6.04255 9.77662 6.64999 9.10796 7.13273C8.72363 7.41 8.29506 7.65682 8.04151 8.05686C7.67385 8.63737 7.76071 9.39866 7.49787 10.0337C7.22188 10.7007 6.56732 11.2178 6.51187 11.9374C6.46058 12.5996 6.94685 13.2311 6.83658 13.886C6.71734 14.5921 5.96726 15.0162 5.6698 15.6631C5.6573 15.5756 5.65121 15.4929 5.65698 15.4102C5.68615 15.0018 6.2112 14.1267 6.38622 13.5725C6.56123 13.0186 5.9195 12.406 6.09452 11.9101C6.26954 11.4142 6.91095 10.5103 7.11514 9.98526C7.31932 9.46021 7.17347 8.96432 7.31932 8.58544C7.46517 8.20623 8.51528 7.47699 8.89448 7.24812C9.27336 7.01926 9.47755 6.048 9.79842 5.69797C10.0247 5.45115 10.5267 5.4364 10.895 5.42871Z" fill="#6D1151"/>
<path d="M14.854 32.4674C14.7835 32.5642 14.6626 32.6296 14.5488 32.5973C14.4504 32.5694 14.3847 32.479 14.3273 32.3944C12.6698 29.9406 11.6812 27.04 11.4956 24.0849C11.4517 23.4431 11.4511 22.7764 11.6434 22.1565C11.6598 22.1036 11.6774 22.051 11.696 21.9984C11.9463 21.8427 12.1883 21.7596 12.4105 21.7792C12.3403 21.7968 12.246 21.8888 12.1951 22.2257C12.1589 22.4623 12.1441 22.8197 12.1736 23.3569C12.2348 24.4734 13.6968 29.0177 14.854 32.4674Z" fill="#FFE8A9"/>
<path d="M14.3402 27.4282C14.0787 27.4683 12.2843 22.5473 12.3356 22.1985C12.3513 22.0927 12.4099 21.9411 12.5 21.7924C12.6978 21.4657 13.0465 21.1513 13.4222 21.3584C13.4385 21.3673 13.4552 21.3773 13.4716 21.3885C13.5328 21.4298 15.198 23.9987 15.6336 24.6709C15.6715 24.7295 15.7003 24.7738 15.7176 24.8007C16.0827 25.3639 14.6021 27.3878 14.3402 27.4282Z" fill="#49A2A6" stroke="black" stroke-width="0.284929" stroke-linecap="round" stroke-linejoin="round"/>
<path d="M20.6271 22.6868C20.2581 23.7866 17.6322 27.5482 17.1616 27.5168C16.8969 27.4991 16.551 26.7497 16.2885 26.0612C16.0625 25.4698 15.8977 24.9232 15.8977 24.9232C15.8279 24.7001 16.6424 24.3603 17.7604 23.3279C18.1534 22.9647 18.5034 22.6044 18.8022 22.2768C19.5253 21.4831 19.9472 20.8789 19.9472 20.8789C19.9587 20.8985 19.9703 20.9183 19.9815 20.9385C20.2655 21.4415 20.5322 22.1749 20.6267 22.4464C20.628 22.5191 20.628 22.5986 20.6271 22.6868Z" fill="#49A2A6" stroke="black" stroke-width="0.284929" stroke-linecap="round" stroke-linejoin="round"/>
<path d="M20.6268 22.6854C20.6277 22.5973 20.6277 22.5178 20.6265 22.4453C20.6502 22.5126 20.663 22.5514 20.663 22.5514C20.656 22.5899 20.6438 22.6348 20.6268 22.6854Z" stroke="black" stroke-width="0.284929" stroke-linecap="round" stroke-linejoin="round"/>
<path d="M12.5006 21.7914C12.4711 21.785 12.4413 21.7805 12.4111 21.7779C12.4621 21.7651 12.5006 21.7914 12.5006 21.7914Z" stroke="black" stroke-width="0.284929" stroke-linecap="round" stroke-linejoin="round"/>
<path d="M20.517 21.7792C20.4911 21.7821 20.4658 21.7859 20.4404 21.7917C20.4404 21.7917 20.4767 21.7449 20.517 21.7792Z" stroke="black" stroke-width="0.284929" stroke-linecap="round" stroke-linejoin="round"/>
<path d="M20.6269 22.6862C20.6279 22.5981 20.6279 22.5186 20.6266 22.4461C20.6266 22.4205 20.6256 22.3964 20.625 22.373C20.6401 22.433 20.6526 22.4926 20.6631 22.5522C20.6561 22.5907 20.6439 22.6356 20.6269 22.6862Z" stroke="black" stroke-width="0.284929" stroke-linecap="round" stroke-linejoin="round"/>
<path d="M11.8983 12.0898C11.8983 12.0898 11.0799 13.673 11.3626 13.8961C11.6453 14.1192 12.3595 13.3159 12.3595 13.3159" stroke="black" stroke-width="0.284929" stroke-linecap="round" stroke-linejoin="round"/>
<path d="M13.4605 15.9057C12.8264 16.3019 12.1616 15.6207 12.1616 15.6207C12.1616 15.6207 12.7133 15.6236 13.2229 15.2902C13.7326 14.9569 13.899 14.5908 13.899 14.5908C13.899 14.5908 14.0942 15.5098 13.4605 15.9057Z" fill="#E938B5" stroke="black" stroke-width="0.284929" stroke-linecap="round" stroke-linejoin="round"/>
<path d="M13.899 14.591C13.899 14.591 13.7326 14.957 13.2229 15.2904C12.7133 15.6238 12.1616 15.6209 12.1616 15.6209C12.1616 15.6209 12.4559 14.9192 12.6254 14.9532C12.7953 14.9871 12.8857 15.0865 12.9537 14.9519C13.0216 14.8176 12.9425 14.6817 13.112 14.591C13.2819 14.5006 13.899 14.591 13.899 14.591Z" fill="#E938B5" stroke="black" stroke-width="0.284929" stroke-linecap="round" stroke-linejoin="round"/>
<path d="M14.0671 14.1055L13.8994 14.5917" stroke="black" stroke-width="0.284929" stroke-linecap="round" stroke-linejoin="round"/>
<path d="M13.7412 14.0198C13.8297 13.9913 13.9281 14.0092 14.0121 14.0496C14.0961 14.09 14.1679 14.1512 14.2381 14.2121C14.2791 14.2477 14.3227 14.2884 14.331 14.3419" stroke="black" stroke-width="0.284929" stroke-linecap="round" stroke-linejoin="round"/>
<path d="M30.8539 24.518C30.3378 25.2097 29.6015 25.7393 28.7806 26.0127C27.8827 26.3118 26.8951 26.3092 25.9867 26.0419C25.7716 25.9787 25.561 25.9008 25.3571 25.8085C24.8478 25.578 24.3503 25.2552 23.8076 25.1767C23.7192 25.1639 23.6294 25.1575 23.5384 25.1591C22.9383 25.1696 22.4052 25.5248 21.919 25.8768C21.6577 26.0659 21.3526 26.2669 21.0445 26.2557C20.9884 26.2534 20.9327 26.2444 20.8766 26.2268C20.5855 26.1358 20.4083 25.8466 20.2743 25.5726C20.2384 25.4992 20.2037 25.4248 20.1704 25.3495C20.4204 24.4055 20.5842 23.6711 20.6041 23.306C20.6172 23.064 20.6246 22.8592 20.6269 22.6861C20.6439 22.6351 20.656 22.5902 20.6631 22.5518C20.8012 23.3352 20.4326 24.234 21.0548 24.5795C21.4689 24.8094 22.0052 24.4782 22.4671 24.2378C22.6995 24.117 22.913 24.0189 23.0826 24.0266C23.0851 24.0266 23.0877 24.0269 23.0903 24.0272C23.5958 24.0535 24.2147 24.4414 24.8337 24.4414C24.9295 24.4414 25.0382 24.4369 25.1542 24.4298C25.7899 24.3917 26.647 24.2747 26.8611 24.3721C27.1147 24.4875 27.9673 25.4322 28.6126 25.0866C29.2575 24.7408 29.6262 24.4875 29.6954 24.2571C29.7085 24.2128 29.6999 24.1173 29.6784 23.9878C30.0137 24.0737 30.214 24.1266 30.2278 24.1336C30.2657 24.1526 30.5362 24.3132 30.8539 24.518Z" fill="#E0B836"/>
<path d="M26.0317 26.735C25.9718 26.8722 25.8368 26.959 25.7092 27.0379C25.1182 27.4017 24.5274 27.7659 23.9366 28.1297C24.3774 28.4217 25.0557 28.4037 25.2977 28.874C25.4166 29.1048 25.3813 29.3824 25.3291 29.6369C24.972 31.3688 23.9924 32.8667 22.9869 34.3434C22.0675 34.7823 21.1264 35.2304 20.2529 35.6452C22.0114 33.002 24.1764 29.5471 24.1764 29.2981C24.1764 28.8897 22.2775 28.2156 22.2163 27.9912C22.1547 27.7665 24.3601 26.4802 24.2988 26.1535C24.2822 26.0654 24.0972 25.6823 23.8071 25.1768C23.61 24.8322 23.3638 24.4312 23.0898 24.0273C23.5953 24.0536 24.2142 24.4415 24.8332 24.4415C24.929 24.4415 25.0377 24.437 25.1537 24.4299C25.5115 24.9313 25.8323 25.4602 25.9862 26.042C26.0154 26.1526 26.0384 26.2647 26.0548 26.3792C26.0718 26.4984 26.0798 26.6244 26.0317 26.735Z" fill="#E0B836"/>
<path d="M24.1762 29.2984C24.1762 29.4946 22.8325 31.6804 21.4025 33.8915C21.1849 33.9521 20.9553 33.963 20.7422 33.8931C20.9063 33.1972 21.314 32.5837 21.7641 32.0282C22.2141 31.4727 22.7151 30.9563 23.1136 30.3626C23.245 30.1671 23.3694 29.9331 23.3049 29.7068C23.2229 29.4186 22.8898 29.2991 22.6065 29.2019C22.3228 29.1051 21.9987 28.9247 21.9949 28.6253C21.992 28.4025 22.176 28.2326 22.3872 28.1406C22.8661 28.4368 24.1762 28.9593 24.1762 29.2984Z" fill="#FFE8A9"/>
<path d="M13.3385 36.6125C12.508 36.3715 11.5918 36.1038 10.7039 35.8436C10.3039 35.274 9.92373 34.6896 9.54453 34.1062C9.04095 33.3321 8.53769 32.558 8.03412 31.7839C7.8482 31.4983 7.66004 31.2072 7.56099 30.8809C7.40232 30.359 7.48951 29.7827 7.72351 29.29C7.95751 28.7973 8.32966 28.3813 8.74156 28.0239C8.81112 27.9639 8.88613 27.8979 8.90376 27.8078C8.93998 27.6241 8.73162 27.4975 8.56334 27.4148C7.93251 27.1049 7.40521 26.5885 7.08242 25.9644C7.02376 25.8509 6.97055 25.7268 6.98337 25.5999C6.99876 25.4489 7.1039 25.3242 7.20615 25.2117C7.68985 24.6787 8.21298 24.1818 8.76945 23.7254C9.24129 23.3385 9.72563 22.9685 10.1981 22.582C10.5395 22.5217 10.8668 22.4643 11.1726 22.4102C9.9404 23.5657 8.68611 25.9163 8.64187 26.1528C8.58065 26.4795 10.7857 27.7658 10.7245 27.9905C10.6632 28.2149 8.76432 28.889 8.76432 29.2974C8.76432 29.5785 11.5197 33.9395 13.3385 36.6125Z" fill="#E0B836"/>
<path d="M15.6338 24.6709C15.6091 24.8761 15.5697 25.0799 15.4941 25.2716C15.4569 25.3655 15.4082 25.4598 15.3267 25.5197C15.1392 25.6579 14.8568 25.5508 14.7171 25.3646C14.5773 25.178 14.5369 24.9386 14.476 24.7139C14.3273 24.1632 14.0388 23.6628 13.7917 23.1486C13.5705 22.6887 13.2486 22.0235 13.3705 21.4969C13.3823 21.4459 13.3996 21.3997 13.4224 21.3584C13.4387 21.3674 13.4554 21.3773 13.4717 21.3885C13.533 21.4299 15.1982 23.9987 15.6338 24.6709Z" fill="#63BABA"/>
<path d="M31.9868 25.4474C31.9621 25.6952 28.4679 31.6179 28.2448 31.7913C28.1069 31.8987 23.6632 34.0265 20.2529 35.6455C22.0114 33.0023 24.1764 29.5475 24.1764 29.2984C24.1764 28.8901 22.2775 28.216 22.2163 27.9916C22.1547 27.7669 24.3601 26.4805 24.2988 26.1539C24.271 26.0055 23.7664 25.024 23.0898 24.0277C23.5953 24.054 24.2142 24.4419 24.8332 24.4419C25.4522 24.4419 26.6074 24.2575 26.8606 24.3726C27.1142 24.488 27.9668 25.4327 28.6121 25.0871C29.257 24.7412 29.6257 24.488 29.6949 24.2575C29.708 24.2133 29.6994 24.1178 29.6779 23.9883C30.0132 24.0742 30.2135 24.1271 30.2273 24.1341C30.3264 24.1835 32.0115 25.1996 31.9868 25.4474Z" stroke="black" stroke-width="0.284929" stroke-linecap="round" stroke-linejoin="round"/>
<path d="M24.1763 29.297C24.1763 29.546 22.0114 33.0009 20.2528 35.6441C18.8976 36.2874 17.7055 36.8503 17.0118 37.1744C16.8208 36.8317 16.6826 36.566 16.6826 36.566C16.6826 36.566 20.5016 25.1632 20.6035 23.305C20.6167 23.063 20.624 22.8582 20.6263 22.6851C20.6433 22.6341 20.6555 22.5892 20.6625 22.5508C20.8007 23.3342 20.432 24.233 21.0542 24.5785C21.6764 24.9241 22.5749 24.0025 23.082 24.0256C23.0845 24.0256 23.0871 24.0259 23.0897 24.0263C23.7663 25.0225 24.2709 26.004 24.2988 26.1524C24.36 26.4791 22.1546 27.7654 22.2162 27.9901C22.2774 28.2145 24.1763 28.8886 24.1763 29.297Z" stroke="black" stroke-width="0.284929" stroke-linecap="round" stroke-linejoin="round"/>
<path d="M16.258 36.5679C16.258 36.5679 16.0766 36.9169 15.842 37.3308C15.2977 37.1801 14.3864 36.9185 13.3385 36.614C11.5197 33.941 8.76433 29.58 8.76433 29.2989C8.76433 28.8905 10.6632 28.2164 10.7245 27.992C10.7857 27.7673 8.58065 26.481 8.64188 26.1543C8.68611 25.9178 9.9404 23.5672 11.1726 22.4116C11.606 22.0049 12.0368 21.7462 12.4112 21.7792C12.341 21.7968 12.2467 21.8888 12.1958 22.2257C12.1595 22.4623 12.1448 22.8197 12.1743 23.3569C12.2762 25.2151 16.258 36.5679 16.258 36.5679Z" stroke="black" stroke-width="0.284929" stroke-linecap="round" stroke-linejoin="round"/>
<path d="M13.3381 36.6125C10.3913 35.757 6.36335 34.5659 6.36335 34.5659L1.67987 26.1153C1.67987 26.1153 1.63018 25.5951 3.19123 24.4055C3.51819 24.1565 4.14229 23.9174 4.92731 23.692C6.7121 23.1791 9.32871 22.7368 11.1722 22.4102C9.93999 23.5657 8.6857 25.9163 8.64146 26.1528C8.58024 26.4795 10.7853 27.7658 10.724 27.9905C10.6628 28.2149 8.76391 28.889 8.76391 29.2974C8.76391 29.5785 11.5193 33.9395 13.3381 36.6125Z" stroke="black" stroke-width="0.284929" stroke-linecap="round" stroke-linejoin="round"/>
<path d="M18.9333 22.5504C18.8913 22.9809 18.8384 23.4384 18.5666 23.7749C18.2678 24.1442 17.7688 24.2868 17.4152 24.6042C16.9667 25.0074 16.809 25.6306 16.5882 26.1918C16.5779 26.2178 16.5657 26.2457 16.5407 26.2585C16.4975 26.2803 16.4484 26.2434 16.4151 26.2085C16.3721 26.1633 16.3298 26.1143 16.2885 26.0617C16.0625 25.4703 15.8977 24.9238 15.8977 24.9238C15.8279 24.7007 16.6424 24.3609 17.7604 23.3284C18.1534 22.9652 18.5034 22.6049 18.8022 22.2773C18.8506 22.2995 18.8945 22.3302 18.9176 22.3767C18.9442 22.4296 18.9391 22.4918 18.9333 22.5504Z" fill="#63BABA"/>
<path d="M16.7923 4.85671C16.8451 4.8846 16.9045 4.90383 16.9689 4.91666C16.9464 4.92307 16.9243 4.93012 16.9022 4.93685C16.2829 5.1295 15.1908 5.45325 14.8174 4.68618C15.0555 4.54867 15.3383 4.40442 15.7556 4.28069C16.3775 4.09638 16.3086 4.60316 16.7923 4.85671Z" fill="#6D1151"/>
<path d="M19.8855 5.57509C19.5474 5.51419 19.2201 5.42796 18.9361 5.24236C18.7694 5.13338 18.6236 4.9933 18.4479 4.8997C18.3533 4.84938 18.2546 4.81476 18.1533 4.79232C18.4335 4.73654 18.7075 4.68718 18.9354 4.69519C19.4265 4.71282 19.5839 5.10453 19.8855 5.57509Z" fill="#6D1151"/>
<path d="M22.6303 7.7323C22.3845 7.62396 22.1049 7.53869 21.9088 7.36624C21.6418 7.13128 21.5645 6.7697 21.5469 6.40332C21.7552 6.41133 21.9504 6.44114 22.1142 6.56039C22.4361 6.79439 22.4608 7.30662 22.6303 7.7323Z" fill="#6D1151"/>
<path d="M24.1423 9.83322C24.1452 9.84316 24.1484 9.85278 24.1516 9.86239C24.1003 9.83162 24.0497 9.80053 23.9997 9.76847C23.5984 9.51076 23.2134 9.1386 23.172 8.66356C23.1621 8.54848 23.173 8.43052 23.1611 8.31641C23.9122 8.63952 23.9359 9.16777 24.1423 9.83322Z" fill="#6D1151"/>
<path d="M25.7491 13.4534C24.9833 13.0467 24.6458 11.9238 25.1349 11.1875C25.193 11.2349 25.2539 11.2824 25.317 11.3311C25.8792 11.7635 25.7311 12.7437 25.7491 13.4534Z" fill="#6D1151"/>
<path d="M27.3972 16.6765C27.117 16.5643 26.7689 16.4925 26.5788 16.2688C26.2929 15.9325 26.483 15.4235 26.6692 15.0235C26.7234 14.9071 26.774 14.7789 26.8102 14.6484C26.9189 14.7481 27.0167 14.8664 27.0917 15.0164C27.4366 15.7066 27.0353 16.0332 27.3972 16.6765Z" fill="#6D1151"/>
<path d="M29.6211 23.6873C29.4705 23.5885 29.3397 23.4558 29.2435 23.3049C29.0082 22.9365 28.9493 22.4807 28.9701 22.0441C28.99 21.6207 29.0784 21.1877 28.9659 20.779C28.8009 20.1805 28.2502 19.7776 27.9344 19.2432C27.6305 18.7294 27.5575 18.0851 27.7382 17.5161C27.7613 17.4437 27.7886 17.3706 27.8059 17.2969C28.1694 17.8655 28.446 18.423 28.4284 18.9804C28.4053 19.6949 28.5204 19.9484 29.1426 20.2709C29.7647 20.5934 29.6035 21.2848 29.4192 21.8377C29.2935 22.214 29.499 23.092 29.6211 23.6873Z" fill="#6D1151"/>
<path d="M14.3402 27.4283C14.0787 27.4684 12.2843 22.5474 12.3356 22.1986C12.3513 22.0928 12.4099 21.9412 12.5 21.7925C12.7064 21.4514 13.0773 21.1238 13.4716 21.3886C13.5382 21.4335 15.5016 24.4674 15.7176 24.8008C16.0827 25.364 14.6021 27.3879 14.3402 27.4283Z" stroke="black" stroke-width="0.284929" stroke-linecap="round" stroke-linejoin="round"/>
<path d="M20.6271 22.6868C20.2581 23.7866 17.6322 27.5482 17.1616 27.5168C16.6693 27.4837 15.8977 24.9232 15.8977 24.9232C15.8279 24.7001 16.6424 24.3603 17.7604 23.3279C19.1051 22.0851 19.9472 20.8789 19.9472 20.8789C19.9587 20.8985 19.9703 20.9183 19.9815 20.9385C20.2655 21.4415 20.5322 22.1749 20.6267 22.4464C20.628 22.5191 20.628 22.5986 20.6271 22.6868Z" stroke="black" stroke-width="0.284929" stroke-linecap="round" stroke-linejoin="round"/>
<path d="M12.3594 7.7334C12.1369 7.96579 12.2469 8.61522 12.3113 8.93031C12.3437 9.08834 12.3799 9.25406 12.485 9.37651C12.6059 9.51755 12.795 9.57621 12.9751 9.62077C13.3848 9.72206 13.8041 9.78553 14.2256 9.80957C14.3551 9.81694 14.4878 9.82143 14.6074 9.87111C14.8542 9.97401 14.9856 10.242 15.068 10.4962C15.1504 10.7504 15.2116 11.0254 15.393 11.2216C15.7953 11.6565 16.605 11.5216 16.9563 11.9986C17.1477 12.2585 17.1307 12.6108 17.1217 12.9336C17.1127 13.2564 17.1377 13.6196 17.3785 13.8347C17.607 14.0392 17.9468 14.0366 18.2532 14.0344C18.5597 14.0321 18.9068 14.0597 19.1017 14.2962C19.2937 14.529 19.2594 14.871 19.1815 15.1624C19.1036 15.4537 18.9908 15.7547 19.0601 16.0483C19.0742 16.1083 19.1306 16.1804 19.1822 16.1467" stroke="black" stroke-width="0.284929" stroke-linecap="round" stroke-linejoin="round"/>
<path d="M12.2704 7.83594C11.8354 8.29336 11.7168 9.02388 11.9844 9.59573C12.2524 10.1676 12.8893 10.5439 13.5192 10.5026C13.876 10.4792 14.2827 10.3487 14.5581 10.5769C14.7703 10.7529 14.7959 11.0641 14.9213 11.3097C15.0873 11.635 15.4335 11.8386 15.7896 11.9197C16.1458 12.0008 16.5166 11.9771 16.8811 11.9527" stroke="black" stroke-width="0.284929" stroke-linecap="round" stroke-linejoin="round"/>
<path d="M13.472 21.3878C13.0777 21.1231 12.7069 21.4507 12.5004 21.7917C12.5004 21.7917 12.462 21.7654 12.411 21.7783C12.178 21.7577 11.9231 21.8501 11.6593 22.0209C11.6494 21.8994 11.6433 21.7776 11.6391 21.6568C11.6279 21.3375 11.6263 21.0118 11.525 20.7086C11.4237 20.4057 11.2006 20.123 10.891 20.0435C10.5865 19.9653 10.2711 20.0941 9.95724 20.1153C9.25974 20.1618 8.61384 19.645 8.33112 19.0059C8.0484 18.3667 8.06699 17.6339 8.18078 16.9441C8.35933 15.8584 8.77059 14.8535 9.3341 13.913C9.34693 13.8916 9.36007 13.8698 9.37289 13.8477C9.01356 15.484 9.13953 17.0448 10.3509 18.0122C11.2333 18.7171 12.4181 18.6186 13.5595 18.2154C13.5595 18.2154 13.5848 20.3435 13.472 21.3878Z" fill="#210017"/>
<path d="M13.814 8.58898C14.0496 8.83516 14.1477 9.17269 14.2641 9.49901C13.8753 9.43329 13.4643 9.40156 13.1742 9.25667C12.9287 9.13423 12.7101 8.75919 12.5498 8.40531C12.9514 8.1992 13.4967 8.25689 13.814 8.58898Z" fill="#6D1151"/>
<path d="M17.5755 12.0813C17.1889 11.7698 16.192 11.5672 15.917 11.3313C15.7692 11.2043 15.6746 10.9376 15.5688 10.6523C15.7778 10.711 15.9907 10.7639 16.1897 10.8386C16.7847 11.0614 17.2809 11.5197 17.5755 12.0813Z" fill="#6D1151"/>
<path d="M20.6581 22.5274C20.6485 22.4761 20.6373 22.4248 20.6245 22.3732C20.5649 22.1328 20.4719 21.8918 20.3603 21.6526C20.2478 21.4113 20.1164 21.1721 19.9808 20.9381C19.9696 20.918 19.9581 20.8981 19.9465 20.8785C19.8225 20.6654 19.6962 20.457 19.5792 20.2554C19.1644 19.5409 19.8475 18.6844 19.8936 17.909C19.9395 17.1339 19.6045 16.9647 19.1436 16.4579C18.6829 15.9511 19.4183 15.1331 19.1878 14.534C18.9573 13.9349 18.4505 14.1884 18.0127 13.8198C17.6652 13.5271 17.7822 12.9732 17.7649 12.5498C17.804 12.6819 17.8322 12.8171 17.8486 12.9543C17.8607 13.0575 17.8675 13.1643 17.9149 13.2566C18.0505 13.5207 18.4127 13.5291 18.7022 13.5948C19.4346 13.7618 19.9388 14.5971 19.7459 15.3228C19.6548 15.6649 19.4346 15.9764 19.4298 16.3303C19.4288 16.4056 19.4391 16.4842 19.4795 16.5476C19.5571 16.6685 19.7154 16.6999 19.8491 16.7531C20.4097 16.9762 20.6145 17.6872 20.537 18.2856C20.4591 18.8841 20.1799 19.4396 20.0747 20.0339C20.0497 20.1749 20.035 20.3211 20.0664 20.4609C20.1116 20.6609 20.2453 20.8266 20.3494 21.0029C20.621 21.4632 20.6873 21.9889 20.6581 22.5274Z" fill="#6D1151"/>
<path d="M29.6791 23.9881C29.5887 23.4403 29.2704 22.285 29.4198 21.8379C29.6041 21.2849 29.7653 20.5935 29.1431 20.271C28.521 19.9486 28.4059 19.695 28.429 18.9805C28.4517 18.2663 27.9911 17.5522 27.484 16.8146C26.9772 16.0773 27.4609 15.7549 27.0923 15.0173C26.7237 14.2801 25.8021 14.3031 25.7559 13.589C25.7098 12.8745 25.9172 11.7917 25.3181 11.3307C24.719 10.8698 24.3503 10.5011 24.143 9.83313C23.9356 9.16479 23.9125 8.63493 23.1522 8.31214C22.3918 7.98968 22.6223 6.92963 22.1152 6.56101C21.6084 6.19238 20.8019 6.6764 20.2259 6.03115C19.6499 5.38589 19.5806 4.71787 18.9357 4.69479C18.2904 4.67171 17.2766 5.10958 16.7925 4.85603C16.3088 4.60248 16.3778 4.09569 15.7559 4.28001C15.1337 4.46432 14.8109 4.69479 14.4885 4.87911C14.4885 4.87911 13.5105 3.83349 12.8655 4.24058C12.2203 4.64735 11.5202 5.34742 11.2577 5.40576C10.9955 5.4641 10.1204 5.34742 9.79953 5.69746C9.47866 6.04749 9.27448 7.01874 8.89559 7.24761C8.51639 7.47648 7.46628 8.20572 7.32044 8.58493C7.17459 8.96381 7.32044 9.45969 7.11625 9.98475C6.91206 10.5098 6.27065 11.4137 6.09563 11.9096C5.92062 12.4055 6.56235 13.0181 6.38733 13.572C6.21231 14.1262 5.68726 15.0013 5.65809 15.4097C5.62892 15.8177 5.89145 16.2261 5.77477 17.1595C5.65809 18.0926 4.89968 18.5885 4.81217 19.1427C4.72466 19.6969 5.48307 20.5425 5.27888 21.0968C5.27888 21.0968 4.46214 21.5635 4.37495 22.001C4.29577 22.3969 4.99071 23.2168 4.92789 23.6929C6.71268 23.18 9.32929 22.7376 11.1727 22.411C11.6061 22.0042 12.0369 21.7455 12.4113 21.7786C12.4623 21.7657 12.5008 21.792 12.5008 21.792C12.7072 21.451 13.0781 21.1234 13.4723 21.3881C13.5852 20.3438 13.5598 18.2157 13.5598 18.2157C12.4184 18.6189 11.2336 18.7174 10.3512 18.0125C7.29607 15.5725 11.1442 9.35744 12.2751 7.67394C12.2831 7.70119 12.6732 9.00612 13.1752 9.25711C13.682 9.51034 14.5577 9.41834 15.0414 9.76389C15.5254 10.1094 15.5943 11.0541 15.9171 11.3307C16.2396 11.6073 17.5532 11.8378 17.7144 12.2523C17.8757 12.6671 17.5759 13.4505 18.0138 13.8194C18.4517 14.1881 18.9585 13.9345 19.1889 14.5336C19.4194 15.1327 18.6841 15.9507 19.1447 16.4575C19.6056 16.9643 19.9406 17.1335 19.8948 17.9086C19.8486 18.684 19.1655 19.5405 19.5803 20.255C19.6973 20.4566 19.8236 20.665 19.9477 20.8782C19.9592 20.8977 19.9707 20.9176 19.982 20.9378C20.1176 21.1718 20.249 21.4109 20.3615 21.6523C20.473 21.8914 20.566 22.1324 20.6256 22.3728C20.6407 22.4328 20.6532 22.4924 20.6638 22.552C20.8019 23.3354 20.4333 24.2343 21.0555 24.5798C21.6776 24.9254 22.5761 24.0038 23.0832 24.0269C23.0858 24.0269 23.0884 24.0272 23.0909 24.0275C23.5964 24.0538 24.2154 24.4416 24.8344 24.4416C25.4533 24.4416 26.6086 24.2573 26.8618 24.3724C27.1154 24.4878 27.968 25.4325 28.6133 25.0869C29.2582 24.741 29.6268 24.4878 29.6961 24.2573C29.7092 24.2131 29.7006 24.1176 29.6791 23.9881ZM20.441 21.792C20.441 21.792 20.4772 21.7452 20.5176 21.7795C20.4916 21.7824 20.4663 21.7863 20.441 21.792Z" stroke="black" stroke-width="0.284929" stroke-linecap="round" stroke-linejoin="round"/>
<path d="M12.4219 11.0879H15.3757V11.6456C15.3757 12.4454 14.7266 13.0945 13.9268 13.0945H13.8711C13.0713 13.0945 12.4222 12.4454 12.4222 11.6456V11.0879H12.4219Z" fill="#E86F3A" stroke="black" stroke-width="0.284929" stroke-linecap="round" stroke-linejoin="round"/>
<path d="M8.46875 11.0879H11.4226V11.6456C11.4226 12.4454 10.7735 13.0945 9.97371 13.0945H9.91793C9.11817 13.0945 8.46907 12.4454 8.46907 11.6456V11.0879H8.46875Z" fill="#E86F3A" stroke="black" stroke-width="0.284929" stroke-linecap="round" stroke-linejoin="round"/>
<path d="M11.4233 11.6457C11.4233 11.6457 11.75 11.1289 12.4228 11.6457" stroke="black" stroke-width="0.284929" stroke-linecap="round" stroke-linejoin="round"/>
</g>
<defs>
<clipPath id="clip0_789_83677">
<rect width="32" height="32" rx="16" fill="white"/>
</clipPath>
</defs>
</svg>
