<svg width="32" height="32" viewBox="0 0 32 32" fill="none" xmlns="http://www.w3.org/2000/svg">
<g clip-path="url(#clip0_789_83749)">
<rect width="32" height="32" rx="16" fill="#C2D6FF"/>
<path d="M11.0229 11.868C11.1066 12.0789 11.2435 12.2722 11.4111 12.4478C11.8083 12.8633 12.3791 13.1777 12.8308 13.3826C12.8298 13.4053 12.8286 13.4342 12.827 13.4694C12.8141 13.7848 12.7789 14.5865 12.7189 15.5767C12.609 17.3964 12.416 19.8521 12.1262 21.0936C12.1362 21.0907 12.1432 21.0885 12.1468 21.0872H12.1471C12.1471 21.0872 12.1484 21.0865 12.149 21.0865C12.1493 21.0865 12.1493 21.0862 12.1493 21.0862L12.1621 21.4744C12.1621 21.4744 15.0756 25.8678 15.0051 26.1733C14.9833 26.2672 14.7579 26.5582 14.4441 26.9201C15.5599 27.3134 16.5267 27.0798 16.5267 27.0798C16.1417 26.6457 15.8503 26.2806 15.8256 26.1733C15.7551 25.8678 18.6686 21.4744 18.6686 21.4744L18.6814 21.0862L18.7644 18.5552C19.5174 18.8081 20.3011 18.9354 21.0066 18.7847C21.3012 18.7219 21.582 18.6103 21.8413 18.4395C25.6244 15.9469 19.7369 7.7041 19.7369 7.7041C19.7369 7.7041 19.7312 8.14229 19.2888 8.4234C19.117 8.53239 18.8795 8.61765 18.5509 8.64426C17.3755 8.73946 15.692 7.96118 14.7233 7.86598C13.7546 7.77077 13.7068 7.97721 13.7068 7.97721C13.7068 7.97721 14.3899 10.2165 14.2944 10.6451C14.1992 11.074 14.0088 11.5186 14.0088 11.5186C14.0088 11.5186 13.6751 9.78764 12.8651 9.77162C12.0551 9.75591 10.5623 10.7089 11.0229 11.868Z" fill="#F3BBB0" stroke="black" stroke-width="0.284929" stroke-linecap="round" stroke-linejoin="round"/>
<path d="M11.4076 34.4463H18.9507V27.2885H11.4076V34.4463Z" fill="#BF9EF9" stroke="black" stroke-width="0.284929" stroke-linecap="round" stroke-linejoin="round"/>
<path d="M4.83287 32.8619C5.40696 33.2274 7.88702 32.843 9.18266 32.609C8.66402 32.0545 8.28193 31.6086 8.15339 31.3781C7.57225 30.3364 6.61093 28.4532 6.61093 28.4532L8.59414 27.1713L6.87121 25.6888C6.87121 25.6888 8.84417 22.9981 9.61251 22.207C9.58174 22.2154 8.83103 22.4189 7.80785 22.7138C5.69001 23.3238 2.40506 24.3233 1.92649 24.7858C1.73608 24.9698 1.55754 25.1894 1.39663 25.4147C0.953634 26.035 0.64495 26.6995 0.59238 26.787C0.520899 26.9062 4.04657 32.3616 4.83287 32.8619Z" fill="#4C70F5" stroke="black" stroke-width="0.284929" stroke-linecap="round" stroke-linejoin="round"/>
<path d="M6.67528 25.7196C6.67528 25.7196 7.46061 27.2688 7.94752 27.8015C8.43443 28.334 6.54033 28.575 6.47109 28.8673C6.40217 29.1597 7.4183 34.0499 8.49789 34.7695C9.57749 35.4892 11.711 33.7957 11.9062 33.4992C12.1015 33.2027 12.0967 28.3763 11.9062 28.1644C11.7158 27.9528 9.97977 25.3276 9.83168 25.3064C9.68359 25.2853 6.67528 25.7193 6.67528 25.7193V25.7196Z" fill="#2253DD"/>
<path d="M1.396 25.4128C1.72744 25.6013 2.13004 25.6802 2.51438 25.6574C3.10835 25.6225 3.6693 25.3795 4.19788 25.107C4.72646 24.8342 5.24189 24.5262 5.80766 24.3428C6.12115 24.2409 6.4465 24.1787 6.75839 24.0726C7.07028 23.9665 7.37576 23.8101 7.58796 23.5582C7.78318 23.3261 7.88543 23.001 7.80722 22.7119C5.68938 23.3219 2.40443 24.3214 1.92586 24.7839C1.73545 24.9679 1.55691 25.1875 1.396 25.4128Z" fill="#80A1FF"/>
<path d="M8.15339 31.3781C8.28193 31.6086 8.66402 32.0545 9.18266 32.609C7.88702 32.843 5.40696 33.2274 4.83287 32.8619C4.04657 32.3616 0.520899 26.9062 0.59238 26.787C0.663862 26.6677 1.21167 25.4766 1.92649 24.7858C2.63617 24.0998 9.51795 22.2327 9.61251 22.207C8.84417 22.9981 6.87121 25.6888 6.87121 25.6888L8.59414 27.1713L6.61093 28.4532C6.61093 28.4532 7.57225 30.3364 8.15339 31.3781Z" stroke="black" stroke-width="0.284929" stroke-linecap="round" stroke-linejoin="round"/>
<path d="M11.4101 12.447C11.2425 12.2714 11.1056 12.0781 11.022 11.8672C10.5613 10.7081 12.0541 9.75511 12.8641 9.77081C13.6742 9.78684 14.0078 11.5178 14.0078 11.5178C14.0078 11.5178 14.1982 11.0732 14.2934 10.6443C14.389 10.2157 13.7059 7.9764 13.7059 7.9764C13.7059 7.9764 13.7536 7.76997 14.7223 7.86517C15.691 7.96037 17.3745 8.73866 18.55 8.64346C19.7251 8.54793 19.736 7.7033 19.736 7.7033C19.736 7.7033 20.2501 7.27152 20.6162 6.6362C21.0249 5.92716 21.2493 4.96488 20.3687 4.06735C19.5135 3.19515 18.7182 3.36087 17.9387 3.82278C17.2312 4.24205 16.5366 4.9059 15.8215 5.25946C15.7167 5.31139 15.6042 5.35595 15.4852 5.39473C13.8963 5.91722 11.1358 5.43416 9.97827 7.28306C9.86832 7.45904 9.77857 7.63406 9.70709 7.80844C8.97176 9.60349 10.1962 11.2915 11.4101 12.447Z" fill="#6D1249" stroke="black" stroke-width="0.284929" stroke-linecap="round" stroke-linejoin="round"/>
<path d="M12.0508 21.3797C12.0764 21.2941 12.1014 21.1986 12.1255 21.0947C12.1255 21.0941 12.1255 21.0934 12.1261 21.0928" stroke="black" stroke-width="0.284929" stroke-linecap="round" stroke-linejoin="round"/>
<path d="M22.6754 31.3781C22.5469 31.6086 22.1648 32.0545 21.6462 32.609C22.9418 32.843 25.4219 33.2274 25.996 32.8619C26.7822 32.3616 30.3079 26.9062 30.2364 26.787C30.165 26.6677 29.6171 25.4766 28.9023 24.7858C28.1926 24.0998 21.3109 22.2327 21.2163 22.207C21.9847 22.9981 23.9576 25.6888 23.9576 25.6888L22.2347 27.1713L24.2179 28.4532C24.2179 28.4532 23.2566 30.3364 22.6754 31.3781Z" fill="#4C70F5" stroke="black" stroke-width="0.284929" stroke-linecap="round" stroke-linejoin="round"/>
<path d="M22.6754 31.3781C22.5469 31.6086 22.1648 32.0545 21.6462 32.609C22.9418 32.843 25.4219 33.2274 25.996 32.8619C26.781 32.3622 30.298 26.9219 30.2368 26.7876C30.2368 26.7873 30.2364 26.7873 30.2364 26.787C30.165 26.6677 29.6171 25.4766 28.9023 24.7858C28.4811 24.3787 25.886 23.5556 23.8259 22.9485C22.4148 22.5321 21.2548 22.2176 21.2163 22.207C21.9847 22.9981 23.9576 25.6888 23.9576 25.6888L22.2347 27.1713L24.2179 28.4532C24.2179 28.4532 23.2566 30.3364 22.6754 31.3781Z" fill="#4C70F5" stroke="black" stroke-width="0.284929" stroke-linecap="round" stroke-linejoin="round"/>
<path d="M6.61133 28.4514C6.61133 28.4514 7.57264 30.3346 8.15379 31.3764C8.28233 31.6069 8.66442 32.0528 9.18306 32.6073C11.0076 34.5591 14.5176 37.8537 14.5644 37.8069C14.5999 37.7713 13.4412 33.0355 12.4776 28.8893C12.3315 28.2597 12.1895 27.6437 12.0571 27.0599C11.5932 25.0152 11.2442 23.3644 11.2188 22.9025C11.1461 21.5745 11.9724 21.159 12.1253 21.0936C12.1324 21.0908 12.1382 21.0885 12.142 21.0869C12.1382 21.0882 12.1327 21.0898 12.126 21.0917C12.0096 21.1292 11.4782 21.302 10.94 21.5059C10.4912 21.6761 10.0376 21.8678 9.81646 22.021C9.76549 22.0562 9.69625 22.1197 9.61291 22.2053C8.84456 22.9964 6.87161 25.6871 6.87161 25.6871L8.59454 27.1696L6.61133 28.4514Z" fill="#4C70F5" stroke="black" stroke-width="0.284929" stroke-linecap="round" stroke-linejoin="round"/>
<path d="M21.2163 22.2061C21.2163 22.2061 21.2171 22.2061 21.2187 22.2069" stroke="black" stroke-width="0.284929" stroke-linecap="round" stroke-linejoin="round"/>
<path d="M13.9209 27.4985C13.9209 27.4985 14.5258 29.3387 14.8463 29.5166C15.1669 29.6949 16.1163 29.7304 16.2115 29.6474C16.3064 29.5641 17.2623 27.8722 17.2623 27.8722C17.0081 27.6094 16.7507 27.3324 16.5256 27.0786C16.5256 27.0786 15.5589 27.3123 14.4431 26.9189C14.286 27.1001 14.1075 27.2985 13.9209 27.4985Z" fill="#E86F3A" stroke="black" stroke-width="0.284929" stroke-linecap="round" stroke-linejoin="round"/>
<path d="M13.6945 34.0491C13.7122 34.1228 15.4354 36.8369 15.5915 36.8561C15.7476 36.8757 17.0009 34.6065 17.0009 34.6065L16.2114 29.6474C16.1162 29.7304 15.1668 29.6948 14.8462 29.5166C14.8462 29.5166 13.6772 33.9757 13.6945 34.0491Z" fill="#E86F3A" stroke="black" stroke-width="0.284929" stroke-linecap="round" stroke-linejoin="round"/>
<path d="M23.8257 22.9473C24.0885 23.1431 24.3719 23.3178 24.6104 23.4951C25.1877 23.9246 25.7653 24.3545 26.3426 24.7843C26.9709 25.2517 27.5988 25.719 28.2271 26.1864C28.6557 26.5053 29.1134 26.8361 29.6452 26.8868C29.8433 26.9057 30.0516 26.8682 30.2366 26.7864C30.2366 26.7861 30.2363 26.7861 30.2363 26.7858C30.1648 26.6665 29.617 25.4754 28.9022 24.7846C28.481 24.3775 25.8858 23.5544 23.8257 22.9473Z" fill="#80A1FF"/>
<path d="M10.6094 23.8821C10.7174 25.0636 11.2374 26.2031 12.0567 27.0609C11.5928 25.0162 11.2438 23.3654 11.2185 22.9035C11.1457 21.5754 11.9721 21.16 12.125 21.0946C12.132 21.0917 12.1378 21.0895 12.1416 21.0879C12.1378 21.0892 12.1323 21.0908 12.1256 21.0927C12.0092 21.1302 11.4778 21.303 10.9396 21.5068C10.6527 22.2604 10.5357 23.0791 10.6094 23.8821Z" fill="#80A1FF"/>
<path d="M17.9399 3.82278C17.9537 3.83624 17.9685 3.84842 17.9839 3.85964C18.1387 3.97408 18.3381 4.00517 18.5156 4.08018C18.9198 4.25103 19.1891 4.64049 19.3715 5.03925C19.5542 5.43833 19.6741 5.86721 19.8985 6.24418C20.0241 6.45477 20.2158 6.66473 20.461 6.66473C20.5158 6.66473 20.5678 6.65447 20.6175 6.6362C21.0261 5.92716 21.2505 4.96488 20.37 4.06735C19.5148 3.19515 18.7195 3.36087 17.9399 3.82278Z" fill="#932A6E"/>
<path d="M9.70703 7.80921C9.74582 7.85345 9.79005 7.89287 9.83974 7.92589C10.1231 8.11373 10.5119 8.05026 10.8081 7.88294C11.1043 7.71561 11.3396 7.46078 11.6059 7.24922C12.0569 6.89117 12.6048 6.65621 13.175 6.57608C13.5173 6.52799 13.8658 6.53472 14.2084 6.48793C14.5511 6.44145 14.8999 6.33374 15.1502 6.09526C15.3416 5.91287 15.4595 5.65835 15.4852 5.39551C13.8962 5.918 11.1357 5.43493 9.97821 7.28384C9.86827 7.45982 9.77851 7.63484 9.70703 7.80921Z" fill="#932A6E"/>
<path d="M6.61133 28.453C6.61133 28.453 7.57264 30.3362 8.15379 31.378C8.28233 31.6085 8.66442 32.0544 9.18306 32.6089C11.0076 34.5607 14.5176 37.8553 14.5644 37.8085C14.5999 37.7729 13.4412 33.0372 12.4776 28.8909C11.8189 26.0566 11.2515 23.4977 11.2188 22.9041C11.1461 21.5761 11.9724 21.1606 12.1253 21.0952C12.1356 21.0911 12.1427 21.0882 12.1465 21.0869C12.143 21.0882 12.1359 21.0904 12.126 21.0933C11.9125 21.1622 10.3024 21.686 9.81646 22.0226C9.76549 22.0578 9.69625 22.1213 9.61291 22.2069C8.84456 22.998 6.87161 25.6887 6.87161 25.6887L8.59454 27.1712L6.61133 28.453Z" stroke="black" stroke-width="0.284929" stroke-linecap="round" stroke-linejoin="round"/>
<path d="M22.6754 31.3781C22.5469 31.6086 22.1648 32.0545 21.6462 32.609C22.9418 32.843 25.4219 33.2274 25.996 32.8619C26.7823 32.3616 30.3079 26.9062 30.2364 26.787C30.165 26.6677 29.6171 25.4766 28.9023 24.7858C28.1926 24.0998 21.3109 22.2327 21.2163 22.207C21.9847 22.9981 23.9576 25.6888 23.9576 25.6888L22.2347 27.1713L24.2179 28.4532C24.2179 28.4532 23.2566 30.3364 22.6754 31.3781Z" stroke="black" stroke-width="0.284929" stroke-linecap="round" stroke-linejoin="round"/>
<path d="M21.1101 14.5301C21.2059 15.6084 21.1976 16.6964 21.0806 17.7731C21.0444 18.109 20.9976 18.4488 21.0059 18.7847C21.3005 18.7219 21.5813 18.6103 21.8406 18.4395C25.6237 15.9469 19.7362 7.7041 19.7362 7.7041C19.7362 7.7041 19.7304 8.14229 19.2881 8.4234C19.4195 8.61445 19.549 8.7994 19.6311 8.97699C20.4388 10.7246 20.9392 12.6126 21.1101 14.5301Z" fill="#F9DFDC"/>
<path d="M12.7178 15.5758C12.8152 15.4797 12.879 15.3547 12.9409 15.2322C13.1005 14.9158 13.2608 14.6001 13.4201 14.2837C13.5227 14.0802 13.6268 13.8596 13.4569 13.6596C13.3053 13.4811 13.0662 13.434 12.8258 13.4686C12.813 13.784 12.7777 14.5857 12.7178 15.5758Z" fill="#F09E8B"/>
<path d="M15.3167 16.6572C15.3167 16.6572 15.494 20.3304 18.693 20.698L18.7632 18.5552C18.7632 18.5552 16.0463 17.2621 15.3164 16.6572H15.3167Z" fill="#ED7D66"/>
<path d="M13.4687 11.783C13.4103 11.5384 13.2504 11.3468 13.0129 11.1698C12.7753 10.9929 12.3859 10.9073 12.0839 11.0217C11.9144 11.0862 11.7836 11.2269 11.8281 11.3625C11.8666 11.4804 12.0182 11.5574 12.1637 11.6151C12.5962 11.7865 12.9282 11.8167 13.4196 11.8401" fill="#ED7D66"/>
<path d="M24.0103 25.7196C24.0103 25.7196 23.225 27.2688 22.7381 27.8015C22.2512 28.334 24.1453 28.575 24.2145 28.8673C24.2835 29.1597 23.2673 34.0499 22.1877 34.7695C21.1081 35.4892 18.9746 33.7957 18.7794 33.4992C18.5842 33.2027 18.589 28.3763 18.7794 28.1644C18.9698 27.9528 20.7059 25.3276 20.8539 25.3064C21.002 25.2853 24.0103 25.7193 24.0103 25.7193V25.7196Z" fill="#2253DD"/>
<path d="M16.2654 37.8085C16.3122 37.8553 19.8222 34.5607 21.6468 32.6089C22.1654 32.0544 22.5475 31.6085 22.676 31.378C23.2572 30.3362 24.2185 28.453 24.2185 28.453L22.2353 27.1712L23.9582 25.6887C23.9582 25.6887 21.9853 22.998 21.2169 22.2069C21.1336 22.1213 21.0643 22.0578 21.0134 22.0226C20.9858 22.0034 20.9547 21.9838 20.9204 21.9636C20.3877 21.6508 19.0949 21.2206 18.7606 21.1119C18.7186 21.0981 18.692 21.0898 18.6833 21.0869C18.6917 21.0901 18.7173 21.1001 18.7551 21.119C18.9872 21.2353 19.6776 21.6854 19.611 22.9041C19.5805 23.4551 19.0898 25.6983 18.4929 28.2838C18.4464 28.4844 18.3996 28.687 18.3522 28.8909C17.3886 33.0372 16.2299 37.7729 16.2654 37.8085Z" fill="#4C70F5" stroke="black" stroke-width="0.284929" stroke-linecap="round" stroke-linejoin="round"/>
<path d="M18.4932 28.2822C18.4948 28.2893 18.496 28.2967 18.4977 28.3037C19.2397 27.3148 19.8654 26.2689 20.3661 25.1816C20.6437 24.5783 20.8841 23.9587 20.9764 23.3115C21.0399 22.8685 21.0319 22.4118 20.9207 21.962C20.3879 21.6492 19.0951 21.219 18.7608 21.1104C18.7589 21.1126 18.757 21.1148 18.7554 21.1174C18.9874 21.2338 19.6779 21.6838 19.6112 22.9025C19.5808 23.4535 19.09 25.6967 18.4932 28.2822Z" fill="#80A1FF"/>
<path d="M16.2654 37.8085C16.3122 37.8553 19.8222 34.5607 21.6468 32.6089C22.1654 32.0544 22.5475 31.6085 22.676 31.378C23.2572 30.3362 24.2185 28.453 24.2185 28.453L22.2353 27.1712L23.9582 25.6887C23.9582 25.6887 21.9853 22.998 21.2169 22.2069C21.1336 22.1213 21.0643 22.0578 21.0134 22.0226C20.5047 21.6703 18.7647 21.1129 18.6833 21.0869C18.7429 21.1094 19.6885 21.4876 19.611 22.9041C19.5783 23.4977 19.0109 26.0566 18.3522 28.8909C17.3886 33.0372 16.2299 37.7729 16.2654 37.8085Z" stroke="black" stroke-width="0.284929" stroke-linecap="round" stroke-linejoin="round"/>
<path d="M18.7648 18.5552C16.9861 17.9574 15.3789 16.6572 15.3789 16.6572" stroke="black" stroke-width="0.284929" stroke-linecap="round" stroke-linejoin="round"/>
<path d="M12.8306 13.3818C13.2373 13.5665 13.5479 13.662 13.5479 13.662" stroke="black" stroke-width="0.284929" stroke-linecap="round" stroke-linejoin="round"/>
<path d="M11.0229 11.868C11.1066 12.0789 11.2435 12.2722 11.4111 12.4478C11.8083 12.8633 12.3791 13.1777 12.8308 13.3826C12.8068 13.9826 12.5913 19.1014 12.1262 21.0936C12.1362 21.0907 12.1432 21.0885 12.1468 21.0872H12.1471C12.1471 21.0872 12.1484 21.0865 12.149 21.0865C12.1493 21.0865 12.1493 21.0862 12.1493 21.0862L12.1621 21.4744C12.1621 21.4744 15.0756 25.8678 15.0051 26.1733C14.9833 26.2672 14.7579 26.5582 14.4441 26.9201C15.5599 27.3134 16.5267 27.0798 16.5267 27.0798C16.1417 26.6457 15.8503 26.2806 15.8256 26.1733C15.7551 25.8678 18.6686 21.4744 18.6686 21.4744L18.6814 21.0862L18.7644 18.5552C19.8318 18.9139 20.9608 19.0197 21.8413 18.4395C25.6244 15.9469 19.7369 7.7041 19.7369 7.7041C19.7369 7.7041 19.726 8.54874 18.5509 8.64426C17.3755 8.73946 15.692 7.96118 14.7233 7.86598C13.7546 7.77077 13.7068 7.97721 13.7068 7.97721C13.7068 7.97721 14.3899 10.2165 14.2944 10.6451C14.1992 11.074 14.0088 11.5186 14.0088 11.5186C14.0088 11.5186 13.6751 9.78764 12.8651 9.77162C12.0551 9.75591 10.5623 10.7089 11.0229 11.868Z" stroke="black" stroke-width="0.284929" stroke-linecap="round" stroke-linejoin="round"/>
<path d="M15.8252 26.1115C15.8498 26.2188 16.1412 26.5839 16.5262 27.018C16.7512 27.2718 17.0086 27.5488 17.2628 27.8116C17.6862 28.2489 18.1026 28.6463 18.3523 28.8294C18.453 28.3957 18.5517 27.9684 18.6466 27.5536C19.1723 25.2579 19.5835 23.3455 19.6111 22.8425C19.6887 21.4261 18.7431 21.0478 18.6835 21.0254C18.6835 21.0254 18.6822 21.0247 18.6815 21.0247C18.6812 21.0247 18.6812 21.0244 18.6812 21.0244L18.679 21.0962L18.6684 21.4126C18.6684 21.4126 15.755 25.806 15.8255 26.1115H15.8252Z" fill="#F5D256" stroke="black" stroke-width="0.284929" stroke-linecap="round" stroke-linejoin="round"/>
<path d="M11.2194 22.8425C11.2473 23.3468 11.6604 25.2684 12.1881 27.5725C12.2817 27.9815 12.3788 28.4024 12.4781 28.8294C12.7981 28.5947 13.3911 28.0088 13.9222 27.4379C14.1088 27.2379 14.2873 27.0394 14.4444 26.8583C14.7582 26.4964 14.9835 26.2054 15.0053 26.1115C15.0758 25.806 12.1624 21.4126 12.1624 21.4126L12.1509 21.0642L12.1496 21.0244C12.1496 21.0244 12.1496 21.0247 12.1493 21.0247C12.1486 21.0247 12.148 21.0251 12.1473 21.0254H12.147C12.1432 21.0267 12.1361 21.0295 12.1259 21.0337C11.973 21.0991 11.1466 21.5145 11.2194 22.8425Z" fill="#F5D256" stroke="black" stroke-width="0.284929" stroke-linecap="round" stroke-linejoin="round"/>
<path d="M21.5775 4.14355C21.9557 4.51507 22.0721 5.1023 21.9528 5.61902C21.8336 6.13574 21.5057 6.58547 21.1111 6.93935C20.7165 7.29323 20.2543 7.56249 19.7959 7.82918C20.2286 7.95291 20.8047 7.99619 21.222 7.82822C21.6394 7.66025 21.998 7.34997 22.2243 6.96115" stroke="black" stroke-width="0.284929" stroke-linecap="round" stroke-linejoin="round"/>
<path d="M11.4102 12.447C11.2425 12.2714 11.1057 12.0781 11.022 11.8672C10.5614 10.7081 12.0542 9.75508 12.8642 9.77079C13.6742 9.78682 14.0079 11.5178 14.0079 11.5178C14.0079 11.5178 14.1983 11.0732 14.2935 10.6443C14.389 10.2157 13.7059 7.97638 13.7059 7.97638C13.7059 7.97638 13.7537 7.76995 14.7224 7.86515C15.6911 7.96035 17.3746 8.73863 18.55 8.64343C19.7251 8.54791 19.736 7.70327 19.736 7.70327C19.736 7.70327 22.0382 5.76942 20.3688 4.06733C18.7372 2.4037 17.3242 4.51609 15.8215 5.25944C14.3188 6.00278 11.2227 5.29566 9.9783 7.28304C8.73395 9.27074 10.0786 11.1793 11.4102 12.447Z" stroke="black" stroke-width="0.284929" stroke-linecap="round" stroke-linejoin="round"/>
<path d="M11.2194 22.8425C11.2473 23.3468 11.6604 25.2684 12.1881 27.5725C12.2919 27.5135 12.3753 27.4161 12.4294 27.3084C12.5048 27.158 12.531 26.9878 12.5496 26.8202C12.64 25.9954 12.5615 25.1527 12.3204 24.3587C12.1441 23.7789 11.8816 23.2218 11.7887 22.623C11.704 22.0784 11.7896 21.4677 12.1509 21.0642L12.1496 21.0244C12.1496 21.0244 12.1496 21.0247 12.1493 21.0247C12.1486 21.0247 12.148 21.0251 12.1473 21.0254H12.147C12.1432 21.0267 12.1361 21.0295 12.1259 21.0337C11.973 21.0991 11.1466 21.5145 11.2194 22.8425Z" fill="#CEA625"/>
<path d="M18.647 27.5536C19.1727 25.2579 19.584 23.3455 19.6115 22.8425C19.6891 21.4261 18.7435 21.0478 18.6839 21.0254C18.6839 21.0254 18.6826 21.0247 18.682 21.0247C18.6816 21.0247 18.6816 21.0244 18.6816 21.0244L18.6794 21.0962C18.9352 21.1719 19.1298 21.4145 19.2012 21.6767C19.2814 21.9723 19.2336 22.2867 19.1618 22.5842C19.0208 23.1666 18.79 23.7221 18.5909 24.2872C18.3922 24.8524 18.2233 25.437 18.2133 26.0361C18.2043 26.5711 18.3348 27.1234 18.6473 27.5536H18.647Z" fill="#CEA625"/>
<path d="M15.8252 26.173C15.8498 26.2804 16.1412 26.6455 16.5262 27.0795C16.7512 27.3334 17.0086 27.6103 17.2628 27.8732C17.6862 28.3104 18.1026 28.7079 18.3523 28.8909C19.0111 26.0566 19.5784 23.4977 19.6111 22.9041C19.6887 21.4876 18.7431 21.1093 18.6835 21.0869C18.6835 21.0869 18.6822 21.0863 18.6815 21.0863C18.6812 21.0863 18.6812 21.0859 18.6812 21.0859L18.6684 21.4741C18.6684 21.4741 15.755 25.8675 15.8255 26.173H15.8252Z" stroke="black" stroke-width="0.284929" stroke-linecap="round" stroke-linejoin="round"/>
<path d="M11.2194 22.9041C11.2521 23.4977 11.8194 26.0566 12.4781 28.8909C12.7981 28.6562 13.3911 28.0703 13.9222 27.4994C14.1088 27.2994 14.2873 27.101 14.4444 26.9199C14.7582 26.558 14.9835 26.2669 15.0053 26.173C15.0758 25.8675 12.1624 21.4741 12.1624 21.4741L12.1496 21.0859C12.1496 21.0859 12.1496 21.0863 12.1493 21.0863C12.1486 21.0863 12.148 21.0863 12.1473 21.0869H12.147C12.1432 21.0882 12.1361 21.0911 12.1259 21.0952C11.973 21.1606 11.1466 21.5761 11.2194 22.9041Z" stroke="black" stroke-width="0.284929" stroke-linecap="round" stroke-linejoin="round"/>
<path d="M13.4134 11.7468C13.1599 11.2557 12.6028 10.9384 12.0508 10.9711" stroke="black" stroke-width="0.284929" stroke-linecap="round" stroke-linejoin="round"/>
<path d="M12.8316 11.2744C12.6406 11.3478 12.4746 11.485 12.3662 11.6587" stroke="black" stroke-width="0.284929" stroke-linecap="round" stroke-linejoin="round"/>
<path d="M19.3115 15.4533C19.2409 15.4475 18.6511 15.7037 17.9889 15.111C17.3266 14.5183 17.6049 13.8506 17.6049 13.8506" stroke="black" stroke-width="0.284929" stroke-linecap="round" stroke-linejoin="round"/>
<path d="M18.0381 13.8131C18.0381 13.8131 17.5826 13.6275 17.1982 14.1138" stroke="black" stroke-width="0.284929" stroke-linecap="round" stroke-linejoin="round"/>
<path d="M19.7843 12.1641C19.7843 12.1641 20.7257 13.6017 20.4568 13.8511C20.1878 14.1005 19.5288 13.6626 19.5288 13.6626" stroke="black" stroke-width="0.284929" stroke-linecap="round" stroke-linejoin="round"/>
</g>
<defs>
<clipPath id="clip0_789_83749">
<rect width="32" height="32" rx="16" fill="white"/>
</clipPath>
</defs>
</svg>
