<svg width="101" height="100" viewBox="0 0 101 100" fill="none" xmlns="http://www.w3.org/2000/svg">
<circle cx="50.5" cy="50" r="50" fill="#375DFB"/>
<path d="M20.5 36.6667L46.8 54.2001C47.8955 54.931 49.183 55.3211 50.5 55.3211C51.817 55.3211 53.1045 54.931 54.2 54.2001L80.5 36.6667M27.1667 73.3334H73.8333C75.6014 73.3334 77.2971 72.631 78.5474 71.3808C79.7976 70.1306 80.5 68.4349 80.5 66.6667V33.3334C80.5 31.5653 79.7976 29.8696 78.5474 28.6194C77.2971 27.3691 75.6014 26.6667 73.8333 26.6667H27.1667C25.3986 26.6667 23.7029 27.3691 22.4526 28.6194C21.2024 29.8696 20.5 31.5653 20.5 33.3334V66.6667C20.5 68.4349 21.2024 70.1306 22.4526 71.3808C23.7029 72.631 25.3986 73.3334 27.1667 73.3334Z" stroke="white" stroke-width="2" stroke-linecap="round" stroke-linejoin="round"/>
</svg>
