<svg width="21" height="20" viewBox="0 0 21 20" fill="none" xmlns="http://www.w3.org/2000/svg">
<path d="M10.6531 8.63647V11.541H14.7718C14.591 12.4751 14.0482 13.2661 13.2342 13.7979L15.718 15.6866C17.1651 14.3775 18 12.4547 18 10.1706C18 9.63884 17.9513 9.12742 17.8609 8.63656L10.6531 8.63647Z" fill="#4285F4"/>
<path d="M3.82103 6.63879C3.29926 7.64785 3.00012 8.78651 3.00012 10.0001C3.00012 11.2138 3.29926 12.3524 3.82103 13.3615C3.82103 13.3682 6.36747 11.4251 6.36747 11.4251C6.21441 10.9751 6.12394 10.4978 6.12394 10.0001C6.12394 9.50226 6.21441 9.02501 6.36747 8.57501L3.82103 6.63879Z" fill="#FBBC05"/>
<path d="M10.653 5.48638C11.7801 5.48638 12.7819 5.86819 13.582 6.60457L15.7736 4.45685C14.4447 3.24323 12.7194 2.5 10.653 2.5C7.66135 2.5 5.0802 4.1841 3.82092 6.63866L6.36728 8.57504C6.97254 6.80228 8.6632 5.48638 10.653 5.48638Z" fill="#EA4335"/>
<path d="M6.36399 11.4276L5.80381 11.8479L3.82092 13.3615C5.0802 15.8092 7.6612 17.5001 10.6528 17.5001C12.7191 17.5001 14.4515 16.8319 15.7178 15.6865L13.234 13.7978C12.5522 14.2478 11.6825 14.5206 10.6528 14.5206C8.66304 14.5206 6.97245 13.2047 6.36712 11.4319L6.36399 11.4276Z" fill="#34A853"/>
</svg>
