<svg width="1440" height="1024" viewBox="0 0 1440 1024" fill="none" xmlns="http://www.w3.org/2000/svg">
<rect width="1440" height="1024" fill="#253EA7"/>
<path d="M594.98 482.577V511.422L570 525.845L545.02 511.422V482.577L570 468.154L594.98 482.577Z" fill="white" stroke="white" stroke-width="2"/>
<path d="M555.79 499.842L563.91 508.053L584.211 487.526" stroke="#253EA7" stroke-width="2" stroke-linecap="round" stroke-linejoin="round"/>
<path d="M643.285 474.328V481.56H631.381V519H622.421V481.56H610.517V474.328H643.285ZM647.518 501.144C647.518 497.56 648.222 494.381 649.63 491.608C651.081 488.835 653.022 486.701 655.454 485.208C657.929 483.715 660.681 482.968 663.71 482.968C666.356 482.968 668.66 483.501 670.622 484.568C672.628 485.635 674.228 486.979 675.422 488.6V483.544H684.446V519H675.422V513.816C674.27 515.48 672.67 516.867 670.622 517.976C668.617 519.043 666.292 519.576 663.646 519.576C660.66 519.576 657.929 518.808 655.454 517.272C653.022 515.736 651.081 513.581 649.63 510.808C648.222 507.992 647.518 504.771 647.518 501.144ZM675.422 501.272C675.422 499.096 674.996 497.24 674.142 495.704C673.289 494.125 672.137 492.931 670.686 492.12C669.236 491.267 667.678 490.84 666.014 490.84C664.35 490.84 662.814 491.245 661.406 492.056C659.998 492.867 658.846 494.061 657.95 495.64C657.097 497.176 656.67 499.011 656.67 501.144C656.67 503.277 657.097 505.155 657.95 506.776C658.846 508.355 659.998 509.571 661.406 510.424C662.857 511.277 664.393 511.704 666.014 511.704C667.678 511.704 669.236 511.299 670.686 510.488C672.137 509.635 673.289 508.44 674.142 506.904C674.996 505.325 675.422 503.448 675.422 501.272ZM706.765 519.576C703.864 519.576 701.261 519.064 698.957 518.04C696.653 516.973 694.819 515.544 693.453 513.752C692.131 511.96 691.405 509.976 691.277 507.8H700.301C700.472 509.165 701.133 510.296 702.285 511.192C703.48 512.088 704.952 512.536 706.701 512.536C708.408 512.536 709.731 512.195 710.669 511.512C711.651 510.829 712.141 509.955 712.141 508.888C712.141 507.736 711.544 506.883 710.349 506.328C709.197 505.731 707.341 505.091 704.781 504.408C702.136 503.768 699.96 503.107 698.253 502.424C696.589 501.741 695.139 500.696 693.901 499.288C692.707 497.88 692.109 495.981 692.109 493.592C692.109 491.629 692.664 489.837 693.773 488.216C694.925 486.595 696.547 485.315 698.637 484.376C700.771 483.437 703.267 482.968 706.125 482.968C710.349 482.968 713.72 484.035 716.237 486.168C718.755 488.259 720.141 491.096 720.397 494.68H711.821C711.693 493.272 711.096 492.163 710.029 491.352C709.005 490.499 707.619 490.072 705.869 490.072C704.248 490.072 702.989 490.371 702.093 490.968C701.24 491.565 700.813 492.397 700.813 493.464C700.813 494.659 701.411 495.576 702.605 496.216C703.8 496.813 705.656 497.432 708.173 498.072C710.733 498.712 712.845 499.373 714.509 500.056C716.173 500.739 717.603 501.805 718.797 503.256C720.035 504.664 720.675 506.541 720.717 508.888C720.717 510.936 720.141 512.771 718.989 514.392C717.88 516.013 716.259 517.293 714.125 518.232C712.035 519.128 709.581 519.576 706.765 519.576ZM749.064 519L737.032 503.896V519H728.072V471.64H737.032V498.584L748.936 483.544H760.584L744.968 501.336L760.712 519H749.064ZM802.503 474.328V519H793.543V499.992H774.407V519H765.447V474.328H774.407V492.696H793.543V474.328H802.503ZM815.866 479.32C814.288 479.32 812.965 478.829 811.898 477.848C810.874 476.824 810.362 475.565 810.362 474.072C810.362 472.579 810.874 471.341 811.898 470.36C812.965 469.336 814.288 468.824 815.866 468.824C817.445 468.824 818.746 469.336 819.77 470.36C820.837 471.341 821.37 472.579 821.37 474.072C821.37 475.565 820.837 476.824 819.77 477.848C818.746 478.829 817.445 479.32 815.866 479.32ZM820.282 483.544V519H811.322V483.544H820.282ZM843.919 510.744L852.879 483.544H862.415L849.295 519H838.415L825.359 483.544H834.959L843.919 510.744ZM900.407 500.504C900.407 501.784 900.322 502.936 900.151 503.96H874.231C874.445 506.52 875.341 508.525 876.919 509.976C878.498 511.427 880.439 512.152 882.743 512.152C886.071 512.152 888.439 510.723 889.847 507.864H899.511C898.487 511.277 896.525 514.093 893.623 516.312C890.722 518.488 887.159 519.576 882.935 519.576C879.522 519.576 876.45 518.829 873.719 517.336C871.031 515.8 868.919 513.645 867.383 510.872C865.89 508.099 865.143 504.899 865.143 501.272C865.143 497.603 865.89 494.381 867.383 491.608C868.877 488.835 870.967 486.701 873.655 485.208C876.343 483.715 879.437 482.968 882.935 482.968C886.306 482.968 889.314 483.693 891.959 485.144C894.647 486.595 896.717 488.664 898.167 491.352C899.661 493.997 900.407 497.048 900.407 500.504ZM891.127 497.944C891.085 495.64 890.253 493.805 888.631 492.44C887.01 491.032 885.026 490.328 882.679 490.328C880.461 490.328 878.583 491.011 877.047 492.376C875.554 493.699 874.637 495.555 874.295 497.944H891.127Z" fill="white"/>
<path d="M606.189 540.224V541.616H601.533V557H599.853V541.616H595.173V540.224H606.189ZM615.082 543.656C616.074 543.656 616.962 543.864 617.746 544.28C618.546 544.696 619.17 545.336 619.618 546.2C620.082 547.048 620.314 548.088 620.314 549.32V557H618.658V549.512C618.658 548.088 618.298 547 617.578 546.248C616.874 545.496 615.906 545.12 614.674 545.12C613.41 545.12 612.402 545.52 611.65 546.32C610.898 547.12 610.522 548.296 610.522 549.848V557H608.842V539.24H610.522V546.128C610.938 545.344 611.546 544.736 612.346 544.304C613.162 543.872 614.074 543.656 615.082 543.656ZM635.885 549.776C635.885 550.352 635.869 550.792 635.837 551.096H624.965C625.013 552.088 625.253 552.936 625.685 553.64C626.117 554.344 626.685 554.88 627.389 555.248C628.093 555.6 628.861 555.776 629.693 555.776C630.781 555.776 631.693 555.512 632.429 554.984C633.181 554.456 633.677 553.744 633.917 552.848H635.693C635.373 554.128 634.685 555.176 633.629 555.992C632.589 556.792 631.277 557.192 629.693 557.192C628.461 557.192 627.357 556.92 626.381 556.376C625.405 555.816 624.637 555.032 624.077 554.024C623.533 553 623.261 551.808 623.261 550.448C623.261 549.088 623.533 547.896 624.077 546.872C624.621 545.848 625.381 545.064 626.357 544.52C627.333 543.976 628.445 543.704 629.693 543.704C630.941 543.704 632.029 543.976 632.957 544.52C633.901 545.064 634.621 545.8 635.117 546.728C635.629 547.64 635.885 548.656 635.885 549.776ZM634.181 549.728C634.197 548.752 633.997 547.92 633.581 547.232C633.181 546.544 632.629 546.024 631.925 545.672C631.221 545.32 630.453 545.144 629.621 545.144C628.373 545.144 627.309 545.544 626.429 546.344C625.549 547.144 625.061 548.272 624.965 549.728H634.181ZM651.281 557.192C650.049 557.192 648.937 556.92 647.945 556.376C646.969 555.816 646.193 555.032 645.617 554.024C645.057 553 644.777 551.808 644.777 550.448C644.777 549.088 645.065 547.904 645.641 546.896C646.217 545.872 647.001 545.088 647.993 544.544C648.985 543.984 650.097 543.704 651.329 543.704C652.561 543.704 653.673 543.984 654.665 544.544C655.673 545.088 656.457 545.872 657.017 546.896C657.593 547.904 657.881 549.088 657.881 550.448C657.881 551.792 657.593 552.976 657.017 554C656.441 555.024 655.649 555.816 654.641 556.376C653.633 556.92 652.513 557.192 651.281 557.192ZM651.281 555.728C652.145 555.728 652.945 555.536 653.681 555.152C654.417 554.752 655.009 554.16 655.457 553.376C655.921 552.576 656.153 551.6 656.153 550.448C656.153 549.296 655.929 548.328 655.481 547.544C655.033 546.744 654.441 546.152 653.705 545.768C652.969 545.368 652.169 545.168 651.305 545.168C650.441 545.168 649.641 545.368 648.905 545.768C648.169 546.152 647.577 546.744 647.129 547.544C646.697 548.328 646.481 549.296 646.481 550.448C646.481 551.6 646.697 552.576 647.129 553.376C647.577 554.16 648.161 554.752 648.881 555.152C649.617 555.536 650.417 555.728 651.281 555.728ZM667.087 543.656C668.655 543.656 669.935 544.144 670.927 545.12C671.919 546.08 672.415 547.48 672.415 549.32V557H670.759V549.512C670.759 548.088 670.399 547 669.679 546.248C668.975 545.496 668.007 545.12 666.775 545.12C665.511 545.12 664.503 545.52 663.751 546.32C662.999 547.12 662.623 548.296 662.623 549.848V557H660.943V543.896H662.623V546.128C663.039 545.328 663.639 544.72 664.423 544.304C665.207 543.872 666.095 543.656 667.087 543.656ZM687.987 549.776C687.987 550.352 687.971 550.792 687.939 551.096H677.067C677.115 552.088 677.355 552.936 677.787 553.64C678.219 554.344 678.787 554.88 679.491 555.248C680.195 555.6 680.963 555.776 681.795 555.776C682.883 555.776 683.795 555.512 684.531 554.984C685.283 554.456 685.779 553.744 686.019 552.848H687.795C687.475 554.128 686.787 555.176 685.731 555.992C684.691 556.792 683.379 557.192 681.795 557.192C680.563 557.192 679.459 556.92 678.483 556.376C677.507 555.816 676.739 555.032 676.179 554.024C675.635 553 675.363 551.808 675.363 550.448C675.363 549.088 675.635 547.896 676.179 546.872C676.723 545.848 677.483 545.064 678.459 544.52C679.435 543.976 680.547 543.704 681.795 543.704C683.043 543.704 684.131 543.976 685.059 544.52C686.003 545.064 686.723 545.8 687.219 546.728C687.731 547.64 687.987 548.656 687.987 549.776ZM686.283 549.728C686.299 548.752 686.099 547.92 685.683 547.232C685.283 546.544 684.731 546.024 684.027 545.672C683.323 545.32 682.555 545.144 681.723 545.144C680.475 545.144 679.411 545.544 678.531 546.344C677.651 547.144 677.163 548.272 677.067 549.728H686.283ZM702.159 557.192C700.655 557.192 699.423 556.848 698.463 556.16C697.519 555.456 696.991 554.504 696.879 553.304H698.607C698.687 554.04 699.031 554.64 699.639 555.104C700.263 555.552 701.095 555.776 702.135 555.776C703.047 555.776 703.759 555.56 704.271 555.128C704.799 554.696 705.063 554.16 705.063 553.52C705.063 553.072 704.919 552.704 704.631 552.416C704.343 552.128 703.975 551.904 703.527 551.744C703.095 551.568 702.503 551.384 701.751 551.192C700.775 550.936 699.983 550.68 699.375 550.424C698.767 550.168 698.247 549.792 697.815 549.296C697.399 548.784 697.191 548.104 697.191 547.256C697.191 546.616 697.383 546.024 697.767 545.48C698.151 544.936 698.695 544.504 699.399 544.184C700.103 543.864 700.903 543.704 701.799 543.704C703.207 543.704 704.343 544.064 705.207 544.784C706.071 545.488 706.535 546.464 706.599 547.712H704.919C704.871 546.944 704.567 546.328 704.007 545.864C703.463 545.384 702.711 545.144 701.751 545.144C700.903 545.144 700.215 545.344 699.687 545.744C699.159 546.144 698.895 546.64 698.895 547.232C698.895 547.744 699.047 548.168 699.351 548.504C699.671 548.824 700.063 549.08 700.527 549.272C700.991 549.448 701.615 549.648 702.399 549.872C703.343 550.128 704.095 550.376 704.655 550.616C705.215 550.856 705.695 551.208 706.095 551.672C706.495 552.136 706.703 552.752 706.719 553.52C706.719 554.224 706.527 554.856 706.143 555.416C705.759 555.96 705.223 556.392 704.535 556.712C703.847 557.032 703.055 557.192 702.159 557.192ZM712.065 545.312V553.448C712.065 554.248 712.217 554.8 712.521 555.104C712.825 555.408 713.361 555.56 714.129 555.56H715.665V557H713.865C712.681 557 711.801 556.728 711.225 556.184C710.649 555.624 710.361 554.712 710.361 553.448V545.312H708.537V543.896H710.361V540.608H712.065V543.896H715.665V545.312H712.065ZM724.172 557.192C722.94 557.192 721.828 556.92 720.836 556.376C719.86 555.816 719.084 555.032 718.508 554.024C717.948 553 717.668 551.808 717.668 550.448C717.668 549.088 717.956 547.904 718.532 546.896C719.108 545.872 719.892 545.088 720.884 544.544C721.876 543.984 722.988 543.704 724.22 543.704C725.452 543.704 726.564 543.984 727.556 544.544C728.564 545.088 729.348 545.872 729.908 546.896C730.484 547.904 730.772 549.088 730.772 550.448C730.772 551.792 730.484 552.976 729.908 554C729.332 555.024 728.54 555.816 727.532 556.376C726.524 556.92 725.404 557.192 724.172 557.192ZM724.172 555.728C725.036 555.728 725.836 555.536 726.572 555.152C727.308 554.752 727.9 554.16 728.348 553.376C728.812 552.576 729.044 551.6 729.044 550.448C729.044 549.296 728.82 548.328 728.372 547.544C727.924 546.744 727.332 546.152 726.596 545.768C725.86 545.368 725.06 545.168 724.196 545.168C723.332 545.168 722.532 545.368 721.796 545.768C721.06 546.152 720.468 546.744 720.02 547.544C719.588 548.328 719.372 549.296 719.372 550.448C719.372 551.6 719.588 552.576 720.02 553.376C720.468 554.16 721.052 554.752 721.772 555.152C722.508 555.536 723.308 555.728 724.172 555.728ZM735.49 546.776C735.906 545.896 736.562 545.168 737.458 544.592C738.37 544 739.45 543.704 740.698 543.704C741.882 543.704 742.946 543.984 743.89 544.544C744.85 545.088 745.594 545.872 746.122 546.896C746.666 547.904 746.938 549.08 746.938 550.424C746.938 551.768 746.666 552.952 746.122 553.976C745.594 555 744.85 555.792 743.89 556.352C742.946 556.912 741.882 557.192 740.698 557.192C739.466 557.192 738.394 556.904 737.482 556.328C736.57 555.736 735.906 555 735.49 554.12V563.192H733.834V543.896H735.49V546.776ZM745.234 550.424C745.234 549.336 745.018 548.4 744.586 547.616C744.17 546.816 743.594 546.208 742.858 545.792C742.122 545.376 741.29 545.168 740.362 545.168C739.466 545.168 738.642 545.384 737.89 545.816C737.154 546.248 736.57 546.864 736.138 547.664C735.706 548.464 735.49 549.392 735.49 550.448C735.49 551.504 735.706 552.432 736.138 553.232C736.57 554.032 737.154 554.648 737.89 555.08C738.642 555.512 739.466 555.728 740.362 555.728C741.29 555.728 742.122 555.52 742.858 555.104C743.594 554.672 744.17 554.056 744.586 553.256C745.018 552.44 745.234 551.496 745.234 550.424ZM755.847 550.424C755.847 549.08 756.111 547.904 756.639 546.896C757.183 545.872 757.927 545.088 758.871 544.544C759.831 543.984 760.911 543.704 762.111 543.704C763.359 543.704 764.431 543.992 765.327 544.568C766.239 545.144 766.895 545.88 767.295 546.776V543.896H768.975V557H767.295V554.096C766.879 554.992 766.215 555.736 765.303 556.328C764.407 556.904 763.335 557.192 762.087 557.192C760.903 557.192 759.831 556.912 758.871 556.352C757.927 555.792 757.183 555 756.639 553.976C756.111 552.952 755.847 551.768 755.847 550.424ZM767.295 550.448C767.295 549.392 767.079 548.464 766.647 547.664C766.215 546.864 765.623 546.248 764.871 545.816C764.135 545.384 763.319 545.168 762.423 545.168C761.495 545.168 760.663 545.376 759.927 545.792C759.191 546.208 758.607 546.816 758.175 547.616C757.759 548.4 757.551 549.336 757.551 550.424C757.551 551.496 757.759 552.44 758.175 553.256C758.607 554.056 759.191 554.672 759.927 555.104C760.663 555.52 761.495 555.728 762.423 555.728C763.319 555.728 764.135 555.512 764.871 555.08C765.623 554.648 766.215 554.032 766.647 553.232C767.079 552.432 767.295 551.504 767.295 550.448ZM774.467 546.776C774.883 545.896 775.539 545.168 776.435 544.592C777.347 544 778.427 543.704 779.675 543.704C780.859 543.704 781.923 543.984 782.867 544.544C783.827 545.088 784.571 545.872 785.099 546.896C785.643 547.904 785.915 549.08 785.915 550.424C785.915 551.768 785.643 552.952 785.099 553.976C784.571 555 783.827 555.792 782.867 556.352C781.923 556.912 780.859 557.192 779.675 557.192C778.443 557.192 777.371 556.904 776.459 556.328C775.547 555.736 774.883 555 774.467 554.12V563.192H772.811V543.896H774.467V546.776ZM784.211 550.424C784.211 549.336 783.995 548.4 783.563 547.616C783.147 546.816 782.571 546.208 781.835 545.792C781.099 545.376 780.267 545.168 779.339 545.168C778.443 545.168 777.619 545.384 776.867 545.816C776.131 546.248 775.547 546.864 775.115 547.664C774.683 548.464 774.467 549.392 774.467 550.448C774.467 551.504 774.683 552.432 775.115 553.232C775.547 554.032 776.131 554.648 776.867 555.08C777.619 555.512 778.443 555.728 779.339 555.728C780.267 555.728 781.099 555.52 781.835 555.104C782.571 554.672 783.147 554.056 783.563 553.256C783.995 552.44 784.211 551.496 784.211 550.424ZM790.662 546.776C791.078 545.896 791.734 545.168 792.63 544.592C793.542 544 794.622 543.704 795.87 543.704C797.054 543.704 798.118 543.984 799.062 544.544C800.022 545.088 800.766 545.872 801.294 546.896C801.838 547.904 802.11 549.08 802.11 550.424C802.11 551.768 801.838 552.952 801.294 553.976C800.766 555 800.022 555.792 799.062 556.352C798.118 556.912 797.054 557.192 795.87 557.192C794.638 557.192 793.566 556.904 792.654 556.328C791.742 555.736 791.078 555 790.662 554.12V563.192H789.006V543.896H790.662V546.776ZM800.406 550.424C800.406 549.336 800.19 548.4 799.758 547.616C799.342 546.816 798.766 546.208 798.03 545.792C797.294 545.376 796.462 545.168 795.534 545.168C794.638 545.168 793.814 545.384 793.062 545.816C792.326 546.248 791.742 546.864 791.31 547.664C790.878 548.464 790.662 549.392 790.662 550.448C790.662 551.504 790.878 552.432 791.31 553.232C791.742 554.032 792.326 554.648 793.062 555.08C793.814 555.512 794.638 555.728 795.534 555.728C796.462 555.728 797.294 555.52 798.03 555.104C798.766 554.672 799.342 554.056 799.758 553.256C800.19 552.44 800.406 551.496 800.406 550.424ZM816.947 545.312H813.899V557H812.219V545.312H810.395V543.896H812.219V542.984C812.219 541.56 812.579 540.512 813.299 539.84C814.035 539.168 815.219 538.832 816.851 538.832V540.272C815.763 540.272 814.995 540.48 814.547 540.896C814.115 541.312 813.899 542.008 813.899 542.984V543.896H816.947V545.312ZM825.328 557.192C824.096 557.192 822.984 556.92 821.992 556.376C821.016 555.816 820.24 555.032 819.664 554.024C819.104 553 818.824 551.808 818.824 550.448C818.824 549.088 819.112 547.904 819.688 546.896C820.264 545.872 821.048 545.088 822.04 544.544C823.032 543.984 824.144 543.704 825.376 543.704C826.608 543.704 827.72 543.984 828.712 544.544C829.72 545.088 830.504 545.872 831.064 546.896C831.64 547.904 831.928 549.088 831.928 550.448C831.928 551.792 831.64 552.976 831.064 554C830.488 555.024 829.696 555.816 828.688 556.376C827.68 556.92 826.56 557.192 825.328 557.192ZM825.328 555.728C826.192 555.728 826.992 555.536 827.728 555.152C828.464 554.752 829.056 554.16 829.504 553.376C829.968 552.576 830.2 551.6 830.2 550.448C830.2 549.296 829.976 548.328 829.528 547.544C829.08 546.744 828.488 546.152 827.752 545.768C827.016 545.368 826.216 545.168 825.352 545.168C824.488 545.168 823.688 545.368 822.952 545.768C822.216 546.152 821.624 546.744 821.176 547.544C820.744 548.328 820.528 549.296 820.528 550.448C820.528 551.6 820.744 552.576 821.176 553.376C821.624 554.16 822.208 554.752 822.928 555.152C823.664 555.536 824.464 555.728 825.328 555.728ZM836.67 546.224C837.038 545.408 837.598 544.776 838.35 544.328C839.118 543.88 840.054 543.656 841.158 543.656V545.408H840.702C839.486 545.408 838.51 545.736 837.774 546.392C837.038 547.048 836.67 548.144 836.67 549.68V557H834.99V543.896H836.67V546.224ZM867.552 543.896L863.448 557H861.768L858.144 546.008L854.52 557H852.816L848.712 543.896H850.416L853.68 555.296L857.352 543.896H859.032L862.656 555.32L865.896 543.896H867.552ZM875.578 557.192C874.346 557.192 873.234 556.92 872.242 556.376C871.266 555.816 870.49 555.032 869.914 554.024C869.354 553 869.074 551.808 869.074 550.448C869.074 549.088 869.362 547.904 869.938 546.896C870.514 545.872 871.298 545.088 872.29 544.544C873.282 543.984 874.394 543.704 875.626 543.704C876.858 543.704 877.97 543.984 878.962 544.544C879.97 545.088 880.754 545.872 881.314 546.896C881.89 547.904 882.178 549.088 882.178 550.448C882.178 551.792 881.89 552.976 881.314 554C880.738 555.024 879.946 555.816 878.938 556.376C877.93 556.92 876.81 557.192 875.578 557.192ZM875.578 555.728C876.442 555.728 877.242 555.536 877.978 555.152C878.714 554.752 879.306 554.16 879.754 553.376C880.218 552.576 880.45 551.6 880.45 550.448C880.45 549.296 880.226 548.328 879.778 547.544C879.33 546.744 878.738 546.152 878.002 545.768C877.266 545.368 876.466 545.168 875.602 545.168C874.738 545.168 873.938 545.368 873.202 545.768C872.466 546.152 871.874 546.744 871.426 547.544C870.994 548.328 870.778 549.296 870.778 550.448C870.778 551.6 870.994 552.576 871.426 553.376C871.874 554.16 872.458 554.752 873.178 555.152C873.914 555.536 874.714 555.728 875.578 555.728ZM886.92 546.224C887.288 545.408 887.848 544.776 888.6 544.328C889.368 543.88 890.304 543.656 891.408 543.656V545.408H890.952C889.736 545.408 888.76 545.736 888.024 546.392C887.288 547.048 886.92 548.144 886.92 549.68V557H885.24V543.896H886.92V546.224ZM901.016 557L895.616 551.12V557H893.936V539.24H895.616V549.752L900.896 543.896H903.248L897.032 550.424L903.296 557H901.016Z" fill="white"/>
</svg>
