<svg width="28" height="28" viewBox="0 0 28 28" fill="none" xmlns="http://www.w3.org/2000/svg">
<rect x="1" y="1" width="26" height="26" rx="13" stroke="white" stroke-width="2"/>
<g clip-path="url(#clip0_493_8565)">
<rect x="2" y="2" width="24" height="24" rx="12" fill="#FBDFB1"/>
<path d="M16.9611 17.659C16.9611 17.659 16.3296 18.5637 15.321 19.4957C14.4825 20.2701 13.8716 20.5249 13.924 20.6923L13.7892 20.6007C13.6271 20.3506 12.1546 18.0752 12.1046 18.0415C12.1892 17.2583 12.1702 15.6622 12.1702 15.6622C11.3141 15.9646 10.4256 16.0384 9.76375 15.5098C7.47242 13.6798 10.3585 9.01849 11.2067 7.75586C11.2127 7.77629 11.5053 8.755 11.8818 8.94324C12.2618 9.13316 12.9186 9.06416 13.2814 9.32332C13.6444 9.58248 13.6961 10.291 13.9382 10.4984C14.1801 10.7059 15.1653 10.8788 15.2862 11.1896C15.4071 11.5007 15.1823 12.0883 15.5107 12.365C15.8391 12.6414 16.2192 12.4513 16.3921 12.9006C16.5649 13.3499 16.0134 13.9635 16.3589 14.3435C16.7046 14.7236 16.9558 14.8506 16.9214 15.4319C16.8868 16.0134 16.3745 16.6558 16.6856 17.1917C16.7734 17.3429 16.8681 17.4991 16.9611 17.659Z" fill="#CC927A" stroke="black" stroke-width="0.213696" stroke-linecap="round" stroke-linejoin="round"/>
<path d="M25.9908 21.0865C25.9723 21.2724 23.3516 25.7144 23.1843 25.8445C23.1074 25.9043 21.2435 26.8027 19.2409 27.7588C18.5514 28.088 17.8455 28.424 17.1904 28.7351C18.5093 26.7527 20.133 24.1616 20.133 23.9748C20.133 23.6685 18.7089 23.1629 18.6629 22.9947C18.6168 22.8261 20.2708 21.8614 20.2249 21.6164C20.2124 21.5503 20.0737 21.263 19.8561 20.8839C19.7082 20.6254 19.5236 20.3247 19.318 20.0218C19.6972 20.0415 20.1614 20.3324 20.6256 20.3324C20.6975 20.3324 20.779 20.329 20.866 20.3237C21.3428 20.2951 21.9856 20.2074 22.1462 20.2804C22.3364 20.367 22.9759 21.0755 23.4598 20.8163C23.9435 20.5569 24.22 20.367 24.2719 20.1941C24.2818 20.161 24.2753 20.0893 24.2592 19.9922C24.5106 20.0566 24.6609 20.0963 24.6712 20.1016C24.6996 20.1158 24.9025 20.2362 25.1407 20.3898C25.5252 20.6374 26.0024 20.9719 25.9908 21.0865Z" fill="#F5D256" stroke="black" stroke-width="0.213696" stroke-linecap="round" stroke-linejoin="round"/>
<path d="M20.133 23.9737C20.133 24.1208 19.1252 25.7602 18.0527 27.4185C17.7637 27.8652 17.4702 28.3133 17.1904 28.734C16.7485 28.9439 16.3295 29.1423 15.9547 29.3192C15.4671 29.5497 15.0536 29.7445 14.7596 29.8818C14.6163 29.6248 14.5127 29.4255 14.5127 29.4255C14.5127 29.4255 16.3614 23.9054 17.1281 21.0124C17.3156 20.3043 17.4385 19.7536 17.4534 19.4797C17.4632 19.2982 17.4688 19.1446 17.4704 19.0148C17.4832 18.9766 17.4923 18.9429 17.4976 18.9141C17.6012 19.5016 17.3248 20.1757 17.7914 20.4349C18.102 20.6073 18.5042 20.3589 18.8506 20.1786C19.0249 20.088 19.185 20.0144 19.3122 20.0202C19.3141 20.0202 19.3161 20.0204 19.318 20.0207C19.5235 20.3236 19.7082 20.6243 19.856 20.8828C20.0736 21.2619 20.2123 21.5492 20.2248 21.6153C20.2707 21.8603 18.6167 22.825 18.6629 22.9936C18.6708 23.0222 18.7179 23.0602 18.7913 23.1053C19.1504 23.3275 20.133 23.7194 20.133 23.9737Z" fill="#F5D256" stroke="black" stroke-width="0.213696" stroke-linecap="round" stroke-linejoin="round"/>
<path d="M11.9902 8.58109C12.0186 9.01839 12.2379 9.43983 12.5797 9.7139C12.8055 9.89492 13.0766 10.011 13.3113 10.1808C13.6769 10.4452 13.9448 10.8417 14.0539 11.2794C14.0902 11.4256 14.1121 11.5814 14.201 11.703C14.3522 11.9095 14.647 11.9521 14.8343 12.1266C15.2432 12.5072 14.9444 13.2597 15.2848 13.7028C15.3716 13.8157 15.494 13.8982 15.575 14.0155C15.7151 14.2189 15.7067 14.486 15.6957 14.7327C15.6295 16.2045 15.7033 17.7911 16.5883 18.9692C16.7376 19.1677 16.946 19.367 17.1936 19.3454C17.4761 19.3206 17.6473 19.0285 17.755 18.7662C18.1344 17.8424 18.326 16.8516 18.4404 15.8595C18.5387 15.0077 18.5803 14.1348 18.3779 13.3015C18.1865 12.5139 17.786 11.7963 17.4194 11.0736C17.11 10.4637 16.8078 9.824 16.2895 9.3778C15.843 8.99363 15.2749 8.78712 14.7206 8.58854C14.3114 8.44189 13.9024 8.29548 13.4933 8.14884C13.0286 7.98247 12.466 7.82957 12.0794 8.13609" fill="#BA735A"/>
<path d="M8.3826 10.4428C8.1982 11.3001 8.05276 12.1713 8.05925 13.0483C8.06574 13.9253 8.23042 14.8127 8.63719 15.5897C8.83144 15.9606 9.16393 16.3448 9.58031 16.2986C9.93323 16.2597 10.1823 15.9077 10.2361 15.557C10.2898 15.206 10.197 14.8516 10.127 14.5037C10.0445 14.0936 9.99334 13.676 9.99935 13.2579C10.0229 11.5936 10.928 10.0927 11.6293 8.58296C11.7572 8.30745 11.8808 8.02257 11.9041 7.71989C11.9106 7.63719 11.907 7.54704 11.8555 7.48189C11.8022 7.41433 11.7106 7.39077 11.6247 7.38236C11.3504 7.35471 11.0761 7.43669 10.8237 7.54752C10.151 7.84298 9.58416 8.34664 9.13556 8.92843C8.6872 9.51046 8.35038 10.1704 8.0542 10.8428" fill="#FFC7B3"/>
<path d="M13.7929 16.2497C13.3912 16.745 12.8178 17.0986 12.1947 17.2349C12.1923 16.7847 12.1949 16.3341 12.2029 15.8838C12.2041 15.8115 12.2067 15.7353 12.244 15.6732C12.2856 15.6045 12.362 15.566 12.4346 15.5319C12.7457 15.3855 13.0611 15.2484 13.3686 15.0943C13.5268 15.015 13.6831 14.9316 13.8345 14.84C13.9418 14.7751 14.1651 14.5467 14.2807 14.5342C14.5622 14.5037 14.3341 15.1931 14.2853 15.3417C14.1776 15.6706 14.011 15.9805 13.7929 16.2493V16.2497Z" fill="#B27059"/>
<path d="M17.4703 19.0165C17.4693 19.081 17.4676 19.1512 17.4647 19.2276C17.4621 19.3055 17.4582 19.3899 17.4532 19.4815C17.3767 20.8751 14.5125 29.4272 14.5125 29.4272H14.1932C14.1932 29.4272 11.3675 21.3704 11.1432 19.6486C11.1367 19.6002 11.1326 19.557 11.1304 19.519C11.1083 19.1161 11.1194 18.848 11.1465 18.6706C11.1826 18.6639 11.2177 18.6571 11.2518 18.6504C11.2398 18.7326 11.3648 19.1548 11.548 19.6935C11.9466 20.8667 12.621 22.5933 12.7554 22.5727C12.8027 22.5654 12.9037 22.471 13.0258 22.3262C13.4078 21.8723 13.9961 20.9223 13.7884 20.602L13.9233 20.6936C13.9233 20.6936 14.5019 22.614 14.8712 22.6388C15.1534 22.6575 16.4706 20.8557 17.1277 19.712C17.1967 19.5921 17.2582 19.4793 17.3106 19.3767C17.3832 19.2348 17.438 19.1122 17.4703 19.0165Z" fill="#C9C4FE" stroke="black" stroke-width="0.213696" stroke-linecap="round" stroke-linejoin="round"/>
<path d="M17.4651 19.2266C17.4625 19.3045 17.4586 19.3888 17.4536 19.4804C17.3771 20.8741 14.5129 29.4261 14.5129 29.4261H14.1936C14.1936 29.4261 11.3679 21.3693 11.1436 19.6475C11.1957 19.5441 11.2525 19.4432 11.3135 19.3448C11.3919 19.4605 11.4703 19.5764 11.5484 19.6925C11.984 20.3401 12.4083 20.9967 12.7488 21.6984C12.8488 21.9042 12.9411 22.1134 13.0262 22.3252C13.5385 23.5984 13.7945 24.9709 13.8989 26.3424C13.9253 26.6901 13.9965 27.1146 14.3256 27.2298C15.8032 24.9901 15.9789 22.1348 17.128 19.711C17.1439 19.6773 17.16 19.6437 17.1764 19.61C17.2158 19.5288 17.2571 19.4475 17.311 19.3756C17.3273 19.3537 17.3447 19.3326 17.3636 19.3129C17.3949 19.2802 17.429 19.2516 17.4651 19.2266Z" fill="#A2A0F2"/>
<path d="M14.3486 5.69468C14.9677 5.36243 15.7848 5.44562 16.3241 5.8959C16.4219 5.97764 16.5128 6.0714 16.6272 6.12814C16.9604 6.29402 17.3768 6.10145 17.7281 6.22478C18.0045 6.32191 18.1904 6.62843 18.1488 6.91836C18.125 7.08352 18.037 7.24628 18.0747 7.40879C18.1368 7.67565 18.4808 7.75426 18.7539 7.73142C19.027 7.70882 19.3328 7.64728 19.5508 7.81316C19.7874 7.99299 19.7912 8.34951 19.7121 8.63608C19.6328 8.92241 19.4924 9.20393 19.5181 9.49987C19.9432 9.72273 20.5569 9.39385 20.906 9.72345C21.1628 9.96602 21.0784 10.3855 20.9786 10.7243C20.8789 11.063 20.8067 11.4888 21.0753 11.7181C21.3676 11.9679 21.8667 11.7955 22.1622 12.0415C22.4826 12.3083 22.3266 12.8156 22.2011 13.2132C22.0576 13.6688 21.9915 14.1487 22.0071 14.6261C22.0112 14.7514 22.0237 14.8848 22.1004 14.9841C22.2141 15.1319 22.4302 15.1543 22.6141 15.1221C22.7978 15.0899 22.9759 15.016 23.1625 15.0177C23.6051 15.0218 23.9381 15.4548 24.0272 15.8883C24.1164 16.3219 24.0347 16.7703 24.0385 17.2129C24.0402 17.4194 24.1191 17.6853 24.3254 17.6913C24.3939 18.1168 23.9299 18.5409 24.1066 18.934C24.1554 19.0427 24.247 19.1254 24.3138 19.2239C24.4734 19.4602 24.473 19.7939 24.3124 20.0295C24.1518 20.2651 23.8412 20.3877 23.563 20.3252" stroke="black" stroke-width="0.213696" stroke-linecap="round" stroke-linejoin="round"/>
<path d="M13.9312 5.40757C14.5502 5.07533 15.3674 5.15851 15.9066 5.60879C16.0044 5.69053 16.0953 5.78429 16.2097 5.84103C16.543 6.00691 16.9593 5.81434 17.3106 5.93767C17.587 6.0348 17.7729 6.34132 17.7313 6.63125C17.7075 6.79641 17.6195 6.95917 17.6572 7.12169C17.7193 7.38854 18.0633 7.46715 18.3364 7.44431C18.6095 7.42172 18.9153 7.36017 19.1334 7.52605C19.3699 7.70588 19.3738 8.0624 19.2947 8.34897C19.2153 8.6353 19.0749 8.91682 19.1007 9.21276C19.5257 9.43562 20.1395 9.10674 20.4885 9.43634C20.7453 9.67891 20.6609 10.0984 20.5611 10.4372C20.4614 10.7759 20.3893 11.2017 20.6578 11.431C20.9501 11.6808 21.4492 11.5084 21.7447 11.7544C22.0651 12.0212 21.9091 12.5285 21.7836 12.9261C21.6401 13.3817 21.574 13.8615 21.5896 14.339C21.5937 14.4642 21.6062 14.5977 21.6829 14.697C21.7966 14.8448 22.0127 14.8672 22.1966 14.835C22.3803 14.8027 22.5585 14.7289 22.745 14.7306C23.1876 14.7347 23.5206 15.1677 23.6098 15.6011C23.699 16.0348 23.6172 16.4832 23.6211 16.9258C23.6227 17.1323 23.7016 17.3982 23.9079 17.4042C23.9764 17.8297 23.5124 18.2538 23.6891 18.6469C23.7379 18.7555 23.8295 18.8382 23.8963 18.9368C24.056 19.1731 24.0555 19.5068 23.8949 19.7424C23.7343 19.978 23.4237 20.1006 23.1455 20.0381" stroke="black" stroke-width="0.213696" stroke-linecap="round" stroke-linejoin="round"/>
<path d="M9.23378 6.84122C8.98592 6.69481 8.65151 6.78761 8.4414 6.98451C8.23128 7.1814 8.11877 7.45883 8.02285 7.73026C7.92692 8.00168 7.83773 8.2832 7.65935 8.50918C7.39394 8.84503 6.95687 9.02413 6.72921 9.38691C6.4061 9.90163 6.61429 10.5851 6.44769 11.1695C6.32772 11.5903 6.01712 11.942 5.9272 12.3699C5.74978 13.2135 6.46644 14.1196 6.11352 14.9062C5.98418 15.1949 5.72959 15.4067 5.55721 15.6719C5.32378 16.0308 5.25141 16.4905 5.3632 16.904C5.41561 17.0978 5.50697 17.2867 5.49928 17.4872C5.49303 17.6548 5.41778 17.8113 5.34397 17.9618C5.1841 18.2885 5.02423 18.6155 4.86436 18.9422C4.79704 19.0795 4.72853 19.2232 4.72901 19.3761C4.72997 19.6476 4.94249 19.8654 5.14059 20.0512C5.20886 20.1154 5.28123 20.1817 5.3721 20.2053C5.48509 20.2346 5.60265 20.1918 5.71132 20.1498C6.11496 19.9937 6.51861 19.8375 6.92225 19.6815" stroke="black" stroke-width="0.213696" stroke-linecap="round" stroke-linejoin="round"/>
<path d="M9.78164 6.11075C9.53377 5.96435 9.19937 6.05714 8.98925 6.25404C8.77913 6.45093 8.66662 6.72837 8.5707 6.99979C8.47477 7.27121 8.38558 7.55273 8.2072 7.77871C7.94179 8.11456 7.50473 8.29367 7.27706 8.65644C6.95395 9.17116 7.16214 9.85464 6.99554 10.4391C6.87558 10.8598 6.56497 11.2115 6.47505 11.6394C6.29763 12.483 7.01429 13.3891 6.66137 14.1757C6.53203 14.4645 6.27744 14.6763 6.10507 14.9415C5.87163 15.3004 5.79927 15.76 5.91106 16.1735C5.96347 16.3673 6.05482 16.5563 6.04713 16.7568C6.04088 16.9243 5.96563 17.0808 5.89182 17.2313C5.73195 17.5581 5.57208 17.885 5.41221 18.2117C5.34489 18.349 5.27638 18.4928 5.27686 18.6457C5.27782 18.9171 5.49034 19.1349 5.68844 19.3207C5.75671 19.3849 5.82908 19.4513 5.91995 19.4748C6.03294 19.5042 6.1505 19.4614 6.25917 19.4193C6.66281 19.2633 7.06646 19.107 7.47011 18.951" stroke="black" stroke-width="0.213696" stroke-linecap="round" stroke-linejoin="round"/>
<path d="M11.4277 7.43555C11.4277 7.43555 11.3438 7.5507 11.2065 7.75505" stroke="black" stroke-width="0.213696" stroke-linecap="round" stroke-linejoin="round"/>
<path d="M14.3997 14.4316C13.8684 14.8173 13.0354 15.3567 12.1689 15.6623" stroke="black" stroke-width="0.213696" stroke-linecap="round" stroke-linejoin="round"/>
<path d="M24.2597 19.9915C24.2489 19.9266 24.234 19.8502 24.2167 19.766C24.1251 19.3196 23.971 18.6611 24.0652 18.3789C24.2035 17.9642 24.3244 17.4456 23.8577 17.2038C23.3911 16.9619 23.3048 16.7718 23.3221 16.2359C23.3353 15.8178 23.1279 15.3997 22.8552 14.9733C22.7785 14.8533 22.6968 14.7328 22.6134 14.6114C22.5889 14.5759 22.5677 14.5417 22.5487 14.5085C22.2773 14.026 22.5783 13.7811 22.3196 13.2635C22.2634 13.151 22.19 13.0622 22.1085 12.9875C21.7893 12.6947 21.345 12.6189 21.3173 12.1922C21.3152 12.1593 21.3137 12.1251 21.313 12.0903C21.2996 11.558 21.4106 10.8228 20.9889 10.4985C20.9416 10.462 20.8959 10.4264 20.8524 10.3908C20.4887 10.0968 20.2545 9.83235 20.1146 9.39721C20.1122 9.39 20.1098 9.38279 20.1076 9.37534C19.9528 8.87625 19.935 8.48005 19.3717 8.23772C19.3693 8.23676 19.3669 8.23556 19.3645 8.2346C19.1561 8.14613 19.0469 7.98409 18.9738 7.80018C18.8467 7.48091 18.8282 7.09674 18.5868 6.92124C18.4639 6.83181 18.3175 6.80945 18.1613 6.80344C17.8338 6.79094 17.4622 6.85152 17.1698 6.52385C17.0667 6.40845 16.9854 6.29209 16.9147 6.18151C16.6885 5.82859 16.5705 5.53481 16.2022 5.52158C16.0312 5.51557 15.8257 5.5526 15.6156 5.59443C15.2956 5.65862 14.9648 5.73434 14.7273 5.68747C14.6789 5.67785 14.6345 5.66342 14.5948 5.64251C14.232 5.45235 14.2837 5.07226 13.8173 5.21049C13.5043 5.30329 13.2923 5.41148 13.1136 5.51461C13.0259 5.5651 12.9463 5.61438 12.8667 5.65982C12.8667 5.65982 12.1333 4.8756 11.6495 5.18092C11.1656 5.486 10.6406 6.01106 10.4437 6.05481C10.3857 6.06779 10.2879 6.06923 10.1725 6.07164C9.89625 6.07741 9.51977 6.08847 9.35004 6.27358C9.10939 6.53611 8.95625 7.26455 8.67209 7.4362C8.38769 7.60785 7.60011 8.15478 7.49072 8.43918C7.38133 8.72335 7.49072 9.09526 7.33758 9.48905C7.18444 9.88284 6.70338 10.5608 6.57212 10.9327C6.44086 11.3046 6.92215 11.764 6.79089 12.1795C6.65963 12.5951 6.26584 13.2514 6.24396 13.5577C6.23963 13.6198 6.24396 13.6818 6.25358 13.7474C6.29036 14.0042 6.40119 14.3121 6.33147 14.8701C6.31536 14.9995 6.28267 15.1175 6.23987 15.2266C6.05115 15.7089 5.66313 16.0186 5.60952 16.3575C5.58308 16.5253 5.65977 16.7287 5.75088 16.9388C5.88551 17.2494 6.05091 17.5752 5.95956 17.8231C5.95956 17.8231 5.95355 17.8264 5.94249 17.8332C5.8432 17.8925 5.3405 18.2058 5.2816 18.5013C5.24891 18.6642 5.39123 18.9227 5.51841 19.1821C5.62299 19.3953 5.71747 19.6091 5.69631 19.7701C7.03491 19.3855 8.99736 19.0537 10.38 18.8087C10.5026 18.6936 10.6252 18.594 10.7451 18.5164C10.943 18.3883 11.1341 18.319 11.3089 18.3344C11.3471 18.3248 11.376 18.3445 11.376 18.3445C11.5308 18.0887 11.8089 17.843 12.1046 18.0416C12.1893 17.2583 12.1703 15.6623 12.1703 15.6623C11.3142 15.9647 10.4256 16.0385 9.76378 15.5098C8.85528 14.7843 8.7608 13.6137 9.0303 12.3865C9.44043 10.518 10.6949 8.51804 11.2067 7.75594C11.2127 7.77638 11.5053 8.75508 11.8818 8.94332C12.2619 9.13324 12.9187 9.06425 13.2814 9.32341C13.6445 9.58257 13.6961 10.2911 13.9382 10.4985C14.1801 10.706 15.1653 10.8789 15.2862 11.1897C15.4071 11.5008 15.1824 12.0883 15.5108 12.3651C15.8392 12.6415 16.2192 12.4514 16.3921 12.9007C16.5649 13.35 16.0134 13.9635 16.3589 14.3436C16.7046 14.7237 16.9559 14.8506 16.9215 15.432C16.8869 16.0135 16.3745 16.6559 16.6856 17.1917C16.7734 17.343 16.8681 17.4992 16.9611 17.6591C16.9698 17.6738 16.9784 17.6887 16.9869 17.7038C17.0886 17.8793 17.1871 18.0587 17.2715 18.2397C17.3552 18.419 17.4249 18.5998 17.4696 18.7801C17.4809 18.8251 17.4903 18.8698 17.4982 18.9145C17.6018 19.5021 17.3254 20.1762 17.792 20.4353C18.2586 20.6945 18.9325 20.0033 19.3128 20.0206C19.3147 20.0206 19.3167 20.0209 19.3186 20.0211C19.6977 20.0408 20.1619 20.3317 20.6262 20.3317C21.0904 20.3317 21.9568 20.1935 22.1468 20.2798C22.3369 20.3663 22.9764 21.0748 23.4603 20.8157C23.944 20.5563 24.2205 20.3663 24.2724 20.1935C24.2823 20.1603 24.2758 20.0887 24.2597 19.9915ZM17.3311 18.3445C17.3311 18.3445 17.3583 18.3094 17.3886 18.3351C17.3691 18.3373 17.3501 18.3402 17.3311 18.3445Z" fill="#3D0027" stroke="black" stroke-width="0.213696" stroke-linecap="round" stroke-linejoin="round"/>
<path d="M24.2597 19.9915C24.2489 19.9266 24.234 19.8502 24.2167 19.766C24.1251 19.3196 23.971 18.6611 24.0652 18.3789C24.2035 17.9642 24.3244 17.4456 23.8577 17.2038C23.3911 16.9619 23.3048 16.7718 23.3221 16.2359C23.3353 15.8178 23.1279 15.3997 22.8552 14.9733C22.7785 14.8533 22.6968 14.7328 22.6134 14.6114C22.5889 14.5759 22.5677 14.5417 22.5487 14.5085C22.2773 14.026 22.5783 13.7811 22.3196 13.2635C22.2634 13.151 22.19 13.0622 22.1085 12.9875C21.7893 12.6947 21.345 12.6189 21.3173 12.1922C21.3152 12.1593 21.3137 12.1251 21.313 12.0903C21.2996 11.558 21.4106 10.8228 20.9889 10.4985C20.9416 10.462 20.8959 10.4264 20.8524 10.3908C20.4887 10.0968 20.2545 9.83235 20.1146 9.39721C20.1122 9.39 20.1098 9.38279 20.1076 9.37534C19.9528 8.87625 19.935 8.48005 19.3717 8.23772C19.3693 8.23676 19.3669 8.23556 19.3645 8.2346C19.1561 8.14613 19.0469 7.98409 18.9738 7.80018C18.8467 7.48091 18.8282 7.09674 18.5868 6.92124C18.4639 6.83181 18.3175 6.80945 18.1613 6.80344C17.8338 6.79094 17.4622 6.85152 17.1698 6.52385C17.0667 6.40845 16.9854 6.29209 16.9147 6.18151C16.6885 5.82859 16.5705 5.53481 16.2022 5.52158C16.0312 5.51557 15.8257 5.5526 15.6156 5.59443C15.2956 5.65862 14.9648 5.73434 14.7273 5.68747C14.6789 5.67785 14.6345 5.66342 14.5948 5.64251C14.232 5.45235 14.2837 5.07226 13.8173 5.21049C13.5043 5.30329 13.2923 5.41148 13.1136 5.51461C13.0259 5.5651 12.9463 5.61438 12.8667 5.65982C12.8667 5.65982 12.1333 4.8756 11.6495 5.18092C11.1656 5.486 10.6406 6.01106 10.4437 6.05481C10.3857 6.06779 10.2879 6.06923 10.1725 6.07164C9.89625 6.07741 9.51977 6.08847 9.35004 6.27358C9.10939 6.53611 8.95625 7.26455 8.67209 7.4362C8.38769 7.60785 7.60011 8.15478 7.49072 8.43918C7.38133 8.72335 7.49072 9.09526 7.33758 9.48905C7.18444 9.88284 6.70338 10.5608 6.57212 10.9327C6.44086 11.3046 6.92215 11.764 6.79089 12.1795C6.65963 12.5951 6.26584 13.2514 6.24396 13.5577C6.23963 13.6198 6.24396 13.6818 6.25358 13.7474C6.29036 14.0042 6.40119 14.3121 6.33147 14.8701C6.31536 14.9995 6.28267 15.1175 6.23987 15.2266C6.05115 15.7089 5.66313 16.0186 5.60952 16.3575C5.58308 16.5253 5.65977 16.7287 5.75088 16.9388C5.88551 17.2494 6.05091 17.5752 5.95956 17.8231C5.95956 17.8231 5.95355 17.8264 5.94249 17.8332C5.8432 17.8925 5.3405 18.2058 5.2816 18.5013C5.24891 18.6642 5.39123 18.9227 5.51841 19.1821C5.62299 19.3953 5.71747 19.6091 5.69631 19.7701C7.03491 19.3855 8.99736 19.0537 10.38 18.8087C10.5026 18.6936 10.6252 18.594 10.7451 18.5164C10.943 18.3883 11.1341 18.319 11.3089 18.3344C11.3471 18.3248 11.376 18.3445 11.376 18.3445C11.5308 18.0887 11.8089 17.843 12.1046 18.0416C12.1893 17.2583 12.1703 15.6623 12.1703 15.6623C11.3142 15.9647 10.4256 16.0385 9.76378 15.5098C8.85528 14.7843 8.7608 13.6137 9.0303 12.3865C9.44043 10.518 10.6949 8.51804 11.2067 7.75594C11.2098 7.76628 11.2877 8.02712 11.4135 8.3048C11.5337 8.57021 11.6976 8.85148 11.8818 8.94332C12.0994 9.05199 12.4076 9.07579 12.6992 9.12507C12.9172 9.16161 13.1261 9.21258 13.2814 9.32341C13.4781 9.46381 13.5834 9.73619 13.6772 9.98934C13.7565 10.2033 13.8274 10.4033 13.9382 10.4985C14.1445 10.6755 14.8922 10.8274 15.1821 11.0611C15.2321 11.1015 15.2684 11.144 15.2862 11.1897C15.3112 11.2539 15.3216 11.3299 15.3249 11.4126C15.3379 11.7301 15.2502 12.1456 15.5108 12.3651C15.8392 12.6415 16.2192 12.4514 16.3921 12.9007C16.5649 13.35 16.0134 13.9635 16.3589 14.3436C16.7046 14.7237 16.9559 14.8506 16.9215 15.432C16.8869 16.0135 16.3745 16.6559 16.6856 17.1917C16.7734 17.343 16.8681 17.4992 16.9611 17.6591C16.9698 17.6738 16.9784 17.6887 16.9869 17.7038C17.0886 17.8793 17.1871 18.0587 17.2715 18.2397C17.3552 18.419 17.4249 18.5998 17.4696 18.7801C17.4792 18.8188 17.4876 18.8573 17.4948 18.8958C17.496 18.902 17.497 18.9083 17.4982 18.9145C17.6018 19.5021 17.3254 20.1762 17.792 20.4353C18.2586 20.6945 18.9325 20.0033 19.3128 20.0206C19.3147 20.0206 19.3167 20.0209 19.3186 20.0211C19.6977 20.0408 20.1619 20.3317 20.6262 20.3317C21.0904 20.3317 21.9568 20.1935 22.1468 20.2798C22.3369 20.3663 22.9764 21.0748 23.4603 20.8157C23.944 20.5563 24.2205 20.3663 24.2724 20.1935C24.2823 20.1603 24.2758 20.0887 24.2597 19.9915ZM17.3311 18.3445C17.3311 18.3445 17.3583 18.3094 17.3886 18.3351C17.3691 18.3373 17.3501 18.3402 17.3311 18.3445Z" fill="#3D0027" stroke="black" stroke-width="0.213696" stroke-linecap="round" stroke-linejoin="round"/>
<path d="M14.1935 29.4266C14.1935 29.4266 14.0574 29.6884 13.8815 29.9988C13.4733 29.8858 12.7898 29.6896 12.0039 29.4612C10.6398 27.4565 8.57324 24.1857 8.57324 23.9749C8.57324 23.6686 9.99742 23.163 10.0433 22.9947C10.0893 22.8262 8.43549 21.8614 8.48141 21.6165C8.51458 21.439 9.4553 19.6761 10.3794 18.8095C10.5117 18.6854 10.6436 18.5796 10.7725 18.4996C10.9603 18.3827 11.1418 18.3205 11.3084 18.3351C11.2557 18.3483 11.185 18.4173 11.1468 18.67C11.1197 18.8474 11.1086 19.1155 11.1307 19.5184C11.1766 20.3558 12.2731 23.764 13.141 26.3513C13.7178 28.0702 14.1935 29.4266 14.1935 29.4266Z" fill="#F5D256" stroke="black" stroke-width="0.213696" stroke-linecap="round" stroke-linejoin="round"/>
<path d="M11.3751 18.3438C11.3076 18.4553 11.2636 18.5691 11.2518 18.6484C11.2176 18.6551 11.1825 18.6619 11.1465 18.6686C11.1847 18.4159 11.2554 18.3469 11.308 18.3337C11.3463 18.3241 11.3751 18.3438 11.3751 18.3438Z" stroke="black" stroke-width="0.213696" stroke-linecap="round" stroke-linejoin="round"/>
<path d="M17.3885 18.3346C17.369 18.3368 17.35 18.3397 17.3311 18.344C17.3311 18.344 17.3582 18.3089 17.3885 18.3346Z" stroke="black" stroke-width="0.213696" stroke-linecap="round" stroke-linejoin="round"/>
<path d="M12.0036 29.4604C11.3807 29.2796 10.6936 29.0789 10.0276 28.8836C8.33084 28.3862 6.77251 27.9254 6.77251 27.9254L3.2599 21.5875C3.2599 21.5875 3.22264 21.1973 4.39343 20.3051C4.63864 20.1183 5.10672 19.939 5.69548 19.77C6.81194 19.4493 8.36233 19.1651 9.64828 18.9375C9.90431 18.8923 10.1498 18.8492 10.3791 18.8086C9.45499 19.6753 8.51427 21.4382 8.4811 21.6156C8.43518 21.8606 10.0889 22.8253 10.043 22.9939C9.99711 23.1622 8.57293 23.6677 8.57293 23.974C8.57293 24.1849 10.6395 27.4556 12.0036 29.4604Z" fill="#F5D256" stroke="black" stroke-width="0.213696" stroke-linecap="round" stroke-linejoin="round"/>
<path d="M5.94249 17.832C6.00067 18.0657 6.04057 18.303 6.00403 18.5388C5.961 18.8175 5.77661 19.0935 5.51841 19.181C5.39123 18.9216 5.24891 18.6631 5.2816 18.5001C5.3405 18.2047 5.8432 17.8914 5.94249 17.832Z" fill="#6D1151"/>
<path d="M6.23916 15.2266C6.24348 15.3698 6.23339 15.5117 6.19564 15.6499C6.10453 15.9834 5.85907 16.2601 5.77877 16.5964C5.75185 16.7092 5.7444 16.8238 5.75017 16.9388C5.65905 16.7286 5.58236 16.5253 5.60881 16.3574C5.66242 16.0185 6.05044 15.7088 6.23916 15.2266Z" fill="#6D1151"/>
<path d="M10.1709 6.07227C9.75666 6.53265 9.3321 6.98822 8.83061 7.35028C8.54236 7.55823 8.22093 7.74335 8.03077 8.04338C7.75502 8.47876 7.82017 9.04973 7.62303 9.52598C7.41604 10.0263 6.92513 10.414 6.88354 10.9538C6.84507 11.4504 7.20977 11.9241 7.12707 12.4152C7.03764 12.9448 6.47508 13.2629 6.25198 13.748C6.24261 13.6824 6.23804 13.6204 6.24237 13.5584C6.26424 13.2521 6.65803 12.5958 6.7893 12.1801C6.92056 11.7647 6.43926 11.3052 6.57052 10.9333C6.70179 10.5614 7.18284 9.88347 7.33599 9.48968C7.48913 9.09589 7.37974 8.72397 7.48913 8.43981C7.59851 8.15541 8.38609 7.60848 8.67049 7.43683C8.95466 7.26517 9.1078 6.53674 9.34845 6.27421C9.51817 6.08909 9.89466 6.07804 10.1709 6.07227Z" fill="#6D1151"/>
<path d="M13.1412 26.3513C13.0883 26.4239 12.9977 26.473 12.9124 26.4487C12.8386 26.4278 12.7893 26.36 12.7462 26.2965C11.5031 24.4562 10.7617 22.2807 10.6225 20.0644C10.5895 19.5831 10.589 19.083 10.7333 18.6181C10.7456 18.5784 10.7588 18.539 10.7727 18.4996C10.9605 18.3827 11.142 18.3205 11.3086 18.3351C11.2559 18.3483 11.1853 18.4173 11.147 18.67C11.1199 18.8474 11.1088 19.1155 11.1309 19.5184C11.1768 20.3558 12.2734 23.764 13.1412 26.3513Z" fill="#FFE8A9"/>
<path d="M12.7548 22.5719C12.5586 22.6019 11.2128 18.9112 11.2513 18.6496C11.2631 18.5703 11.3071 18.4566 11.3746 18.345C11.523 18.1 11.7845 17.8642 12.0663 18.0195C12.0785 18.0262 12.091 18.0337 12.1033 18.0421C12.1492 18.0731 13.3981 19.9998 13.7249 20.5039C13.7532 20.5479 13.7749 20.5811 13.7878 20.6013C14.0617 21.0237 12.9512 22.5416 12.7548 22.5719Z" fill="#49A2A6" stroke="black" stroke-width="0.213696" stroke-linecap="round" stroke-linejoin="round"/>
<path d="M17.471 19.0161C17.1943 19.8409 15.2249 22.6621 14.872 22.6385C14.6734 22.6253 14.414 22.0632 14.2171 21.5468C14.0476 21.1033 13.924 20.6934 13.924 20.6934C13.8716 20.5261 14.4825 20.2712 15.321 19.4969C15.6158 19.2245 15.8783 18.9543 16.1024 18.7086C16.6447 18.1133 16.9611 17.6602 16.9611 17.6602C16.9698 17.6748 16.9784 17.6897 16.9868 17.7049C17.1998 18.0821 17.3999 18.6321 17.4708 18.8358C17.4717 18.8903 17.4717 18.9499 17.471 19.0161Z" fill="#49A2A6" stroke="black" stroke-width="0.213696" stroke-linecap="round" stroke-linejoin="round"/>
<path d="M17.4705 19.0141C17.4712 18.9479 17.4712 18.8883 17.4702 18.834C17.488 18.8845 17.4976 18.9136 17.4976 18.9136C17.4923 18.9424 17.4832 18.9761 17.4705 19.0141Z" stroke="black" stroke-width="0.213696" stroke-linecap="round" stroke-linejoin="round"/>
<path d="M11.3747 18.3438C11.3526 18.339 11.3302 18.3356 11.3076 18.3337C11.3458 18.3241 11.3747 18.3438 11.3747 18.3438Z" stroke="black" stroke-width="0.213696" stroke-linecap="round" stroke-linejoin="round"/>
<path d="M17.3885 18.3346C17.369 18.3368 17.35 18.3397 17.3311 18.344C17.3311 18.344 17.3582 18.3089 17.3885 18.3346Z" stroke="black" stroke-width="0.213696" stroke-linecap="round" stroke-linejoin="round"/>
<path d="M17.4702 19.0152C17.4709 18.949 17.4709 18.8894 17.47 18.8351C17.47 18.8159 17.4692 18.7978 17.4688 18.7803C17.48 18.8252 17.4894 18.8699 17.4974 18.9147C17.4921 18.9435 17.4829 18.9772 17.4702 19.0152Z" stroke="black" stroke-width="0.213696" stroke-linecap="round" stroke-linejoin="round"/>
<path d="M10.9233 11.0684C10.9233 11.0684 10.3096 12.2557 10.5216 12.4231C10.7336 12.5904 11.2693 11.9879 11.2693 11.9879" stroke="black" stroke-width="0.213696" stroke-linecap="round" stroke-linejoin="round"/>
<path d="M12.0962 13.9305C11.6207 14.2276 11.1221 13.7168 11.1221 13.7168C11.1221 13.7168 11.5358 13.7189 11.9181 13.4689C12.3003 13.2189 12.4251 12.9443 12.4251 12.9443C12.4251 12.9443 12.5715 13.6336 12.0962 13.9305Z" fill="#E938B5" stroke="black" stroke-width="0.213696" stroke-linecap="round" stroke-linejoin="round"/>
<path d="M12.4251 12.9442C12.4251 12.9442 12.3003 13.2187 11.9181 13.4688C11.5358 13.7188 11.1221 13.7166 11.1221 13.7166C11.1221 13.7166 11.3428 13.1904 11.4699 13.2159C11.5974 13.2413 11.6652 13.3159 11.7161 13.2149C11.7671 13.1142 11.7077 13.0122 11.8349 12.9442C11.9623 12.8764 12.4251 12.9442 12.4251 12.9442Z" fill="#E938B5" stroke="black" stroke-width="0.213696" stroke-linecap="round" stroke-linejoin="round"/>
<path d="M12.5515 12.5801L12.4258 12.9448" stroke="black" stroke-width="0.213696" stroke-linecap="round" stroke-linejoin="round"/>
<path d="M12.3071 12.5163C12.3735 12.4949 12.4473 12.5084 12.5103 12.5387C12.5733 12.569 12.6271 12.6149 12.6798 12.6605C12.7105 12.6872 12.7432 12.7178 12.7495 12.7579" stroke="black" stroke-width="0.213696" stroke-linecap="round" stroke-linejoin="round"/>
<path d="M25.14 20.3887C24.753 20.9075 24.2007 21.3047 23.5851 21.5098C22.9117 21.7341 22.171 21.7321 21.4897 21.5316C21.3283 21.4843 21.1704 21.4259 21.0175 21.3566C20.6355 21.1838 20.2624 20.9417 19.8554 20.8828C19.789 20.8732 19.7217 20.8683 19.6534 20.8695C19.2034 20.8775 18.8036 21.1439 18.4389 21.4078C18.2429 21.5497 18.0141 21.7004 17.783 21.692C17.741 21.6903 17.6991 21.6836 17.6571 21.6703C17.4388 21.6021 17.3058 21.3852 17.2053 21.1797C17.1784 21.1246 17.1524 21.0688 17.1274 21.0124C17.315 20.3043 17.4378 19.7536 17.4527 19.4797C17.4626 19.2982 17.4681 19.1446 17.4698 19.0148C17.4825 18.9766 17.4917 18.9429 17.4969 18.9141C17.6006 19.5016 17.3241 20.1757 17.7907 20.4349C18.1013 20.6073 18.5035 20.3589 18.85 20.1786C19.0243 20.088 19.1844 20.0144 19.3116 20.0202C19.3135 20.0202 19.3154 20.0204 19.3173 20.0207C19.6964 20.0404 20.1607 20.3313 20.6249 20.3313C20.6968 20.3313 20.7783 20.3279 20.8653 20.3226C21.342 20.294 21.9849 20.2063 22.1455 20.2793C22.3357 20.3659 22.9751 21.0744 23.4591 20.8152C23.9428 20.5558 24.2193 20.3659 24.2712 20.193C24.281 20.1599 24.2746 20.0882 24.2584 19.9911C24.5099 20.0555 24.6602 20.0952 24.6705 20.1005C24.6989 20.1147 24.9018 20.2351 25.14 20.3887Z" fill="#E0B836"/>
<path d="M21.5245 22.0522C21.4796 22.1551 21.3783 22.2203 21.2827 22.2794C20.8394 22.5523 20.3963 22.8254 19.9532 23.0982C20.2838 23.3172 20.7925 23.3038 20.974 23.6565C21.0632 23.8296 21.0367 24.0378 20.9975 24.2286C20.7297 25.5276 19.995 26.651 19.2409 27.7586C18.5514 28.0877 17.8455 28.4238 17.1904 28.7349C18.5093 26.7524 20.133 24.1613 20.133 23.9745C20.133 23.6682 18.7089 23.1627 18.6629 22.9944C18.6168 22.8259 20.2708 21.8611 20.2249 21.6161C20.2124 21.55 20.0737 21.2627 19.8561 20.8836C19.7082 20.6252 19.5236 20.3244 19.318 20.0215C19.6972 20.0412 20.1614 20.3321 20.6256 20.3321C20.6975 20.3321 20.779 20.3287 20.866 20.3234C21.1343 20.6994 21.375 21.0961 21.4904 21.5325C21.5123 21.6154 21.5296 21.6995 21.5418 21.7854C21.5546 21.8748 21.5606 21.9693 21.5245 22.0522Z" fill="#E0B836"/>
<path d="M20.1321 23.9748C20.1321 24.1219 19.1243 25.7613 18.0519 27.4196C17.8886 27.4651 17.7165 27.4732 17.5566 27.4208C17.6797 26.8989 17.9855 26.4388 18.3231 26.0221C18.6606 25.6055 19.0364 25.2182 19.3352 24.773C19.4338 24.6263 19.527 24.4508 19.4787 24.2811C19.4172 24.065 19.1674 23.9753 18.9549 23.9024C18.7421 23.8298 18.499 23.6945 18.4962 23.4699C18.494 23.3029 18.632 23.1754 18.7904 23.1064C19.1496 23.3286 20.1321 23.7204 20.1321 23.9748Z" fill="#FFE8A9"/>
<path d="M12.0031 29.4604C11.3802 29.2796 10.6932 29.0789 10.0272 28.8836C9.72719 28.4564 9.44207 28.0182 9.15766 27.5806C8.77998 27 8.40254 26.4195 8.02486 25.8389C7.88542 25.6247 7.7443 25.4064 7.67001 25.1616C7.55101 24.7703 7.6164 24.338 7.7919 23.9685C7.9674 23.599 8.24651 23.2869 8.55544 23.0189C8.60761 22.9739 8.66386 22.9244 8.67708 22.8568C8.70425 22.7191 8.54799 22.6241 8.42177 22.5621C7.94865 22.3296 7.55317 21.9423 7.31108 21.4742C7.26709 21.3891 7.22718 21.2961 7.2368 21.2009C7.24834 21.0877 7.32719 20.9942 7.40388 20.9098C7.76666 20.51 8.159 20.1373 8.57635 19.795C8.93024 19.5048 9.29349 19.2274 9.64786 18.9375C9.90389 18.8923 10.1493 18.8492 10.3787 18.8086C9.45457 19.6753 8.51385 21.4382 8.48067 21.6156C8.43475 21.8606 10.0885 22.8253 10.0426 22.9939C9.99669 23.1622 8.57251 23.6677 8.57251 23.974C8.57251 24.1849 10.6391 27.4556 12.0031 29.4604Z" fill="#E0B836"/>
<path d="M13.7254 20.5039C13.7069 20.6578 13.6773 20.8107 13.6206 20.9544C13.5927 21.0249 13.5561 21.0956 13.4951 21.1405C13.3544 21.2441 13.1426 21.1638 13.0378 21.0242C12.933 20.8842 12.9027 20.7047 12.857 20.5361C12.7455 20.1231 12.5291 19.7478 12.3437 19.3622C12.1779 19.0172 11.9365 18.5184 12.0278 18.1234C12.0367 18.0852 12.0497 18.0505 12.0668 18.0195C12.079 18.0263 12.0916 18.0337 12.1038 18.0421C12.1497 18.0731 13.3987 19.9998 13.7254 20.5039Z" fill="#63BABA"/>
<path d="M25.9908 21.0865C25.9723 21.2724 23.3516 25.7144 23.1843 25.8445C23.0809 25.925 19.7481 27.5208 17.1904 28.7351C18.5093 26.7527 20.133 24.1616 20.133 23.9748C20.133 23.6685 18.7089 23.1629 18.6629 22.9947C18.6168 22.8261 20.2708 21.8614 20.2249 21.6164C20.204 21.5051 19.8255 20.7689 19.318 20.0218C19.6972 20.0415 20.1614 20.3324 20.6256 20.3324C21.0899 20.3324 21.9563 20.1941 22.1462 20.2804C22.3364 20.367 22.9759 21.0755 23.4598 20.8163C23.9435 20.5569 24.22 20.367 24.2719 20.1941C24.2818 20.161 24.2753 20.0893 24.2592 19.9922C24.5106 20.0566 24.6609 20.0963 24.6712 20.1016C24.7455 20.1386 26.0093 20.9007 25.9908 21.0865Z" stroke="black" stroke-width="0.213696" stroke-linecap="round" stroke-linejoin="round"/>
<path d="M20.133 23.9737C20.133 24.1605 18.5093 26.7516 17.1904 28.734C16.1739 29.2165 15.2798 29.6387 14.7596 29.8818C14.6163 29.6248 14.5127 29.4255 14.5127 29.4255C14.5127 29.4255 17.3769 20.8734 17.4534 19.4797C17.4632 19.2982 17.4688 19.1446 17.4704 19.0148C17.4832 18.9766 17.4923 18.9429 17.4976 18.9141C17.6012 19.5016 17.3248 20.1757 17.7914 20.4349C18.258 20.694 18.9319 20.0029 19.3122 20.0202C19.3141 20.0202 19.3161 20.0204 19.318 20.0207C19.8255 20.7679 20.2039 21.504 20.2248 21.6153C20.2707 21.8603 18.6167 22.825 18.6629 22.9936C18.7088 23.1618 20.133 23.6674 20.133 23.9737Z" stroke="black" stroke-width="0.213696" stroke-linecap="round" stroke-linejoin="round"/>
<path d="M14.1935 29.4266C14.1935 29.4266 14.0574 29.6884 13.8815 29.9988C13.4733 29.8858 12.7898 29.6896 12.0039 29.4612C10.6398 27.4565 8.57324 24.1857 8.57324 23.9749C8.57324 23.6686 9.99742 23.163 10.0433 22.9947C10.0893 22.8262 8.43549 21.8614 8.48141 21.6165C8.51458 21.439 9.4553 19.6761 10.3794 18.8095C10.7045 18.5044 11.0276 18.3104 11.3084 18.3351C11.2557 18.3484 11.185 18.4173 11.1468 18.67C11.1197 18.8474 11.1086 19.1155 11.1307 19.5184C11.2072 20.9121 14.1935 29.4266 14.1935 29.4266Z" stroke="black" stroke-width="0.213696" stroke-linecap="round" stroke-linejoin="round"/>
<path d="M12.0036 29.4604C9.79349 28.8187 6.77251 27.9254 6.77251 27.9254L3.2599 21.5875C3.2599 21.5875 3.22264 21.1973 4.39343 20.3051C4.63864 20.1183 5.10672 19.939 5.69548 19.77C7.03408 19.3853 8.99653 19.0536 10.3791 18.8086C9.45499 19.6753 8.51427 21.4382 8.4811 21.6156C8.43518 21.8606 10.0889 22.8253 10.043 22.9939C9.99711 23.1622 8.57293 23.6677 8.57293 23.974C8.57293 24.1849 10.6395 27.4556 12.0036 29.4604Z" stroke="black" stroke-width="0.213696" stroke-linecap="round" stroke-linejoin="round"/>
<path d="M16.2007 18.9138C16.1692 19.2367 16.1295 19.5797 15.9257 19.8322C15.7016 20.1091 15.3273 20.2161 15.0621 20.4541C14.7258 20.7565 14.6075 21.2239 14.4419 21.6449C14.4342 21.6643 14.425 21.6852 14.4063 21.6949C14.3738 21.7112 14.3371 21.6836 14.3121 21.6574C14.2798 21.6235 14.2481 21.5867 14.2171 21.5472C14.0476 21.1037 13.924 20.6938 13.924 20.6938C13.8716 20.5265 14.4825 20.2716 15.321 19.4973C15.6158 19.2249 15.8783 18.9547 16.1024 18.709C16.1387 18.7256 16.1716 18.7487 16.1889 18.7835C16.2089 18.8232 16.205 18.8698 16.2007 18.9138Z" fill="#63BABA"/>
<path d="M14.5935 5.64327C14.6331 5.66418 14.6776 5.67861 14.7259 5.68822C14.7091 5.69303 14.6925 5.69832 14.6759 5.70337C14.2115 5.84786 13.3924 6.09067 13.1123 5.51537C13.2909 5.41223 13.503 5.30405 13.816 5.21125C14.2824 5.07302 14.2307 5.4531 14.5935 5.64327Z" fill="#6D1151"/>
<path d="M16.9134 6.18205C16.6598 6.13637 16.4143 6.0717 16.2013 5.93251C16.0763 5.85077 15.9669 5.74571 15.8352 5.67551C15.7643 5.63776 15.6902 5.6118 15.6143 5.59497C15.8244 5.55314 16.0299 5.51612 16.2009 5.52213C16.5692 5.53535 16.6872 5.82913 16.9134 6.18205Z" fill="#6D1151"/>
<path d="M18.9727 7.79947C18.7883 7.71821 18.5787 7.65426 18.4316 7.52492C18.2313 7.3487 18.1734 7.07752 18.1602 6.80273C18.3164 6.80874 18.4628 6.8311 18.5857 6.92053C18.8271 7.09603 18.8456 7.48021 18.9727 7.79947Z" fill="#6D1151"/>
<path d="M20.106 9.3759C20.1082 9.38335 20.1106 9.39056 20.113 9.39777C20.0745 9.37469 20.0365 9.35137 19.999 9.32733C19.698 9.13404 19.4093 8.85493 19.3783 8.49864C19.3708 8.41234 19.379 8.32387 19.3701 8.23828C19.9334 8.48061 19.9512 8.87681 20.106 9.3759Z" fill="#6D1151"/>
<path d="M21.3118 12.0911C20.7375 11.786 20.4843 10.9438 20.8512 10.3916C20.8947 10.4272 20.9404 10.4628 20.9878 10.4993C21.4094 10.8236 21.2984 11.5588 21.3118 12.0911Z" fill="#6D1151"/>
<path d="M22.5486 14.5074C22.3385 14.4233 22.0774 14.3694 21.9348 14.2016C21.7204 13.9494 21.863 13.5676 22.0026 13.2676C22.0433 13.1803 22.0812 13.0842 22.1084 12.9863C22.1899 13.0611 22.2632 13.1498 22.3195 13.2623C22.5782 13.7799 22.2772 14.0249 22.5486 14.5074Z" fill="#6D1151"/>
<path d="M24.2158 19.7664C24.1029 19.6924 24.0048 19.5928 23.9326 19.4796C23.7562 19.2034 23.712 18.8615 23.7276 18.5341C23.7425 18.2165 23.8088 17.8917 23.7245 17.5852C23.6006 17.1364 23.1876 16.8342 22.9508 16.4334C22.7229 16.048 22.6681 15.5648 22.8037 15.1381C22.821 15.0837 22.8414 15.0289 22.8544 14.9736C23.127 15.4001 23.3345 15.8182 23.3213 16.2363C23.304 16.7721 23.3903 16.9623 23.8569 17.2041C24.3236 17.446 24.2026 17.9646 24.0644 18.3793C23.9702 18.6615 24.1243 19.32 24.2158 19.7664Z" fill="#6D1151"/>
<path d="M12.7548 22.572C12.5586 22.602 11.2128 18.9112 11.2513 18.6497C11.2631 18.5703 11.3071 18.4566 11.3746 18.3451C11.5294 18.0893 11.8076 17.8436 12.1033 18.0422C12.1533 18.0758 13.6258 20.3513 13.7878 20.6013C14.0617 21.0237 12.9512 22.5417 12.7548 22.572Z" stroke="black" stroke-width="0.213696" stroke-linecap="round" stroke-linejoin="round"/>
<path d="M17.471 19.0161C17.1943 19.8409 15.2249 22.6621 14.872 22.6385C14.5027 22.6138 13.924 20.6934 13.924 20.6934C13.8716 20.5261 14.4825 20.2712 15.321 19.4969C16.3296 18.5648 16.9611 17.6602 16.9611 17.6602C16.9698 17.6748 16.9784 17.6897 16.9868 17.7049C17.1998 18.0821 17.3999 18.6321 17.4708 18.8358C17.4717 18.8903 17.4717 18.9499 17.471 19.0161Z" stroke="black" stroke-width="0.213696" stroke-linecap="round" stroke-linejoin="round"/>
<path d="M11.2695 7.80078C11.1027 7.97508 11.1852 8.46215 11.2335 8.69847C11.2578 8.81699 11.2849 8.94128 11.3638 9.03312C11.4544 9.1389 11.5963 9.18289 11.7314 9.21631C12.0386 9.29228 12.3531 9.33988 12.6692 9.35791C12.7663 9.36344 12.8659 9.3668 12.9555 9.40407C13.1406 9.48124 13.2392 9.68222 13.301 9.87286C13.3628 10.0635 13.4087 10.2698 13.5448 10.4169C13.8465 10.7431 14.4538 10.6419 14.7172 10.9997C14.8608 11.1946 14.848 11.4588 14.8413 11.7009C14.8346 11.943 14.8533 12.2154 15.0339 12.3767C15.2053 12.5301 15.4601 12.5282 15.6899 12.5265C15.9198 12.5248 16.1801 12.5455 16.3263 12.7229C16.4703 12.8974 16.4446 13.154 16.3862 13.3725C16.3277 13.591 16.2431 13.8168 16.295 14.037C16.3056 14.0819 16.3479 14.136 16.3866 14.1108" stroke="black" stroke-width="0.213696" stroke-linecap="round" stroke-linejoin="round"/>
<path d="M11.2024 7.87695C10.8762 8.22002 10.7872 8.76791 10.988 9.1968C11.1889 9.62569 11.6666 9.90793 12.139 9.87691C12.4066 9.85936 12.7117 9.76152 12.9182 9.93269C13.0774 10.0647 13.0966 10.2981 13.1906 10.4823C13.3151 10.7263 13.5748 10.8789 13.8419 10.9398C14.1089 11.0006 14.3871 10.9828 14.6604 10.9645" stroke="black" stroke-width="0.213696" stroke-linecap="round" stroke-linejoin="round"/>
<path d="M12.1044 18.0419C11.8087 17.8433 11.5305 18.089 11.3757 18.3448C11.3757 18.3448 11.3469 18.3251 11.3086 18.3347C11.1338 18.3193 10.9427 18.3885 10.7449 18.5167C10.7374 18.4255 10.7328 18.3342 10.7297 18.2436C10.7213 18.0041 10.7201 17.7599 10.6441 17.5324C10.5682 17.3052 10.4008 17.0932 10.1686 17.0336C9.94022 16.9749 9.70366 17.0716 9.4683 17.0874C8.94517 17.1223 8.46075 16.7348 8.2487 16.2554C8.03666 15.776 8.05061 15.2264 8.13595 14.7091C8.26986 13.8948 8.57831 13.1411 9.00094 12.4358C9.01056 12.4197 9.02042 12.4033 9.03003 12.3867C8.76053 13.614 8.85502 14.7846 9.76352 15.5101C10.4254 16.0388 11.3139 15.965 12.17 15.6625C12.17 15.6625 12.189 17.2586 12.1044 18.0419Z" fill="#210017"/>
<path d="M12.3613 8.44271C12.538 8.62734 12.6115 8.88049 12.6988 9.12523C12.4072 9.07595 12.099 9.05215 11.8814 8.94348C11.6972 8.85165 11.5333 8.57037 11.4131 8.30496C11.7143 8.15037 12.1233 8.19365 12.3613 8.44271Z" fill="#6D1151"/>
<path d="M15.1812 11.062C14.8913 10.8283 14.1436 10.6764 13.9374 10.4994C13.8265 10.4042 13.7556 10.2042 13.6763 9.99023C13.833 10.0342 13.9926 10.0739 14.1419 10.1299C14.5881 10.297 14.9603 10.6408 15.1812 11.062Z" fill="#6D1151"/>
<path d="M17.494 18.8963C17.4868 18.8578 17.4783 18.8194 17.4687 18.7807C17.424 18.6003 17.3543 18.4196 17.2706 18.2402C17.1862 18.0592 17.0877 17.8798 16.986 17.7043C16.9776 17.6892 16.9689 17.6743 16.9603 17.6596C16.8672 17.4998 16.7725 17.3435 16.6848 17.1923C16.3737 16.6564 16.886 16.014 16.9206 15.4325C16.955 14.8512 16.7037 14.7242 16.358 14.3441C16.0126 13.9641 16.5641 13.3505 16.3912 12.9012C16.2184 12.4519 15.8383 12.6421 15.5099 12.3656C15.2493 12.1461 15.337 11.7307 15.324 11.4131C15.3534 11.5121 15.3745 11.6136 15.3868 11.7165C15.3959 11.7939 15.401 11.8739 15.4365 11.9432C15.5382 12.1413 15.8099 12.1475 16.027 12.1968C16.5763 12.3221 16.9545 12.9486 16.8098 13.4929C16.7415 13.7494 16.5763 13.9831 16.5727 14.2485C16.572 14.305 16.5797 14.3639 16.61 14.4115C16.6682 14.5021 16.7869 14.5257 16.8872 14.5656C17.3076 14.7329 17.4613 15.2661 17.4031 15.715C17.3447 16.1638 17.1353 16.5804 17.0564 17.0261C17.0377 17.1319 17.0266 17.2416 17.0502 17.3464C17.0841 17.4964 17.1843 17.6207 17.2625 17.7529C17.4661 18.0981 17.5158 18.4924 17.494 18.8963Z" fill="#6D1151"/>
<path d="M24.2597 19.9915C24.1919 19.5807 23.9532 18.7143 24.0652 18.3789C24.2034 17.9642 24.3244 17.4456 23.8577 17.2038C23.3911 16.9619 23.3048 16.7718 23.3221 16.2359C23.3392 15.7003 22.9937 15.1646 22.6134 14.6114C22.2333 14.0585 22.5961 13.8166 22.3196 13.2635C22.0431 12.7105 21.3519 12.7278 21.3173 12.1922C21.2827 11.6563 21.4382 10.8442 20.9889 10.4985C20.5396 10.1528 20.2631 9.87635 20.1076 9.37534C19.952 8.87408 19.9347 8.47669 19.3645 8.2346C18.7942 7.99274 18.9671 7.19771 18.5868 6.92124C18.2067 6.64477 17.6018 7.00779 17.1698 6.52385C16.7378 6.0399 16.6858 5.53889 16.2021 5.52158C15.7182 5.50427 14.9578 5.83267 14.5948 5.64251C14.232 5.45235 14.2837 5.07226 13.8173 5.21049C13.3507 5.34873 13.1086 5.52158 12.8667 5.65982C12.8667 5.65982 12.1332 4.8756 11.6495 5.18092C11.1656 5.486 10.6405 6.01106 10.4436 6.05481C10.247 6.09856 9.59066 6.01106 9.35001 6.27358C9.10936 6.53611 8.95622 7.26455 8.67206 7.4362C8.38766 7.60785 7.60008 8.15478 7.49069 8.43918C7.38131 8.72335 7.49069 9.09526 7.33755 9.48905C7.18441 9.88284 6.70335 10.5608 6.57209 10.9327C6.44083 11.3046 6.92213 11.764 6.79086 12.1795C6.6596 12.5951 6.26581 13.2514 6.24393 13.5577C6.22206 13.8638 6.41895 14.17 6.33144 14.8701C6.24393 15.5699 5.67513 15.9419 5.60949 16.3575C5.54386 16.7732 6.11267 17.4074 5.95953 17.8231C5.95953 17.8231 5.34697 18.1731 5.28158 18.5013C5.2222 18.7982 5.7434 19.4131 5.69628 19.7701C7.03488 19.3855 8.99733 19.0537 10.3799 18.8087C10.705 18.5037 11.0281 18.3096 11.3089 18.3344C11.3471 18.3248 11.3759 18.3445 11.3759 18.3445C11.5308 18.0887 11.8089 17.843 12.1046 18.0416C12.1892 17.2583 12.1702 15.6623 12.1702 15.6623C11.3142 15.9647 10.4256 16.0385 9.76376 15.5098C7.47242 13.6799 10.3585 9.01857 11.2067 7.75594C11.2127 7.77638 11.5053 8.75508 11.8818 8.94332C12.2618 9.13324 12.9186 9.06425 13.2814 9.32341C13.6444 9.58257 13.6961 10.2911 13.9382 10.4985C14.1801 10.706 15.1653 10.8789 15.2862 11.1897C15.4071 11.5008 15.1823 12.0883 15.5107 12.3651C15.8391 12.6415 16.2192 12.4514 16.3921 12.9007C16.5649 13.35 16.0134 13.9635 16.3589 14.3436C16.7046 14.7237 16.9558 14.8506 16.9214 15.432C16.8868 16.0135 16.3745 16.6559 16.6856 17.1917C16.7734 17.343 16.8681 17.4992 16.9611 17.6591C16.9698 17.6738 16.9784 17.6887 16.9868 17.7038C17.0885 17.8793 17.1871 18.0587 17.2715 18.2397C17.3551 18.419 17.4249 18.5998 17.4696 18.7801C17.4809 18.8251 17.4903 18.8698 17.4982 18.9145C17.6018 19.5021 17.3253 20.1762 17.792 20.4353C18.2586 20.6945 18.9325 20.0033 19.3128 20.0206C19.3147 20.0206 19.3166 20.0209 19.3186 20.0211C19.6977 20.0408 20.1619 20.3317 20.6261 20.3317C21.0904 20.3317 21.9568 20.1935 22.1467 20.2798C22.3369 20.3663 22.9764 21.0748 23.4603 20.8157C23.944 20.5563 24.2205 20.3663 24.2724 20.1935C24.2823 20.1603 24.2758 20.0887 24.2597 19.9915ZM17.3311 18.3445C17.3311 18.3445 17.3583 18.3094 17.3886 18.3351C17.3691 18.3373 17.3501 18.3402 17.3311 18.3445Z" stroke="black" stroke-width="0.213696" stroke-linecap="round" stroke-linejoin="round"/>
<path d="M11.3164 10.3164H13.5318V10.7347C13.5318 11.3345 13.0449 11.8214 12.4451 11.8214H12.4033C11.8035 11.8214 11.3166 11.3345 11.3166 10.7347V10.3164H11.3164Z" fill="#E86F3A" stroke="black" stroke-width="0.213696" stroke-linecap="round" stroke-linejoin="round"/>
<path d="M8.35156 10.3164H10.5669V10.7347C10.5669 11.3345 10.0801 11.8214 9.48028 11.8214H9.43845C8.83863 11.8214 8.3518 11.3345 8.3518 10.7347V10.3164H8.35156Z" fill="#E86F3A" stroke="black" stroke-width="0.213696" stroke-linecap="round" stroke-linejoin="round"/>
<path d="M10.5679 10.7347C10.5679 10.7347 10.8128 10.3472 11.3175 10.7347" stroke="black" stroke-width="0.213696" stroke-linecap="round" stroke-linejoin="round"/>
</g>
<defs>
<clipPath id="clip0_493_8565">
<rect x="2" y="2" width="24" height="24" rx="12" fill="white"/>
</clipPath>
</defs>
</svg>
