<svg width="28" height="28" viewBox="0 0 28 28" fill="none" xmlns="http://www.w3.org/2000/svg">
<rect x="1" y="1" width="26" height="26" rx="13" stroke="white" stroke-width="2"/>
<g clip-path="url(#clip0_493_8477)">
<rect x="2" y="2" width="24" height="24" rx="12" fill="#E2E4E9"/>
<path d="M19.494 12.2117C18.6916 11.9285 18.1506 12.5362 18.1506 12.5362C18.0191 11.1048 17.5914 8.98898 17.0811 7.66384C17.0811 7.66384 17.1 7.2388 17.3647 7.22967C17.4359 7.22702 17.5246 7.25443 17.6357 7.32823C17.9237 7.5196 18.2338 8.06725 18.5228 8.77862C18.9284 9.77776 19.2921 11.0998 19.4938 12.2119L19.494 12.2117Z" fill="#6D1249" stroke="black" stroke-width="0.213696" stroke-linecap="round" stroke-linejoin="round"/>
<path d="M19.5412 14.3401C19.4541 14.4531 19.352 14.4757 19.2414 14.4343C18.8908 14.3038 18.4593 13.5304 18.1814 12.9592C18.1744 12.8267 18.1641 12.6849 18.1504 12.5356C18.1504 12.5356 18.6913 11.9276 19.4938 12.211C19.6813 13.2446 19.7292 14.0966 19.5414 14.3401H19.5412Z" fill="#F5D256" stroke="black" stroke-width="0.213696" stroke-linecap="round" stroke-linejoin="round"/>
<path d="M18.5239 8.77862C18.4857 8.78295 18.4446 8.77742 18.4088 8.76492C18.215 8.69832 18.0982 8.50335 18.0191 8.31415C17.9402 8.12519 17.878 7.91988 17.7325 7.77563C17.6654 7.70904 17.5837 7.65904 17.5116 7.59797C17.3923 7.497 17.3399 7.38064 17.3659 7.22967C17.437 7.22702 17.5258 7.25443 17.6368 7.32823C17.9248 7.5196 18.235 8.06725 18.5239 8.77862Z" fill="#961E6C"/>
<path d="M19.4943 12.2109C18.6918 11.9277 18.1509 12.5355 18.1509 12.5355C18.0194 11.1041 17.5917 8.98826 17.0813 7.66313C17.0813 7.66313 17.1116 6.97917 17.6359 7.32728C18.3285 7.78718 19.1486 10.3064 19.494 12.2107L19.4943 12.2109Z" stroke="black" stroke-width="0.213696" stroke-linecap="round" stroke-linejoin="round"/>
<path d="M17.9544 9.29885C18.1924 9.72943 18.5023 10.129 18.6408 10.6011C18.723 10.881 18.7307 11.213 18.5401 11.4337C18.5153 11.4625 18.479 11.4911 18.4427 11.4794C18.3912 11.4628 18.3949 11.3902 18.4013 11.3363C18.4227 11.1635 18.3638 10.9894 18.2785 10.8375C18.1931 10.6855 18.0818 10.5504 17.9852 10.4055C17.6609 9.91887 17.5123 9.33972 17.3693 8.77284C17.3147 8.55695 17.2601 8.34082 17.2183 8.12205C17.2 8.02613 17.0837 7.70206 17.2406 7.68884C17.3892 7.67633 17.4202 7.99343 17.4529 8.09368C17.5166 8.28914 17.5847 8.48315 17.6611 8.67379C17.7467 8.88751 17.8429 9.09715 17.9544 9.29861V9.29885Z" fill="#450832"/>
<path d="M26.4514 26.3083H3.68473C3.68473 26.3083 3.45081 22.2485 4.84254 20.7808C5.02693 20.5863 5.44019 20.3976 5.98472 20.2173C6.14868 20.1627 6.32417 20.1093 6.50905 20.0567C8.00054 19.6317 10.0907 19.2617 11.3744 18.9902L12.1601 18.9674L12.683 18.952L18.6362 18.778L18.8923 18.7705C20.6309 19.2131 24.0187 19.9257 25.0792 20.6099C25.1676 20.6673 25.2405 20.7246 25.2943 20.7813C26.6861 22.249 26.4519 26.3088 26.4519 26.3088L26.4514 26.3083Z" fill="#E86F3A" stroke="black" stroke-width="0.213696" stroke-linecap="round" stroke-linejoin="round"/>
<path d="M18.1809 13.6217C18.1643 13.8229 18.1282 13.9624 18.0701 14.0225C17.7058 14.397 17.1904 13.1508 16.9368 12.4452C16.9118 12.3747 16.8889 12.3098 16.8695 12.2526C16.8154 12.0946 16.7841 11.9934 16.7841 11.9934L16.5468 11.0614L16.2492 9.89371L16.2458 9.88L16.2052 9.72061C16.161 8.59117 16.0211 7.43673 15.7696 6.78113C15.7684 6.77705 15.767 6.77344 15.7653 6.76935C15.7607 6.75805 15.7564 6.747 15.7518 6.73594C15.7386 6.703 15.7249 6.67151 15.7109 6.64146C15.7597 6.53568 15.8862 6.34455 16.1521 6.40369C16.2139 6.4174 16.2829 6.44456 16.3603 6.48928C16.5892 6.62126 16.8207 7.01361 17.0382 7.55477C17.0524 7.59011 17.0666 7.62593 17.0805 7.66223C17.2979 8.22623 17.5001 8.93399 17.671 9.67085C17.834 10.3738 17.9681 11.1034 18.0595 11.7614C18.121 12.2026 18.1626 12.6115 18.1811 12.958C18.1948 13.2186 18.1953 13.4441 18.1807 13.6215L18.1809 13.6217Z" fill="#6D1249" stroke="black" stroke-width="0.213696" stroke-linecap="round" stroke-linejoin="round"/>
<path d="M17.0379 7.55561C17.0225 7.62173 17.0045 7.68712 16.9838 7.75179C16.8881 7.77607 16.785 7.73496 16.7114 7.66885C16.6379 7.60297 16.5881 7.51547 16.5393 7.42964C16.4405 7.2551 16.3419 7.08033 16.2431 6.90603C16.1972 6.82453 16.1503 6.74159 16.1284 6.65023C16.109 6.5685 16.1118 6.47762 16.1515 6.4043C16.2133 6.418 16.2823 6.44517 16.3597 6.48988C16.5886 6.62187 16.8201 7.01421 17.0377 7.55537L17.0379 7.55561Z" fill="#961E6C"/>
<path d="M18.1807 13.6215C18.1641 13.8228 18.128 13.9622 18.0698 14.0223C17.7056 14.3969 17.1902 13.1506 16.9365 12.445C16.9115 12.3745 16.8887 12.3096 16.8692 12.2524C16.8151 12.0945 16.7839 11.9933 16.7839 11.9933L16.5466 11.0612L16.249 9.89353L16.205 9.72043C16.1574 8.50589 15.9992 7.26225 15.7109 6.64152C15.7708 6.51122 15.9492 6.25133 16.3603 6.48934C16.6041 6.63022 16.8507 7.06584 17.0805 7.66229C17.2979 8.22629 17.5001 8.93405 17.671 9.67091C17.834 10.3739 17.9681 11.1035 18.0595 11.7615C18.121 12.2027 18.1626 12.6116 18.1811 12.958C18.1948 13.2186 18.1953 13.4441 18.1807 13.6215Z" stroke="black" stroke-width="0.213696" stroke-linecap="round" stroke-linejoin="round"/>
<path d="M16.4335 9.78095C16.4032 9.85018 16.3335 9.92423 16.2647 9.89322C16.2575 9.89009 16.251 9.886 16.2453 9.88096L16.2046 9.72157C16.1604 8.59212 16.0205 7.43768 15.769 6.78209L15.6856 6.78954L15.6567 6.79194C15.6827 6.7643 15.7154 6.74627 15.7512 6.73689C15.8212 6.7191 15.9022 6.73425 15.9649 6.77319C16.0594 6.83209 16.1198 6.93258 16.1693 7.03259C16.4938 7.68602 16.5073 8.44451 16.514 9.17415C16.516 9.37994 16.5164 9.59271 16.4333 9.78071L16.4335 9.78095Z" fill="#450832"/>
<path d="M18.0598 11.7631C17.7482 12.0119 17.301 12.1739 16.8693 12.254C16.889 12.3112 16.9116 12.3761 16.9366 12.4466C16.9582 12.7411 17.0029 13.3305 17.0645 14.0426C17.0645 14.0426 17.0645 14.0431 17.0647 14.0443C17.233 15.9988 17.5265 18.2193 17.8107 18.4426C17.8107 18.4426 16.969 21.8922 14.7046 21.8922C12.4402 21.8922 12.4498 18.677 12.4498 18.677C12.6652 18.5075 12.7071 18.3813 12.6948 17.6389C12.6857 17.0915 12.647 16.5652 12.6268 16.3208C12.6193 16.2301 12.6143 16.1782 12.6143 16.1782C12.1056 16.3393 11.5668 16.4184 11.0619 16.3188C10.5609 16.2198 10.0933 15.9452 9.72071 15.4005C9.39327 14.9221 9.28172 14.3357 9.31321 13.7027C9.35144 12.9291 9.60339 12.0862 9.93611 11.2868C10.2965 10.4199 10.7523 9.60421 11.1336 8.98372C11.1353 8.98107 11.2939 8.91063 11.5529 8.82865C11.938 8.70676 12.545 8.55988 13.1864 8.5731C13.1393 9.74269 13.1874 11.4099 13.8449 11.4087C13.9783 11.4085 14.0791 11.1051 14.151 10.6844C14.2079 10.3507 14.2466 9.94295 14.2695 9.55445C14.2478 9.94319 14.2099 10.3514 14.1536 10.6853C14.1536 10.6853 14.4007 12.5374 14.8852 12.3112C14.9659 12.2735 15.0258 12.1388 15.0679 11.9381C15.2186 12.4254 15.4718 12.9334 15.8675 12.8824C16.1269 12.8488 16.2545 11.451 16.2122 9.94535C16.2242 9.92828 16.2365 9.91145 16.2488 9.89487C16.305 9.81986 16.3658 9.74894 16.4312 9.68571C16.7421 9.38592 17.1553 9.26043 17.6708 9.67225C17.7516 9.73668 17.835 9.81457 17.9208 9.90689C18.0134 10.0064 18.0927 10.1026 18.1598 10.1956C18.6682 10.8957 18.4966 11.4145 18.0593 11.7628L18.0598 11.7631Z" fill="#94624B" stroke="black" stroke-width="0.213696" stroke-linecap="round" stroke-linejoin="round"/>
<path d="M14.9236 15.0322C14.9255 16.1186 14.2882 17.1824 13.3292 17.6928C13.2169 17.7525 13.0926 17.8065 12.9669 17.7888C12.8616 17.7738 12.7736 17.7121 12.6955 17.6373C12.6863 17.0899 12.6476 16.5636 12.6274 16.3191C12.7137 16.2374 12.8082 16.1631 12.9022 16.09L14.9236 15.0322Z" fill="#663421"/>
<path d="M11.5603 9.07213C11.4754 9.33441 11.3336 9.58516 11.2391 9.84624C10.8521 10.9139 10.6713 12.0554 10.7054 13.1906C10.7244 13.8286 10.8117 14.4647 10.9684 15.0835C11.042 15.3749 11.1314 15.6677 11.1247 15.9683C11.122 16.0853 11.1016 16.2055 11.0619 16.3173C10.5609 16.2183 10.0933 15.9437 9.7207 15.399C9.39327 14.9205 9.28172 14.3342 9.31321 13.7012C9.35144 12.9276 9.60339 12.0847 9.93611 11.2853C10.2965 10.4184 10.7523 9.60271 11.1336 8.98221C11.1353 8.97957 11.2939 8.90913 11.5529 8.82715C11.5865 8.89278 11.5908 8.97692 11.5603 9.07213Z" fill="#AD8679"/>
<path d="M12.9174 9.31125C12.8903 9.94064 12.8636 10.5768 12.9804 11.1958C13.0177 11.3932 13.086 11.6098 13.2632 11.704C13.3956 11.7747 13.5577 11.7581 13.7 11.8062C13.9481 11.8901 14.0875 12.1466 14.2015 12.3825C14.3154 12.6183 14.4493 12.876 14.6946 12.9679C14.7794 12.9996 14.871 13.0083 14.959 13.0297C15.1665 13.0801 15.355 13.2049 15.4826 13.3761C15.5331 13.4436 15.5744 13.5186 15.6348 13.5778C15.6951 13.6369 15.7812 13.6785 15.8632 13.6583C15.9432 13.6386 16 13.5634 16.0216 13.484C16.0432 13.4047 16.0355 13.3203 16.0269 13.2383C15.919 12.2188 15.6718 11.2196 15.4093 10.2284C15.2557 9.6483 15.0799 9.04079 14.6513 8.62104C14.3933 8.36837 14.0375 8.19816 13.6776 8.22677C13.4615 8.24407 13.0804 8.35466 12.965 8.56069C12.923 8.63546 12.94 8.72994 12.9386 8.81192C12.9357 8.97828 12.9247 9.14489 12.9174 9.31125Z" fill="#7C412E"/>
<path d="M12.1557 21.1603C12.0977 21.6111 12.0114 22.0767 11.746 22.4458C11.4804 22.8148 10.9868 23.0571 10.5606 22.8992C9.94246 22.6705 9.78451 21.7837 9.17388 21.536C8.4202 21.2302 7.5665 22.1065 6.80874 21.8118C6.47289 21.6813 6.2582 21.3476 6.13631 21.0088C6.04472 20.7547 5.99423 20.4864 5.98438 20.2167C6.14833 20.1621 6.32383 20.1087 6.50871 20.0561C8.0002 19.631 10.0903 19.2611 11.3741 18.9896L12.1598 18.9668C12.2879 19.689 12.2492 20.4323 12.1554 21.1603H12.1557Z" fill="#49A2A6" stroke="black" stroke-width="0.213696" stroke-linecap="round" stroke-linejoin="round"/>
<path d="M25.0243 20.6089C24.8317 21.2299 24.4382 21.7859 23.8874 22.1307C23.3972 22.4374 22.7036 22.5524 22.2718 22.1677C21.9353 21.8679 21.8694 21.3751 21.6622 20.9748C21.3157 20.3057 20.5106 19.9081 19.7689 20.0399C19.536 20.0812 19.3117 20.1687 19.0766 20.1928C18.841 20.2168 18.5775 20.1622 18.4335 19.9745C18.257 19.7441 18.3241 19.4138 18.4265 19.1424C18.47 19.0268 18.5222 18.9037 18.5818 18.777L18.8381 18.7695C20.5765 19.2121 23.9645 19.9247 25.0245 20.6089H25.0243Z" fill="#49A2A6" stroke="black" stroke-width="0.213696" stroke-linecap="round" stroke-linejoin="round"/>
<path d="M23.6867 26.3079H16.428C16.3355 25.9595 16.3328 25.5874 16.4343 25.241C16.6482 24.5106 17.3139 23.9341 18.0674 23.8271C18.8506 23.7158 19.625 24.0728 20.4159 24.0957C20.8893 24.1094 21.3636 24.0026 21.8341 24.0543C22.5604 24.1339 23.2304 24.6193 23.5256 25.2871C23.6665 25.6059 23.7187 25.9607 23.6865 26.3077L23.6867 26.3079Z" fill="#49A2A6" stroke="black" stroke-width="0.213696" stroke-linecap="round" stroke-linejoin="round"/>
<path d="M11.6695 26.308H4.81982C4.96094 25.4401 6.04062 24.7549 6.80728 24.5902C7.82397 24.3719 8.88321 24.6398 9.85398 25.0136C10.2891 25.1812 10.7207 25.3735 11.0887 25.6598C11.3183 25.8387 11.5227 26.0577 11.6695 26.308Z" fill="#49A2A6" stroke="black" stroke-width="0.213696" stroke-linecap="round" stroke-linejoin="round"/>
<path d="M16.809 11.3696C16.9655 11.3006 17.1367 11.2652 17.3076 11.2664C17.3949 11.2672 17.4855 11.2768 17.567 11.2455C17.637 11.2186 17.6925 11.1645 17.7423 11.1085C17.7899 11.0549 17.8351 10.997 17.8572 10.9289C17.8793 10.8609 17.8745 10.7803 17.8293 10.7248C17.7906 10.6774 17.7281 10.6546 17.6673 10.651C17.6065 10.6474 17.5456 10.6604 17.486 10.6734C17.2742 10.7195 17.0612 10.7659 16.8602 10.8472C16.6758 10.9215 16.3885 11.0549 16.3347 11.2701C16.3126 11.3588 16.3575 11.428 16.4438 11.4552C16.5717 11.4953 16.6963 11.4193 16.809 11.3696Z" fill="#663421"/>
<path d="M18.1604 10.1944C18.0948 10.3091 17.9861 10.4048 17.8592 10.3889C17.7722 10.3779 17.7 10.3158 17.6462 10.2464C17.5928 10.1769 17.5522 10.0978 17.495 10.0312C17.3688 9.88431 17.162 9.81123 16.9714 9.84657C16.8403 9.87085 16.7047 9.94153 16.5817 9.8908C16.4987 9.85666 16.448 9.7742 16.4316 9.68429C16.7425 9.3845 17.1558 9.25901 17.6712 9.67083C17.752 9.73526 17.8354 9.81315 17.9212 9.90547C18.0138 10.005 18.0931 10.1012 18.1602 10.1942L18.1604 10.1944Z" fill="#AD8679"/>
<path d="M13.259 7.51465C13.2441 7.66442 13.2066 8.0724 13.1864 8.571C12.1137 8.54865 11.1376 8.97441 11.1333 8.98138C11.178 8.90854 11.2218 8.83834 11.2641 8.77127C11.2646 8.77078 11.2648 8.7703 11.265 8.76982C11.6127 8.21857 11.8735 7.86348 11.8964 7.83295C11.8971 7.83199 11.8976 7.83127 11.8976 7.83103H11.8978V7.83055C11.8978 7.83055 12.213 7.6726 12.6899 7.57956C12.8611 7.54614 13.0532 7.52114 13.2588 7.51489L13.259 7.51465Z" fill="#4C70F5" stroke="black" stroke-width="0.213696" stroke-linecap="round" stroke-linejoin="round"/>
<path d="M11.264 8.77196C11.2217 8.83904 11.1779 8.90924 11.1332 8.98208C10.8522 9.43958 10.5307 10.0026 10.237 10.6142C9.94968 10.082 9.39746 10.3731 9.39746 10.3731C9.4768 10.1769 9.54171 10.0435 9.54171 10.0435C9.78885 10.2851 10.312 9.65547 10.6449 9.1898C10.651 9.20158 10.6579 9.21191 10.6656 9.22129C10.7675 9.3439 11.0164 9.09243 11.2638 8.77148L11.264 8.77196Z" fill="#6D1249" stroke="black" stroke-width="0.213696" stroke-linecap="round" stroke-linejoin="round"/>
<path d="M9.93684 11.2852C9.60435 12.0845 9.35241 12.9274 9.31394 13.7008C8.98843 14.1898 8.65979 14.5477 8.5016 14.3143C8.12945 13.7659 9.11272 11.4934 9.11272 11.4934C9.11248 11.5799 9.12233 11.6592 9.14565 11.7275C9.23917 12.0028 9.61229 11.6604 9.93684 11.2854V11.2852Z" fill="#6D1249" stroke="black" stroke-width="0.213696" stroke-linecap="round" stroke-linejoin="round"/>
<path d="M12.6143 16.1765C13.8324 15.7907 14.8787 14.9336 14.8787 14.9336" stroke="black" stroke-width="0.213696" stroke-linecap="round" stroke-linejoin="round"/>
<path d="M16.8699 12.252C16.6918 12.2854 16.5165 12.3044 16.354 12.3099" stroke="black" stroke-width="0.213696" stroke-linecap="round" stroke-linejoin="round"/>
<path d="M15.73 10.9819C15.73 10.9819 15.8913 10.4002 16.2132 9.94434" stroke="black" stroke-width="0.213696" stroke-linecap="round" stroke-linejoin="round"/>
<path d="M16.3599 11.2432C16.3599 11.2432 17.1712 10.3027 17.8951 10.8602" stroke="black" stroke-width="0.213696" stroke-linecap="round" stroke-linejoin="round"/>
<path d="M17.2089 11.4075C17.2089 11.4075 17.2053 11.0183 17.0806 10.7812" stroke="black" stroke-width="0.213696" stroke-linecap="round" stroke-linejoin="round"/>
<path d="M18.8369 18.7696C18.8369 18.7696 17.8104 23.0198 14.6153 23.0198C11.6595 23.0198 11.3193 18.9893 11.3193 18.9893C11.9228 18.8616 12.348 18.7559 12.4497 18.6758C12.4497 18.6758 12.4401 21.891 14.7045 21.891C16.9689 21.891 17.8106 18.4414 17.8106 18.4414C17.908 18.5176 18.2912 18.6299 18.8372 18.7693L18.8369 18.7696Z" fill="#F5D256" stroke="black" stroke-width="0.213696" stroke-linecap="round" stroke-linejoin="round"/>
<path d="M14.2697 9.55361C14.2469 9.94211 14.2079 10.3498 14.1512 10.6835C14.0793 11.104 13.9786 11.4076 13.8452 11.4079C13.3725 11.4086 13.2148 10.5475 13.1812 9.62886C13.1812 9.62886 13.5891 9.17809 14.2697 9.55385V9.55361Z" fill="#F5D256" stroke="black" stroke-width="0.213696" stroke-linecap="round" stroke-linejoin="round"/>
<path d="M14.2937 8.79127C14.2935 8.97663 14.2877 9.19179 14.2766 9.41754C14.2759 9.43244 14.2752 9.44759 14.2745 9.46273C14.2745 9.46393 14.2742 9.46514 14.2742 9.46658C14.2742 9.46994 14.274 9.47331 14.2738 9.47644C14.2726 9.50216 14.2711 9.52788 14.2694 9.55385C13.5886 9.17833 13.1809 9.62886 13.1809 9.62886C13.1676 9.26944 13.1734 8.90114 13.1866 8.57226C13.2068 8.07365 13.2443 7.66568 13.2592 7.5159C13.0534 7.52215 12.8616 7.54716 12.6904 7.58057C12.6904 7.58057 12.7351 7.29184 12.9354 7.09374C12.9616 7.06754 12.9905 7.04326 13.0222 7.02138C13.0284 7.01657 13.0349 7.01249 13.0414 7.0084C13.0419 7.00816 13.0421 7.00792 13.0426 7.00768C13.0506 7.00239 13.0585 6.99782 13.0669 6.99325C13.0724 6.99037 13.078 6.98724 13.0833 6.98436C13.0885 6.98171 13.0938 6.97883 13.0994 6.97618C13.1955 6.92834 13.3141 6.90262 13.4585 6.91368C13.8699 6.94613 14.0689 7.24015 14.1728 7.62385H14.173C14.2351 7.85247 14.2634 8.11284 14.2824 8.36839C14.2903 8.47417 14.2944 8.6201 14.2937 8.79127Z" fill="#6D1249" stroke="black" stroke-width="0.213696" stroke-linecap="round" stroke-linejoin="round"/>
<path d="M13.265 7.45312C13.265 7.45312 13.2629 7.47476 13.2588 7.51467" stroke="black" stroke-width="0.213696" stroke-linecap="round" stroke-linejoin="round"/>
<path d="M15.0681 11.9381C15.0258 12.1388 14.9662 12.2735 14.8854 12.3112C14.4012 12.5372 14.1538 10.6853 14.1538 10.6853C14.2101 10.3514 14.2481 9.94319 14.2697 9.55445C14.2711 9.52849 14.2726 9.50277 14.274 9.47704C14.2743 9.47392 14.2745 9.47055 14.2745 9.46719C14.2745 9.46598 14.2748 9.46478 14.2748 9.46334C14.2755 9.44819 14.2762 9.43305 14.2769 9.41814C14.2873 9.19288 14.2925 8.97795 14.2925 8.7926C14.2928 8.69764 14.2916 8.61037 14.2887 8.5332C14.2868 8.47165 14.2839 8.41684 14.2803 8.36972C14.2606 8.11416 14.2317 7.8538 14.1695 7.62541H14.1692C14.0642 7.2422 13.8649 6.94818 13.453 6.91669C13.3513 6.90876 13.2626 6.91957 13.1855 6.94337C13.1552 6.95251 13.1266 6.96381 13.0996 6.97679C13.0941 6.97944 13.0886 6.98232 13.0835 6.98496C13.078 6.98785 13.0725 6.99098 13.0672 6.99386C13.0588 6.99843 13.0508 7.003 13.0429 7.00828C13.0424 7.00853 13.0422 7.00877 13.0417 7.00901C13.0352 7.01309 13.0287 7.01718 13.0225 7.02199C12.9907 7.04338 12.9616 7.06743 12.9352 7.09315C12.9335 7.09483 12.9321 7.09627 12.9304 7.09796C12.9304 7.09651 12.9297 7.08954 12.9289 7.07824C12.9258 7.01646 12.9229 6.82221 13.0001 6.62483C13.0749 6.43395 13.2239 6.24138 13.5187 6.16277C13.605 6.13969 13.704 6.12647 13.8173 6.12598C13.9971 6.12526 14.1531 6.17407 14.2873 6.25749C14.6096 6.45775 14.8087 6.85875 14.9178 7.25999V7.26047C14.963 7.42587 14.9926 7.59152 15.0097 7.74297C15.0722 8.3024 15.2801 10.9402 15.0683 11.9379L15.0681 11.9381Z" fill="#6D1249" stroke="black" stroke-width="0.213696" stroke-linecap="round" stroke-linejoin="round"/>
<path d="M11.2651 8.77086C11.5705 8.37442 11.8736 7.87197 11.8965 7.83398" stroke="black" stroke-width="0.213696" stroke-linecap="round" stroke-linejoin="round"/>
<path d="M12.9292 7.07812C12.9323 7.08558 12.9347 7.09063 12.9355 7.09303" stroke="black" stroke-width="0.213696" stroke-linecap="round" stroke-linejoin="round"/>
<path d="M13.1866 8.571C13.2068 8.0724 13.2443 7.66442 13.2592 7.51465C13.0534 7.5209 12.8616 7.5459 12.6904 7.57932" stroke="black" stroke-width="0.213696" stroke-linecap="round" stroke-linejoin="round"/>
<path d="M15.8675 12.8825C15.4718 12.9335 15.2186 12.4253 15.0679 11.9382C15.1566 11.5199 15.1715 10.8133 15.1544 10.0923C15.1544 10.0923 15.5727 9.43577 16.2101 9.86802C16.2108 9.89399 16.2115 9.91971 16.2122 9.94568C16.2545 11.4511 16.1269 12.8491 15.8675 12.8828V12.8825Z" fill="#F5D256" stroke="black" stroke-width="0.213696" stroke-linecap="round" stroke-linejoin="round"/>
<path d="M16.2104 9.86786C15.944 9.68707 15.7156 9.69668 15.5406 9.76929C15.2963 9.86978 15.1547 10.0922 15.1547 10.0922C15.1312 9.09374 15.0458 8.06767 15.0095 7.74288C14.967 7.36159 14.8429 6.89063 14.5989 6.55574C14.5975 6.55334 14.5958 6.55093 14.5939 6.54877C14.5804 6.53026 14.5665 6.51271 14.5523 6.4954C14.4751 6.40068 14.3871 6.31918 14.2871 6.2574C14.2871 6.2574 14.521 5.98237 14.8667 5.98838C14.8949 5.98862 14.924 5.99078 14.9538 5.99559C15.1343 6.02276 15.3401 6.13046 15.556 6.38674C15.6115 6.45261 15.6632 6.53915 15.7113 6.64301C15.744 6.71321 15.7748 6.7911 15.8038 6.87597C16.0339 7.54406 16.1633 8.64441 16.2053 9.72193C16.2073 9.77073 16.2092 9.81953 16.2106 9.86786H16.2104Z" fill="#6D1249" stroke="black" stroke-width="0.213696" stroke-linecap="round" stroke-linejoin="round"/>
<path d="M12.9356 7.0928C12.7353 7.29114 12.6906 7.57987 12.6906 7.57987C12.2136 7.67291 11.8984 7.83086 11.8984 7.83086C11.8984 7.83086 11.8984 7.8311 11.8982 7.83134C11.8982 7.83158 11.8977 7.8323 11.897 7.83326C11.8814 7.85442 11.7532 8.02872 11.5616 8.31456C11.3234 7.7157 10.9195 7.94 10.9077 7.94674C11.0173 7.69887 11.1498 7.44837 11.2916 7.22839C11.514 6.88341 11.76 6.61271 11.9775 6.54251C12.2535 6.45308 12.4653 6.53097 12.6182 6.6543C12.8036 6.80311 12.9033 7.01708 12.9286 7.07718C12.9293 7.08848 12.93 7.09545 12.93 7.09689C12.9315 7.09545 12.9329 7.09401 12.9348 7.09232C12.9351 7.09256 12.9353 7.0928 12.9353 7.09304L12.9356 7.0928Z" fill="#6D1249" stroke="black" stroke-width="0.213696" stroke-linecap="round" stroke-linejoin="round"/>
<path d="M13.0005 6.62436C12.9234 6.82174 12.9262 7.01599 12.9294 7.07777C12.8832 6.96815 12.5892 6.34501 11.9783 6.54334C11.3266 6.75442 10.4214 8.75775 10.6464 9.19073C10.3135 9.6564 9.79035 10.2858 9.54321 10.0444C9.28669 9.79439 9.72784 8.32381 10.3959 7.23909C10.7142 6.72221 11.084 6.29308 11.4545 6.12551C11.8182 5.96107 12.106 5.94929 12.3298 6.01084C12.8065 6.14162 12.9928 6.60393 13.0008 6.62412L13.0005 6.62436Z" fill="#6D1249" stroke="black" stroke-width="0.213696" stroke-linecap="round" stroke-linejoin="round"/>
<path d="M14.9533 5.99474C14.5602 5.93512 14.2867 6.25655 14.2867 6.25655C14.1523 6.17288 13.9965 6.12432 13.8167 6.12504C13.3173 6.12721 13.0964 6.37747 12.9995 6.62365C12.9995 6.6085 13.0024 5.73654 13.6688 5.58388C14.484 5.39756 14.9533 5.9945 14.9533 5.9945V5.99474Z" fill="#6D1249" stroke="black" stroke-width="0.213696" stroke-linecap="round" stroke-linejoin="round"/>
<path d="M12.9995 6.62402L13.0003 6.62643" stroke="black" stroke-width="0.213696" stroke-linecap="round" stroke-linejoin="round"/>
<path d="M18.3314 15.5896C18.3141 16.0822 18.2244 16.4748 17.9842 16.4789C17.3447 16.4892 17.0733 14.1174 17.0651 14.0431C17.0649 14.0419 17.0649 14.0414 17.0649 14.0414C17.0034 13.3293 16.9586 12.7398 16.937 12.4453C17.1904 13.1509 17.7061 14.3972 18.0703 14.0226C18.1285 13.9628 18.1645 13.8231 18.1811 13.6219C18.1811 13.6219 18.3607 14.7511 18.3314 15.5896Z" fill="#6D1249" stroke="black" stroke-width="0.213696" stroke-linecap="round" stroke-linejoin="round"/>
<path d="M19.206 17.0118C18.5805 16.9882 18.3309 15.5893 18.3309 15.5893C18.3602 14.7507 18.1807 13.6215 18.1807 13.6215C18.1953 13.4439 18.1948 13.2186 18.1811 12.958C18.4593 13.5292 18.8908 14.3029 19.2411 14.4334C19.2486 14.4663 19.8275 17.0349 19.2058 17.0118H19.206Z" fill="#6D1249" stroke="black" stroke-width="0.213696" stroke-linecap="round" stroke-linejoin="round"/>
<path d="M11.4796 11.3086C11.4796 11.3086 10.7499 12.4337 11.0456 12.6183C11.3411 12.803 11.6644 12.4984 11.6644 12.4984" stroke="black" stroke-width="0.213696" stroke-linecap="round" stroke-linejoin="round"/>
<path d="M11.7188 13.6075C11.7188 13.6075 12.7206 13.9491 13.2586 13.2012C13.2586 13.2012 13.5625 14.3186 12.7439 14.4621C11.5618 14.6693 11.7188 13.6075 11.7188 13.6075Z" fill="white" stroke="black" stroke-width="0.213696" stroke-linecap="round" stroke-linejoin="round"/>
<path d="M11.7061 20.6248C11.9133 20.4852 12.1203 20.3457 12.3275 20.2061" stroke="black" stroke-width="0.213696" stroke-linecap="round" stroke-linejoin="round"/>
<path d="M12.7622 22.3053C12.8819 22.182 13.0017 22.0586 13.1211 21.9355" stroke="black" stroke-width="0.213696" stroke-linecap="round" stroke-linejoin="round"/>
<path d="M14.7822 22.889L14.8796 22.2979" stroke="black" stroke-width="0.213696" stroke-linecap="round" stroke-linejoin="round"/>
<path d="M16.7134 22.2075C16.6199 22.0803 16.5266 21.9533 16.4331 21.8262" stroke="black" stroke-width="0.213696" stroke-linecap="round" stroke-linejoin="round"/>
<path d="M17.8937 20.7542C17.7404 20.676 17.587 20.5979 17.4336 20.5195" stroke="black" stroke-width="0.213696" stroke-linecap="round" stroke-linejoin="round"/>
<path d="M18.6426 19.1564C18.4329 19.1381 18.2233 19.1198 18.0137 19.1016" stroke="black" stroke-width="0.213696" stroke-linecap="round" stroke-linejoin="round"/>
<path d="M14.2095 11.0184C14.2095 11.0184 14.522 10.3659 15.1591 10.9619" stroke="black" stroke-width="0.213696" stroke-linecap="round" stroke-linejoin="round"/>
<path d="M14.2842 11.3766C14.4092 11.2239 14.6917 11.014 15.135 11.4105" stroke="#F5D256" stroke-width="0.213696" stroke-linecap="round" stroke-linejoin="round"/>
<path d="M16.2492 9.89435C16.2362 9.88474 16.2232 9.8756 16.2104 9.86719" stroke="black" stroke-width="0.213696" stroke-linecap="round" stroke-linejoin="round"/>
<path d="M10.2372 10.6139C10.1321 10.8322 10.0307 11.057 9.93594 11.2849C9.61139 11.6599 9.23828 12.0025 9.14476 11.727C9.12168 11.659 9.11158 11.5796 9.11182 11.4928C9.11206 11.1457 9.27265 10.6812 9.39767 10.3725C9.39767 10.3725 9.94989 10.0811 10.2372 10.6137V10.6139Z" fill="#F5D256" stroke="black" stroke-width="0.213696" stroke-linecap="round" stroke-linejoin="round"/>
<path d="M11.5611 8.31582C11.5611 8.31582 11.5611 8.31606 11.5609 8.31606C11.4739 8.44613 11.3739 8.59927 11.2652 8.7714C11.265 8.77188 11.2647 8.77236 11.2642 8.77284C11.0168 9.09379 10.768 9.34525 10.6661 9.22265C10.6584 9.21327 10.6514 9.20269 10.6454 9.19115C10.5435 8.99498 10.6738 8.47642 10.907 7.948H10.9072C10.919 7.94127 11.3229 7.71697 11.5611 8.31582Z" fill="#F5D256" stroke="black" stroke-width="0.213696" stroke-linecap="round" stroke-linejoin="round"/>
<path d="M11.5618 8.31445L11.561 8.31526C11.561 8.31526 11.5613 8.31499 11.5618 8.31445Z" fill="#F5D256" stroke="black" stroke-width="0.213696" stroke-linecap="round" stroke-linejoin="round"/>
<path d="M9.64062 8.9037C9.64062 8.9037 10.1801 8.56424 10.547 9.32418" stroke="black" stroke-width="0.213696" stroke-linecap="round" stroke-linejoin="round"/>
<path d="M8.62549 12.8378C8.62549 12.8378 9.1842 12.544 9.38061 13.1109" stroke="#F5D256" stroke-width="0.213696" stroke-linecap="round" stroke-linejoin="round"/>
<path d="M17.2593 15.1746C17.2588 15.1727 17.6249 14.6029 18.331 15.0828L17.2593 15.1746Z" fill="#6D1249"/>
<path d="M17.2593 15.1746C17.2588 15.1727 17.6249 14.6029 18.331 15.0828" stroke="black" stroke-width="0.213696" stroke-linecap="round" stroke-linejoin="round"/>
<path d="M17.2153 14.7186C17.2149 14.7167 17.581 14.1469 18.2871 14.6267L17.2153 14.7186Z" fill="#6D1249"/>
<path d="M17.2153 14.7186C17.2149 14.7167 17.581 14.1469 18.2871 14.6267" stroke="black" stroke-width="0.213696" stroke-linecap="round" stroke-linejoin="round"/>
<path d="M14.6275 6.45703L14.5938 6.54791C14.5804 6.52939 14.5664 6.51184 14.5522 6.49453C14.5756 6.47939 14.6008 6.46665 14.6273 6.45727L14.6275 6.45703Z" fill="#450832"/>
<path d="M15.5408 9.76782C15.2965 9.86831 15.1549 10.0907 15.1549 10.0907C15.1314 9.09227 15.046 8.06621 15.0097 7.74142C14.9672 7.36013 14.8431 6.88917 14.5991 6.55428C14.6664 6.48769 14.7857 6.49081 14.8674 6.54202C14.9547 6.59683 15.0085 6.69131 15.0533 6.78411C15.3321 7.36085 15.4045 8.0126 15.4728 8.64992C15.5127 9.02135 15.5523 9.39567 15.5406 9.76782H15.5408Z" fill="#450832"/>
<path d="M18.0595 11.7631C17.7479 12.0119 17.3008 12.174 16.869 12.254C16.8887 12.3112 16.9113 12.3761 16.9363 12.4466C16.958 12.7411 17.0027 13.3306 17.0642 14.0427C17.0642 14.0427 17.0642 14.0431 17.0645 14.0443C17.2328 15.9989 17.5263 18.2193 17.8105 18.4426C17.8105 18.4426 16.9688 21.8922 14.7044 21.8922C12.44 21.8922 12.4496 18.677 12.4496 18.677C12.8828 18.3366 12.614 16.178 12.614 16.178C11.6009 16.4992 10.4691 16.4941 9.7207 15.4002C9.39327 14.9218 9.28172 14.3355 9.31321 13.7025C9.35144 12.9288 9.60339 12.086 9.93611 11.2866C10.2965 10.4197 10.7523 9.60399 11.1336 8.98349C11.1379 8.97652 12.1137 8.55076 13.1867 8.57312C13.1396 9.7427 13.1876 11.4099 13.8452 11.4087C13.9786 11.4085 14.0793 11.1051 14.1512 10.6844C14.2082 10.3507 14.2469 9.94296 14.2697 9.55446C14.2481 9.94321 14.2101 10.3514 14.1538 10.6853C14.1538 10.6853 14.401 12.5375 14.8854 12.3112C14.9662 12.2735 15.026 12.1389 15.0681 11.9381C15.2189 12.4254 15.472 12.9334 15.8677 12.8824C16.1271 12.8488 16.2548 11.451 16.2125 9.94537C16.2245 9.9283 16.2367 9.91147 16.249 9.89488C16.5728 9.46263 17.0472 9.17366 17.6713 9.67226C17.752 9.73669 17.8355 9.81459 17.9213 9.9069C18.7096 10.7551 18.5552 11.3681 18.0598 11.7629L18.0595 11.7631Z" stroke="black" stroke-width="0.213696" stroke-linecap="round" stroke-linejoin="round"/>
<path d="M15.1523 5.78046L15.1162 5.78142C15.1282 5.78046 15.14 5.77998 15.1523 5.78046Z" fill="#961E6C"/>
<path d="M15.8041 6.87611C15.7938 6.954 15.7794 7.03117 15.7616 7.10762C15.7448 7.17951 15.7113 7.26365 15.6387 7.27591C15.5861 7.28481 15.5346 7.24874 15.5067 7.20331C15.4789 7.15787 15.4692 7.10402 15.4567 7.05209C15.3998 6.81529 15.2724 6.59603 15.0952 6.42895C15.011 6.34986 14.9122 6.27677 14.8726 6.16835C14.8514 6.11089 14.8502 6.04694 14.8673 5.98828C14.8954 5.98852 14.9245 5.99069 14.9543 5.99549C15.1348 6.02266 15.3406 6.13036 15.5565 6.38664C15.612 6.45251 15.6637 6.53906 15.7118 6.64291C15.7445 6.71311 15.7753 6.79101 15.8044 6.87587L15.8041 6.87611Z" fill="#961E6C"/>
<path d="M15.0681 11.9374C15.0258 12.1381 14.9662 12.2727 14.8854 12.3105C14.4012 12.5365 14.1538 10.6846 14.1538 10.6846C14.2101 10.3507 14.2481 9.94246 14.2697 9.55372C14.2711 9.52775 14.2726 9.50203 14.274 9.47631C14.2743 9.47318 14.2745 9.46981 14.2745 9.46645C14.2745 9.46525 14.2748 9.46405 14.2748 9.4626C14.2755 9.44746 14.2762 9.43231 14.2769 9.41741C14.2873 9.19214 14.2925 8.97722 14.2925 8.79186C14.293 8.62069 14.2885 8.47476 14.2803 8.36898C14.2606 8.11343 14.2317 7.85307 14.1695 7.62468H14.1692C14.0642 7.24147 13.8649 6.94745 13.453 6.91595C13.3112 6.90489 13.1948 6.93014 13.0996 6.97581C13.0941 6.97846 13.0886 6.98134 13.0835 6.98399C13.078 6.98687 13.0725 6.99 13.0672 6.99288C13.0588 6.99745 13.0508 7.00202 13.0429 7.00731C13.0424 7.00755 13.0422 7.00779 13.0417 7.00803C13.0352 7.01212 13.0287 7.0162 13.0225 7.02101C12.9907 7.04241 12.9616 7.06645 12.9352 7.09217C12.9335 7.09386 12.9321 7.0953 12.9304 7.09698C12.9304 7.09554 12.9297 7.08857 12.9289 7.07727C12.9258 7.01548 12.9229 6.82123 13.0001 6.62386C13.0967 6.37744 13.3177 6.12693 13.8173 6.12501C13.9971 6.12429 14.1531 6.17309 14.2873 6.25651C14.7428 6.53923 14.9515 7.22368 15.0094 7.74224C15.0719 8.30167 15.2799 10.9394 15.0681 11.9371V11.9374Z" stroke="black" stroke-width="0.213696" stroke-linecap="round" stroke-linejoin="round"/>
<path d="M9.93684 11.2852C9.60435 12.0845 9.35241 12.9274 9.31394 13.7008C8.98843 14.1898 8.65979 14.5477 8.5016 14.3143C8.12945 13.7659 9.11272 11.4934 9.11272 11.4934C9.11248 11.5799 9.12233 11.6592 9.14565 11.7275C9.23917 12.0028 9.61229 11.6604 9.93684 11.2854V11.2852Z" stroke="black" stroke-width="0.213696" stroke-linecap="round" stroke-linejoin="round"/>
<path d="M18.3315 15.5892C18.3315 15.5892 18.8758 14.9896 19.4228 15.4404" stroke="#F5D256" stroke-width="0.213696" stroke-linecap="round" stroke-linejoin="round"/>
<path d="M14.9172 7.25999V7.26047C14.9172 7.31745 14.9119 7.37491 14.9015 7.4314C14.8965 7.45785 14.8883 7.48718 14.8645 7.49968C14.8359 7.51483 14.801 7.49728 14.7751 7.4778C14.6118 7.35784 14.5166 7.16984 14.4123 6.9965C14.3075 6.82317 14.1745 6.64815 13.981 6.58877C13.9046 6.56545 13.8235 6.56161 13.7452 6.54598C13.6668 6.53035 13.5867 6.4991 13.5382 6.43587C13.4848 6.36567 13.4802 6.26614 13.51 6.1832C13.5125 6.17623 13.5153 6.1695 13.5182 6.16277C13.6045 6.13969 13.7036 6.12647 13.8168 6.12598C13.9966 6.12526 14.1527 6.17407 14.2868 6.25749C14.6092 6.45775 14.8083 6.85875 14.9174 7.25999H14.9172Z" fill="#961E6C"/>
<path d="M12.3289 6.01084C12.3219 6.01925 12.3144 6.02719 12.3067 6.03464C12.2399 6.09859 12.1507 6.13273 12.0656 6.16975C11.5752 6.38371 11.1518 6.74961 10.8691 7.20375C10.8203 7.28212 10.7667 7.37011 10.6773 7.39319C10.5583 7.4242 10.4633 7.33789 10.395 7.23909C10.7133 6.72221 11.0831 6.29308 11.4535 6.12551C11.8173 5.96107 12.105 5.94929 12.3289 6.01084Z" fill="#961E6C"/>
<path d="M12.6183 6.65406C12.5738 6.78051 12.4356 6.86634 12.3024 6.91009C12.1476 6.9613 11.9764 6.98534 11.8524 7.09136C11.7485 7.18031 11.6781 7.32624 11.5435 7.35172C11.4451 7.37072 11.3494 7.3123 11.2915 7.22839C11.5139 6.88341 11.7598 6.61271 11.9774 6.54251C12.2534 6.45308 12.4652 6.53097 12.6181 6.6543L12.6183 6.65406Z" fill="#961E6C"/>
<path d="M19.206 17.0118C18.5805 16.9882 18.3309 15.5893 18.3309 15.5893C18.3602 14.7507 18.1807 13.6215 18.1807 13.6215C18.1953 13.4439 18.1948 13.2186 18.1811 12.958C18.4593 13.5292 18.8908 14.3029 19.2411 14.4334C19.2486 14.4663 19.8275 17.0349 19.2058 17.0118H19.206Z" stroke="black" stroke-width="0.213696" stroke-linecap="round" stroke-linejoin="round"/>
<path d="M16.8062 11.9405C16.9354 11.9405 17.0401 11.8358 17.0401 11.7066C17.0401 11.5774 16.9354 11.4727 16.8062 11.4727C16.677 11.4727 16.5723 11.5774 16.5723 11.7066C16.5723 11.8358 16.677 11.9405 16.8062 11.9405Z" fill="#4C70F5" stroke="black" stroke-width="0.213696" stroke-linecap="round" stroke-linejoin="round"/>
<path d="M17.234 13.219C17.4866 13.1555 17.6227 12.8309 17.538 12.494C17.4533 12.1572 17.1798 11.9356 16.9272 11.9992C16.6745 12.0627 16.5384 12.3873 16.6232 12.7242C16.7079 13.061 16.9814 13.2826 17.234 13.219Z" fill="#4C70F5" stroke="black" stroke-width="0.213696" stroke-linecap="round" stroke-linejoin="round"/>
<path d="M14.5417 8.41458C14.5333 8.46242 14.5225 8.51098 14.4939 8.55017C14.4652 8.58887 14.414 8.61508 14.3679 8.60041C14.334 8.58983 14.3104 8.56026 14.2888 8.53262C14.2869 8.47107 14.284 8.41626 14.2804 8.36914C14.2607 8.11358 14.2318 7.85322 14.1695 7.62483H14.1693C14.0642 7.24162 13.8649 6.9476 13.4531 6.91611C13.3514 6.90818 13.2627 6.91899 13.1855 6.94279C13.1937 6.90144 13.2118 6.86178 13.2375 6.82836L13.2127 6.83124C13.3625 6.68436 13.593 6.63507 13.7974 6.68243C14.0015 6.73027 14.1789 6.86634 14.3013 7.03655C14.4237 7.207 14.4951 7.40967 14.5352 7.6157C14.5862 7.87871 14.5883 8.15085 14.5417 8.41434V8.41458Z" fill="#450832"/>
<path d="M12.3576 6.38169C12.2059 6.32495 12.0347 6.33409 11.8809 6.38433C11.7268 6.43458 11.588 6.52329 11.4609 6.62354C11.0505 6.94737 10.7461 7.40295 10.6038 7.90588C10.5877 7.96262 10.5757 8.02993 10.6132 8.07561C10.6538 8.12513 10.7353 8.12009 10.7875 8.08258C10.8394 8.04508 10.8692 7.98522 10.8981 7.928C11.0714 7.58301 11.2762 7.25413 11.5089 6.94617C11.6005 6.82524 11.6977 6.70624 11.8181 6.61393C11.9359 6.52401 12.0809 6.45886 12.2314 6.46054C12.3136 6.46127 12.3807 6.48723 12.455 6.51776C12.4901 6.53219 12.5396 6.55839 12.5747 6.53916C12.5403 6.46511 12.4314 6.4091 12.3576 6.38169Z" fill="#450832"/>
<path d="M12.9356 7.0929C12.7353 7.29124 12.6906 7.57997 12.6906 7.57997C12.2136 7.67301 11.8984 7.83095 11.8984 7.83095C11.8984 7.83095 11.8984 7.8312 11.8982 7.83144C11.8982 7.83168 11.8977 7.8324 11.897 7.83336C11.8814 7.85451 11.7532 8.02881 11.5616 8.31466C11.3234 7.7158 10.9195 7.9401 10.9077 7.94683C11.1892 7.30927 11.6212 6.658 11.9778 6.5426C12.5887 6.34427 12.8827 6.96741 12.9288 7.07703C12.9296 7.08833 12.9303 7.0953 12.9303 7.09675C12.9317 7.0953 12.9332 7.09386 12.9351 7.09218C12.9353 7.09242 12.9356 7.09266 12.9356 7.0929Z" stroke="black" stroke-width="0.213696" stroke-linecap="round" stroke-linejoin="round"/>
<path d="M13.0005 6.62437C12.9233 6.82174 12.9262 7.01599 12.9293 7.07778C12.8832 6.96815 12.5892 6.34501 11.9783 6.54335C11.3265 6.75443 10.4214 8.75776 10.6464 9.19073C10.3135 9.6564 9.79033 10.2858 9.54319 10.0444C9.16454 9.6754 10.3065 6.6448 11.4544 6.12552C12.5925 5.61032 12.989 6.59456 13.0007 6.62413L13.0005 6.62437Z" stroke="black" stroke-width="0.213696" stroke-linecap="round" stroke-linejoin="round"/>
<path d="M15.0681 11.9374C15.0258 12.1381 14.9662 12.2727 14.8854 12.3105C14.4012 12.5365 14.1538 10.6846 14.1538 10.6846C14.2101 10.3507 14.2481 9.94246 14.2697 9.55372C14.2711 9.52775 14.2726 9.50203 14.274 9.47631C14.2743 9.47318 14.2745 9.46981 14.2745 9.46645C14.2745 9.46525 14.2748 9.46405 14.2748 9.4626C14.2755 9.44746 14.2762 9.43231 14.2769 9.41741C14.2873 9.19214 14.2925 8.97722 14.2925 8.79186C14.293 8.62069 14.2885 8.47476 14.2803 8.36898C14.2606 8.11343 14.2317 7.85307 14.1695 7.62468H14.1692C14.0642 7.24147 13.8649 6.94745 13.453 6.91595C13.3112 6.90489 13.1948 6.93014 13.0996 6.97581C13.0941 6.97846 13.0886 6.98134 13.0835 6.98399C13.078 6.98687 13.0725 6.99 13.0672 6.99288C13.0588 6.99745 13.0508 7.00202 13.0429 7.00731C13.0424 7.00755 13.0422 7.00779 13.0417 7.00803C13.0352 7.01212 13.0287 7.0162 13.0225 7.02101C12.9907 7.04241 12.9616 7.06645 12.9352 7.09217C12.9335 7.09386 12.9321 7.0953 12.9304 7.09698C12.9304 7.09554 12.9297 7.08857 12.9289 7.07727C12.9258 7.01548 12.9229 6.82123 13.0001 6.62386C13.0967 6.37744 13.3177 6.12693 13.8173 6.12501C13.9971 6.12429 14.1531 6.17309 14.2873 6.25651C14.7428 6.53923 14.9515 7.22368 15.0094 7.74224C15.0719 8.30167 15.2799 10.9394 15.0681 11.9371V11.9374Z" stroke="black" stroke-width="0.213696" stroke-linecap="round" stroke-linejoin="round"/>
<path d="M16.2101 9.86729C15.5728 9.43503 15.1545 10.0916 15.1545 10.0916C15.1309 9.09317 15.0456 8.06711 15.0093 7.74231C14.9514 7.22375 14.7427 6.53955 14.2871 6.25659C14.2871 6.25659 14.5607 5.93468 14.9538 5.99478C15.1343 6.02195 15.3401 6.12965 15.556 6.38593C15.6115 6.4518 15.6632 6.53835 15.7113 6.6422C15.9995 7.26294 16.1577 8.50657 16.2053 9.72112C16.2073 9.76992 16.2092 9.81873 16.2106 9.86705L16.2101 9.86729Z" stroke="black" stroke-width="0.213696" stroke-linecap="round" stroke-linejoin="round"/>
</g>
<defs>
<clipPath id="clip0_493_8477">
<rect x="2" y="2" width="24" height="24" rx="12" fill="white"/>
</clipPath>
</defs>
</svg>
