<svg width="108" height="108" viewBox="0 0 108 108" fill="none" xmlns="http://www.w3.org/2000/svg">
<path d="M81 9V18M27 9V18" stroke="#CDD0D5" stroke-width="1.5" stroke-linecap="round" stroke-linejoin="round"/>
<path d="M45 76.5L45 60.0625C44.9999 59.1995 44.3846 58.5 43.6256 58.5H40.5M61.3334 76.5L67.4288 60.0712C67.7138 59.3031 67.1078 58.5 66.2431 58.5H58.5" stroke="#CDD0D5" stroke-width="1.5" stroke-linecap="round"/>
<path d="M11.25 55.0946C11.25 35.4867 11.25 25.6828 16.8845 19.5914C22.5191 13.5 31.5877 13.5 49.725 13.5H58.275C76.4123 13.5 85.4809 13.5 91.1155 19.5914C96.75 25.6828 96.75 35.4867 96.75 55.0946V57.4054C96.75 77.0133 96.75 86.8172 91.1155 92.9086C85.4809 99 76.4123 99 58.275 99H49.725C31.5877 99 22.5191 99 16.8845 92.9086C11.25 86.8172 11.25 77.0133 11.25 57.4054V55.0946Z" stroke="#CDD0D5" stroke-width="1.5" stroke-linecap="round" stroke-linejoin="round"/>
<path d="M27 36H81" stroke="#CDD0D5" stroke-width="1.5" stroke-linecap="round" stroke-linejoin="round"/>
</svg>
