<svg width="18" height="19" viewBox="0 0 18 19" fill="none" xmlns="http://www.w3.org/2000/svg">
<path d="M4.00488 2.5H5.42969C6.1635 2.5 6.64103 2.69311 6.93652 2.98926C7.2318 3.28519 7.42327 3.76196 7.41992 4.49512V5.92285C7.41986 6.65629 7.22724 7.13408 6.93066 7.43066C6.63408 7.72724 6.15629 7.91986 5.42285 7.91992H3.99707C3.26368 7.91985 2.78583 7.72723 2.48926 7.43066C2.1927 7.13408 2.00006 6.65625 2 5.92285V4.49707C2.00008 3.76375 2.19217 3.28573 2.48926 2.98926C2.78661 2.69257 3.26698 2.50002 4.00488 2.5Z" fill="white" stroke="white"/>
<path d="M12.577 2.5H14.0028C14.7362 2.50006 15.214 2.6927 15.5106 2.98926C15.8072 3.28583 15.9998 3.76368 15.9999 4.49707V5.92285C15.9998 6.65629 15.8072 7.13408 15.5106 7.43066C15.214 7.72724 14.7362 7.91986 14.0028 7.91992H12.577C11.8436 7.91985 11.3658 7.72723 11.0692 7.43066C10.7727 7.13408 10.58 6.65625 10.58 5.92285V4.49707C10.58 3.76368 10.7726 3.28583 11.0692 2.98926C11.3658 2.69269 11.8436 2.50008 12.577 2.5Z" fill="white" stroke="white"/>
<path d="M12.577 11.0723H14.0028C14.7362 11.0723 15.214 11.265 15.5106 11.5615C15.8072 11.8581 15.9998 12.3359 15.9999 13.0693V14.4951C15.9998 15.2286 15.8072 15.7064 15.5106 16.0029C15.214 16.2995 14.7362 16.4921 14.0028 16.4922H12.577C11.8436 16.4921 11.3658 16.2995 11.0692 16.0029C10.7727 15.7063 10.58 15.2285 10.58 14.4951V13.0693C10.58 12.3359 10.7726 11.8581 11.0692 11.5615C11.3658 11.265 11.8436 11.0723 12.577 11.0723Z" fill="white" stroke="white"/>
<path d="M4.00488 11.0723H5.42969C6.16344 11.0723 6.64113 11.2649 6.93652 11.5615C7.23189 11.8582 7.42329 12.3376 7.41992 13.0752V14.502C7.41992 15.2356 7.22729 15.7141 6.93066 16.0107C6.63407 16.3072 6.15616 16.4999 5.42285 16.5H3.99707C3.26368 16.4999 2.78572 16.3069 2.48926 16.0098C2.19277 15.7124 2.00006 15.2326 2 14.4951V13.0693C2.00008 12.336 2.19217 11.858 2.48926 11.5615C2.78661 11.2648 3.26698 11.0723 4.00488 11.0723Z" fill="white" stroke="white"/>
</svg>
