<svg width="26" height="24" viewBox="0 0 26 24" fill="none" xmlns="http://www.w3.org/2000/svg">
<path d="M20.3667 5.5L19.7211 15.5251C19.5562 18.0864 19.4737 19.3671 18.805 20.2879C18.4743 20.7431 18.0486 21.1273 17.5549 21.416C16.5564 22 15.2198 22 12.5466 22C9.86995 22 8.5316 22 7.53238 21.4149C7.03837 21.1257 6.61253 20.7408 6.282 20.2848C5.61344 19.3626 5.5328 18.0801 5.3715 15.5152L4.7417 5.5" stroke="#141B34" stroke-width="1.5" stroke-linecap="round"/>
<path d="M3.1792 5.5H21.9292M16.7789 5.5L16.0678 4.09173C15.5954 3.15626 15.3592 2.68852 14.9518 2.39681C14.8614 2.3321 14.7658 2.27454 14.6657 2.2247C14.2145 2 13.6731 2 12.5902 2C11.4801 2 10.925 2 10.4664 2.23412C10.3647 2.28601 10.2677 2.3459 10.1764 2.41317C9.76424 2.7167 9.53402 3.20155 9.07358 4.17126L8.44266 5.5" stroke="#141B34" stroke-width="1.5" stroke-linecap="round"/>
</svg>
