<svg width="14" height="15" viewBox="0 0 14 15" fill="none" xmlns="http://www.w3.org/2000/svg">
<path d="M12.1182 12C12.5553 12 12.9029 11.6464 13.2151 11.1519C13.8541 10.1396 12.8049 9.33063 12.4048 8.93445C11.998 8.53171 11.5438 8.30356 11.0833 8.25M10.5 6.75C11.3054 6.75 11.9583 5.91053 11.9583 4.875C11.9583 3.83947 11.3054 3 10.5 3" stroke="#525866" stroke-width="1.5" stroke-linecap="round"/>
<path d="M1.88148 12C1.44439 12 1.09673 11.6464 0.784576 11.1519C0.145559 10.1396 1.19473 9.33063 1.59488 8.93445C2.00166 8.53171 2.45585 8.30356 2.91634 8.25M3.20801 6.75C2.40259 6.75 1.74967 5.91053 1.74967 4.875C1.74967 3.83947 2.40259 3 3.20801 3" stroke="#525866" stroke-width="1.5" stroke-linecap="round"/>
<path d="M4.71523 9.83339C4.11919 10.3072 2.55642 11.2748 3.50825 12.4856C3.97321 13.077 4.49106 13.5 5.14212 13.5H8.85722C9.50829 13.5 10.0261 13.077 10.4911 12.4856C11.4429 11.2748 9.88016 10.3072 9.28412 9.83339C7.88642 8.7222 6.11292 8.7222 4.71523 9.83339Z" stroke="#525866" stroke-width="1.5" stroke-linecap="round" stroke-linejoin="round"/>
<path d="M9.04134 4.125C9.04134 5.57475 8.12726 6.75 6.99967 6.75C5.87209 6.75 4.95801 5.57475 4.95801 4.125C4.95801 2.67525 5.87209 1.5 6.99967 1.5C8.12726 1.5 9.04134 2.67525 9.04134 4.125Z" stroke="#525866" stroke-width="1.5"/>
</svg>
