<svg width="109" height="108" viewBox="0 0 109 108" fill="none" xmlns="http://www.w3.org/2000/svg">
<rect x="0.5" width="108" height="108" rx="54" fill="#F6F8FA"/>
<rect x="26.2217" y="29.2852" width="48.1432" height="60.7297" rx="3.05155" fill="#E2E4E9" stroke="#868C98" stroke-miterlimit="10"/>
<path d="M31.5132 26.55V77.0428C31.5132 81.4686 35.0984 85.0537 39.5241 85.0537H74.1565C77.1961 85.0537 79.6567 82.5931 79.6567 79.5536V26.55C79.6567 25.3197 78.6602 24.3232 77.4299 24.3232H33.74C32.5097 24.3232 31.5132 25.3197 31.5132 26.55Z" fill="white" stroke="#868C98" stroke-miterlimit="10"/>
<rect x="45.7954" y="21.1729" width="19.5791" height="6.30367" rx="1.52577" fill="#CDD0D5" stroke="#868C98" stroke-miterlimit="10"/>
<path d="M51.5811 18.6082C51.5811 16.3916 53.378 14.5947 55.5946 14.5947C57.8112 14.5947 59.6081 16.3916 59.6081 18.6082V21.1623H51.5811V18.6082Z" fill="#CDD0D5" stroke="#868C98" stroke-miterlimit="10"/>
<circle cx="55.5845" cy="18.2368" r="1.8179" fill="white"/>
<path d="M79.939 29.2842H81.8894C83.5747 29.2842 84.941 30.6504 84.941 32.3357V41.3498C84.941 43.0351 83.5747 44.4013 81.8894 44.4013H79.939V29.2842Z" fill="#E2E4E9" stroke="#868C98" stroke-miterlimit="10"/>
<path d="M79.939 64.1875H81.8894C83.5747 64.1875 84.941 65.5537 84.941 67.239V76.2531C84.941 77.9384 83.5747 79.3046 81.8894 79.3046H79.939V64.1875Z" fill="#E2E4E9" stroke="#868C98" stroke-miterlimit="10"/>
<path d="M44.3114 43.3239H40.7407" stroke="#868C98" stroke-linecap="round" stroke-linejoin="round"/>
<path fill-rule="evenodd" clip-rule="evenodd" d="M40.4672 43.1493C39.4103 42.4024 38.7765 41.0985 38.9997 39.6631C39.2413 38.1116 40.5345 36.8732 42.0943 36.6905C44.2593 36.4363 46.0965 38.1217 46.0965 40.2356C46.0965 41.4407 45.4978 42.5042 44.5831 43.1505C44.4188 43.2665 44.3111 43.4462 44.3111 43.6474V45.2941C44.3111 46.1159 43.6452 46.7819 42.8233 46.7819H42.2282C41.4063 46.7819 40.7404 46.1159 40.7404 45.2941V43.6498C40.7404 43.4468 40.6321 43.2659 40.4672 43.1493Z" stroke="#868C98" stroke-linecap="round" stroke-linejoin="round"/>
<path d="M47.2871 37.2599L47.9953 36.5518" stroke="#868C98" stroke-linecap="round" stroke-linejoin="round"/>
<path d="M37.7648 43.2109L37.0566 43.9191" stroke="#868C98" stroke-linecap="round" stroke-linejoin="round"/>
<path d="M38.36 36.6642L37.6519 35.9561" stroke="#868C98" stroke-linecap="round" stroke-linejoin="round"/>
<path d="M47.2871 43.2109L47.9953 43.9191" stroke="#868C98" stroke-linecap="round" stroke-linejoin="round"/>
<path d="M47.8823 40.2351H48.8881" stroke="#868C98" stroke-linecap="round" stroke-linejoin="round"/>
<path d="M36.1641 40.2351H37.1698" stroke="#868C98" stroke-linecap="round" stroke-linejoin="round"/>
<path d="M40.7407 44.9958H44.2341" stroke="#868C98" stroke-linecap="round" stroke-linejoin="round"/>
<rect x="52.4829" y="37.4414" width="21.2561" height="2.70099" rx="0.762887" fill="#E2E4E9"/>
<rect x="52.4829" y="42.709" width="12.2658" height="2.70099" rx="0.762887" fill="#E2E4E9"/>
<path d="M39.5244 85.0545L77.4525 85.0379C80.069 85.0379 82.19 82.9224 82.19 80.3059C82.19 77.9844 80.5087 76.0471 78.2986 75.6518L78.1483 75.624L41.1388 69.1885C44.7963 69.9345 47.5409 73.1634 47.5409 77.0436C47.5409 81.4694 43.9557 85.0545 39.5244 85.0545Z" fill="#CDD0D5" stroke="#868C98" stroke-miterlimit="10"/>
<ellipse cx="79.9391" cy="25.3376" rx="8.94596" ry="8.94596" fill="#E2E4E9" stroke="#868C98" stroke-miterlimit="10"/>
<path fill-rule="evenodd" clip-rule="evenodd" d="M74.1934 32.1949C74.4442 29.4694 76.5906 27.2928 79.3023 26.9952C77.8575 26.7006 76.7705 25.4227 76.7705 23.8909C76.7705 22.1411 78.189 20.7227 79.9388 20.7227C81.6885 20.7227 83.107 22.1411 83.107 23.8909C83.107 25.4227 82.02 26.7006 80.5753 26.9952C83.287 27.2928 85.4334 29.4693 85.6843 32.1948C84.13 33.4984 82.1261 34.2835 79.9388 34.2835C77.7515 34.2835 75.7476 33.4985 74.1934 32.1949Z" fill="#868C98"/>
<path d="M79.3023 26.9952L79.3568 27.4923C79.6016 27.4654 79.7904 27.2642 79.8017 27.0182C79.8131 26.7722 79.6435 26.5546 79.4022 26.5053L79.3023 26.9952ZM74.1934 32.1949L73.6955 32.1491C73.6804 32.3124 73.7464 32.4727 73.8721 32.578L74.1934 32.1949ZM80.5753 26.9952L80.4754 26.5053C80.234 26.5545 80.0645 26.7722 80.0758 27.0182C80.0871 27.2642 80.2759 27.4654 80.5208 27.4923L80.5753 26.9952ZM85.6843 32.1948L86.0056 32.5779C86.1313 32.4725 86.1972 32.3122 86.1822 32.149L85.6843 32.1948ZM79.3023 26.9952L79.2477 26.4982C76.3002 26.8217 73.9682 29.1866 73.6955 32.1491L74.1934 32.1949L74.6913 32.2408C74.9203 29.7523 76.8809 27.764 79.3568 27.4923L79.3023 26.9952ZM76.7705 23.8909H76.2705C76.2705 25.665 77.5294 27.144 79.2024 27.4852L79.3023 26.9952L79.4022 26.5053C78.1857 26.2572 77.2705 25.1804 77.2705 23.8909H76.7705ZM79.9388 20.7227V20.2227C77.9128 20.2227 76.2705 21.865 76.2705 23.8909H76.7705H77.2705C77.2705 22.4173 78.4651 21.2227 79.9388 21.2227V20.7227ZM83.107 23.8909H83.607C83.607 21.865 81.9647 20.2227 79.9388 20.2227V20.7227V21.2227C81.4124 21.2227 82.607 22.4173 82.607 23.8909H83.107ZM80.5753 26.9952L80.6752 27.4852C82.3481 27.1439 83.607 25.665 83.607 23.8909H83.107H82.607C82.607 25.1804 81.6919 26.2572 80.4754 26.5053L80.5753 26.9952ZM85.6843 32.1948L86.1822 32.149C85.9094 29.1864 83.5773 26.8216 80.6298 26.4982L80.5753 26.9952L80.5208 27.4923C82.9967 27.7639 84.9573 29.7522 85.1864 32.2406L85.6843 32.1948ZM85.6843 32.1948L85.363 31.8117C83.8954 33.0427 82.0042 33.7835 79.9388 33.7835V34.2835V34.7835C82.2479 34.7835 84.3647 33.9542 86.0056 32.5779L85.6843 32.1948ZM79.9388 34.2835V33.7835C77.8733 33.7835 75.9822 33.0427 74.5147 31.8118L74.1934 32.1949L73.8721 32.578C75.513 33.9543 77.6297 34.7835 79.9388 34.7835V34.2835Z" fill="#868C98"/>
<circle cx="29.0607" cy="68.0231" r="8.94596" fill="white" stroke="#868C98" stroke-miterlimit="10"/>
<path fill-rule="evenodd" clip-rule="evenodd" d="M23.3149 74.8801C23.5659 72.1549 25.7118 69.9786 28.4231 69.6806C26.9787 69.3857 25.892 68.108 25.892 66.5765C25.892 64.8267 27.3105 63.4082 29.0603 63.4082C30.8101 63.4082 32.2286 64.8267 32.2286 66.5765C32.2286 68.108 31.142 69.3857 29.6976 69.6806C32.409 69.9785 34.555 72.155 34.8059 74.8802C33.2516 76.1838 31.2477 76.9687 29.0605 76.9687C26.8732 76.9687 24.8692 76.1837 23.3149 74.8801Z" fill="#868C98"/>
<path d="M28.4231 69.6806L28.4777 70.1777C28.7225 70.1508 28.9112 69.9496 28.9225 69.7036C28.9339 69.4576 28.7644 69.24 28.5231 69.1908L28.4231 69.6806ZM23.3149 74.8801L22.817 74.8342C22.802 74.9975 22.868 75.1578 22.9936 75.2631L23.3149 74.8801ZM29.6976 69.6806L29.5976 69.1907C29.3563 69.24 29.1868 69.4576 29.1982 69.7036C29.2095 69.9496 29.3982 70.1507 29.643 70.1776L29.6976 69.6806ZM34.8059 74.8802L35.1272 75.2633C35.2528 75.1579 35.3188 74.9977 35.3038 74.8344L34.8059 74.8802ZM28.4231 69.6806L28.3685 69.1836C25.4214 69.5075 23.0898 71.872 22.817 74.8342L23.3149 74.8801L23.8128 74.9259C24.0419 72.4378 26.0022 70.4497 28.4777 70.1777L28.4231 69.6806ZM25.892 66.5765H25.392C25.392 68.3503 26.6505 69.829 28.323 70.1705L28.4231 69.6806L28.5231 69.1908C27.3069 68.9424 26.392 67.8657 26.392 66.5765H25.892ZM29.0603 63.4082V62.9082C27.0344 62.9082 25.392 64.5505 25.392 66.5765H25.892H26.392C26.392 65.1028 27.5867 63.9082 29.0603 63.9082V63.4082ZM32.2286 66.5765H32.7286C32.7286 64.5505 31.0863 62.9082 29.0603 62.9082V63.4082V63.9082C30.534 63.9082 31.7286 65.1028 31.7286 66.5765H32.2286ZM29.6976 69.6806L29.7977 70.1705C31.4701 69.829 32.7286 68.3502 32.7286 66.5765H32.2286H31.7286C31.7286 67.8657 30.8138 68.9424 29.5976 69.1907L29.6976 69.6806ZM34.8059 74.8802L35.3038 74.8344C35.0311 71.8721 32.6994 69.5074 29.7522 69.1836L29.6976 69.6806L29.643 70.1776C32.1186 70.4496 34.0789 72.4378 34.308 74.926L34.8059 74.8802ZM34.8059 74.8802L34.4846 74.4971C33.017 75.728 31.1259 76.4687 29.0605 76.4687V76.9687V77.4687C31.3696 77.4687 33.4863 76.6396 35.1272 75.2633L34.8059 74.8802ZM29.0605 76.9687V76.4687C26.995 76.4687 25.1038 75.7279 23.6363 74.497L23.3149 74.8801L22.9936 75.2631C24.6346 76.6395 26.7513 77.4687 29.0605 77.4687V76.9687Z" fill="#868C98"/>
<path d="M17.1869 34.1079C17.1869 34.1079 12.8086 34.1228 12.8086 38.4862C12.8086 34.1228 8.43018 34.1079 8.43018 34.1079C8.43018 34.1079 12.8086 34.093 12.8086 29.7295C12.8086 34.093 17.1869 34.1079 17.1869 34.1079Z" fill="white" stroke="#868C98" stroke-linecap="round" stroke-linejoin="round"/>
<path d="M103.493 69.5923C103.493 69.5923 99.1142 69.6072 99.1142 73.9706C99.1142 69.6072 94.7358 69.5923 94.7358 69.5923C94.7358 69.5923 99.1142 69.5773 99.1142 65.2139C99.1142 69.5773 103.493 69.5923 103.493 69.5923Z" fill="white" stroke="#868C98" stroke-linecap="round" stroke-linejoin="round"/>
<circle cx="43.3683" cy="58.4381" r="2.48986" fill="#E2E4E9"/>
<circle cx="55.5851" cy="58.4381" r="2.48986" fill="#E2E4E9"/>
<ellipse cx="67.8019" cy="58.4381" rx="2.48986" ry="2.48986" fill="#E2E4E9"/>
</svg>
