<svg width="108" height="108" viewBox="0 0 108 108" fill="none" xmlns="http://www.w3.org/2000/svg">
<path d="M9 27L40.1086 44.6264C51.5772 51.1245 56.4228 51.1245 67.8914 44.6264L99 27" stroke="#CDD0D5" stroke-width="1.5" stroke-linejoin="round"/>
<path d="M9.07095 60.6403C9.36513 74.4352 9.51223 81.3327 14.6023 86.4421C19.6924 91.5515 26.7765 91.7295 40.9447 92.0855C49.6769 92.3049 58.3231 92.3049 67.0553 92.0855C81.2235 91.7295 88.3077 91.5515 93.3977 86.4421C98.4878 81.3326 98.6349 74.4352 98.9291 60.6403C99.0237 56.2047 99.0237 51.7953 98.9291 47.3598C98.6349 33.5649 98.4878 26.6674 93.3977 21.558C88.3077 16.4485 81.2235 16.2705 67.0553 15.9146C58.3231 15.6952 49.6769 15.6951 40.9447 15.9145C26.7765 16.2705 19.6924 16.4485 14.6023 21.5579C9.5122 26.6674 9.36512 33.5648 9.07094 47.3597C8.97635 51.7953 8.97635 56.2047 9.07095 60.6403Z" stroke="#CDD0D5" stroke-width="1.5" stroke-linejoin="round"/>
</svg>
