<svg width="28" height="28" viewBox="0 0 28 28" fill="none" xmlns="http://www.w3.org/2000/svg">
<rect x="1" y="1" width="26" height="26" rx="13" stroke="white" stroke-width="2"/>
<g clip-path="url(#clip0_493_8637)">
<rect x="2" y="2" width="24" height="24" rx="12" fill="#C2D6FF"/>
<path d="M10.2684 10.9022C10.3312 11.0604 10.4338 11.2054 10.5595 11.3371C10.8574 11.6487 11.2856 11.8845 11.6243 12.0381C11.6236 12.0552 11.6226 12.0768 11.6214 12.1033C11.6118 12.3399 11.5854 12.9411 11.5404 13.6837C11.458 15.0485 11.3132 16.8903 11.0959 17.8214C11.1034 17.8192 11.1086 17.8176 11.1113 17.8166H11.1115C11.1115 17.8166 11.1125 17.8161 11.113 17.8161C11.1132 17.8161 11.1132 17.8159 11.1132 17.8159L11.1228 18.107C11.1228 18.107 13.3079 21.4021 13.255 21.6312C13.2387 21.7016 13.0697 21.9199 12.8343 22.1913C13.6712 22.4863 14.3962 22.311 14.3962 22.311C14.1075 21.9855 13.889 21.7117 13.8705 21.6312C13.8176 21.4021 16.0026 18.107 16.0026 18.107L16.0123 17.8159L16.0745 15.9176C16.6392 16.1073 17.227 16.2027 17.7562 16.0897C17.9771 16.0426 18.1877 15.959 18.3822 15.8308C21.2195 13.9614 16.8039 7.7793 16.8039 7.7793C16.8039 7.7793 16.7996 8.10794 16.4678 8.31877C16.339 8.40051 16.1608 8.46446 15.9144 8.48442C15.0328 8.55582 13.7702 7.9721 13.0437 7.9007C12.3172 7.8293 12.2814 7.98412 12.2814 7.98412C12.2814 7.98412 12.7937 9.66362 12.722 9.98505C12.6506 10.3067 12.5078 10.6402 12.5078 10.6402C12.5078 10.6402 12.2576 9.34195 11.65 9.32993C11.0425 9.31815 9.92295 10.0329 10.2684 10.9022Z" fill="#F3BBB0" stroke="black" stroke-width="0.213696" stroke-linecap="round" stroke-linejoin="round"/>
<path d="M10.5566 27.8359H16.2139V22.4676H10.5566V27.8359Z" fill="#BF9EF9" stroke="black" stroke-width="0.213696" stroke-linecap="round" stroke-linejoin="round"/>
<path d="M5.62551 26.6474C6.05608 26.9215 7.91612 26.6333 8.88785 26.4578C8.49887 26.0418 8.2123 25.7074 8.1159 25.5346C7.68004 24.7533 6.95905 23.3409 6.95905 23.3409L8.44646 22.3795L7.15426 21.2676C7.15426 21.2676 8.63398 19.2496 9.21024 18.6562C9.18716 18.6625 8.62412 18.8152 7.85674 19.0363C6.26836 19.4938 3.80465 20.2434 3.44572 20.5903C3.30292 20.7283 3.16901 20.893 3.04833 21.062C2.71608 21.5272 2.48457 22.0256 2.44514 22.0912C2.39153 22.1806 5.03578 26.2722 5.62551 26.6474Z" fill="#4C70F5" stroke="black" stroke-width="0.213696" stroke-linecap="round" stroke-linejoin="round"/>
<path d="M7.00768 21.2909C7.00768 21.2909 7.59668 22.4528 7.96186 22.8524C8.32704 23.2517 6.90647 23.4325 6.85454 23.6517C6.80285 23.871 7.56495 27.5387 8.37464 28.0784C9.18434 28.6181 10.7845 27.348 10.9309 27.1256C11.0773 26.9033 11.0737 23.2834 10.9309 23.1245C10.7881 22.9658 9.48605 20.9969 9.37498 20.981C9.26391 20.9652 7.00768 21.2907 7.00768 21.2907V21.2909Z" fill="#2253DD"/>
<path d="M3.04785 21.0608C3.29643 21.2022 3.59839 21.2613 3.88664 21.2443C4.33211 21.2181 4.75283 21.0358 5.14926 20.8315C5.5457 20.6269 5.93228 20.3959 6.3566 20.2584C6.59172 20.1819 6.83573 20.1353 7.06965 20.0557C7.30357 19.9761 7.53268 19.8588 7.69183 19.6698C7.83824 19.4958 7.91493 19.252 7.85627 19.0352C6.26789 19.4927 3.80418 20.2422 3.44525 20.5892C3.30244 20.7272 3.16854 20.8918 3.04785 21.0608Z" fill="#80A1FF"/>
<path d="M8.1159 25.5346C8.2123 25.7074 8.49887 26.0418 8.88785 26.4578C7.91612 26.6333 6.05608 26.9215 5.62551 26.6474C5.03578 26.2722 2.39153 22.1806 2.44514 22.0912C2.49875 22.0018 2.90961 21.1084 3.44572 20.5903C3.97799 20.0759 9.13932 18.6755 9.21024 18.6562C8.63398 19.2496 7.15427 21.2676 7.15427 21.2676L8.44646 22.3795L6.95905 23.3409C6.95905 23.3409 7.68004 24.7533 8.1159 25.5346Z" stroke="black" stroke-width="0.213696" stroke-linecap="round" stroke-linejoin="round"/>
<path d="M10.5592 11.336C10.4335 11.2043 10.3308 11.0593 10.2681 10.9011C9.92259 10.0318 11.0422 9.31706 11.6497 9.32884C12.2572 9.34086 12.5075 10.6391 12.5075 10.6391C12.5075 10.6391 12.6503 10.3056 12.7217 9.98396C12.7933 9.66253 12.281 7.98303 12.281 7.98303C12.281 7.98303 12.3168 7.82821 13.0433 7.89961C13.7699 7.97101 15.0325 8.55473 15.9141 8.48332C16.7954 8.41168 16.8036 7.7782 16.8036 7.7782C16.8036 7.7782 17.1892 7.45437 17.4637 6.97788C17.7703 6.4461 17.9385 5.72439 17.2781 5.05125C16.6367 4.3971 16.0403 4.52139 15.4556 4.86782C14.925 5.18227 14.404 5.68016 13.8677 5.94533C13.7891 5.98427 13.7047 6.01769 13.6155 6.04678C12.4238 6.43865 10.3534 6.07635 9.48529 7.46303C9.40283 7.59501 9.33551 7.72628 9.2819 7.85706C8.7304 9.20335 9.64877 10.4693 10.5592 11.336Z" fill="#6D1249" stroke="black" stroke-width="0.213696" stroke-linecap="round" stroke-linejoin="round"/>
<path d="M11.0386 18.0355C11.0578 17.9713 11.0766 17.8996 11.0946 17.8218C11.0946 17.8213 11.0946 17.8208 11.0951 17.8203" stroke="black" stroke-width="0.213696" stroke-linecap="round" stroke-linejoin="round"/>
<path d="M19.0074 25.5346C18.911 25.7074 18.6245 26.0418 18.2355 26.4578C19.2072 26.6333 21.0672 26.9215 21.4978 26.6474C22.0875 26.2722 24.7318 22.1806 24.6782 22.0912C24.6246 22.0018 24.2137 21.1084 23.6776 20.5903C23.1453 20.0759 17.984 18.6755 17.9131 18.6562C18.4893 19.2496 19.9691 21.2676 19.9691 21.2676L18.6769 22.3795L20.1643 23.3409C20.1643 23.3409 19.4433 24.7533 19.0074 25.5346Z" fill="#4C70F5" stroke="black" stroke-width="0.213696" stroke-linecap="round" stroke-linejoin="round"/>
<path d="M19.0074 25.5346C18.911 25.7074 18.6245 26.0418 18.2355 26.4578C19.2072 26.6333 21.0672 26.9215 21.4978 26.6474C22.0866 26.2726 24.7243 22.1924 24.6784 22.0917C24.6784 22.0914 24.6782 22.0915 24.6782 22.0912C24.6246 22.0018 24.2137 21.1084 23.6776 20.5903C23.3617 20.285 21.4154 19.6676 19.8703 19.2123C18.812 18.9 17.9419 18.6642 17.9131 18.6562C18.4893 19.2496 19.9691 21.2676 19.9691 21.2676L18.6769 22.3795L20.1643 23.3409C20.1643 23.3409 19.4433 24.7533 19.0074 25.5346Z" fill="#4C70F5" stroke="black" stroke-width="0.213696" stroke-linecap="round" stroke-linejoin="round"/>
<path d="M6.95898 23.3398C6.95898 23.3398 7.67997 24.7522 8.11583 25.5335C8.21224 25.7064 8.4988 26.0408 8.88778 26.4567C10.2562 27.9205 12.8887 30.3915 12.9238 30.3564C12.9505 30.3297 12.0814 26.7779 11.3587 23.6682C11.2491 23.196 11.1426 22.734 11.0433 22.2962C10.6954 20.7626 10.4336 19.5245 10.4146 19.1781C10.36 18.1821 10.9798 17.8705 11.0945 17.8215C11.0998 17.8193 11.1041 17.8176 11.107 17.8164C11.1041 17.8174 11.1 17.8186 11.095 17.82C11.0077 17.8481 10.6091 17.9777 10.2055 18.1306C9.86889 18.2583 9.52871 18.402 9.36283 18.517C9.32461 18.5434 9.27268 18.591 9.21017 18.6552C8.63391 19.2485 7.1542 21.2665 7.1542 21.2665L8.44639 22.3784L6.95898 23.3398Z" fill="#4C70F5" stroke="black" stroke-width="0.213696" stroke-linecap="round" stroke-linejoin="round"/>
<path d="M17.9131 18.6553C17.9131 18.6553 17.9139 18.6553 17.9155 18.6561" stroke="black" stroke-width="0.213696" stroke-linecap="round" stroke-linejoin="round"/>
<path d="M12.4419 22.6241C12.4419 22.6241 12.8955 24.0043 13.136 24.1377C13.3764 24.2714 14.0885 24.2981 14.1599 24.2358C14.231 24.1733 14.9479 22.9044 14.9479 22.9044C14.7573 22.7073 14.5642 22.4996 14.3955 22.3092C14.3955 22.3092 13.6704 22.4844 12.8335 22.1895C12.7157 22.3253 12.5818 22.4741 12.4419 22.6241Z" fill="#E86F3A" stroke="black" stroke-width="0.213696" stroke-linecap="round" stroke-linejoin="round"/>
<path d="M12.2721 27.5381C12.2853 27.5933 13.5778 29.6289 13.6949 29.6433C13.8119 29.658 14.7519 27.9561 14.7519 27.9561L14.1598 24.2368C14.0884 24.299 13.3763 24.2723 13.1359 24.1387C13.1359 24.1387 12.2591 27.483 12.2721 27.5381Z" fill="#E86F3A" stroke="black" stroke-width="0.213696" stroke-linecap="round" stroke-linejoin="round"/>
<path d="M19.8701 19.2109C20.0673 19.3578 20.2798 19.4888 20.4586 19.6218C20.8916 19.9439 21.3248 20.2663 21.7578 20.5887C22.229 20.9392 22.7 21.2898 23.1712 21.6403C23.4926 21.8795 23.8359 22.1276 24.2347 22.1656C24.3833 22.1797 24.5396 22.1516 24.6783 22.0903C24.6783 22.0901 24.6781 22.0901 24.6781 22.0898C24.6244 22.0004 24.2136 21.107 23.6775 20.589C23.3616 20.2836 21.4152 19.6663 19.8701 19.2109Z" fill="#80A1FF"/>
<path d="M9.95755 19.912C10.0386 20.7982 10.4285 21.6528 11.043 22.2962C10.6951 20.7626 10.4333 19.5245 10.4143 19.1781C10.3598 18.1821 10.9795 17.8705 11.0942 17.8215C11.0995 17.8193 11.1038 17.8176 11.1067 17.8164C11.1038 17.8174 11.0997 17.8186 11.0947 17.82C11.0074 17.8481 10.6088 17.9777 10.2052 18.1306C9.99001 18.6958 9.90226 19.3098 9.95755 19.912Z" fill="#80A1FF"/>
<path d="M15.4551 4.86782C15.4654 4.87791 15.4765 4.88705 15.488 4.89546C15.6041 4.98129 15.7537 5.00461 15.8869 5.06086C16.19 5.189 16.392 5.4811 16.5287 5.78017C16.6658 6.07948 16.7557 6.40114 16.924 6.68386C17.0182 6.84181 17.162 6.99928 17.3459 6.99928C17.387 6.99928 17.4259 6.99159 17.4632 6.97788C17.7697 6.4461 17.938 5.72439 17.2776 5.05125C16.6362 4.3971 16.0398 4.52139 15.4551 4.86782Z" fill="#932A6E"/>
<path d="M9.28076 7.85715C9.30985 7.89033 9.34303 7.9199 9.38029 7.94466C9.59281 8.08554 9.88443 8.03794 10.1066 7.91245C10.3287 7.78695 10.5052 7.59583 10.7049 7.43716C11.0432 7.16862 11.4541 6.9924 11.8817 6.9323C12.1385 6.89624 12.3998 6.90129 12.6568 6.86619C12.9138 6.83133 13.1754 6.75055 13.3631 6.57169C13.5067 6.43489 13.5951 6.24401 13.6144 6.04688C12.4227 6.43874 10.3523 6.07645 9.48415 7.46312C9.40169 7.59511 9.33437 7.72637 9.28076 7.85715Z" fill="#932A6E"/>
<path d="M6.95898 23.341C6.95898 23.341 7.67997 24.7534 8.11583 25.5347C8.21224 25.7076 8.4988 26.042 8.88778 26.4579C10.2562 27.9217 12.8887 30.3927 12.9238 30.3576C12.9505 30.3309 12.0814 26.7791 11.3587 23.6694C10.8647 21.5437 10.4391 19.6245 10.4146 19.1793C10.36 18.1833 10.9798 17.8717 11.0945 17.8227C11.1022 17.8195 11.1075 17.8174 11.1104 17.8164C11.1077 17.8174 11.1024 17.8191 11.095 17.8212C10.9349 17.8729 9.72729 18.2657 9.36283 18.5182C9.32461 18.5446 9.27268 18.5922 9.21017 18.6564C8.63391 19.2497 7.1542 21.2677 7.1542 21.2677L8.44639 22.3796L6.95898 23.341Z" stroke="black" stroke-width="0.213696" stroke-linecap="round" stroke-linejoin="round"/>
<path d="M19.0074 25.5346C18.911 25.7074 18.6245 26.0418 18.2355 26.4578C19.2072 26.6333 21.0672 26.9215 21.4978 26.6474C22.0875 26.2722 24.7318 22.1806 24.6782 22.0912C24.6246 22.0018 24.2137 21.1084 23.6776 20.5903C23.1453 20.0759 17.984 18.6755 17.9131 18.6562C18.4893 19.2496 19.9691 21.2676 19.9691 21.2676L18.6769 22.3795L20.1643 23.3409C20.1643 23.3409 19.4433 24.7533 19.0074 25.5346Z" stroke="black" stroke-width="0.213696" stroke-linecap="round" stroke-linejoin="round"/>
<path d="M17.8338 12.8988C17.9057 13.7075 17.8994 14.5235 17.8117 15.331C17.7845 15.583 17.7494 15.8378 17.7556 16.0897C17.9766 16.0426 18.1872 15.959 18.3817 15.8308C21.219 13.9614 16.8034 7.7793 16.8034 7.7793C16.8034 7.7793 16.799 8.10794 16.4673 8.31877C16.5659 8.46206 16.663 8.60077 16.7245 8.73396C17.3304 10.0447 17.7056 11.4607 17.8338 12.8988Z" fill="#F9DFDC"/>
<path d="M11.5396 13.6821C11.6126 13.61 11.6605 13.5162 11.7069 13.4244C11.8266 13.1871 11.9468 12.9503 12.0663 12.713C12.1432 12.5604 12.2213 12.395 12.0939 12.245C11.9802 12.1111 11.8009 12.0757 11.6206 12.1017C11.611 12.3382 11.5845 12.9395 11.5396 13.6821Z" fill="#F09E8B"/>
<path d="M13.488 14.4941C13.488 14.4941 13.621 17.249 16.0203 17.5247L16.0729 15.9176C16.0729 15.9176 14.0352 14.9478 13.4878 14.4941H13.488Z" fill="#ED7D66"/>
<path d="M12.1027 10.8385C12.059 10.6551 11.939 10.5113 11.7609 10.3786C11.5827 10.2459 11.2906 10.1817 11.0642 10.2675C10.937 10.3158 10.8389 10.4214 10.8723 10.5231C10.9012 10.6115 11.0149 10.6692 11.124 10.7125C11.4483 10.8411 11.6974 10.8637 12.0659 10.8813" fill="#ED7D66"/>
<path d="M20.0083 21.2909C20.0083 21.2909 19.4192 22.4528 19.0541 22.8524C18.6889 23.2517 20.1095 23.4325 20.1614 23.6517C20.2131 23.871 19.451 27.5387 18.6413 28.0784C17.8316 28.6181 16.2314 27.348 16.085 27.1256C15.9386 26.9033 15.9422 23.2834 16.085 23.1245C16.2278 22.9658 17.5299 20.9969 17.6409 20.981C17.752 20.9652 20.0083 21.2907 20.0083 21.2907V21.2909Z" fill="#2253DD"/>
<path d="M14.2003 30.3576C14.2354 30.3927 16.8679 27.9217 18.2363 26.4579C18.6253 26.042 18.9118 25.7076 19.0082 25.5347C19.4441 24.7534 20.1651 23.341 20.1651 23.341L18.6777 22.3796L19.9699 21.2677C19.9699 21.2677 18.4902 19.2497 17.9139 18.6564C17.8514 18.5922 17.7995 18.5446 17.7612 18.5182C17.7406 18.5037 17.7172 18.4891 17.6915 18.4739C17.292 18.2393 16.3224 17.9167 16.0716 17.8352C16.0402 17.8248 16.0202 17.8186 16.0137 17.8164C16.02 17.8188 16.0392 17.8263 16.0676 17.8404C16.2416 17.9277 16.7595 18.2652 16.7095 19.1793C16.6866 19.5925 16.3185 21.2749 15.8709 23.2141C15.836 23.3646 15.8009 23.5165 15.7654 23.6694C15.0427 26.7791 14.1736 30.3309 14.2003 30.3576Z" fill="#4C70F5" stroke="black" stroke-width="0.213696" stroke-linecap="round" stroke-linejoin="round"/>
<path d="M15.8711 23.2129C15.8723 23.2182 15.8733 23.2237 15.8745 23.229C16.431 22.4873 16.9003 21.7029 17.2758 20.8874C17.484 20.435 17.6643 19.9703 17.7335 19.4849C17.7811 19.1526 17.7751 18.81 17.6917 18.4728C17.2922 18.2381 16.3226 17.9155 16.0718 17.834C16.0704 17.8357 16.069 17.8374 16.0677 17.8393C16.2418 17.9265 16.7596 18.2641 16.7096 19.1781C16.6868 19.5914 16.3187 21.2738 15.8711 23.2129Z" fill="#80A1FF"/>
<path d="M14.2003 30.3576C14.2354 30.3927 16.8679 27.9217 18.2363 26.4579C18.6253 26.042 18.9118 25.7076 19.0082 25.5347C19.4441 24.7534 20.1651 23.341 20.1651 23.341L18.6777 22.3796L19.9699 21.2677C19.9699 21.2677 18.4902 19.2497 17.9139 18.6564C17.8514 18.5922 17.7995 18.5446 17.7612 18.5182C17.3797 18.254 16.0748 17.8359 16.0137 17.8164C16.0584 17.8332 16.7676 18.1169 16.7095 19.1793C16.6849 19.6245 16.2594 21.5437 15.7654 23.6694C15.0427 26.7791 14.1736 30.3309 14.2003 30.3576Z" stroke="black" stroke-width="0.213696" stroke-linecap="round" stroke-linejoin="round"/>
<path d="M16.0741 15.9176C14.7401 15.4692 13.5347 14.4941 13.5347 14.4941" stroke="black" stroke-width="0.213696" stroke-linecap="round" stroke-linejoin="round"/>
<path d="M11.623 12.0371C11.9281 12.1756 12.1611 12.2472 12.1611 12.2472" stroke="black" stroke-width="0.213696" stroke-linecap="round" stroke-linejoin="round"/>
<path d="M10.2684 10.9022C10.3312 11.0604 10.4338 11.2054 10.5595 11.3371C10.8574 11.6487 11.2856 11.8845 11.6243 12.0381C11.6063 12.4882 11.4447 16.3273 11.0959 17.8214C11.1034 17.8192 11.1086 17.8176 11.1113 17.8166H11.1115C11.1115 17.8166 11.1125 17.8161 11.113 17.8161C11.1132 17.8161 11.1132 17.8159 11.1132 17.8159L11.1228 18.107C11.1228 18.107 13.3079 21.4021 13.255 21.6312C13.2387 21.7016 13.0697 21.9199 12.8343 22.1913C13.6712 22.4863 14.3962 22.311 14.3962 22.311C14.1075 21.9855 13.889 21.7117 13.8705 21.6312C13.8176 21.4021 16.0026 18.107 16.0026 18.107L16.0123 17.8159L16.0745 15.9176C16.8751 16.1866 17.7218 16.266 18.3822 15.8308C21.2195 13.9614 16.8039 7.7793 16.8039 7.7793C16.8039 7.7793 16.7958 8.41277 15.9144 8.48442C15.0328 8.55582 13.7702 7.9721 13.0437 7.9007C12.3172 7.8293 12.2814 7.98412 12.2814 7.98412C12.2814 7.98412 12.7937 9.66362 12.722 9.98505C12.6506 10.3067 12.5078 10.6402 12.5078 10.6402C12.5078 10.6402 12.2576 9.34195 11.65 9.32993C11.0425 9.31815 9.92295 10.0329 10.2684 10.9022Z" stroke="black" stroke-width="0.213696" stroke-linecap="round" stroke-linejoin="round"/>
<path d="M13.8694 21.5848C13.8879 21.6654 14.1064 21.9392 14.3951 22.2647C14.5639 22.4551 14.7569 22.6628 14.9476 22.8599C15.2652 23.1879 15.5775 23.486 15.7647 23.6232C15.8402 23.298 15.9143 22.9775 15.9854 22.6664C16.3797 20.9446 16.6881 19.5103 16.7088 19.1331C16.767 18.0708 16.0578 17.7871 16.0131 17.7703C16.0131 17.7703 16.0121 17.7698 16.0116 17.7698C16.0114 17.7698 16.0114 17.7695 16.0114 17.7695L16.0097 17.8234L16.0018 18.0607C16.0018 18.0607 13.8167 21.3557 13.8696 21.5848H13.8694Z" fill="#F5D256" stroke="black" stroke-width="0.213696" stroke-linecap="round" stroke-linejoin="round"/>
<path d="M10.415 19.1331C10.4359 19.5113 10.7458 20.9525 11.1415 22.6806C11.2117 22.9874 11.2846 23.303 11.3591 23.6232C11.599 23.4473 12.0438 23.0078 12.4421 22.5796C12.5821 22.4296 12.716 22.2808 12.8338 22.145C13.0691 21.8735 13.2381 21.6553 13.2545 21.5848C13.3074 21.3557 11.1223 18.0607 11.1223 18.0607L11.1136 17.7993L11.1127 17.7695C11.1127 17.7695 11.1127 17.7698 11.1124 17.7698C11.112 17.7698 11.1115 17.77 11.111 17.7703H11.1108C11.1079 17.7712 11.1026 17.7734 11.0949 17.7765C10.9802 17.8255 10.3604 18.1371 10.415 19.1331Z" fill="#F5D256" stroke="black" stroke-width="0.213696" stroke-linecap="round" stroke-linejoin="round"/>
<path d="M18.1843 5.1084C18.468 5.38703 18.5553 5.82746 18.4659 6.215C18.3764 6.60254 18.1305 6.93983 17.8345 7.20524C17.5386 7.47066 17.1919 7.6726 16.8481 7.87262C17.1727 7.96542 17.6047 7.99787 17.9177 7.8719C18.2307 7.74592 18.4998 7.51321 18.6695 7.22159" stroke="black" stroke-width="0.213696" stroke-linecap="round" stroke-linejoin="round"/>
<path d="M10.5592 11.336C10.4335 11.2043 10.3308 11.0593 10.2681 10.9011C9.92262 10.0318 11.0422 9.31704 11.6497 9.32882C12.2572 9.34084 12.5075 10.6391 12.5075 10.6391C12.5075 10.6391 12.6503 10.3056 12.7217 9.98394C12.7933 9.66251 12.281 7.98302 12.281 7.98302C12.281 7.98302 12.3168 7.82819 13.0434 7.89959C13.7699 7.97099 15.0325 8.55471 15.9141 8.48331C16.7954 8.41166 16.8036 7.77819 16.8036 7.77819C16.8036 7.77819 18.5302 6.3278 17.2782 5.05123C16.0545 3.80351 14.9948 5.3878 13.8677 5.94531C12.7407 6.50282 10.4186 5.97248 9.48531 7.46301C8.55205 8.95379 9.56056 10.3852 10.5592 11.336Z" stroke="black" stroke-width="0.213696" stroke-linecap="round" stroke-linejoin="round"/>
<path d="M10.415 19.1331C10.4359 19.5113 10.7458 20.9525 11.1415 22.6806C11.2194 22.6364 11.2819 22.5633 11.3226 22.4825C11.3791 22.3698 11.3988 22.2421 11.4127 22.1164C11.4805 21.4978 11.4216 20.8658 11.2408 20.2703C11.1086 19.8354 10.9117 19.4175 10.842 18.9684C10.7785 18.56 10.8427 18.102 11.1136 17.7993L11.1127 17.7695C11.1127 17.7695 11.1127 17.7698 11.1124 17.7698C11.112 17.7698 11.1115 17.77 11.111 17.7703H11.1108C11.1079 17.7712 11.1026 17.7734 11.0949 17.7765C10.9802 17.8255 10.3604 18.1371 10.415 19.1331Z" fill="#CEA625"/>
<path d="M15.9858 22.6664C16.38 20.9446 16.6885 19.5103 16.7091 19.1331C16.7673 18.0708 16.0581 17.7871 16.0134 17.7703C16.0134 17.7703 16.0124 17.7698 16.012 17.7698C16.0117 17.7698 16.0117 17.7695 16.0117 17.7695L16.01 17.8234C16.2019 17.8801 16.3478 18.0621 16.4014 18.2588C16.4615 18.4804 16.4257 18.7163 16.3719 18.9394C16.2661 19.3762 16.093 19.7928 15.9437 20.2167C15.7946 20.6405 15.6679 21.079 15.6605 21.5283C15.6537 21.9296 15.7516 22.3438 15.986 22.6664H15.9858Z" fill="#CEA625"/>
<path d="M13.8694 21.6307C13.8879 21.7113 14.1064 21.9851 14.3951 22.3106C14.5639 22.501 14.7569 22.7087 14.9476 22.9058C15.2652 23.2338 15.5775 23.5319 15.7647 23.6691C16.2588 21.5434 16.6843 19.6243 16.7088 19.179C16.767 18.1167 16.0578 17.833 16.0131 17.8162C16.0131 17.8162 16.0121 17.8157 16.0116 17.8157C16.0114 17.8157 16.0114 17.8154 16.0114 17.8154L16.0018 18.1066C16.0018 18.1066 13.8167 21.4016 13.8696 21.6307H13.8694Z" stroke="black" stroke-width="0.213696" stroke-linecap="round" stroke-linejoin="round"/>
<path d="M10.415 19.179C10.4395 19.6243 10.8651 21.5434 11.3591 23.6691C11.599 23.4932 12.0438 23.0537 12.4421 22.6255C12.5821 22.4755 12.716 22.3267 12.8338 22.1909C13.0691 21.9194 13.2381 21.7012 13.2545 21.6307C13.3074 21.4016 11.1223 18.1066 11.1223 18.1066L11.1127 17.8154C11.1127 17.8154 11.1127 17.8157 11.1124 17.8157C11.112 17.8157 11.1115 17.8157 11.111 17.8162H11.1108C11.1079 17.8171 11.1026 17.8193 11.0949 17.8224C10.9802 17.8714 10.3604 18.183 10.415 19.179Z" stroke="black" stroke-width="0.213696" stroke-linecap="round" stroke-linejoin="round"/>
<path d="M12.0606 10.8111C11.8704 10.4428 11.4526 10.2047 11.0386 10.2293" stroke="black" stroke-width="0.213696" stroke-linecap="round" stroke-linejoin="round"/>
<path d="M11.625 10.457C11.4817 10.5121 11.3571 10.615 11.2759 10.7453" stroke="black" stroke-width="0.213696" stroke-linecap="round" stroke-linejoin="round"/>
<path d="M16.4851 13.5907C16.4322 13.5864 15.9898 13.7785 15.4931 13.334C14.9965 12.8894 15.2051 12.3887 15.2051 12.3887" stroke="black" stroke-width="0.213696" stroke-linecap="round" stroke-linejoin="round"/>
<path d="M15.5307 12.3601C15.5307 12.3601 15.1891 12.2209 14.9009 12.5856" stroke="black" stroke-width="0.213696" stroke-linecap="round" stroke-linejoin="round"/>
<path d="M16.8391 11.124C16.8391 11.124 17.5451 12.2023 17.3434 12.3893C17.1417 12.5763 16.6475 12.2479 16.6475 12.2479" stroke="black" stroke-width="0.213696" stroke-linecap="round" stroke-linejoin="round"/>
</g>
<defs>
<clipPath id="clip0_493_8637">
<rect x="2" y="2" width="24" height="24" rx="12" fill="white"/>
</clipPath>
</defs>
</svg>
