<svg width="18" height="16" viewBox="0 0 18 16" fill="none" xmlns="http://www.w3.org/2000/svg">
<path d="M10.5 15.875L8.4 13.25H4.5C4.30109 13.25 4.11032 13.171 3.96967 13.0303C3.82902 12.8897 3.75 12.6989 3.75 12.5V4.32725C3.75 4.12834 3.82902 3.93757 3.96967 3.79692C4.11032 3.65627 4.30109 3.57725 4.5 3.57725H16.5C16.6989 3.57725 16.8897 3.65627 17.0303 3.79692C17.171 3.93757 17.25 4.12834 17.25 4.32725V12.5C17.25 12.6989 17.171 12.8897 17.0303 13.0303C16.8897 13.171 16.6989 13.25 16.5 13.25H12.6L10.5 15.875ZM11.8792 11.75H15.75V5.07725H5.25V11.75H9.12075L10.5 13.4735L11.8792 11.75ZM1.5 0.5H14.25V2H2.25V10.25H0.75V1.25C0.75 1.05109 0.829018 0.860322 0.96967 0.71967C1.11032 0.579018 1.30109 0.5 1.5 0.5Z" fill="#375DFB"/>
</svg>
