<svg width="108" height="108" viewBox="0 0 108 108" fill="none" xmlns="http://www.w3.org/2000/svg">
<path d="M67.1681 13.0996L37.2308 27.4703C34.9268 28.5763 32.4649 28.8534 29.9554 28.2912C28.313 27.9233 27.4917 27.7393 26.8304 27.6638C18.6184 26.726 13.5 33.2254 13.5 40.6992V44.8008C13.5 52.2746 18.6184 58.774 26.8304 57.8362C27.4917 57.7607 28.313 57.5767 29.9554 57.2088C32.4649 56.6467 34.9268 56.9236 37.2308 58.0297L67.1681 72.4004C74.0405 75.6993 77.4766 77.3487 81.3077 76.063C85.1388 74.7774 86.4538 72.0186 89.0837 66.5012C96.3054 51.3502 96.3054 34.1498 89.0837 18.9988C86.4538 13.4814 85.1388 10.7226 81.3077 9.43696C77.4766 8.15128 74.0405 9.80074 67.1681 13.0996Z" stroke="#CDD0D5" stroke-width="1.5" stroke-linecap="round" stroke-linejoin="round"/>
<path d="M51.5612 93.469L44.8503 99C29.7232 87.0026 31.5713 81.2812 31.5713 58.5H36.6734C38.744 71.3742 43.628 77.4722 50.3674 81.8866C54.5183 84.6056 55.3745 90.3262 51.5612 93.469Z" stroke="#CDD0D5" stroke-width="1.5" stroke-linecap="round" stroke-linejoin="round"/>
<path d="M33.75 56.25V29.25" stroke="#CDD0D5" stroke-width="1.5" stroke-linecap="round" stroke-linejoin="round"/>
</svg>
