<svg width="18" height="19" viewBox="0 0 18 19" fill="none" xmlns="http://www.w3.org/2000/svg">
<path d="M3.86878 9.11826C3.81367 10.1653 3.87702 11.2797 2.9416 11.9813C2.50623 12.3078 2.25 12.8203 2.25 13.3645C2.25 14.1131 2.83635 14.75 3.6 14.75H14.4C15.1636 14.75 15.75 14.1131 15.75 13.3645C15.75 12.8203 15.4938 12.3078 15.0584 11.9813C14.123 11.2797 14.1863 10.1653 14.1312 9.11826C13.9876 6.38917 11.7329 4.25 9 4.25C6.26713 4.25 4.01241 6.38917 3.86878 9.11826Z" stroke="#878A94" stroke-width="1.5" stroke-linecap="round" stroke-linejoin="round"/>
<path d="M7.875 2.84375C7.875 3.46507 8.37868 4.25 9 4.25C9.62132 4.25 10.125 3.46507 10.125 2.84375C10.125 2.22243 9.62132 2 9 2C8.37868 2 7.875 2.22243 7.875 2.84375Z" stroke="#878A94" stroke-width="1.5"/>
<path d="M11.25 14.75C11.25 15.9926 10.2426 17 9 17C7.75736 17 6.75 15.9926 6.75 14.75" stroke="#878A94" stroke-width="1.5" stroke-linecap="round" stroke-linejoin="round"/>
</svg>
