<svg width="108" height="108" viewBox="0 0 108 108" fill="none" xmlns="http://www.w3.org/2000/svg">
<path d="M92.25 60.75V47.25C92.25 30.3364 92.25 21.8796 87.5124 16.2336C86.7547 15.3305 85.9195 14.4953 85.0164 13.7376C79.3704 9 70.9136 9 54 9C37.0864 9 28.6296 9 22.9836 13.7376C22.0805 14.4953 21.2453 15.3305 20.4876 16.2336C15.75 21.8796 15.75 30.3364 15.75 47.25V60.75C15.75 77.6636 15.75 86.1204 20.4876 91.7664C21.2453 92.6695 22.0805 93.5047 22.9836 94.2624C28.6296 99 37.0864 99 54 99C70.9136 99 79.3704 99 85.0164 94.2624C85.9195 93.5047 86.7547 92.6695 87.5124 91.7664C92.25 86.1204 92.25 77.6636 92.25 60.75Z" stroke="#CDD0D5" stroke-width="1.5" stroke-linecap="round"/>
<path d="M69.75 67.5C69.75 76.1985 62.6985 83.25 54 83.25C45.3015 83.25 38.25 76.1985 38.25 67.5C38.25 58.8015 45.3015 51.75 54 51.75C62.6985 51.75 69.75 58.8015 69.75 67.5Z" stroke="#CDD0D5" stroke-width="1.5"/>
<path d="M60.75 31.5C60.75 35.2279 57.7279 38.25 54 38.25C50.2721 38.25 47.25 35.2279 47.25 31.5C47.25 27.7721 50.2721 24.75 54 24.75C57.7279 24.75 60.75 27.7721 60.75 31.5Z" stroke="#CDD0D5" stroke-width="1.5"/>
</svg>
