<svg width="18" height="19" viewBox="0 0 18 19" fill="none" xmlns="http://www.w3.org/2000/svg">
<path d="M10.5 12.4997C10.5 13.8272 9.9225 15.0272 9 15.8447C8.205 16.5647 7.155 16.9997 6 16.9997C3.5175 16.9997 1.5 14.9822 1.5 12.4997C1.5 10.4297 2.91 8.67473 4.815 8.15723C5.3325 9.46223 6.4425 10.4672 7.815 10.8422C8.19 10.9472 8.5875 10.9997 9 10.9997C9.4125 10.9997 9.81 10.9472 10.185 10.8422C10.3875 11.3522 10.5 11.9147 10.5 12.4997Z" stroke="white" stroke-width="1.2" stroke-linecap="round" stroke-linejoin="round"/>
<path d="M13.5 6.5C13.5 7.085 13.3875 7.6475 13.185 8.1575C12.6675 9.4625 11.5575 10.4675 10.185 10.8425C9.81 10.9475 9.4125 11 9 11C8.5875 11 8.19 10.9475 7.815 10.8425C6.4425 10.4675 5.3325 9.4625 4.815 8.1575C4.6125 7.6475 4.5 7.085 4.5 6.5C4.5 4.0175 6.5175 2 9 2C11.4825 2 13.5 4.0175 13.5 6.5Z" stroke="white" stroke-width="1.2" stroke-linecap="round" stroke-linejoin="round"/>
<path d="M16.5 12.4997C16.5 14.9822 14.4825 16.9997 12 16.9997C10.845 16.9997 9.795 16.5647 9 15.8447C9.9225 15.0272 10.5 13.8272 10.5 12.4997C10.5 11.9147 10.3875 11.3522 10.185 10.8422C11.5575 10.4672 12.6675 9.46223 13.185 8.15723C15.09 8.67473 16.5 10.4297 16.5 12.4997Z" stroke="white" stroke-width="1.2" stroke-linecap="round" stroke-linejoin="round"/>
</svg>
