<svg width="14" height="19" viewBox="0 0 14 19" fill="none" xmlns="http://www.w3.org/2000/svg">
<g clip-path="url(#clip0_390_14909)">
<path d="M12.1182 14C12.5553 14 12.9029 13.6464 13.2151 13.1519C13.8541 12.1396 12.8049 11.3306 12.4048 10.9345C11.998 10.5317 11.5438 10.3036 11.0833 10.25M10.5 8.75C11.3054 8.75 11.9583 7.91053 11.9583 6.875C11.9583 5.83947 11.3054 5 10.5 5" stroke="#525866" stroke-width="1.5" stroke-linecap="round"/>
<path d="M1.88179 14C1.4447 14 1.09704 13.6464 0.784881 13.1519C0.145865 12.1396 1.19504 11.3306 1.59519 10.9345C2.00196 10.5317 2.45615 10.3036 2.91665 10.25M3.20831 8.75C2.4029 8.75 1.74998 7.91053 1.74998 6.875C1.74998 5.83947 2.4029 5 3.20831 5" stroke="#525866" stroke-width="1.5" stroke-linecap="round"/>
<path d="M4.7155 11.8334C4.11946 12.3072 2.55669 13.2748 3.50852 14.4856C3.97349 15.077 4.49134 15.5 5.1424 15.5H8.8575C9.50856 15.5 10.0264 15.077 10.4914 14.4856C11.4432 13.2748 9.88043 12.3072 9.2844 11.8334C7.8867 10.7222 6.1132 10.7222 4.7155 11.8334Z" stroke="#525866" stroke-width="1.5" stroke-linecap="round" stroke-linejoin="round"/>
<path d="M9.04162 6.125C9.04162 7.57475 8.12753 8.75 6.99995 8.75C5.87237 8.75 4.95828 7.57475 4.95828 6.125C4.95828 4.67525 5.87237 3.5 6.99995 3.5C8.12753 3.5 9.04162 4.67525 9.04162 6.125Z" stroke="#525866" stroke-width="1.5"/>
</g>
<defs>
<clipPath id="clip0_390_14909">
<rect width="14" height="18" fill="white" transform="translate(0 0.5)"/>
</clipPath>
</defs>
</svg>
