<svg width="14" height="19" viewBox="0 0 14 19" fill="none" xmlns="http://www.w3.org/2000/svg">
<g clip-path="url(#clip0_990_92735)">
<path d="M12.1182 14C12.5553 14 12.9029 13.6464 13.2151 13.1519C13.8541 12.1396 12.8049 11.3306 12.4048 10.9345C11.998 10.5317 11.5438 10.3036 11.0833 10.25M10.5 8.75C11.3054 8.75 11.9583 7.91053 11.9583 6.875C11.9583 5.83947 11.3054 5 10.5 5" stroke="white" stroke-width="1.5" stroke-linecap="round"/>
<path d="M1.88197 14C1.44488 14 1.09722 13.6464 0.785064 13.1519C0.146048 12.1396 1.19522 11.3306 1.59537 10.9345C2.00215 10.5317 2.45634 10.3036 2.91683 10.25M3.2085 8.75C2.40308 8.75 1.75016 7.91053 1.75016 6.875C1.75016 5.83947 2.40308 5 3.2085 5" stroke="white" stroke-width="1.5" stroke-linecap="round"/>
<path d="M4.71572 11.8334C4.11968 12.3072 2.5569 13.2748 3.50874 14.4856C3.9737 15.077 4.49155 15.5 5.14261 15.5H8.85771C9.50877 15.5 10.0266 15.077 10.4916 14.4856C11.4434 13.2748 9.88065 12.3072 9.28461 11.8334C7.88691 10.7222 6.11341 10.7222 4.71572 11.8334Z" stroke="white" stroke-width="1.5" stroke-linecap="round" stroke-linejoin="round"/>
<path d="M9.04183 6.125C9.04183 7.57475 8.12774 8.75 7.00016 8.75C5.87258 8.75 4.9585 7.57475 4.9585 6.125C4.9585 4.67525 5.87258 3.5 7.00016 3.5C8.12774 3.5 9.04183 4.67525 9.04183 6.125Z" stroke="white" stroke-width="1.5"/>
</g>
<defs>
<clipPath id="clip0_990_92735">
<rect width="14" height="18" fill="white" transform="translate(0 0.5)"/>
</clipPath>
</defs>
</svg>
