<svg width="14" height="19" viewBox="0 0 14 19" fill="none" xmlns="http://www.w3.org/2000/svg">
<g clip-path="url(#clip0_606_46818)">
<path d="M12.1181 14C12.5552 14 12.9028 13.6464 13.215 13.1519C13.854 12.1396 12.8048 11.3306 12.4047 10.9345C11.9979 10.5317 11.5437 10.3036 11.0832 10.25M10.4999 8.75C11.3053 8.75 11.9582 7.91053 11.9582 6.875C11.9582 5.83947 11.3053 5 10.4999 5" stroke="#525866" stroke-width="1.5" stroke-linecap="round"/>
<path d="M1.88173 14C1.44463 14 1.09697 13.6464 0.78482 13.1519C0.145804 12.1396 1.19498 11.3306 1.59513 10.9345C2.0019 10.5317 2.45609 10.3036 2.91659 10.25M3.20825 8.75C2.40284 8.75 1.74992 7.91053 1.74992 6.875C1.74992 5.83947 2.40284 5 3.20825 5" stroke="#525866" stroke-width="1.5" stroke-linecap="round"/>
<path d="M4.71547 11.8334C4.11943 12.3072 2.55666 13.2748 3.50849 14.4856C3.97346 15.077 4.49131 15.5 5.14237 15.5H8.85747C9.50853 15.5 10.0264 15.077 10.4913 14.4856C11.4432 13.2748 9.8804 12.3072 9.28437 11.8334C7.88667 10.7222 6.11317 10.7222 4.71547 11.8334Z" stroke="#525866" stroke-width="1.5" stroke-linecap="round" stroke-linejoin="round"/>
<path d="M9.04159 6.125C9.04159 7.57475 8.1275 8.75 6.99992 8.75C5.87234 8.75 4.95825 7.57475 4.95825 6.125C4.95825 4.67525 5.87234 3.5 6.99992 3.5C8.1275 3.5 9.04159 4.67525 9.04159 6.125Z" stroke="#525866" stroke-width="1.5"/>
</g>
<defs>
<clipPath id="clip0_606_46818">
<rect width="14" height="18" fill="white" transform="translate(0 0.5)"/>
</clipPath>
</defs>
</svg>
